<svg xmlns="http://www.w3.org/2000/svg" width="470" height="304" viewBox="0 0 470 304">
  <g fill="none" fill-rule="evenodd">
    <path fill="#003961" d="M14.8398502,137.501707 C44.104509,232.66781 127.851596,303.504511 234.480864,304.000317 C341.110131,304.491728 466.052359,221.761419 466.516503,122.204553 C466.97781,22.6476866 354.198211,35.5128412 247.567375,35.019233 C140.938108,34.5240577 -55.4411331,-91.0420454 14.8398502,137.501707"/>
    <path fill="#001C3D" d="M467.867812 130.785188C467.73919 127.152858 465.971421 123.114672 465.356544 119.979085L387.262555 180.937353C419.038481 179.182301 438.637662 183.267497 456.138106 171.311208 459.629725 162.907332 467.028631 141.851414 467.867812 130.785188M41.6541017 196.169633C46.0382321 202.896808 52.4834528 215.937468 60.5756635 215.754128 68.6694428 215.570788 82.2390716 213.160726 82.2390716 213.160726L82.2390716 193.231489 51.5768241 190.586375 41.6541017 196.169633z"/>
    <path fill="#EDF2F7" d="M411.242682,301 L94.7573184,301 C87.7126302,301 82,295.276914 82,288.215821 L82,69.782607 C82,62.723086 87.7126302,57 94.7573184,57 L411.242682,57 C418.28737,57 424,62.723086 424,69.782607 L424,288.215821 C424,295.276914 418.28737,301 411.242682,301"/>
    <path stroke="#FEFEFE" d="M411.242682,301 L94.7573184,301 C87.7126302,301 82,295.276914 82,288.215821 L82,69.782607 C82,62.723086 87.7126302,57 94.7573184,57 L411.242682,57 C418.28737,57 424,62.723086 424,69.782607 L424,288.215821 C424,295.276914 418.28737,301 411.242682,301 Z"/>
    <path fill="#F79A46" d="M311.711582,189.493739 C307.983471,218.568469 283.381722,241.034017 253.564718,241.034017 C250.308141,241.034017 247.113067,240.766439 244,240.251744 L250.685052,251.940188 C251.639158,251.979538 252.60115,252 253.564718,252 C290.902603,252 321.353575,222.281509 323,185 C319.19146,186.710926 315.307222,188.196772 311.711582,189.493739"/>
    <path fill="#F79A46" d="M320.777 186.126C320.969 186.044 321.141 185.948 321.569 185.814 321.281 185.908 320.801 186.066 320.431 186.186L320.777 186.126zM320.262181 185.93876L319.742181 186.02876C319.702181 186.10276 319.942181 186.04076 320.262181 185.93876"/>
    <polygon fill="#F79A46" points="320.834 185.046 321.518 184.876 320.482 185.124"/>
    <path fill="#F79A46" d="M321.358 185.200606C321.922 185.058606 322.29 184.876606 322.642 184.800606 322.528 184.786606 322.038 184.896606 321.598 184.992606 321.848 184.956606 321.8 185.012606 321.358 185.200606M320.678 185.067C320.816 185.039 321.06 184.987 321.322 184.933 321.188 184.953 320.998 184.991 320.678 185.067M320.407 185.849L319.597 186.123 319.593 186.151C319.767 186.093 320.223 185.943 320.407 185.849"/>
    <path fill="#F79A46" d="M319.973,186.039 L319.999,186.029 C320.009,185.997 320.021,185.973 320.027,185.961 C320.021,185.971 320.007,185.993 319.973,186.039"/>
    <path fill="#F79A46" d="M320.033198 185.994868L320.035198 185.986868C319.955198 186.014868 319.929198 186.024868 320.033198 185.994868M319.599 186.825L319.529 186.827C319.197 186.899 318.837 186.989 318.401 187.175 318.829 187.049 319.161 186.951 319.599 186.825M319.379 185.887L318.787 185.989 318.621 186.113C318.837 186.045 319.147 185.937 319.379 185.887"/>
    <polygon fill="#F79A46" points="318.835 186.046 319.105 186 319.165 185.954"/>
    <path fill="#F79A46" d="M319.868492,185.924 C319.720492,186.012 319.644492,186.076 319.658492,186.116 C319.916492,186.042 320.382492,185.918 320.340492,185.884 C319.976492,185.966 319.936492,185.942 319.868492,185.924"/>
    <path fill="#F79A46" d="M320.051179 185.98525L320.003179 185.99325C319.933179 186.01925 319.913179 186.02725 320.051179 185.98525M320.074 184.975C320.03 184.991 319.974 185.011 319.926 185.025L320.068 184.985 320.074 184.975z"/>
    <path fill="#F79A46" d="M319.867946 186.005549C319.719946 186.081549 319.923946 186.039549 320.181946 185.977549 320.091946 185.981549 320.033946 185.973549 320.017946 185.953549 319.903946 185.983549 319.825946 186.007549 319.867946 186.005549M320.186288 184.912748C320.022288 184.982748 319.882288 185.042748 319.752288 185.100748 320.006288 185.006748 320.400288 184.852748 320.186288 184.912748"/>
    <path fill="#F79A46" d="M319.932679,186.021446 C319.946679,186.019446 319.970679,186.015446 319.970679,186.015446 C320.142679,185.953446 320.056679,185.979446 319.932679,186.021446"/>
    <path fill="#F79A46" d="M320.255 185.942C320.133 185.97 319.929 186.016 319.745 186.058 319.815 186.056 319.907 186.044 320.033 186.022 320.089 186 320.177 185.972 320.255 185.942M319.449 185.205L319.553 185.203C319.675 185.133 319.971 185.017 320.551 184.795 320.167 184.863 319.883 184.939 319.631 185.013L319.567 185.179 319.449 185.205z"/>
    <path fill="#F79A46" d="M317.550616,186.169527 C317.275873,186.235005 317.50231,186.277566 317.280402,186.282477 C316.780732,186.37742 316.124066,186.375783 316.273514,186.310305 C316.284081,186.292299 316.512027,186.251375 316.801866,186.200629 L317.550616,186.169527 Z M313.357011,184.106965 C313.338896,184.111876 313.3238,184.116787 313.307195,184.121697 L312.82262,184.133156 C312.864889,184.108602 312.919233,184.085684 312.981126,184.064404 C313.088306,184.075863 313.213601,184.090595 313.357011,184.106965 L313.357011,184.106965 Z M312.833187,183.427629 L313.00226,183.370335 C313.018865,183.375246 313.030942,183.380157 313.044528,183.385068 C312.956973,183.406348 312.870927,183.429266 312.813563,183.439088 C312.799977,183.447272 312.7879,183.45382 312.774314,183.458731 C312.701854,183.458731 312.60826,183.458731 312.50259,183.457094 C313.020375,183.317953 312.972069,183.355603 312.833187,183.427629 L312.833187,183.427629 Z M313.305685,183.134614 C313.349463,183.139525 313.379654,183.14771 313.426451,183.150984 L313.25436,183.150984 L313.305685,183.134614 Z M312.35918,182.731923 C312.478437,182.690999 312.572031,182.659897 312.665624,182.628795 C312.706383,182.635343 312.759218,182.635343 312.796958,182.643528 C312.855831,182.676267 312.587126,182.702458 312.35918,182.731923 L312.35918,182.731923 Z M313.453624,182.100059 C313.46721,182.106607 313.483815,182.113155 313.512497,182.119702 L313.926121,182.124613 C314.155577,182.165537 313.775164,182.162263 313.263417,182.149168 L313.453624,182.100059 Z M314.303516,181.114613 L314.240113,181.091695 L314.209922,181.080237 L314.193317,181.073689 L314.185769,181.070415 L314.182749,181.070415 L314.17973,181.070415 L316.457682,180.864159 C316.427491,180.875617 316.391261,180.89035 316.345974,180.901809 C316.299177,180.918178 316.244832,180.936185 316.185958,180.957465 L316.092365,180.988567 L316.039529,181.0033 L316.015376,181.011484 L316.00179,181.014758 L314.664305,181.139167 C314.785071,181.160447 314.919423,181.185002 315.062833,181.209556 L314.946596,181.183365 L314.917914,181.176817 L314.904327,181.173543 L314.896779,181.171906 L314.89376,181.170269 L315.772334,181.091695 L315.826679,181.076963 C315.693836,181.13753 315.511177,181.198097 315.328519,181.258665 C315.239454,181.242295 315.14586,181.224289 315.062833,181.209556 C315.139821,181.227562 315.222848,181.247206 315.305875,181.266849 C315.283231,181.275034 315.266626,181.281582 315.242473,181.289767 C315.00245,181.27176 314.7896,181.255391 314.68091,181.247206 L314.428811,181.15881 L314.303516,181.114613 Z M313.880834,181.810318 C313.64685,181.874159 313.75403,181.815229 314.012167,181.703916 C314.07406,181.702279 314.052926,181.730107 313.880834,181.810318 L313.880834,181.810318 Z M317.469099,181.687547 C317.390601,181.702279 317.32267,181.713738 317.28644,181.717012 C317.277383,181.715375 317.269835,181.713738 317.260777,181.712101 C317.262287,181.70719 317.278892,181.697368 317.309084,181.684273 L317.469099,181.687547 Z M318.152937,181.972377 C318.121236,181.978924 318.089535,181.985472 318.053305,181.993657 C318.020095,181.978924 317.938577,181.959281 317.795168,181.934727 L317.801206,181.93309 C317.911405,181.941274 318.029152,181.956007 318.152937,181.972377 L318.152937,181.972377 Z M319.49948,182.646802 C319.493442,182.648439 319.485894,182.648439 319.476837,182.648439 L319.291159,182.71228 C319.17945,182.700821 319.060193,182.684452 318.942446,182.669719 C318.968109,182.65335 318.990753,182.638617 319.013396,182.622247 C319.156806,182.628795 319.318331,182.63698 319.49948,182.646802 L319.49948,182.646802 Z M318.033681,184.509656 C318.255589,184.488375 318.4307,184.49656 318.610339,184.501471 C318.569581,184.516203 318.531841,184.529299 318.492592,184.544032 L318.033681,184.509656 Z M318.676761,184.961455 L318.424661,185.04985 C318.228416,185.04985 317.959712,185.054761 317.795168,185.046577 C317.804225,185.041666 317.814792,185.040029 317.825359,185.033481 L318.4307,184.999105 C318.589205,184.951633 318.454853,184.941812 318.242003,184.945085 C318.318991,184.930353 318.389941,184.91562 318.457872,184.904162 L318.485044,184.904162 L318.471458,184.900888 C318.7145,184.859964 318.863948,184.851779 318.676761,184.961455 L318.676761,184.961455 Z M319.150768,185.202087 C319.052645,185.243011 318.933389,185.300304 318.815642,185.355961 C318.542408,185.375604 318.217849,185.395248 317.974807,185.437809 C317.518915,185.406707 317.906876,185.354324 318.406546,185.295394 C318.373336,185.300304 318.340125,185.305215 318.315972,185.306852 C318.347673,185.310126 318.367297,185.316674 318.341635,185.336317 C318.457872,185.300304 318.486554,185.288846 318.489573,185.285572 C318.717519,185.257744 318.957542,185.231552 319.150768,185.202087 L319.150768,185.202087 Z M318.479006,185.491828 C318.402018,185.491828 318.318991,185.491828 318.257098,185.488554 C318.273704,185.482006 318.288799,185.475459 318.303895,185.468911 L318.581657,185.455815 C318.551466,185.468911 318.510707,185.478732 318.479006,185.491828 L318.479006,185.491828 Z M317.89329,185.550758 L318.060853,185.536026 C318.050286,185.5393 318.0367,185.544211 318.024623,185.549122 C317.977826,185.549122 317.955183,185.547485 317.89329,185.550758 L317.89329,185.550758 Z M317.316632,185.734097 C317.257758,185.724276 317.135482,185.719365 317.349842,185.681715 C317.447965,185.67353 317.514386,185.670256 317.586846,185.665345 C317.50231,185.684989 317.407206,185.71118 317.316632,185.734097 L317.316632,185.734097 Z M316.490893,185.789754 C316.545238,185.78648 316.60864,185.78648 316.669023,185.783206 L316.629774,185.80776 L316.702234,185.783206 C316.869797,185.776658 317.028302,185.776658 317.158126,185.776658 C317.03736,185.80776 316.89395,185.850321 316.747521,185.896156 C316.388242,185.897793 316.124066,185.881423 316.490893,185.789754 L316.490893,185.789754 Z M317.585336,182.118066 C317.579298,182.118066 317.576279,182.116429 317.57175,182.114792 C317.627605,182.082053 317.67893,182.047676 317.684969,182.02967 C317.764976,182.02967 317.841965,182.031307 317.905367,182.02967 C317.813283,182.052587 317.706103,182.083689 317.585336,182.118066 L317.585336,182.118066 Z M318.830738,182.867791 C318.815642,182.871064 318.812623,182.869427 318.802056,182.872701 C318.753749,182.867791 318.7145,182.861243 318.672232,182.856332 C318.687328,182.836688 318.729596,182.805586 318.783941,182.77121 C318.943956,182.77121 318.89414,182.746656 318.865458,182.717191 C318.866967,182.715554 318.868477,182.715554 318.869987,182.713917 L319.203603,182.741745 L318.830738,182.867791 Z M317.665344,182.928358 L317.550616,182.908714 L317.595903,182.90053 C317.64572,182.902167 317.694026,182.90544 317.742332,182.907077 C317.71516,182.913625 317.691007,182.920173 317.665344,182.928358 L317.665344,182.928358 Z M318.060853,184.624242 C318.125765,184.624242 318.192186,184.624242 318.257098,184.625879 C318.149918,184.663529 318.041229,184.70609 317.935558,184.740466 C317.681949,184.740466 317.487214,184.729007 317.475137,184.702816 C317.906876,184.648797 318.166524,184.696268 318.060853,184.624242 L318.060853,184.624242 Z M318.648079,184.486738 C318.524293,184.476917 318.337106,184.468732 318.276723,184.447451 C318.281252,184.445814 318.28578,184.444177 318.288799,184.444177 C318.457872,184.44254 318.625435,184.439267 318.791489,184.43763 C318.743182,184.457273 318.696385,184.470369 318.648079,184.486738 L318.648079,184.486738 Z M319.790829,184.105328 C320.051986,183.976009 319.947825,184.025117 319.825549,184.095506 C319.813472,184.09878 319.805924,184.100417 319.790829,184.105328 L319.790829,184.105328 Z M318.303895,185.554032 C318.270684,185.549122 318.205773,185.545848 318.115198,185.547485 C318.130294,185.540937 318.14388,185.534389 318.161995,185.527841 L318.439757,185.504924 C318.397489,185.521293 318.350692,185.536026 318.303895,185.554032 L318.303895,185.554032 Z M317.772524,186.541116 C317.766486,186.54439 317.761957,186.54439 317.755919,186.547664 C317.712141,186.550937 317.657796,186.557485 317.603451,186.562396 C317.701574,186.536205 317.811773,186.510014 317.772524,186.541116 L317.772524,186.541116 Z M312.375786,186.56567 L312.564483,186.526383 C312.775824,186.54439 312.585617,186.554211 312.375786,186.56567 L312.375786,186.56567 Z M320.436928,185.0875 L320.439947,185.0875 L320.42938,185.090774 C320.352391,185.12024 320.307104,185.138246 320.349372,185.116966 C320.341824,185.118603 320.335786,185.118603 320.335786,185.118603 C320.24974,185.146431 320.174261,185.169348 320.100292,185.192266 C320.219549,185.118603 320.260307,185.133335 320.335786,185.118603 L320.42938,185.090774 L320.436928,185.0875 L320.065572,185.094048 C319.987074,185.144794 320.011227,185.166074 320.097273,185.193902 C319.49948,185.37233 319.206622,185.418165 318.60732,185.642428 C318.00198,185.676804 318.305405,185.616237 318.352202,185.575313 C318.42919,185.549122 318.507688,185.521293 318.589205,185.493465 L318.60883,185.491828 L318.593734,185.491828 C318.632983,185.477096 318.672232,185.462363 318.711481,185.449267 L319.100952,185.431261 C318.306914,185.44272 319.78479,185.269202 319.351542,185.25447 C319.363618,185.298668 319.223228,185.319948 319.019435,185.339591 C319.383243,185.208635 319.733465,185.080953 320.017265,184.971277 C319.85876,185.023659 319.694216,185.071131 319.513066,185.115329 C319.516086,185.107144 319.507028,185.098959 319.484385,185.092411 C319.587036,185.10387 319.060193,185.197176 318.728086,185.188992 C318.871496,185.149705 319.14322,185.094048 319.519105,185.051487 C319.378714,184.971277 318.882063,185.085863 318.459382,185.095685 L318.489573,185.084227 C318.670722,185.061309 318.672232,185.053124 318.565052,185.04985 L318.632983,185.022022 C319.094914,184.928716 320.053495,184.68481 319.793848,184.845231 C320.658836,184.524388 319.688177,184.863238 320.696575,184.476917 C319.436078,184.938538 320.701104,184.283756 319.383243,184.794486 C320.557694,184.350871 319.863288,184.542395 320.85659,184.141341 C320.566751,184.239558 320.305595,184.349234 320.433909,184.244469 C320.346353,184.269023 320.237664,184.298489 320.172752,184.318132 L320.192376,184.306673 L320.159166,184.321406 C320.115388,184.332865 320.10633,184.336138 320.147089,184.326317 C320.021794,184.377062 319.872346,184.43763 319.712331,184.501471 C319.553825,184.548943 319.436078,184.575134 319.337956,184.594777 C319.297197,184.576771 319.218699,184.562038 319.21417,184.550579 C319.186998,184.560401 319.149258,184.573497 319.045098,184.583319 L318.96509,184.578408 C319.064722,184.550579 319.18096,184.519477 319.318331,184.463821 L318.869987,184.570223 L318.844324,184.568586 C318.974147,184.524388 319.097933,184.478553 319.209641,184.434356 C319.431549,184.434356 319.624775,184.439267 319.747051,184.453999 L319.298707,184.401617 C319.342484,184.38361 319.381733,184.367241 319.425511,184.349234 C319.641381,184.332865 319.872346,184.314858 320.011227,184.319769 C320.166713,184.295215 319.949334,184.27066 319.706292,184.242832 C319.808944,184.206819 319.908576,184.17408 320.002169,184.147889 L320.119917,184.151163 C320.118407,184.142978 320.095763,184.139704 320.065572,184.13643 C320.124445,184.121697 320.183319,184.103691 320.242192,184.097143 L320.25125,184.015295 C320.450514,183.923626 320.566751,183.853237 320.586376,183.815587 C320.655816,183.817224 320.732805,183.818861 320.847533,183.818861 C320.883763,183.802491 320.687518,183.781211 320.725257,183.763204 C320.776583,183.7763 320.689027,183.786122 320.584866,183.79267 C320.568261,183.787759 320.525993,183.791033 320.467119,183.799217 C320.461081,183.799217 320.453533,183.800854 320.447495,183.800854 C320.568261,183.725555 319.707802,183.953091 320.221058,183.815587 L319.78781,183.83523 L319.949334,183.781211 C319.990093,183.669898 319.254929,183.810676 319.534201,183.610968 L319.538729,183.610968 C319.587036,183.615879 319.618737,183.619153 319.661005,183.622426 C319.513066,183.689542 319.473817,183.715733 319.75007,183.632248 C320.444476,183.701 320.243702,183.725555 321,183.702637 C319.941786,183.673172 319.920652,183.624063 319.867817,183.573318 C320.011227,183.499655 320.098782,183.447272 320.116897,183.421081 C320.026323,183.462005 319.923671,183.50784 319.830078,183.547127 C319.807434,183.534031 319.769695,183.524209 319.706292,183.511114 C319.774223,183.475101 319.840645,183.440725 319.944806,183.393253 C319.796867,183.407985 319.633833,183.424355 319.692706,183.350692 L319.728936,183.352329 L319.75007,183.344144 L319.700254,183.342507 C319.710821,183.332686 319.709312,183.327775 319.727426,183.314679 L319.925181,183.24429 C320.128974,183.309768 320.384093,183.021664 320.506368,182.962734 C320.586376,182.956186 320.692046,182.952912 320.862628,182.952912 C320.790169,182.949638 320.670912,182.946364 320.53505,182.94309 L320.53505,182.941453 C320.497311,182.910351 320.462591,182.897256 320.42787,182.875975 C320.42938,182.874338 320.432399,182.874338 320.433909,182.872701 L320.488253,182.874338 L320.441456,182.869427 C321.528352,182.440545 320.494292,182.605878 320.722238,182.443819 L320.048966,182.663171 C320.024813,182.659897 320.005189,182.656623 319.970468,182.65335 C319.935748,182.630432 319.833097,182.627158 319.685158,182.635343 C319.482875,182.623884 319.2504,182.610789 319.058684,182.591145 C319.129634,182.542037 319.176431,182.499476 319.152278,182.479832 C319.401358,182.404533 319.343994,182.450367 319.199074,182.517482 C320.628644,181.91672 318.065382,182.622247 319.100952,182.162263 C318.85791,182.214646 318.933389,182.167174 319.090385,182.095148 C319.090385,182.095148 319.105481,182.095148 319.125105,182.091874 C319.132653,182.086963 319.129634,182.078779 319.129634,182.078779 C319.239833,182.028033 319.365128,181.972377 319.46476,181.926542 C319.310783,181.99202 319.185488,182.04604 319.126615,182.072231 C319.1085,182.055861 319.017925,182.052587 318.847343,182.075505 L319.540239,181.831599 L319.517595,181.831599 C319.765166,181.717012 319.182469,181.91672 318.663175,182.10497 C318.545428,182.132798 318.405037,182.1639 318.232945,182.204824 C318.507688,182.106607 318.620906,182.060772 318.657136,182.037855 C318.67978,182.041129 318.696385,182.044403 318.720538,182.047676 C318.696385,182.041129 318.681289,182.037855 318.658646,182.031307 C318.664684,182.024759 318.649588,182.023122 318.622416,182.024759 C318.599772,182.018211 318.574109,182.011663 318.552975,182.006753 C318.593734,181.980561 318.720538,181.928179 319.019435,181.82014 C318.681289,181.918357 318.568071,181.903625 318.303895,181.946185 C318.18011,181.913446 318.089535,181.890529 317.985374,181.867612 L318.338615,181.74484 L317.924991,181.852879 C317.873666,181.84142 317.814792,181.828325 317.748371,181.815229 C317.899328,181.759573 318.056325,181.70719 318.238983,181.653171 L318.317481,181.662992 L318.243512,181.651534 C318.367297,181.615521 318.498631,181.577871 318.655627,181.538584 C318.417113,181.590966 318.270684,181.618794 318.165014,181.640075 L318.10765,181.630253 L318.00047,181.615521 L317.974807,181.61061 L317.924991,181.615521 L318.149918,181.643349 C317.854041,181.697368 317.938577,181.658081 317.487214,181.757936 C317.469099,181.754662 317.454003,181.753025 317.432869,181.748114 L317.60949,181.69082 L317.742332,181.694094 C317.710631,181.692457 317.674401,181.684273 317.641191,181.682636 L317.746861,181.646623 C317.737804,181.638438 317.656287,181.653171 317.561183,181.671177 C317.527973,181.667903 317.490233,181.661355 317.455513,181.656444 L317.355881,181.666266 C317.369467,181.659718 317.375505,181.656444 317.39513,181.64826 C316.880364,181.592603 316.353521,181.49766 315.850832,181.386347 L315.971598,181.374888 C316.471268,181.464921 316.992073,181.551679 317.463061,181.613884 C317.354371,181.592603 317.259268,181.568049 317.207942,181.548405 C317.328708,181.566412 317.423812,181.581145 317.511367,181.595877 C317.517405,181.59424 317.521934,181.590966 317.527973,181.587692 C317.457022,181.57296 317.3589,181.553316 317.248701,181.532036 L317.564202,181.571323 C318.320501,181.217741 317.512877,181.199734 318.406546,180.710285 C316.733935,181.304499 319.135672,180.373072 317.829888,180.79868 C318.223888,180.654628 318.441267,180.553137 318.797527,180.469653 C318.377864,180.504029 319.386262,180.116071 318.267665,180.413996 C318.669213,180.286314 318.854891,180.22902 319.090385,180.15372 C319.002829,180.175001 318.737144,180.237205 318.971128,180.14881 C319.205113,180.060414 319.309274,180.050592 319.487404,180.009669 C319.3923,179.932732 318.163504,180.328875 317.010188,180.703737 C317.090195,180.667724 317.156617,180.638259 317.207942,180.615342 L313.397769,180.957465 C313.083777,180.955828 313.239264,181.004937 313.898949,181.130982 C313.506459,181.096606 313.092835,181.073689 312.959992,180.985293 C312.899609,181.014758 312.36069,181.155536 313.319271,181.281582 C313.07472,181.263575 313.242283,181.329054 313.350972,181.350334 C313.284551,181.432182 313.196996,181.430545 313.278513,181.528762 L313.438528,181.522214 C314.591845,181.689184 313.690627,181.622068 313.82347,181.70719 L313.704214,181.69082 C312.854322,181.76121 314.098213,181.800496 313.132084,181.861064 L313.852152,181.923268 C313.942727,181.93309 314.015186,181.941274 314.080098,181.949459 C314.634113,181.818503 315.115668,181.718649 315.342105,181.721923 C315.129254,181.780853 314.940557,181.838146 314.759408,181.89544 L314.113309,181.95437 C314.720159,182.028033 314.107271,182.021485 313.707233,182.037855 C313.814413,182.0133 313.923102,181.985472 314.027263,181.960918 L312.848283,182.065683 L312.727517,182.134435 C312.200675,182.118066 311.691947,182.10497 311.60892,182.122976 C311.471549,182.122976 311.391541,182.086963 311.293419,182.060772 C310.369558,182.131161 312.238414,182.157352 312.452774,182.27685 C311.941027,182.257207 311.156047,182.150805 311.056415,182.216283 C310.639772,182.227741 312.700345,182.5404 311.714591,182.571502 C312.021035,182.571502 312.312383,182.584597 312.572031,182.617337 C312.511648,182.648439 312.473908,182.676267 312.353142,182.731923 C312.058774,182.77121 311.841395,182.815408 312.53882,182.889071 C312.43164,182.889071 312.328989,182.887434 312.229357,182.887434 C312.517686,182.952912 312.732046,183.064225 313.264927,183.129703 C313.243792,183.136251 313.221149,183.142799 313.201524,183.149347 C312.150859,183.144436 312.555425,183.245927 312.879984,183.334322 L312.478437,183.457094 C312.427111,183.455457 312.387862,183.455457 312.328989,183.45382 L312.356161,183.493107 L312.28974,183.514387 C312.321441,183.504566 312.328989,183.502929 312.357671,183.494744 L312.448245,183.627337 L312.212751,183.617516 C312.078399,183.712459 312.478437,183.758294 312.946406,183.797581 C312.922253,183.805765 312.89508,183.815587 312.875456,183.823772 C312.798467,183.820498 312.722988,183.815587 312.670153,183.81395 C312.294268,183.938359 312.297288,183.979282 312.919233,184.056219 C312.750161,184.080774 312.71544,184.079137 311.951594,184.349234 C311.643641,184.530936 312.686759,184.138067 312.492023,184.255928 C312.232376,184.331228 311.9682,184.426171 312.344084,184.506382 C312.328989,184.511293 312.309364,184.51784 312.292759,184.522751 C312.21879,184.522751 312.140292,184.519477 312.072361,184.51293 C312.138782,184.524388 312.178031,184.537484 312.203694,184.550579 C312.036131,184.589866 311.918384,184.607873 311.898759,184.601325 L311.669303,184.832136 C311.433809,184.927079 311.454944,184.995831 312.655057,184.979461 C312.489004,185.048214 312.412015,185.085863 312.655057,185.005653 C312.676191,184.999105 312.709402,184.986009 312.730536,184.977825 L312.733555,184.977825 L313.409846,185.061309 C313.615148,184.909072 314.593354,185.026933 315.041699,184.948359 C315.204733,184.99092 314.226527,185.12515 314.084627,185.06622 L314.218979,185.04985 C312.799977,185.095685 313.725348,185.251196 312.759218,185.300304 C312.839226,185.583498 312.078399,185.930532 312.03915,186.223547 L313.136613,186.087679 L313.082268,186.185897 C312.828659,186.236642 312.224828,186.307031 312.264077,186.231731 C311.643641,186.329949 312.795448,186.29721 313.035471,186.272655 C312.602222,186.45272 311.749311,186.351229 311.725158,186.39379 L311.814223,186.444535 L311.941027,186.416707 C312.392391,186.416707 312.870927,186.370873 312.82413,186.457631 C312.60826,186.532931 312.147839,186.559122 312.107081,186.585314 C312.030092,186.593498 311.993863,186.60332 312.078399,186.61969 L311.996882,186.75392 L312.85885,186.60332 C313.290589,186.606594 312.82413,186.721181 313.800826,186.549301 C312.294268,186.811213 313.307195,187.056756 312.842245,187.166432 C313.480796,187.150063 313.477777,187.222089 313.414375,187.321943 C313.590995,187.272834 314.560144,187.11405 314.451454,187.204082 C312.446736,187.485638 313.600053,187.475817 312.170483,187.773742 C313.116988,187.559301 312.437678,187.960355 313.778183,187.641149 C313.625716,187.731181 313.030942,187.772105 312.569011,187.901425 C313.364559,187.919431 312.120667,188.338491 312.412015,188.490728 C312.674682,188.439983 313.068682,188.330307 313.462681,188.295931 L312.175012,188.657698 C312.310874,188.67243 313.687608,188.384326 312.795448,188.641328 C313.012827,188.584035 313.340405,188.503824 313.42947,188.508735 C312.229357,189.171701 314.600902,188.99491 312.319931,189.975446 C312.807525,189.792107 312.864889,189.813387 312.893571,189.8494 C313.006789,189.792107 313.529103,189.680794 313.879324,189.584214 L312.944896,190 C313.918573,189.764279 313.049057,190.1506 313.975937,189.909968 L313.799317,189.908331 C314.905837,189.666061 316.207092,189.148784 317.612509,188.778832 C316.355031,189.050567 319.419473,188.135509 317.614018,188.508735 C317.896309,188.415428 318.07142,188.410517 318.395979,188.313937 C317.78762,188.44653 317.654777,188.448167 317.914424,188.325396 L318.065382,188.295931 C317.887252,188.179707 318.469949,187.966903 318.833757,187.716449 L318.136332,187.888329 C318.223888,187.829399 318.441267,187.772105 318.614868,187.716449 C317.546087,187.91452 318.5726,187.831036 317.396639,188.060209 C318.811113,187.688621 317.369467,187.790112 318.986224,187.413612 C318.984714,187.356319 318.177091,187.600225 318.175581,187.542932 L318.613358,187.43653 L318.044248,187.541295 C318.130294,187.482364 318.676761,187.353045 319.049626,187.277745 C319.005849,187.294115 319.156806,187.277745 319.190017,187.281019 C319.700254,187.133693 318.992262,187.192624 319.158316,187.141878 L318.895649,187.246643 C318.460891,187.177891 319.008868,186.897972 318.091045,186.907794 L317.758938,186.974909 C317.126425,186.96345 318.113688,186.822672 317.810263,186.744098 L317.890271,186.735913 C317.553635,186.763742 317.381544,186.755557 317.416264,186.714633 C317.810263,186.685168 318.168033,186.539479 318.60732,186.514925 C318.21634,186.503466 318.094064,186.513288 317.829888,186.539479 C317.89329,186.514925 317.953673,186.500192 318.020095,186.465816 L317.932539,186.487096 C318.078968,186.405249 318.513726,186.220273 318.779412,186.117145 C318.35673,186.272655 317.991413,186.406886 317.556654,186.567307 C317.381544,186.585314 317.152088,186.604957 316.82451,186.631148 L317.377015,186.531294 C316.871306,186.573855 316.605621,186.608231 316.454663,186.560759 C316.937728,186.549301 317.297007,186.403612 317.932539,186.37742 C318.943956,186.133514 317.373996,186.271018 317.909896,186.153158 L318.783941,186.113871 C318.782431,186.115508 318.780922,186.115508 318.779412,186.117145 C318.780922,186.115508 318.783941,186.115508 318.78545,186.113871 L319.330408,186.089316 C319.3923,186.074584 319.460231,186.05494 319.517595,186.043482 L318.89414,186.072947 C318.925841,186.061488 318.949994,186.051666 318.983205,186.041845 C318.971128,186.043482 318.924331,186.061488 318.891121,186.072947 L318.118217,186.112234 C318.210301,186.095864 318.315972,186.077858 318.454853,186.05494 C318.341635,186.064762 318.263137,186.072947 318.172562,186.082769 C318.284271,186.05494 318.480516,185.987825 318.632983,185.941991 L318.303895,185.955086 L317.952164,186.104049 C317.879704,186.113871 317.828378,186.120419 317.774034,186.128603 L317.004149,186.166253 C317.558164,186.07131 318.220868,185.95836 318.196715,185.901067 C318.190677,185.912525 318.306914,185.89943 318.302386,185.910888 C318.690347,185.829041 317.761957,185.892882 318.397489,185.776658 C317.666854,185.832315 318.097083,185.760289 317.7529,185.779932 C317.846493,185.750467 317.941597,185.716091 318.041229,185.683352 C318.077459,185.716091 318.060853,185.761926 318.533351,185.742282 C318.969619,185.675167 317.983865,185.709543 318.580148,185.65225 C318.559014,185.660434 318.546937,185.663708 318.525803,185.671893 C318.554485,185.69481 318.666194,185.670256 318.800546,185.634243 C318.853381,185.630969 318.885082,185.627695 318.953013,185.621148 C318.89263,185.626058 318.868477,185.627695 318.817151,185.630969 C318.986224,185.583498 319.186998,185.52293 319.339465,185.496739 C319.155297,185.439446 319.694216,185.411617 320.026323,185.218457 C320.136522,185.203724 320.175771,185.211909 320.205962,185.221731 C320.278422,185.180807 320.367487,185.131698 320.474667,185.072768 L320.436928,185.0875 Z"/>
    <polygon fill="#F79A46" points="319.75 185.094 320.624 184.844 319.376 185.156"/>
    <polygon fill="#F79A46" points="319.62 185.113 320.38 184.887 319.912 184.989"/>
    <path fill="#F79A46" d="M319.381847 182.235795C320.075847 181.973795 321.155847 181.587795 320.305847 181.853795L319.481847 182.119795C319.639847 182.107795 319.553847 182.159795 319.381847 182.235795M319.946019 184.089212C320.292019 183.945212 320.496019 183.837212 319.908019 183.973212 319.828019 184.009212 319.788019 184.027212 319.720019 184.055212 319.868019 184.043212 319.988019 184.037212 319.946019 184.089212M319.044953 187.986C319.006953 187.996 318.990953 188.002 318.944953 188.014 319.060953 187.992 319.066953 187.988 319.044953 187.986M312.055561 190.023C311.999561 190.021 311.991561 189.995 311.975561 189.977 311.921561 190.001 311.931561 190.019 312.055561 190.023M319.995799 184.977584C319.961799 185.001584 319.943799 185.015584 319.923799 185.027584 320.061799 184.991584 320.147799 184.959584 319.995799 184.977584"/>
    <path fill="#F79A46" d="M320.064 184.991C320.048 184.985 320.028 184.979 320.008 184.963 320.024 184.975 319.99 185.005 319.936 185.037 319.992 185.017 320.036 185.001 320.064 184.991M312.007 184.002L312.035 183.988 311.965 184.012C311.965 184.012 311.995 184.004 312.007 184.002M313.013 181.992C312.987 181.998 312.967 182.002 312.943 182.008L313.057 181.998C313.045 181.996 313.029 181.994 313.013 181.992M316.923 181.995C316.893 181.991 316.839 181.983 316.803 181.977 316.751 181.999 316.721 182.017 316.659 182.039 316.655 182.039 316.653 182.041 316.649 182.041 316.677 182.045 316.705 182.049 316.729 182.051L317.351 182.001 316.875 181.949C316.859 181.953 316.843 181.961 316.825 181.967 316.941 181.989 316.997 182.003 316.923 181.995"/>
    <polygon fill="#F79A46" points="311.967 183.01 312.003 183.006 312.033 182.99"/>
    <path fill="#F79A46" d="M320.272,184.921798 L320.012,184.929798 C320.066,184.947798 319.868,185.019798 319.728,185.079798 C319.942,185.013798 320.25,184.905798 320.272,184.921798"/>
    <path fill="#F79A46" d="M319.573567,185.126081 C319.379567,185.210081 320.569567,184.836081 320.257567,184.946081 C321.253567,184.668081 319.017567,185.168081 319.573567,185.126081"/>
    <polygon fill="#F79A46" points="312.068 189.931 311.674 190.109 312.326 189.891"/>
    <path fill="#F79A46" d="M311.374,190.172 L312.522,189.918 C312.462,189.916 312.346,189.914 312.626,189.828 L311.374,190.172 Z"/>
    <path fill="#0AC2F0" d="M194.886484,181.973482 C194.886484,191.853448 197.330517,201.164591 201.646779,209.334955 C209.180042,223.599401 202.026927,233.89619 191.653643,213.716301 C190.834741,212.122657 190.07603,210.492971 189.379092,208.831946 C185.914995,200.567562 184,191.493037 184,181.973482 C184,168.389116 187.898099,155.712046 194.63622,145 L208,145 C199.801478,155.096213 194.886484,167.961323 194.886484,181.973482"/>
    <path fill="#0AC2F0" d="M213.575138,230.01029 C213.539733,229.961453 213.526859,229.909466 213.505937,229.855903 C213.036015,229.800764 212.564482,229.646377 212.120309,229.446303 C212.030187,229.462057 211.938455,229.463632 211.851552,229.452604 C211.743727,229.447878 211.643949,229.41637 211.550608,229.358081 C211.524859,229.339177 211.499109,229.318697 211.471751,229.299792 C211.405769,229.299792 211.338177,229.299792 211.272195,229.280887 C211.169198,229.254106 211.127355,229.2289 211.06942,229.194241 C211.027577,229.164309 210.980907,229.143829 210.934236,229.121774 C210.834458,229.08554 210.729852,229.063484 210.625246,229.046155 C210.575357,229.038278 210.523859,229.038278 210.47236,229.030401 C210.350052,229.009921 210.251883,228.961085 210.132793,228.912248 C210.041061,228.861835 209.965423,228.795669 209.909097,228.709023 C209.836677,228.633405 209.788397,228.542032 209.764257,228.441208 C209.732071,228.302574 209.732071,228.16079 209.764257,228.022156 C209.801272,227.85674 209.920362,227.713381 210.053936,227.614131 C210.129574,227.543239 210.221306,227.495978 210.325912,227.472347 C210.396722,227.462894 210.467532,227.453442 210.539952,227.44399 C210.617199,227.451867 210.694447,227.472347 210.773304,227.481799 L210.776523,227.481799 L210.773304,227.481799 L210.778132,227.481799 C210.885957,227.483374 210.993781,227.480224 211.103216,227.477073 C211.21265,227.418784 211.328521,227.379399 211.452439,227.392002 C212.091341,227.456593 212.677135,227.658242 213.277413,227.85359 C213.280632,227.855165 213.282241,227.85359 213.28546,227.855165 C213.322474,227.869344 213.35627,227.87722 213.391675,227.889824 C213.459267,227.828384 213.541342,227.782697 213.633074,227.746464 C213.555826,227.664544 213.485016,227.576322 213.407769,227.497553 C212.887957,226.971375 212.335958,226.47828 211.771085,226.000938 C211.64073,225.890661 211.573138,225.742575 211.550608,225.585037 C211.392894,225.498391 211.231962,225.407019 211.074248,225.317222 C211.156323,224.584668 211.030796,223.822182 210.792616,223.114835 C210.71215,222.876952 210.675135,222.708386 210.52064,222.513038 C210.061982,221.942749 209.493891,221.561507 208.761648,221.260608 C208.751992,221.092042 208.660261,220.943956 208.402769,220.844707 C208.341614,220.819501 208.277241,220.808473 208.214478,220.787993 C208.085732,220.581618 207.887785,220.390996 207.693057,220.23976 C207.557873,220.20195 207.421081,220.164141 207.284288,220.127907 C207.297163,220.020781 207.311647,219.924683 207.330958,219.823858 C207.35188,219.74824 207.372801,219.672621 207.396941,219.598578 C207.548217,219.411108 207.527296,219.261446 207.334177,219.146443 C207.176463,218.957397 206.941502,218.864449 206.622856,218.864449 C206.592278,218.858148 206.556873,218.859723 206.524687,218.854997 C206.338005,218.528893 206.272023,218.160253 206.23179,217.805791 C206.20765,217.588388 205.851989,217.473385 205.470579,217.411946 C205.448049,217.003921 205.477016,216.58802 205.523687,216.192598 C205.571967,215.767245 203.961033,215.726285 203.845161,215.723134 C203.540999,215.715257 203.215915,215.756217 202.897269,215.776697 C202.910144,215.634913 202.898878,215.488402 202.857036,215.341891 C202.620465,214.530568 201.959033,213.772809 201.233227,213.188341 C200.343271,212.473117 199.290772,211.783099 198.099872,211.412884 C197.245321,211.149795 196.064076,210.814238 195.129059,211.124589 C194.522343,211.326238 194.161854,211.696453 194.037936,212.200576 C193.899535,212.777166 194.176338,213.375812 194.284163,213.957129 C194.248758,214.524267 194.116793,215.088254 194.255195,215.658543 C194.416128,216.317054 194.886051,216.99762 195.277116,217.591539 C195.455752,217.865656 195.664964,218.12717 195.858083,218.39656 C195.755086,219.322886 195.710025,220.321679 196.471235,221.092042 C196.585497,221.285814 196.773788,221.394516 197.03128,221.422873 C197.148761,221.460682 197.272679,221.481162 197.393378,221.504793 C197.489938,221.57411 197.605809,221.624522 197.721681,221.67651 C197.65087,222.032546 197.607419,222.388583 197.642824,222.747771 C197.660526,222.941543 197.683057,223.143192 197.7941,223.32121 C197.935721,223.549641 198.140105,223.686699 198.386332,223.782798 C198.368629,223.845813 198.330005,223.899376 198.331615,223.967118 C198.65348,224.379868 199.062248,224.759536 199.530562,225.068311 C199.588497,225.091942 199.648042,225.101394 199.705978,225.120299 C199.828287,225.325099 199.96347,225.526748 200.137277,225.72052 C200.183947,225.772508 200.229009,225.82292 200.27407,225.871757 C200.208087,226.065529 200.183947,226.25615 200.230618,226.434169 C200.338443,226.846919 200.447877,227.299055 200.732727,227.66927 C201.286335,228.386069 202.116746,228.909097 203.154761,229.151706 C203.423518,229.213146 203.695494,229.258832 203.969079,229.298217 C203.99,229.3313 204.020578,229.361232 204.036671,229.39589 C204.216915,229.762955 204.429346,230.041798 204.807537,230.353724 C205.147105,230.634142 205.530124,230.824764 205.935674,230.983877 C206.140058,231.146142 206.357317,231.298954 206.63573,231.420259 C207.322912,231.719582 208.158151,231.951163 208.933846,232 L208.953158,232 C208.698884,231.360394 209.35227,230.643595 210.082904,231.020111 C210.552827,231.25957 210.97447,231.568345 211.400941,231.875545 C211.503937,231.85664 211.602106,231.837735 211.705103,231.817255 C211.676135,231.639237 211.692228,231.465945 211.780741,231.32101 C211.87891,230.930314 212.313428,230.656198 212.775304,230.722364 C213.013484,230.757022 213.230743,230.837367 213.444783,230.930314 C213.557436,230.763324 213.721587,230.649896 213.943674,230.596333 C213.956548,230.567976 213.979079,230.533318 214,230.50181 C213.847114,230.352148 213.702275,230.193035 213.575138,230.01029"/>
    <polygon fill="#E18336" points="314 183 319.091 192 323 184.859"/>
    <path fill="#0AC2F0" d="M197.563294,199.887474 C195.825423,194.311539 194.886973,188.379927 194.886973,182.226411 C194.886973,168.118964 199.800408,155.165105 208,145 L194.634191,145 C187.897571,155.786752 184,168.550182 184,182.226411 C184,191.061664 185.638338,199.503469 188.611678,207.28271 C188.812323,207.808355 195.147653,211 195.147653,211 C195.147653,211 197.702324,200.332856 197.563294,199.887474"/>
    <polygon fill="#0A819D" points="195.562 198 196 206.564 194.952 211 188.211 207.186 186 200.68"/>
    <path fill="#FEFEFE" d="M82,81 L82,69.8773921 C82,62.7648146 87.7126302,57 94.7573184,57 L411.242682,57 C418.28737,57 424,62.7648146 424,69.8773921 L424,81 L82,81 Z"/>
    <path fill="#00B37E" d="M253.537252 112C280.337332 112 303.56991 127.527529 315 150.213474L308.306239 162C300.196429 139.230395 278.735085 122.96098 253.537252 122.96098 237.35675 122.96098 222.719037 129.66795 212.165176 140.497916L198 140.497916C210.569188 123.21038 230.764694 112 253.537252 112M121 70.0007406C121 71.656628 119.65696 73 118 73 116.34304 73 115 71.656628 115 70.0007406 115 68.343372 116.34304 67 118 67 119.65696 67 121 68.343372 121 70.0007406"/>
    <path fill="#064975" d="M111 70.0007406C111 71.656628 109.65696 73 108 73 106.34304 73 105 71.656628 105 70.0007406 105 68.343372 106.34304 67 108 67 109.65696 67 111 68.343372 111 70.0007406M100 70.0007406C100 71.656628 98.6569595 73 97 73 95.3430405 73 94 71.656628 94 70.0007406 94 68.343372 95.3430405 67 97 67 98.6569595 67 100 68.343372 100 70.0007406"/>
    <path fill="#BBD7DF" d="M424,157.268523 L424,167.222965 C424,167.222965 397.349015,168.966797 387.821481,168.304423 C378.293947,167.642049 340.251448,164.994124 340.251448,164.994124 C340.251448,164.994124 336.492028,169.407856 331.625231,170.953918 C326.760006,172.49841 322.679699,184.954803 322.679699,184.954803 L318.018962,187 L314,178.709341 L315.162432,169.407856 L316.453847,161.567674 L382.718737,148 L424,157.268523 Z"/>
    <path fill="#9A3420" d="M332.91147,139.032591 C332.91147,139.032591 327.927367,133.300921 322.227255,133.00768 C316.528697,132.712942 320.111846,141 320.111846,141 L333,140.622976 L332.91147,139.032591 Z"/>
    <path fill="#FBDAA1" d="M324.984884,174.0004 C325.233695,176.757251 322.358727,181.813858 320.207719,185.162709 C319.132214,186.838722 317.063072,187.44342 316.42098,186.66255 C313.931268,183.632712 309.248811,177.676201 309,175.443104 L309,175.397077 C309,175.397077 310.219975,175.620863 312.053148,176.063673 C313.889532,176.506483 315.461052,175.171704 316.148091,175.074889 C316.833524,174.976487 318.560752,176.014472 320.080905,175.924006 C321.308907,175.852585 321.329775,174.895543 322.294518,174.433687 C323.259261,173.970244 324.984884,174.0004 324.984884,174.0004"/>
    <path fill="#F79A46" d="M320 185C319.072423 186.310133 318.273769 187.346821 317.888674 187.836618 317.731288 188.036444 317.555483 188.05297 317.398097 187.886199 317.12853 187.597729 316.649673 187.08239 316.050264 186.418309 316.050264 186.418309 315.718747 186.281587 316.758504 186.008141 317.798261 185.734696 320 185 320 185M309.17909 175.096261L309.17909 175.096261 303.902787 119.750878C303.686844 117.375204 302.119673 115.047982 303.693196 113.470972 304.96821 112.192484 317.472239 111.364124 319.02512 112.630109 320.600231 113.914848 319.522106 116.202997 319.717407 118.36611L324.99371 173.711493C325.362083 177.793901 309.428377 177.859545 309.17909 175.096261"/>
    <path fill="#B63F25" d="M339.929614,139.114311 C335.956189,138.759284 332.721176,138.245596 327.860105,138.349276 C321.08694,137.292053 312.437436,138.742004 305.928544,141.257034 C305.833717,140.243796 305.656498,138.328855 305.656498,138.328855 C305.656498,138.328855 300.790764,140.520277 300.4612,142.505909 C298.738761,152.891207 292.054205,173.870734 333.335222,164.764158 C336.977527,164.204914 337.495192,160.635802 341.725116,160.799177 C342.547472,153.422175 341.400216,142.587596 339.929614,139.114311"/>
    <path fill="#F2E2CA" d="M462.214158,85.4235805 C462.029004,85.2714053 461.821884,85.1443311 461.630455,85 C456.273569,90.7622639 451.180291,96.3817655 447.646692,100.59247 C436.148374,114.294515 430.016356,124.565558 408.656285,127.982441 C387.297782,131.400893 344.193212,135.31666 337.836813,140.59259 C335.420409,145.385326 339.005788,161.577083 339.005788,161.577083 L390.577188,163 C424.728511,161.111145 446.373727,164.146066 464.766642,148.864222 C469.955635,134.691532 471.327453,115.4021 468.696083,101.973028 C467.781302,97.3010921 464.872202,91.4713691 462.214158,85.4235805 Z"/>
    <polygon fill="#064975" points="244.364 210 220 185.111 232.182 172.666 244.364 185.111 274.82 154 287 166.445"/>
    <path fill="#BBD7DF" d="M83,203.684761 C83,203.684761 159.539016,195.915316 161.635608,191.562774 C167.202369,193.453111 175.420192,201.643514 182.313272,200.277388 C183.311949,206.340765 189,207 189,207 L184.794213,194.496768 L186.975867,178 L135.974009,180.508271 L83,192.97179 L83,203.684761 Z"/>
    <path fill="#FCE7EC" d="M59.299105,162.705064 C92.6690977,161.946876 135.064756,160.433621 144.220774,161.995238 C148.110903,162.658263 157.497784,164.535011 160.37337,165.931263 C159.162515,167.856373 158.782453,176.343085 161,188.291564 C157.26535,189.230719 152.663784,191.010744 144.297728,192.177667 C144.297728,192.177667 114.210081,197.484982 83.7046814,200.099638 C68.8556,201.372645 46.3880212,202.33052 41.8477045,195.406986 C30.0328299,180.01234 18.0093521,147.566337 15,137 C34.6092681,146.034292 44.9667183,163.029556 59.299105,162.705064 Z"/>
    <path fill="#FBDAA1" d="M197.883068,193 C198.50613,195.693071 196.509883,201.114147 194.954524,204.7409 C194.175314,206.554277 192.309189,207.453026 191.594275,206.773407 C188.815756,204.135912 183.557235,198.919675 183.007654,196.744258 L183,196.699797 C183,196.699797 184.181828,196.744258 185.976001,196.917339 C187.770175,197.088831 189.063756,195.542221 189.697534,195.345322 C190.331312,195.148423 192.107115,195.924904 193.527758,195.613676 C194.675906,195.365964 194.561092,194.417991 195.406129,193.819354 C196.251166,193.222305 197.883068,193 197.883068,193"/>
    <path fill="#0AC2F0" d="M196,205 C195.24521,206.296151 194.581855,207.327305 194.257349,207.817481 C194.12647,208.016572 193.945392,208.055017 193.748179,207.921832 C193.412916,207.692535 192.815896,207.284741 192.064691,206.757493 C192.064691,206.757493 191.689986,206.672365 192.744182,206.30027 C193.796586,205.929549 196,205 196,205"/>
    <path fill="#E1AF70" d="M165,165.258332 C165,165.258332 169.258989,158.276874 175.090828,157.100427 C180.922666,155.923979 178.501903,165.471933 178.501903,165.471933 L165.153725,167 L165,165.258332 Z"/>
    <path fill="#0AC2F0" d="M182.7903,196.837627 L182.7903,196.837627 L169.571165,142.5161 C169.015883,140.183834 167.151946,138.092185 168.451242,136.294626 C169.502534,134.836762 181.531558,132.197826 183.227039,133.235786 C184.945916,134.284756 184.231537,136.717673 184.738466,138.842348 L197.957602,193.165447 C198.912187,197.174178 183.437609,199.553625 182.7903,196.837627"/>
    <path fill="#F3C481" d="M157.518938,166.599315 C161.453188,165.689781 164.625157,164.727476 169.513833,164.137675 C181.516602,160.533686 202.652565,166.341665 202.480894,169.771819 C202.25725,174.209289 210.612412,193.399524 167.789252,190.75008 C164.055022,190.717485 163.026573,187.301301 158.807255,188.061833 C156.934628,180.964053 156.539313,170.204857 157.518938,166.599315"/>
    <path stroke="#FEFEFE" stroke-linecap="round" stroke-width=".2" d="M91 162C102.111349 166.929537 92.4532204 194.864631 106 199M133 194.89814C126.009456 197.213014 122.649885 159.275322 115 162.156265"/>
  </g>
</svg>
