<?xml version="1.0" encoding="utf-8"?>
<!-- Generator: Adobe Illustrator 26.0.1, SVG Export Plug-In . SVG Version: 6.00 Build 0)  -->
<svg version="1.1" id="Capa_1" xmlns="http://www.w3.org/2000/svg" xmlns:xlink="http://www.w3.org/1999/xlink" x="0px" y="0px"
	 viewBox="0 0 655 483" style="enable-background:new 0 0 655 483;" xml:space="preserve">
<style type="text/css">
	.st0{fill:#A7C7D1;}
	.st1{fill:#DDE8F1;}
	.st2{fill:#91B5C6;}
	.st3{fill:#FFFFFF;}
	.st4{fill:#6BEFFC;}
	.st5{fill:#6F99A3;}
	.st6{fill:#008F4F;}
	.st7{fill:#00E7FB;}
	.st8{fill:#8AD6B2;}
	.st9{fill:#00BB7E;}
	.st10{fill:#F58B1F;}
	.st11{fill:#F0AD53;}
	.st12{fill:#CC6018;}
	.st13{fill:none;}
	.st14{fill:#274F5C;}
	.st15{fill:#8EF7FE;}
	.st16{fill:#B83D07;}
	.st17{fill:#4B7682;}
	.st18{fill:#B39100;}
	.st19{fill:#F4C582;}
	.st20{fill:#001C3D;}
	.st21{fill:#000F29;}
	.st22{fill:#E0741A;}
	.st23{fill:#0073A9;}
	.st24{clip-path:url(#SVGID_00000036962765303658419830000012578888019012267432_);fill:#0093C9;}
	.st25{fill:#00294D;}
	.st26{clip-path:url(#SVGID_00000168809649029915059960000007391911211075161234_);fill:#001C3D;}
	.st27{fill:#0093C9;}
	.st28{clip-path:url(#SVGID_00000138559941963966077510000006398022983287347869_);fill:#0073A9;}
	.st29{clip-path:url(#SVGID_00000149369702816754748000000015335478295905547394_);fill:#0093C9;}
	.st30{clip-path:url(#SVGID_00000002375433376192879570000011934024062679980680_);fill:#6F99A3;}
	.st31{clip-path:url(#SVGID_00000003083492410799259510000002154057514074350508_);fill:#4B7682;}
</style>
<g>
	<path class="st0" d="M189.8,54C136.9,42.3,80.3,72.4,51.2,118.1c-29.1,45.8-33.8,103.7-23.7,157
		c23.7,125.2,138.1,203.7,262.2,201.1c109.9-2.2,236.8-57.5,302.4-147.7c32.7-45,49.4-103.8,35.1-157.6
		c-14.3-53.8-63.4-99.1-119.1-100c-26.3-0.4-51.5,8.7-73.8,22.1c-11.2,6.8-21.8,14.6-31.9,23c-9.1,7.6-18.3,20.4-28.6,26
		c-15.9,8.7-44.6-7.1-58.8-14.9c-20.2-11.2-38.3-25.7-57.2-39C237.1,73.4,214.9,59.5,189.8,54"/>
	<path class="st1" d="M404.1,34.9H253.3c-5.3,0-9.6,4.3-9.6,9.6v34c4.8,3.1,9.5,6.3,14.1,9.6c18.8,13.3,37,27.7,57.2,39
		c11.3,6.3,31.7,17.5,47.6,17.5c4.1,0,7.9-0.7,11.2-2.5c10.3-5.6,19.5-18.4,28.6-26c3.7-3.1,7.4-6.1,11.2-8.9V44.4
		C413.6,39.2,409.4,34.9,404.1,34.9"/>
	<path class="st2" d="M243.7,78.5v105c0,5.3,4.3,9.6,9.6,9.6H282l-0.4-1.2h15.7l-0.4,1.2h107.2c5.3,0,9.6-4.3,9.6-9.6v-76.3
		c-3.8,2.9-7.6,5.9-11.2,8.9c-9.1,7.6-18.3,20.4-28.6,26c-3.3,1.8-7.1,2.5-11.2,2.5c-15.9,0-36.3-11.2-47.6-17.5
		c-20.2-11.2-38.3-25.7-57.2-39C253.2,84.8,248.5,81.6,243.7,78.5"/>
	<path class="st2" d="M297.3,191.8h-15.7l0.4,1.2l6.5,20.5c0.2,0.5,0.6,0.7,1,0.7c0.4,0,0.8-0.2,1-0.7l6.5-20.5L297.3,191.8"/>
	<path class="st3" d="M411.6,184H260.7c-5.3,0-9.6-4.3-9.6-9.6v-139c0-5.3,4.3-9.6,9.6-9.6h150.8c5.3,0,9.6,4.3,9.6,9.6v139
		C421.1,179.7,416.8,184,411.6,184z"/>
	<path class="st3" d="M296,204.5l-6.9-21.7h15.7l-6.9,21.7C297.6,205.5,296.3,205.5,296,204.5z"/>
	<path class="st4" d="M305.4,89.4h-30.2c-2,0-3.6-1.6-3.6-3.6v-1.2c0-2,1.6-3.6,3.6-3.6h30.2c2,0,3.6,1.6,3.6,3.6v1.2
		C309.1,87.8,307.4,89.4,305.4,89.4z"/>
	<path class="st5" d="M290.3,68.5L290.3,68.5c-2.6,0-4.7-2.1-4.7-4.7v-5.7c0-2.6,2.1-4.7,4.7-4.7h0c2.6,0,4.7,2.1,4.7,4.7v5.7
		C295,66.4,292.9,68.5,290.3,68.5z"/>
	<path class="st4" d="M305.4,154.3h-30.2c-2,0-3.6-1.6-3.6-3.6v-1.2c0-2,1.6-3.6,3.6-3.6h30.2c2,0,3.6,1.6,3.6,3.6v1.2
		C309.1,152.6,307.4,154.3,305.4,154.3z"/>
	<path class="st6" d="M289.6,134.5l-0.1,0c-0.7,0-1.3-0.4-1.7-0.9l-4-5.7c-0.7-1-0.4-2.3,0.5-3c1-0.7,2.3-0.4,3,0.5l2.4,3.4l7.9-9.3
		c0.8-0.9,2.1-1,3.1-0.2c0.9,0.8,1,2.1,0.2,3.1l-9.8,11.5C290.8,134.2,290.2,134.5,289.6,134.5z"/>
	<path class="st4" d="M351.3,89.4H321c-2,0-3.6-1.6-3.6-3.6v-1.2c0-2,1.6-3.6,3.6-3.6h30.2c2,0,3.6,1.6,3.6,3.6v1.2
		C354.9,87.8,353.3,89.4,351.3,89.4z"/>
	<path class="st5" d="M336.1,68.5L336.1,68.5c-2.6,0-4.7-2.1-4.7-4.7v-5.7c0-2.6,2.1-4.7,4.7-4.7h0c2.6,0,4.7,2.1,4.7,4.7v5.7
		C340.9,66.4,338.7,68.5,336.1,68.5z"/>
	<path class="st4" d="M351.3,154.3H321c-2,0-3.6-1.6-3.6-3.6v-1.2c0-2,1.6-3.6,3.6-3.6h30.2c2,0,3.6,1.6,3.6,3.6v1.2
		C354.9,152.6,353.3,154.3,351.3,154.3z"/>
	<path class="st6" d="M335.4,134.5l-0.1,0c-0.7,0-1.3-0.4-1.7-0.9l-4-5.7c-0.7-1-0.4-2.3,0.5-3c1-0.7,2.3-0.4,3,0.5l2.4,3.4l7.9-9.3
		c0.8-0.9,2.1-1,3.1-0.2c0.9,0.8,1,2.1,0.2,3.1l-9.8,11.5C336.7,134.2,336.1,134.5,335.4,134.5z"/>
	<path class="st4" d="M397.1,89.4h-30.2c-2,0-3.6-1.6-3.6-3.6v-1.2c0-2,1.6-3.6,3.6-3.6h30.2c2,0,3.6,1.6,3.6,3.6v1.2
		C400.8,87.8,399.1,89.4,397.1,89.4z"/>
	<path class="st5" d="M382,68.5L382,68.5c-2.6,0-4.7-2.1-4.7-4.7v-5.7c0-2.6,2.1-4.7,4.7-4.7h0c2.6,0,4.7,2.1,4.7,4.7v5.7
		C386.7,66.4,384.6,68.5,382,68.5z"/>
	<path class="st4" d="M397.1,154.3h-30.2c-2,0-3.6-1.6-3.6-3.6v-1.2c0-2,1.6-3.6,3.6-3.6h30.2c2,0,3.6,1.6,3.6,3.6v1.2
		C400.8,152.6,399.1,154.3,397.1,154.3z"/>
	<path class="st6" d="M381.3,134.5l-0.1,0c-0.7,0-1.3-0.4-1.7-0.9l-4-5.7c-0.7-1-0.4-2.3,0.5-3c1-0.7,2.3-0.4,3,0.5l2.4,3.4l7.9-9.3
		c0.8-0.9,2.1-1,3.1-0.2c0.9,0.8,1,2.1,0.2,3.1l-9.8,11.5C382.5,134.2,381.9,134.5,381.3,134.5z"/>
	
		<ellipse transform="matrix(3.923498e-02 -0.9992 0.9992 3.923498e-02 208.6397 281.1643)" class="st7" cx="250.5" cy="32.1" rx="25.4" ry="25.4"/>
	<path class="st3" d="M250.5,47.9c-9.2,0-16.5-7.8-15.8-17.2c0.7-7.9,7.3-14.2,15.2-14.5c2-0.1,4,0.2,5.9,0.9l0.8,0.3
		c0.4,0.1,0.5,0.5,0.4,0.9l-0.6,1.6c-0.1,0.4-0.5,0.5-0.9,0.4l-0.8-0.3c-1.2-0.5-2.6-0.7-3.9-0.7c-6.8-0.2-12.6,5-13.2,11.7
		c-0.6,7.5,5.3,13.8,12.7,13.8c7,0,12.8-5.7,12.8-12.8c0-1.1-0.1-2.3-0.4-3.3l-0.2-0.8c-0.1-0.4,0.1-0.7,0.5-0.8l1.6-0.4
		c0.4-0.1,0.7,0.1,0.8,0.5l0.2,0.8c0.4,1.3,0.5,2.7,0.5,4.1C266.3,40.8,259.3,47.9,250.5,47.9z"/>
	<path class="st3" d="M251.4,21.2h-1.7c-0.4,0-0.7-0.3-0.7-0.7v-2.7h3v2.7C252,20.9,251.7,21.2,251.4,21.2z"/>
	<path class="st3" d="M252,45.8h-3v-2.7c0-0.4,0.3-0.7,0.7-0.7h1.7c0.4,0,0.7,0.3,0.7,0.7V45.8z"/>
	<path class="st3" d="M264.5,33.3h-2.7c-0.4,0-0.7-0.3-0.7-0.7V31c0-0.4,0.3-0.7,0.7-0.7h2.7V33.3z"/>
	<path class="st3" d="M239.2,33.3h-2.7v-3h2.7c0.4,0,0.7,0.3,0.7,0.7v1.7C239.9,33,239.6,33.3,239.2,33.3z"/>
	<path class="st3" d="M246.9,30.1l3.5,5l-2.6-0.1l8.9-11l0.7-0.8c0.3-0.4,0.9-0.4,1.2-0.1l1.7,1.4c0.4,0.3,0.4,0.9,0.1,1.3l-0.7,0.8
		l-9.4,10.6l0,0c-0.6,0.7-1.7,0.8-2.4,0.1c-0.1-0.1-0.2-0.2-0.3-0.3l-3.5-5l-0.5-0.7c-0.3-0.4-0.2-0.9,0.2-1.2l1.3-0.9
		c0.4-0.3,0.9-0.2,1.2,0.2L246.9,30.1z"/>
	<path class="st1" d="M595.9,88.8h-29.4c15,9.3,28.1,21.8,38.7,36.3v-27C605.1,93,601,88.8,595.9,88.8"/>
	<path class="st2" d="M566.5,88.8h-96.2c-5.1,0-9.2,4.1-9.2,9.2v155.4c0,5.1,4.1,9.2,9.2,9.2h85.5l-2.2-6.9h23.2l-2.2,6.9h21.3
		c5.1,0,9.2-4.1,9.2-9.2V125.1C594.6,110.6,581.4,98.1,566.5,88.8"/>
	<path class="st2" d="M576.8,255.8h-23.2l2.2,6.9l8,25.3c0.2,0.7,0.8,1.1,1.4,1.1c0.6,0,1.2-0.4,1.4-1.1l8-25.3L576.8,255.8"/>
	<path class="st3" d="M603.4,253.7H477.7c-5.1,0-9.2-4.1-9.2-9.2V89.1c0-5.1,4.1-9.2,9.2-9.2h125.7c5.1,0,9.2,4.1,9.2,9.2v155.4
		C612.6,249.6,608.5,253.7,603.4,253.7z"/>
	<path class="st3" d="M571.2,279L561,246.8h23.2L574.1,279C573.6,280.4,571.6,280.4,571.2,279z"/>
	
		<ellipse transform="matrix(0.9951 -9.853774e-02 9.853774e-02 0.9951 -10.2544 53.9011)" class="st8" cx="540.6" cy="130.8" rx="36.3" ry="36.3"/>
	<path class="st9" d="M540.6,130.8l32.1-17c9.3,17.6,2.5,39.7-15.1,49.1c-17.6,9.3-39.7,2.5-49.1-15.1c-9.3-17.6-2.5-39.7,15.1-49.1
		c10-5.3,21.9-5.6,32.2-0.9L540.6,130.8z"/>
	<path class="st6" d="M528.7,190.8h-3.3c-2.4,0-4.3-1.9-4.3-4.3v0c0-2.4,1.9-4.3,4.3-4.3h3.3c2.4,0,4.3,1.9,4.3,4.3v0
		C533,188.9,531.1,190.8,528.7,190.8z"/>
	<path class="st6" d="M555.6,190.8h-3.3c-2.4,0-4.3-1.9-4.3-4.3v0c0-2.4,1.9-4.3,4.3-4.3h3.3c2.4,0,4.3,1.9,4.3,4.3v0
		C559.9,188.9,558,190.8,555.6,190.8z"/>
	<path class="st6" d="M582.5,190.8h-3.3c-2.4,0-4.3-1.9-4.3-4.3v0c0-2.4,1.9-4.3,4.3-4.3h3.3c2.4,0,4.3,1.9,4.3,4.3v0
		C586.8,188.9,584.8,190.8,582.5,190.8z"/>
	<path class="st6" d="M501.9,190.8h-3.3c-2.4,0-4.3-1.9-4.3-4.3v0c0-2.4,1.9-4.3,4.3-4.3h3.3c2.4,0,4.3,1.9,4.3,4.3v0
		C506.1,188.9,504.2,190.8,501.9,190.8z"/>
	<path class="st1" d="M502.7,229.8h-4.8c-3.4,0-6.1-2.8-6.1-6.1v-17.6c0-3.4,2.8-6.1,6.1-6.1h4.8c3.4,0,6.1,2.8,6.1,6.1v17.6
		C508.8,227.1,506,229.8,502.7,229.8z"/>
	<path class="st1" d="M529.5,229.8h-4.8c-3.4,0-6.1-2.8-6.1-6.1v-17.6c0-3.4,2.8-6.1,6.1-6.1h4.8c3.4,0,6.1,2.8,6.1,6.1v17.6
		C535.7,227.1,532.9,229.8,529.5,229.8z"/>
	<path class="st1" d="M556.4,229.8h-4.8c-3.4,0-6.1-2.8-6.1-6.1v-17.6c0-3.4,2.8-6.1,6.1-6.1h4.8c3.4,0,6.1,2.8,6.1,6.1v17.6
		C562.5,227.1,559.8,229.8,556.4,229.8z"/>
	<path class="st1" d="M583.3,229.8h-4.8c-3.4,0-6.1-2.8-6.1-6.1v-17.6c0-3.4,2.8-6.1,6.1-6.1h4.8c3.4,0,6.1,2.8,6.1,6.1v17.6
		C589.4,227.1,586.7,229.8,583.3,229.8z"/>
	<path class="st1" d="M182.6,51H51.2c-5.2,0-9.4,4.2-9.4,9.4v74.8c2.8-5.8,6-11.5,9.5-17c24.8-39,69.6-66.7,115.1-66.7
		c7.7,0,15.4,0.8,23,2.4C187.7,52.1,185.3,51,182.6,51"/>
	<path class="st2" d="M166.4,51.4c-45.5,0-90.3,27.6-115.1,66.7c-3.5,5.5-6.7,11.2-9.5,17v80.2c0,5.2,4.2,9.4,9.4,9.4h98.2
		l-3.5-11.1h34.2l-3.5,11.1h6c5.2,0,9.4-4.2,9.4-9.4v-155c0-2.5-1-4.8-2.6-6.5C181.8,52.2,174.1,51.4,166.4,51.4"/>
	<path class="st2" d="M180.1,213.7h-34.2l3.5,11.1l11.5,36.3c0.3,1,1.2,1.6,2.1,1.6c0.9,0,1.8-0.5,2.1-1.6l11.5-36.3L180.1,213.7"/>
	<path class="st3" d="M190.1,215.9H58.7c-5.2,0-9.4-4.2-9.4-9.4v-155c0-5.2,4.2-9.4,9.4-9.4h131.4c5.2,0,9.4,4.2,9.4,9.4v155
		C199.5,211.6,195.3,215.9,190.1,215.9z"/>
	<path class="st3" d="M168.3,252.1l-15-47.4h34.2l-15,47.4C171.9,254.2,169,254.2,168.3,252.1z"/>
	<path class="st10" d="M122.1,117c-6.2,1.1-11.7-3.6-17.2-6.6c-7.7-4.2-16.9-5.6-25.4-3.6c-6.1,1.4-11.9,4.5-16.5,8.7v47.1
		c0,9.6,7.7,17.3,17.3,17.3h83.3c9.6,0,17.3-7.7,17.3-17.3V85.4c-17.8,3-34.8,11.4-47.8,24.1C129.9,112.6,126.6,116.2,122.1,117z"/>
	<rect x="91.3" y="105.9" class="st11" width="2.2" height="73.9"/>
	<rect x="120.8" y="118.1" class="st11" width="2.2" height="61.7"/>
	<rect x="150.2" y="95.2" class="st11" width="2.2" height="84.6"/>
	<circle class="st12" cx="92.4" cy="107.1" r="4.1"/>
	<circle class="st12" cx="121.9" cy="117.5" r="4.1"/>
	<circle class="st12" cx="151.3" cy="95.9" r="4.1"/>
	<path class="st1" d="M118.7,71.7H67.1c-1.8,0-3.2-1.4-3.2-3.2v0c0-1.8,1.4-3.2,3.2-3.2h51.6c1.8,0,3.2,1.4,3.2,3.2v0
		C121.9,70.3,120.5,71.7,118.7,71.7z"/>
	<path class="st1" d="M90.8,85.2H67.1c-1.8,0-3.2-1.4-3.2-3.2v0c0-1.8,1.4-3.2,3.2-3.2h23.7c1.8,0,3.2,1.4,3.2,3.2v0
		C94,83.7,92.6,85.2,90.8,85.2z"/>
	<g>
		<path class="st13" d="M627.2,171c-14.3-53.8-63.4-99.1-119.1-100c-26.3-0.4-51.5,8.7-73.8,22.1c-11.2,6.8-21.8,14.6-31.9,23
			c-9.1,7.6-18.3,20.4-28.6,26c-15.9,8.7-44.6-7.1-58.8-14.9c-20.2-11.2-38.3-25.7-57.2-39c-20.8-14.6-42.9-28.6-68.1-34.1
			C136.9,42.3,80.3,72.4,51.2,118.1c-11.7,18.4-19.5,38.8-23.9,60.1c4.9-6,11.5-10.5,19.4-10.6c1.9,0,3.7,0.2,5.4,0.6
			c4.8,0.8,10.9,5.2,13.9,7.2c15.1,9.9,28.9,22.5,37,38.8c2,3.9,3.6,8.2,3.5,12.6c-0.2,5.3-3,7.7-6.6,11c-1.7,1.6-3.4,4-5.4,5.6
			c0.3,1.3,0.6,2.6,0.9,3.9l0.1-0.8l19.7,34.2c2.4,4.3-0.7,9.6-5.6,9.6h-11c-1.1,25-7.2,46.7-15.9,59.9c14.2,0.7,29.1,2.2,44.6,4.3
			v-68.3c0-2.7,1.5-5,3.6-6.3c0.3-0.3,0.6-0.6,0.9-0.9c1.9-1.6,4.3-2.3,6.7-1.9l109.7,17.5c4.1,0.7,7.1,4.2,7.1,8.4v83.4
			c62.5,23.3,105.8,53.7,111.5,80.1c10-2.3,20-4.9,29.9-7.9l0,0l-0.1,0l-2.4-64.4l0,0l68-21.6l34.9,7.4c-0.1-0.9,0-1.8,0-2.7
			c0.4-9.7,3-19.2,7.6-27.8c0.9-1.8,1.9-3.5,3.2-5c1-1.3,2.2-2.4,3.5-3.4c1.3-5.4,4.8-10,9.5-12.8c-6.4-2.7-11.4-11.5-12.4-22.5
			h-3.2c-1,0-1.6-1.1-1-1.9l4.2-6.9c0.4-4.1,1.4-7.9,2.7-11.2c-1.5-0.1-2.9-0.6-4-1.5c-1.1-1-2.3-2.4-1.3-5.1
			c0.6-1.4,1.6-2.6,2.8-3.5c3.9-3,7.5-4.7,12.6-5.7c6.9-1.3,14.1,0.9,18.9,6c1.3,1.4,3.1,2.7,4,4.5c1.2,2.8,0,6-0.7,9
			c-0.5,2.2-0.8,4.5-0.8,6.7c0.2,1.5,0.3,2.9,0.4,4.4c0.1,2-0.1,4-0.7,5.9c-0.6,1.8-1.7,3.6-3.2,4.8c0,0.1,0,0.1-0.1,0.2l0.4,13.8
			h9.2c13.7,0,25.1,10.1,27,23.3c5.7-6.5,11.1-13.2,16.1-20.1C624.8,283.6,641.4,224.7,627.2,171z"/>
		<path class="st14" d="M524.2,335.1v-6c-1.1-0.1-2.1-0.4-3.1-0.8c-4.7,2.8-8.2,7.4-9.5,12.8c3.4-2.7,7.5-4.5,11.7-5.8
			C523.6,335.2,523.9,335.1,524.2,335.1z"/>
		<path class="st14" d="M549,325.4h-9.2l0.2,9.2c3,0.5,5.9,1.4,8.9,2.7c10.8,4.8,13.3,15.5,13.5,18.4c0.3,3.1,0.5,5.1,0.6,6.8
			c4.5-4.5,8.8-9.1,13-13.8C574,335.5,562.7,325.4,549,325.4z"/>
		<path class="st15" d="M510.9,357v-2.6c-0.1,0.9-0.2,2-0.3,3.2C510.8,357.3,510.8,357.1,510.9,357z"/>
		<path class="st15" d="M505,369.5c0.3-0.6,0.6-1.3,0.9-2l5-16.2V346c0-1.7,0.2-3.4,0.6-4.9c-1.3,1-2.4,2.1-3.5,3.4
			c-1.2,1.5-2.3,3.3-3.2,5c-4.5,8.6-7.1,18.1-7.6,27.8c0,0.9-0.1,1.8,0,2.7l3.9,0.8C501.6,378.6,502.7,375.1,505,369.5z"/>
		<path class="st15" d="M510.9,351.3l0.4-1.3c0,0-0.2,1.7-0.4,4.3v2.6c2.5-5.1,5.1-10.2,7-13.8c1.5-2.9,3.4-6.1,6.3-7.9v-0.2
			c-0.3,0-0.6,0.1-1,0.2c-4.1,1.3-8.2,3.1-11.7,5.8c-0.4,1.6-0.6,3.2-0.6,4.9V351.3z"/>
		<path class="st15" d="M548.9,337.3c-2.9-1.3-5.8-2.2-8.9-2.7l0,1.4l-0.7,0.6c-3.4,2.9-8,3.4-11.9,1.7c0.1,0.5,0.2,1,0.3,1.6
			c0.6,3.2,0.5,6.5,0,9.7c-0.8,5-2.4,9.8-3.9,14.6c-0.9,2.9-1.8,5.8-3.2,8.5c-2,3.7-5.2,6.7-8.4,9.4c-0.4,0.3-0.7,0.6-1.1,0.9
			l23.4,5c3.1-2.5,6.2-5,9.3-7.6c3-5.7,6.3-14.7,7.1-27.4l1.1,20.2c3.8-3.5,7.5-7,11.1-10.6c-0.1-1.7-0.3-3.7-0.6-6.8
			C562.1,352.8,559.7,342.1,548.9,337.3z"/>
		<path class="st15" d="M505.9,367.5c-0.3,0.7-0.6,1.4-0.9,2c-2.4,5.5-3.4,9-3.8,11.3l0.6,0.1L505.9,367.5z"/>
		<path class="st15" d="M509.8,382.6l1.2,0.3V357c-0.1,0.2-0.2,0.4-0.3,0.5C510.1,364.5,509.4,375.1,509.8,382.6z"/>
		<path class="st15" d="M524.2,335.3c-2.9,1.7-4.8,5-6.3,7.9c-1.8,3.6-4.4,8.7-7,13.8v25.9l0.2,0c0.4-0.3,0.7-0.6,1.1-0.9
			c3.3-2.7,6.4-5.7,8.4-9.4c1.5-2.7,2.3-5.6,3.2-8.5c1.5-4.8,3.2-9.6,3.9-14.6c0.5-3.2,0.6-6.5,0-9.7c-0.1-0.6-0.2-1.1-0.3-1.6
			c-1.2-0.5-2.3-1.3-3.3-2.3V335.3z"/>
		<path class="st4" d="M510.9,354.3v-3l-5,16.2c1.3-2.9,3-6.4,4.7-10C510.8,356.3,510.8,355.3,510.9,354.3z"/>
		<path class="st4" d="M511.3,350l-0.4,1.3v3C511.2,351.7,511.3,350,511.3,350z"/>
		<path class="st4" d="M509.8,382.6c-0.3-7.6,0.3-18.1,0.9-25.1c-1.8,3.6-3.4,7.1-4.7,10l-4.1,13.4L509.8,382.6z"/>
		<path class="st16" d="M539.8,325.4l-0.4-13.8c-1.6,5.4-3.9,10.5-6.8,13.8H539.8z"/>
		<path class="st16" d="M525.3,329.1c-0.4,0-0.7,0-1.1-0.1v6c0.1,0,0.3,0,0.4,0c0.6-0.3,1.3-0.6,2-0.8c3-0.7,6.1-0.4,9.2-0.2
			c1.5,0.1,2.9,0.3,4.3,0.5l-0.2-9.2h-7.2C530.5,327.7,528,329.1,525.3,329.1z"/>
		<path class="st16" d="M524.2,335.1v0.2c0.1-0.1,0.2-0.1,0.4-0.2C524.4,335.1,524.3,335.1,524.2,335.1z"/>
		<path class="st16" d="M526.6,334.3c-0.7,0.2-1.4,0.4-2,0.8c1.9-0.1,2.5,1.2,2.9,3.2c3.8,1.7,8.5,1.2,11.9-1.7l0.7-0.6l0-1.4
			c-1.4-0.2-2.8-0.4-4.3-0.5C532.7,333.8,529.6,333.6,526.6,334.3z"/>
		<path class="st16" d="M524.5,335.1c-0.1,0.1-0.3,0.1-0.4,0.2v0.7c1,1,2.1,1.8,3.3,2.3C527.1,336.3,526.4,334.9,524.5,335.1z"/>
		<path class="st1" d="M503.7,401.1l0.1-3.3L503.7,401.1l-45.3-11.5v-3.2l15.9-4.7l36.6,8.5V388c-0.2-0.2-0.4-0.3-0.6-0.5
			c-1.7-1.3-3.4-1.1-4.8-0.8c-1.2,0.2-2.2,0.5-2.8-0.3c-0.4,0-0.8,0-1.1-0.1c-0.7-0.1-1.5-0.3-2.1-0.8c-0.6-0.4-1-1-1.3-1.7
			c-0.6-1.2-0.8-2.6-0.9-4l-34.9-7.4l-68,21.6l90.4,27c13.7-7.8,27-16.3,39.5-25.6h-12.8L503.7,401.1z"/>
		<path class="st1" d="M397,458.7C397,458.7,397,458.7,397,458.7L397,458.7L397,458.7z"/>
		<path class="st1" d="M511.7,395.6h12.8c0.1-0.1,0.2-0.2,0.3-0.3c-2.6-1-5.3-2.1-7.8-3.4L511.7,395.6z"/>
		<path class="st1" d="M516.2,391.5c-1.9-1-3.6-2.2-5.3-3.5v2.2L516.2,391.5z"/>
		<path class="st1" d="M499.5,385.6c0.6,0.4,1.3,0.7,2.1,0.8c0.4,0.1,0.8,0.1,1.1,0.1c-0.2-0.3-0.4-0.9-0.4-1.7c0-0.1-0.5,0-0.9-0.5
			l-0.6-0.1l0.3-1c-0.1-0.6,0-1.3,0.2-2.4l-3.9-0.8c0.1,1.4,0.3,2.7,0.9,4C498.6,384.6,499,385.2,499.5,385.6z"/>
		<path class="st1" d="M509.9,385.2L508,385c-1.7,0.9-3.4,1.5-5.3,1.5c0.5,0.7,1.5,0.5,2.8,0.3c1.4-0.3,3.2-0.6,4.8,0.8
			c0.2,0.2,0.4,0.3,0.6,0.5v-5c-0.4,0.3-0.7,0.5-1.1,0.8C509.8,384.3,509.9,384.8,509.9,385.2z"/>
		<path class="st1" d="M510.9,383.1v5c1.7,1.3,3.4,2.4,5.3,3.5l1,0.2l-0.3,0.2c2.5,1.3,5.1,2.5,7.8,3.4c3.3-2.4,6.5-4.9,9.7-7.5
			l-23.4-5C511.1,383,511,383,510.9,383.1z"/>
		<path class="st1" d="M509.8,382.6c0,0.4,0,0.8,0.1,1.3c0.4-0.3,0.8-0.5,1.1-0.8v-0.2L509.8,382.6z"/>
		<path class="st1" d="M501.2,380.8c-0.2,1.1-0.2,1.9-0.2,2.4l0.7-2.3L501.2,380.8z"/>
		<path class="st1" d="M508,385l-6.6-0.7c0.4,0.5,0.9,0.4,0.9,0.5c0,0.8,0.2,1.3,0.4,1.7C504.6,386.5,506.3,385.9,508,385z"/>
		<path class="st1" d="M510.9,383.1c0.1,0,0.1-0.1,0.2-0.2l-0.2,0V383.1z"/>
		<path class="st1" d="M500.8,384.2l0.6,0.1c-0.2-0.2-0.3-0.5-0.3-1L500.8,384.2z"/>
		<path class="st1" d="M509.9,385.2c0-0.4-0.1-0.9-0.1-1.3c-0.6,0.4-1.2,0.8-1.8,1.1L509.9,385.2z"/>
		<path class="st1" d="M509.8,383.9c0-0.4,0-0.8-0.1-1.3l-8-1.7l-0.7,2.3c0.1,0.5,0.2,0.8,0.3,1l6.6,0.7
			C508.6,384.7,509.2,384.3,509.8,383.9z"/>
		<path class="st17" d="M127.4,365.6v-10.9c-15.5-2.1-30.4-3.5-44.6-4.3c-5.4,8.3-11.9,13.2-18.9,13.8c5.3,7.9,11.1,15.4,17.3,22.6
			l48-16.5C128.1,368.9,127.4,367.3,127.4,365.6z"/>
		<path class="st17" d="M255.5,386.5v4.3c0,2.6-1.2,5-3.2,6.7c-0.4,0.3-0.8,0.5-1.2,0.8l0.1,0l-0.6,0.3c-0.4,2.9-1.7,4.9-4.1,6
			l-60.6,27.3c-6.8,3-14.5,3.2-21.5,0.6l-41.9-15.9c-1.5,1-3.1,1.8-4.8,2.2c-0.8,0.2-1.7,0.4-2.5,0.5c19.8,15.6,41.9,28.2,65.7,37.6
			c0-0.6,0-1.2,0-1.8c0.9-0.2-0.3-1.2,0.5-1.4c8.6-13.8,21.6-24.9,36.6-31.3c0.9-0.4,1.9-0.7,2.7-0.3c0.9,0.5,1.1,1.7,0.7,2.7
			s-1.2,1.6-1.9,2.3c-4.9,4.1-9.7,8.2-14.6,12.4c2.3-1.4,4.6-2.8,7-4c0.6-0.8,1.2-1.6,1.8-2.3c4.3-4.7,10.2-7.3,16.4-8.6
			c6.4-1.3,13.7-1.5,20.2-0.2c0.3,0.1,0.6,0.1,1,0.2c1.1,0.3,2.3,0.6,3.2,1.4c1.3,1.1,1.8,3,1.8,4.7c-0.1,8.2-9.7,13.4-16.3,16.2
			c-0.3,0.1-0.5,0.2-0.8,0.3c-0.2,0.2-0.4,0.4-0.7,0.6c-7.9,7.2-16.4,13.8-25.3,19.7c24.6,6.4,50.3,9.5,76.5,8.9
			c25.2-0.5,51.3-3.8,77.4-9.7C361.3,440.2,318,409.8,255.5,386.5z"/>
		<path class="st18" d="M66.8,179.7c3.4,6.4,3.1,14,5,20.8c0.2,0.8,0.4,1.6,0.5,2.3c9.7,6,17.8,21,22.4,40.7c2-1.6,3.6-4,5.4-5.6
			c3.5-3.3,6.4-5.7,6.6-11c0.2-4.4-1.5-8.7-3.5-12.6c-8.2-16.4-21.9-28.9-37-38.8c-3-1.9-9.1-6.4-13.9-7.2
			C58.4,169.8,63.8,174,66.8,179.7z"/>
		<path class="st19" d="M82.8,350.4c8.7-13.3,14.8-34.9,15.9-59.9h-7.1l3.9-43c-0.3-1.3-0.6-2.6-0.9-3.9c-1.3,1-2.7,1.8-4.3,1.8
			c-8.1,0.3-17.7-4.5-23.7-9.9c-0.9-0.8-0.9-2.4-0.7-4.5c-4.3,9.6-8.9,19.9-6.8,30.2c1.2,5.6,4.2,10.6,6.7,15.7
			c5,10.5,7.7,22.1,7.7,33.8c0,9.2-1.7,18.6-6.4,26.5c-3,5-7.4,9.3-12.5,12c0.1,0.2,0.2,0.4,0.3,0.6
			C63.9,349.7,73.2,349.9,82.8,350.4z"/>
		<path class="st19" d="M82.8,350.4c-9.6-0.5-18.9-0.7-27.8-0.6c2.8,4.9,5.8,9.7,8.9,14.3C70.9,363.6,77.4,358.6,82.8,350.4z"/>
		<path class="st19" d="M72.3,202.9c1.7,9.4-2.3,19.2-6.3,28.1c0,0,0,0,0,0.1c-0.3,2-0.2,3.7,0.7,4.5c6,5.4,15.6,10.1,23.7,9.9
			c1.7-0.1,3.1-0.8,4.3-1.8C90.1,223.8,82,208.9,72.3,202.9z"/>
		<path class="st18" d="M58.3,200.5c-1.9-2.3-3.6-4.8-4.4-8.1c-1.4-5.6-10.3-21.8-4.9-23.9c1-0.4,2.1-0.4,3.3-0.2
			c-1.8-0.4-3.6-0.7-5.4-0.6c-8,0.1-14.5,4.6-19.4,10.6c-6.3,30.3-5.9,62.4-0.6,93C28.9,234.3,41.9,205.1,58.3,200.5z"/>
		<path class="st18" d="M48.9,168.5c-5.4,2.1,3.5,18.3,4.9,23.9c0.8,3.3,2.5,5.8,4.4,8.1c1.4-0.4,2.9-0.6,4.4-0.6
			c3.3,0,6.5,1,9.6,2.9c-0.1-0.8-0.3-1.6-0.5-2.3c-1.9-6.9-1.6-14.4-5-20.8c-3-5.7-8.4-9.9-14.6-11.4
			C51,168.1,49.9,168.1,48.9,168.5z"/>
		<path class="st18" d="M67.2,337.2c4.7-7.9,6.4-17.3,6.4-26.5c0-11.6-2.7-23.3-7.7-33.8c-2.5-5.1-5.5-10.1-6.7-15.7
			c-2.1-10.3,2.4-20.6,6.8-30.2c0.7-4.7,3.2-11.3,1.9-13.7c-1.5-3-2-6.5-3.8-9.4c-1.7-2.8-3.9-5-5.8-7.4
			c-16.4,4.5-29.3,33.7-31.5,70.7c0.2,1.3,0.5,2.6,0.7,3.9c5.1,27,14.4,51.8,27.1,74.1C59.8,346.5,64.2,342.2,67.2,337.2z"/>
		<path class="st18" d="M72.3,202.9c-3.1-1.9-6.3-2.9-9.6-2.9c-1.5,0-3,0.2-4.4,0.6c1.9,2.4,4.1,4.6,5.8,7.4
			c1.8,2.8,2.3,6.4,3.8,9.4c1.2,2.4-1.3,9-1.9,13.7c0,0,0,0,0-0.1C70,222.1,74,212.3,72.3,202.9z"/>
		<path class="st19" d="M98.7,290.5h11c4.9,0,8-5.3,5.6-9.6l-19.7-34.2l-0.1,0.8c2.2,10.5,3.4,22.2,3.4,34.6
			C98.9,284.9,98.8,287.7,98.7,290.5z"/>
		<path class="st19" d="M98.7,290.5c0.1-2.8,0.2-5.6,0.2-8.4c0-12.4-1.2-24.1-3.4-34.6l-3.9,43H98.7z"/>
		<path class="st14" d="M115.1,410.1c-0.2,0.1-0.5,0.3-0.7,0.4c-0.8,0.4-1.5,0.8-2.3,1.3c1.9-0.2,3.7-0.5,5.6-0.7L115.1,410.1z"/>
		<path class="st14" d="M163.6,428.5L125.3,414c-0.8,0.9-1.7,1.8-2.8,2.5l41.9,15.9c7,2.6,14.7,2.4,21.5-0.6l60.6-27.3
			c2.4-1.1,3.8-3,4.1-6l-66.4,29.5C177.7,430.8,170.3,431,163.6,428.5z"/>
		<path class="st5" d="M129.1,370.2l-48,16.5c0.3,0.4,0.6,0.7,0.9,1.1l48.1-16.5C129.8,370.9,129.4,370.6,129.1,370.2z"/>
		<path class="st5" d="M250.6,398.5l0.6-0.3l-0.1,0C251,398.3,250.8,398.4,250.6,398.5C250.6,398.4,250.6,398.4,250.6,398.5z"/>
		<path class="st5" d="M103.4,399c2.1-1.3,4.9-2.6,7-3.9c4.4-2.7,11-6.5,15.5-7.1c-2.3-0.7-4.6-1.4-6.8-2.2
			C116.2,389.1,107.4,395,103.4,399z"/>
		<path class="st5" d="M107.7,385.7c1.8,1.6-8,6.1-11.3,10.1c5.1-3,12.1-9.3,17.6-11.6c-2.2-0.7-4.4-1.4-6.6-2.2
			c2.5,0.6,4.9,1.2,7.4,1.8c1.9-0.7,3.6-0.8,4.9-0.1c0.2,0.3,0.1,0.7-0.2,1.3c19.7,5.1,39.3,10.9,58.6,17.4
			c-16.2-4-32.4-8.4-48.4-13.3c0.1,1.4-2.8,3.4-4.4,4.4c-4.4,2.9-8.8,5.7-13.2,8.6c0.1,0,0.3,0.1,0.4,0.1c5.1-2.5,11.8-5.2,16.5-6.5
			c-1.4-0.5-2.8-1-4.1-1.5c1.7,0.4,3.4,0.8,5.1,1.3c2.6-0.7,4.4-0.9,4.9-0.4c0.1,0.6,0.1,1.1,0,1.7c7.7,2.1,15.3,4.4,22.9,6.8
			c-5.1,1.9-10.3,3.7-15.5,5.4c-1.5,0.5-3,1-4.6,1.4c5.2-2.4,10.4-4.5,15.7-6.6c-1.9-0.6-3.8-1.1-5.7-1.7c-4.4-1.4-8.8-2.8-13.1-4.3
			c-0.3,0.7-0.8,1.4-1.3,2c-1.2,1.2-2.7,2.1-4.2,2.9c-2,1.1-4.1,2.2-6.1,3.3c3.7,1.4,7.4,2.8,11.1,4.4c-4.2-1.1-8.4-2.3-12.6-3.6
			c-2.1,1.1-4.3,2.3-6.4,3.4l2.6,1c0.1,0,0.2,0,0.3,0c1.7-0.2,3.5-0.4,5.2-0.6c0.6-0.1,1.3-0.2,1.9,0c0.6,0.1,1.2,0.6,1.3,1.2
			c0.2,0.7-0.2,1.4-0.7,1.9c-0.1,0.2-0.3,0.3-0.4,0.5l38.3,14.5c6.7,2.5,14.1,2.3,20.7-0.6l66.4-29.5c0,0,0,0,0,0
			c-1.1,0.5-2.3,0.8-3.6,0.8c-0.7,0-1.3-0.1-2-0.2l-0.4-0.1c-0.7,0-1.4,0-2.1-0.2L133,372.6c-1-0.2-2-0.7-2.8-1.4l-48.1,16.5
			c2.1,2.4,4.3,4.8,6.5,7.2C95.4,389.1,105,383.5,107.7,385.7z M227,401.2c-33.4-7.7-66.6-16.3-99.5-26
			C160.8,382.9,194,391.6,227,401.2z M219.7,404.1c-33.2-7.9-66.2-16.8-98.8-26.7C154.1,385.4,187,394.3,219.7,404.1z M185.5,399.7
			c-24-5.6-47.8-12.3-71.3-19.9C138.2,385.4,162,392,185.5,399.7z"/>
		<path class="st5" d="M109.1,404.1c0.5-0.3,1.1-0.6,1.7-0.9c0,0-0.1,0-0.1,0C110.1,403.5,109.6,403.8,109.1,404.1z"/>
		<path class="st5" d="M251.7,304v81.1c0.5,0.2,1.1,0.4,1.6,0.6v-82.5c0-3.1-2.2-5.7-5.3-6.2l-109.7-17.5c-0.3-0.1-0.6-0.1-1-0.1
			c0,0-0.1,0-0.1,0l108.3,17.3C249.1,297.3,251.7,300.3,251.7,304z"/>
		<path class="st5" d="M251.7,391.6c0,1.3-0.3,2.5-0.9,3.6l0,0.6c0.1,0,0.1-0.1,0.2-0.1c1.5-1.2,2.4-3,2.4-4.9v-5.1
			c-0.5-0.2-1.1-0.4-1.6-0.6V391.6z"/>
		<path class="st5" d="M250,396.2c0.2-0.1,0.5-0.3,0.7-0.5l0-0.6C250.5,395.5,250.3,395.9,250,396.2z"/>
		<path class="st5" d="M138.5,278.4l109.7,17.5c3.6,0.6,6.2,3.6,6.2,7.3v82.9c0.4,0.1,0.7,0.3,1.1,0.4v-83.4c0-4.2-3-7.7-7.1-8.4
			l-109.7-17.5c-2.4-0.4-4.9,0.3-6.7,1.9c-0.3,0.3-0.6,0.6-0.9,0.9c0.9-0.5,1.9-0.8,2.9-0.9C135.3,278.4,136.9,278.1,138.5,278.4z"
			/>
		<path class="st5" d="M254.4,390.8c0,2.8-1.5,5.1-3.7,6.4c0,0.3,0,0.6-0.1,0.9l0.5,0.1c0.4-0.2,0.8-0.5,1.2-0.8
			c2-1.6,3.2-4,3.2-6.7v-4.3c-0.4-0.1-0.7-0.3-1.1-0.4V390.8z"/>
		<path class="st5" d="M250.7,398.1c0-0.3,0-0.6,0.1-0.9c-0.4,0.3-0.9,0.5-1.4,0.6L250.7,398.1z"/>
		<path class="st5" d="M250.6,398.4c0.2-0.1,0.3-0.2,0.5-0.3l-0.5-0.1C250.7,398.2,250.7,398.3,250.6,398.4z"/>
		<path class="st5" d="M249.3,397.8c-0.5,0.2-1,0.3-1.6,0.3c-0.9,0.5-2,0.8-3,0.8l0.4,0.1c0.7,0.2,1.3,0.2,2,0.2
			c1.2,0,2.5-0.3,3.6-0.8c0-0.1,0-0.2,0-0.4L249.3,397.8z"/>
		<path class="st5" d="M135.8,279.2l1.4,0.2c0,0,0.1,0,0.1,0c0.3,0,0.6,0,1,0.1L248,297c3,0.5,5.3,3.1,5.3,6.2v82.5
			c0.4,0.1,0.7,0.3,1.1,0.4v-82.9c0-3.6-2.6-6.7-6.2-7.3l-109.7-17.5c-1.6-0.3-3.2,0-4.5,0.8C134.6,279.1,135.2,279.1,135.8,279.2z"
			/>
		<path class="st5" d="M253.3,390.8c0,1.9-0.9,3.7-2.4,4.9c-0.1,0-0.1,0.1-0.2,0.1l0,1.1c0,0.1,0,0.1,0,0.2c2.2-1.3,3.7-3.6,3.7-6.4
			v-4.7c-0.4-0.1-0.7-0.3-1.1-0.4V390.8z"/>
		<path class="st5" d="M250.7,395.8c-0.2,0.2-0.5,0.3-0.7,0.5c-0.4,0.5-0.9,1-1.5,1.3l0.8,0.2c0.5-0.2,1-0.4,1.4-0.6
			c0-0.1,0-0.1,0-0.2L250.7,395.8z"/>
		<path class="st5" d="M247.8,398.1c0.5-0.1,1.1-0.2,1.6-0.3l-0.8-0.2C248.3,397.8,248,397.9,247.8,398.1z"/>
		<path class="st14" d="M129,285.5c0-2,0.7-3.9,2-5.5c-2.2,1.2-3.6,3.6-3.6,6.3v68.3c0.5,0.1,1.1,0.1,1.6,0.2V285.5z"/>
		<path class="st14" d="M129.1,370.2l1.5-0.5c-1-1.4-1.6-3.1-1.6-5v-9.9c-0.5-0.1-1.1-0.2-1.6-0.2v10.9
			C127.4,367.3,128.1,368.9,129.1,370.2z"/>
		<path class="st14" d="M132.2,371.3c-0.6-0.5-1.1-1-1.6-1.7l-1.5,0.5c0.3,0.4,0.7,0.7,1.1,1l0.5-0.2L132.2,371.3z"/>
		<path class="st14" d="M132.2,371.3l-1.6-0.3l-0.5,0.2c0.8,0.6,1.7,1.1,2.8,1.4l109.7,26.1c0.7,0.2,1.4,0.2,2.1,0.2l-109.3-26
			C134.2,372.6,133.2,372.1,132.2,371.3z"/>
		<path class="st14" d="M136.6,288.2l104.1,17.1v75.9c3.7,1.3,7.4,2.6,11,3.9V304c0-3.6-2.6-6.7-6.2-7.3l-108.3-17.3
			c-1.4,0-2.7,0.5-3.8,1.5c-1.4,1.2-2.1,2.9-2.1,4.7v69.7c1.8,0.3,3.5,0.5,5.3,0.8V288.2z"/>
		<path class="st14" d="M250.8,395.2c0.6-1.1,0.9-2.3,0.9-3.6v-6.5c-3.6-1.3-7.3-2.6-11-3.9v6.8l-104.1-23.2V356
			c-1.8-0.3-3.6-0.5-5.3-0.8v9.5c0,2.8,1.9,5.3,4.7,6l20.1,4.8l94.7,16.5L250.8,395.2z"/>
		<path class="st14" d="M250,396.2c0.3-0.3,0.5-0.7,0.7-1.1l0-3.2l-94.7-16.5l89.5,21.3C247.1,397.2,248.7,397,250,396.2z"/>
		<path class="st14" d="M129,354.9c0.4,0.1,0.7,0.1,1.1,0.2v-69.5c0-2.8,1.6-5.2,3.8-6.4c-1,0.1-2,0.4-2.9,0.9c-1.3,1.5-2,3.4-2,5.5
			V354.9z"/>
		<path class="st14" d="M132.2,369.8c-1.3-1.3-2.1-3.1-2.1-5.1V355c-0.4-0.1-0.7-0.1-1.1-0.2v9.9c0,1.8,0.6,3.6,1.6,5l0.4-0.2
			L132.2,369.8z"/>
		<path class="st14" d="M132.2,371.3l6,1l-2.5-0.6c-1.4-0.3-2.5-1-3.5-2l-1.2-0.3l-0.4,0.2C131.1,370.3,131.6,370.9,132.2,371.3z"/>
		<path class="st14" d="M245.3,397.9l-107.1-25.5l-6-1c0.9,0.7,2,1.2,3.2,1.5l109.3,26c1.1-0.1,2.1-0.3,3-0.8
			C247,398.2,246.2,398.1,245.3,397.9z"/>
		<path class="st14" d="M131.2,285.5c0-1.8,0.8-3.5,2.1-4.7c1.1-0.9,2.4-1.4,3.8-1.5l-1.4-0.2c-0.6-0.1-1.2-0.1-1.8-0.1
			c-2.3,1.2-3.8,3.6-3.8,6.4V355c0.4,0.1,0.7,0.1,1.1,0.2V285.5z"/>
		<path class="st14" d="M132.2,369.8l23.6,5.6l0.2,0l-20.1-4.8c-2.8-0.7-4.7-3.1-4.7-6v-9.5c-0.4-0.1-0.7-0.1-1.1-0.2v9.7
			C130.1,366.7,130.9,368.5,132.2,369.8z"/>
		<path class="st14" d="M250,396.2c-1.3,0.7-2.9,1-4.4,0.6l-89.5-21.3l-0.2,0l92.7,22.1C249.1,397.2,249.6,396.7,250,396.2z"/>
		<path class="st14" d="M132.2,369.8c0.9,0.9,2.1,1.6,3.5,2l2.5,0.6l17.7,3.1L132.2,369.8z"/>
		<path class="st14" d="M155.9,375.5l-17.7-3.1l107.1,25.5c0.8,0.2,1.6,0.2,2.4,0.2c0.3-0.2,0.6-0.3,0.8-0.5L155.9,375.5z"/>
		<path class="st1" d="M136.6,288.2V356c12.5,1.9,25.3,4.3,38.3,7.1c23.3,5.1,45.4,11.2,65.8,18.1v-75.9L136.6,288.2z M163.1,303
			l6.9,1.2c0.9,0.1,1.6,1.3,1.6,2.6c0,1.3-0.7,2.2-1.6,2.1l-6.9-1.2c-0.8-0.1-1.5-1.3-1.5-2.6C161.6,303.8,162.3,302.9,163.1,303z
			 M146.4,302.4c0-1.2,0.7-2.1,1.5-2l10.4,1.8c0.8,0.1,1.5,1.3,1.5,2.6c0,1.3-0.7,2.2-1.5,2l-10.4-1.9
			C147.1,304.8,146.4,303.7,146.4,302.4L146.4,302.4z M147.9,307.6l6.6,1.2c0.8,0.1,1.5,1.3,1.5,2.6c0,1.3-0.7,2.2-1.5,2l-6.6-1.2
			c-0.8-0.2-1.5-1.3-1.5-2.5S147.1,307.5,147.9,307.6z M147.9,315.1l9.2,1.8c0.8,0.2,1.5,1.3,1.5,2.6c0,1.3-0.7,2.2-1.5,2l-9.2-1.8
			c-0.8-0.2-1.5-1.3-1.5-2.5C146.4,315.8,147.1,314.9,147.9,315.1z M147.9,327.9l10.4,1.8c0.8,0.1,1.5,1.3,1.5,2.6
			c0,1.3-0.7,2.2-1.5,2l-10.4-1.9c-0.8-0.1-1.5-1.3-1.5-2.5C146.4,328.7,147.1,327.8,147.9,327.9z M147.9,335.1l6.6,1.2
			c0.8,0.1,1.5,1.3,1.5,2.6c0,1.3-0.7,2.2-1.5,2l-6.6-1.2c-0.8-0.2-1.5-1.3-1.5-2.5C146.4,335.8,147.1,335,147.9,335.1z
			 M157.1,348.9l-9.2-1.8c-0.8-0.2-1.5-1.3-1.5-2.5c0-1.2,0.7-2.1,1.5-2l9.2,1.8c0.8,0.2,1.5,1.3,1.5,2.6
			C158.6,348.2,157.9,349.1,157.1,348.9z M170.1,343.8l-10.8-2c-0.8-0.2-1.5-1.3-1.5-2.6c0-1.3,0.7-2.2,1.5-2l10.8,2
			c0.9,0.2,1.6,1.3,1.6,2.6C171.6,343.1,170.9,344,170.1,343.8z M161.6,332.5c0-1.3,0.7-2.2,1.5-2l6.9,1.2c0.9,0.1,1.6,1.3,1.6,2.6
			c0,1.3-0.7,2.2-1.6,2.1l-6.9-1.2C162.3,335,161.6,333.8,161.6,332.5z M170.1,316.3l-10.8-2c-0.8-0.2-1.5-1.3-1.5-2.6v0
			c0-1.3,0.7-2.2,1.5-2l10.8,2c0.9,0.2,1.6,1.3,1.6,2.6C171.6,315.6,170.9,316.5,170.1,316.3z M182.3,338.5l-7.2-1.3
			c-0.9-0.2-1.6-1.3-1.6-2.6c0-1.3,0.7-2.2,1.6-2.1l7.2,1.2c0.9,0.2,1.6,1.3,1.6,2.7C183.9,337.7,183.2,338.7,182.3,338.5z
			 M182.3,311l-7.2-1.3c-0.9-0.2-1.6-1.3-1.6-2.6v0c0-1.3,0.7-2.2,1.6-2.1l7.2,1.2c0.9,0.2,1.6,1.3,1.6,2.7v0
			C183.9,310.2,183.2,311.2,182.3,311z"/>
		<path class="st1" d="M136.6,356v8.9l104.1,23.2v-6.8c-20.4-6.9-42.5-13.1-65.8-18.1C161.9,360.3,149.1,357.9,136.6,356z"/>
		<path class="st7" d="M147.9,304.9l10.4,1.9c0.8,0.1,1.5-0.8,1.5-2c0-1.3-0.7-2.4-1.5-2.6l-10.4-1.8c-0.8-0.1-1.5,0.8-1.5,2v0
			C146.4,303.7,147.1,304.8,147.9,304.9z"/>
		<path class="st7" d="M170.1,311.7l-10.8-2c-0.8-0.2-1.5,0.7-1.5,2v0c0,1.3,0.7,2.4,1.5,2.6l10.8,2c0.9,0.2,1.6-0.8,1.6-2
			C171.6,313,170.9,311.8,170.1,311.7z"/>
		<path class="st7" d="M163.1,307.6l6.9,1.2c0.9,0.2,1.6-0.8,1.6-2.1c0-1.3-0.7-2.5-1.6-2.6l-6.9-1.2c-0.8-0.1-1.5,0.8-1.5,2
			C161.6,306.3,162.3,307.5,163.1,307.6z"/>
		<path class="st7" d="M147.9,312.1l6.6,1.2c0.8,0.2,1.5-0.7,1.5-2c0-1.3-0.7-2.4-1.5-2.6l-6.6-1.2c-0.8-0.1-1.5,0.7-1.5,2
			S147.1,312,147.9,312.1z"/>
		<path class="st7" d="M182.3,306.3l-7.2-1.2c-0.9-0.1-1.6,0.8-1.6,2.1v0c0,1.3,0.7,2.5,1.6,2.6l7.2,1.3c0.9,0.2,1.6-0.8,1.6-2.1v0
			C183.9,307.6,183.2,306.4,182.3,306.3z"/>
		<path class="st7" d="M147.9,319.6l9.2,1.8c0.8,0.2,1.5-0.7,1.5-2c0-1.3-0.7-2.4-1.5-2.6l-9.2-1.8c-0.8-0.2-1.5,0.7-1.5,2
			C146.4,318.3,147.1,319.4,147.9,319.6z"/>
		<path class="st7" d="M147.9,332.4l10.4,1.9c0.8,0.1,1.5-0.8,1.5-2c0-1.3-0.7-2.4-1.5-2.6l-10.4-1.8c-0.8-0.1-1.5,0.8-1.5,2
			C146.4,331.1,147.1,332.3,147.9,332.4z"/>
		<path class="st7" d="M170.1,339.1l-10.8-2c-0.8-0.2-1.5,0.7-1.5,2c0,1.3,0.7,2.4,1.5,2.6l10.8,2c0.9,0.2,1.6-0.8,1.6-2
			C171.6,340.5,170.9,339.3,170.1,339.1z"/>
		<path class="st7" d="M170.1,336.3c0.9,0.2,1.6-0.8,1.6-2.1c0-1.3-0.7-2.5-1.6-2.6l-6.9-1.2c-0.8-0.1-1.5,0.8-1.5,2
			c0,1.3,0.7,2.4,1.5,2.6L170.1,336.3z"/>
		<path class="st7" d="M147.9,339.6l6.6,1.2c0.8,0.2,1.5-0.7,1.5-2c0-1.3-0.7-2.4-1.5-2.6l-6.6-1.2c-0.8-0.1-1.5,0.7-1.5,2
			C146.4,338.3,147.1,339.5,147.9,339.6z"/>
		<path class="st7" d="M182.3,333.8l-7.2-1.2c-0.9-0.1-1.6,0.8-1.6,2.1c0,1.3,0.7,2.5,1.6,2.6l7.2,1.3c0.9,0.2,1.6-0.8,1.6-2.1
			C183.9,335.1,183.2,333.9,182.3,333.8z"/>
		<path class="st7" d="M157.1,344.4l-9.2-1.8c-0.8-0.2-1.5,0.7-1.5,2c0,1.2,0.7,2.4,1.5,2.5l9.2,1.8c0.8,0.2,1.5-0.7,1.5-2
			C158.6,345.7,157.9,344.5,157.1,344.4z"/>
		<polygon class="st5" points="394.5,394.2 394.5,394.2 396.9,458.6 397,458.7 394.5,394.2 		"/>
		<path class="st5" d="M394.5,394.2l2.5,64.5l0,0c30.4-9.2,60.2-21.8,87.9-37.5L394.5,394.2L394.5,394.2z"/>
		<path class="st16" d="M539.4,311.6c0-0.1,0-0.1,0.1-0.2c0,0,0,0-0.1,0.1L539.4,311.6z"/>
		<path class="st16" d="M524.2,314l15-4.3c-0.1-1.7-0.2-3.3-0.2-5c-0.9,1-2,1.5-2.9,1.2c-1.3-0.4-1.9-2.2-1.6-4.3c0-0.2,0-0.5,0-0.7
			c0,0,0,0,0,0c-0.5-1.4-1.3-3.4-2-4.8c-1-2.3-1.4-4.8-1.3-7.3c0.1-2.2,0.5-4.4,1-6.6c-1.2,0-2.3,0.2-3.4,0.5
			c-1.3,0.4-2.6,1-3.9,1.5c-4.1,1.5-8.7,1.6-13,1.7c-0.1,0-0.2,0-0.3,0c-1.4,3.3-2.3,7.1-2.7,11.2l3.3-5.3l-0.8,14h-2.5
			c1,10.9,6,19.8,12.4,22.5c1-0.6,2-1.1,3.1-1.5V314z"/>
		<path class="st16" d="M524.2,326.8c-1.1,0.4-2.1,0.9-3.1,1.5c1,0.4,2,0.7,3.1,0.8V326.8z"/>
		<path class="st16" d="M539.3,311.6c-0.1-0.6-0.1-1.2-0.1-1.8l-15,4.3v12.8c2.3-0.9,4.8-1.4,7.4-1.4h1
			C535.5,322.1,537.8,317,539.3,311.6L539.3,311.6C539.3,311.5,539.3,311.5,539.3,311.6z"/>
		<path class="st16" d="M532.6,325.4h-1c-2.6,0-5.1,0.5-7.4,1.4v2.3c0.4,0,0.7,0.1,1.1,0.1C528,329.1,530.5,327.7,532.6,325.4z"/>
		<path class="st16" d="M508.7,297l-4.2,6.9c-0.5,0.8,0.1,1.9,1,1.9h3.2c-0.1-1.4-0.2-2.8-0.2-4.3C508.5,300,508.6,298.5,508.7,297z
			"/>
		<path class="st16" d="M512,291.7l-3.3,5.3c-0.1,1.5-0.2,2.9-0.2,4.5c0,1.5,0.1,2.9,0.2,4.3h2.5L512,291.7z"/>
		<path class="st20" d="M542,299c0,0.8,0.1,1.7,0.1,2.5c0,4.2-1.6,6.2-2.6,9.8c0,0,0,0.1,0,0.1c1.5-1.2,2.6-2.9,3.2-4.8
			c0.6-1.9,0.8-3.9,0.7-5.9c0-1.5-0.2-2.9-0.4-4.4c0,0.8,0.1,1.6,0.2,2.4C542.8,298.8,542.4,298.9,542,299z"/>
		<path class="st20" d="M542.1,301.5c0-0.8,0-1.7-0.1-2.5c-0.4,0.1-0.9,0.2-1.3,0.4c0.1,0.8-0.1,1.8-0.4,2.8c-0.3,1-0.8,1.9-1.4,2.6
			c0,1.7,0.1,3.4,0.2,5l0.2,0l0,1.8c0,0,0,0,0.1-0.1c0,0,0-0.1,0-0.1C540.5,307.7,542.1,305.7,542.1,301.5z"/>
		<path class="st20" d="M539.4,311.5l0-1.8l-0.2,0C539.2,310.3,539.2,310.9,539.4,311.5C539.3,311.5,539.3,311.5,539.4,311.5z"/>
		<path class="st20" d="M525.3,273.9c7.7,0,14.2,8.6,16.2,20.2c0.5,0.2,1,0.4,1.3,0.7c0.1,0.5,0.1,1,0.2,1.5
			c-0.1-2.2,0.3-4.5,0.8-6.7c0.7-3,1.9-6.2,0.7-9c-0.8-1.9-2.6-3.2-4-4.5c-4.9-5.1-12-7.3-18.9-6c-5.1,0.9-8.6,2.7-12.6,5.7
			c-1.2,0.9-2.2,2.1-2.8,3.5c-1.1,2.7,0.1,4.1,1.3,5.1c1.1,1,2.5,1.5,4,1.5C514.5,278.6,519.5,273.9,525.3,273.9z"/>
		<path class="st20" d="M524.8,284.2c1.3-0.5,2.6-1.1,3.9-1.5c1.1-0.3,2.3-0.5,3.4-0.5c0.1-0.2,0.1-0.5,0.2-0.7
			c0.8,0.1,1.7-0.3,2.3,0c0.3,0.1,0.5,0.3,0.7,0.5c0.5,0.5,1,1.1,1.3,1.8c0.4,1.1,0.1,2.3,0,3.4c-0.1,1,0,2-0.1,3
			c-0.1,0.9-0.4,1.8-0.6,2.6c-0.7,2.4-1.2,5.6-1.5,8.1c0,0.2,0,0.5,0,0.7c0.1-0.4,0.1-0.8,0.3-1.3c0.8-2.5,2.7-4.2,4.2-3.8
			c0-0.3,0-0.6,0-0.9c0-0.5,0.1-1.2,0.5-1.5c0.4-0.4,1-0.4,1.5-0.2c0.1,0.1,0.3,0.1,0.5,0.2c-2-11.7-8.5-20.2-16.2-20.2
			c-5.7,0-10.8,4.8-13.8,12c0.1,0,0.2,0,0.3,0C516.2,285.8,520.7,285.7,524.8,284.2z"/>
		<path class="st20" d="M541.5,294.1c0.3,1.6,0.4,3.2,0.5,4.9c0.4-0.1,0.8-0.2,1.1-0.3c-0.1-0.8-0.2-1.6-0.2-2.4
			c-0.1-0.5-0.1-1-0.2-1.5C542.4,294.5,541.9,294.3,541.5,294.1z"/>
		<path class="st20" d="M540.7,299.4c0.4-0.1,0.9-0.3,1.3-0.4c-0.1-1.7-0.3-3.3-0.5-4.9c-0.2-0.1-0.3-0.1-0.5-0.2
			c-0.5-0.2-1.1-0.2-1.5,0.2c-0.4,0.4-0.5,1-0.5,1.5c0,0.3,0,0.6,0,0.9c0,0,0.1,0,0.1,0C540,296.9,540.6,298,540.7,299.4z"/>
		<path class="st16" d="M537,300.9c-1.1,0.6-2.2,1.5-2.4,2.7c0-0.7-0.1-1.4-0.1-2.1c-0.3,2.1,0.3,3.9,1.6,4.3c0.9,0.3,2-0.2,2.9-1.2
			c0-1.5-0.1-3.1,0-4.6C538.2,300.3,537.6,300.6,537,300.9z"/>
		<path class="st16" d="M540.7,299.4c-0.6,0.2-1.2,0.4-1.8,0.7c0,1.5,0,3.1,0,4.6c0.6-0.7,1.1-1.5,1.4-2.6
			C540.7,301.2,540.8,300.2,540.7,299.4z"/>
		<path class="st16" d="M537,300.9c0.6-0.3,1.3-0.6,1.9-0.9c0-1.2,0-2.3,0.1-3.5c-1.5-0.4-3.4,1.2-4.2,3.8c-0.1,0.4-0.2,0.9-0.3,1.3
			c0,0.7,0,1.4,0.1,2.1C534.7,302.5,535.9,301.5,537,300.9z"/>
		<path class="st16" d="M538.9,300c0.6-0.2,1.2-0.5,1.8-0.7c-0.1-1.4-0.7-2.5-1.7-2.8c0,0-0.1,0-0.1,0
			C538.9,297.7,538.9,298.9,538.9,300z"/>
		<path class="st20" d="M534.4,282.3c-0.7-0.1-1.5-0.1-2.2-0.1c-0.5,2.2-0.9,4.4-1,6.6c-0.1,2.5,0.2,5,1.3,7.3
			c0.6,1.4,1.4,3.4,2,4.8c0,0,0,0,0,0C534.2,294.7,534.3,288.6,534.4,282.3z"/>
		<path class="st20" d="M536.6,290.2c0.1-1,0-2,0.1-3c0.1-1.1,0.4-2.3,0-3.4c-0.3-0.7-0.8-1.2-1.3-1.8c-0.2-0.2-0.4-0.4-0.7-0.5
			c-0.7-0.4-1.6,0.1-2.3,0c-0.1,0.2-0.1,0.5-0.2,0.7c0.8,0,1.5,0,2.2,0.1c-0.2,6.3-0.3,12.4,0,18.6c0.2-2.5,0.8-5.7,1.5-8.1
			C536.2,292,536.4,291.1,536.6,290.2z"/>
		<polygon class="st14" points="510.9,390.3 474.3,381.8 458.4,386.4 503.8,397.8 510.9,394.6 		"/>
		<path class="st14" d="M510.9,394.6l6-2.7c-0.2-0.1-0.5-0.3-0.7-0.4l-5.3-1.2V394.6z"/>
		<path class="st14" d="M517.2,391.7l-1-0.2c0.2,0.1,0.5,0.3,0.7,0.4L517.2,391.7z"/>
		<polygon class="st17" points="458.4,389.6 503.7,401.1 503.8,397.8 458.4,386.4 		"/>
		<polygon class="st17" points="510.9,394.6 503.8,397.8 503.7,401.1 511.7,395.6 510.9,395.6 		"/>
		<path class="st17" d="M510.9,394.6v1h0.7l5.3-3.7c0,0,0,0-0.1,0L510.9,394.6z"/>
		<path class="st17" d="M517,391.9l0.3-0.2L517,391.9C516.9,391.9,517,391.9,517,391.9z"/>
		<path class="st17" d="M127.4,375.2c32.9,9.6,66.1,18.3,99.5,26C194,391.6,160.8,382.9,127.4,375.2z"/>
		<path class="st17" d="M120.9,377.5c32.7,9.9,65.6,18.8,98.8,26.7C187,394.3,154.1,385.4,120.9,377.5z"/>
		<path class="st17" d="M114.2,379.7c23.5,7.6,47.3,14.3,71.3,19.9C162,392,138.2,385.4,114.2,379.7z"/>
		<path class="st17" d="M119.6,385.1c-0.1,0.2-0.3,0.5-0.5,0.7c2.3,0.7,4.6,1.5,6.8,2.2c1.5-0.2,2.8-0.1,3.7,0.6
			c0.2,0.2,0.3,0.4,0.3,0.6c16,4.9,32.1,9.3,48.4,13.3C158.9,396,139.3,390.2,119.6,385.1z"/>
		<path class="st17" d="M107.5,382c2.2,0.7,4.4,1.4,6.6,2.2c0.3-0.1,0.5-0.2,0.8-0.3C112.4,383.2,110,382.6,107.5,382z"/>
		<path class="st17" d="M112.2,402.1c-0.5,0.3-1,0.7-1.6,1c0,0,0.1,0,0.1,0c0.6-0.3,1.2-0.6,1.8-0.9
			C112.5,402.2,112.3,402.2,112.2,402.1z"/>
		<path class="st17" d="M123,405.9c-0.5,0.3-1,0.5-1.5,0.8c4.2,1.3,8.3,2.5,12.6,3.6C130.4,408.7,126.7,407.3,123,405.9z"/>
		<path class="st17" d="M125,394.2c1.4,0.5,2.7,1,4.1,1.5c0.3-0.1,0.7-0.2,1-0.3C128.4,395,126.7,394.6,125,394.2z"/>
		<path class="st17" d="M147.8,402c1.9,0.6,3.8,1.2,5.7,1.7c0.6-0.3,1.3-0.5,1.9-0.8l0,1.3c-0.6-0.2-1.3-0.4-1.9-0.6
			c-5.3,2.1-10.5,4.3-15.7,6.6c1.5-0.4,3-0.9,4.6-1.4c5.2-1.7,10.4-3.5,15.5-5.4c-7.6-2.4-15.2-4.7-22.9-6.8c-0.1,0.3-0.2,0.6-0.3,1
			C139,399.2,143.4,400.6,147.8,402z"/>
		<path class="st17" d="M155.4,402.9c-0.6,0.2-1.3,0.5-1.9,0.8c0.6,0.2,1.3,0.4,1.9,0.6L155.4,402.9z"/>
		<path class="st14" d="M231.2,426.1c0.9,0,1.8,0.4,2.1,1.2c0.4,1.1-0.6,2.2-1.5,3c-5.5,4.7-14.4,9.2-17.8,13.8
			c6.6-3.6,26.4-12.5,27.8-10.6c0.3,2.3-1.9,4.1-3.8,5.4c-5.4,3.7-12.4,7.6-17,11.9c4.4-1.7,8.9-5.2,13.2-7.4c1-0.5,2.1-1.1,3.3-1.1
			c1.2,0,2.4,0.6,2.7,1.7c0.3,1.1-0.4,2.1-1.1,2.9c0.3-0.1,0.5-0.2,0.8-0.3c6.5-2.8,16.1-8,16.3-16.2c0-1.7-0.5-3.6-1.8-4.7
			c-0.9-0.8-2-1.1-3.2-1.4c-0.3-0.1-0.6-0.1-1-0.2c-6.5-1.3-13.8-1.1-20.2,0.2c-6.1,1.3-12.1,3.9-16.4,8.6c-0.7,0.7-1.3,1.5-1.8,2.3
			c5.6-3,11.2-5.5,17-8.4C229.5,426.5,230.3,426.2,231.2,426.1z M243.2,427.8c2.5-2.3,8.7-2,11.6-1.2c-2,0.6-4.1,0.7-6.2,0.9l-3,0.2
			c-0.7,0.1-1.4,0.1-2,0.3c2.1,1.8,3.5,4.2,3.7,7.2c-2.5-6-8.4-8.6-13.7-11.4C236.8,424.3,240.5,425.6,243.2,427.8z"/>
		<path class="st4" d="M543.8,380.3c2.8-2.4,5.5-4.8,8.2-7.2l-1.1-20.2C550.1,365.5,546.7,374.6,543.8,380.3z"/>
		<path class="st19" d="M239.1,447c-6,2.5-12.4,3.9-18.8,4.2c-7.9,0.4-13.3-8.2-9.1-15c0.2-0.3,0.4-0.6,0.6-1c-2.3,1.2-4.7,2.6-7,4
			c4.9-4.1,9.7-8.2,14.6-12.4c0.8-0.7,1.6-1.3,1.9-2.3s0.2-2.2-0.7-2.7c-0.8-0.5-1.8-0.1-2.7,0.3c-15,6.4-27.9,17.5-36.6,31.3
			c-0.9,0.2,0.3,1.2-0.5,1.4c0,0.6,0,1.2,0,1.8c10.5,4.1,21.2,7.7,32.2,10.5c9-5.9,17.4-12.4,25.3-19.7
			C238.7,447.5,238.9,447.3,239.1,447z"/>
		<path class="st19" d="M220.3,451.3c6.4-0.4,12.9-1.8,18.8-4.2c0.8-0.8,1.4-1.8,1.1-2.9c-0.3-1.1-1.6-1.8-2.7-1.7
			c-1.2,0-2.3,0.6-3.3,1.1c-4.3,2.2-8.8,5.7-13.2,7.4c4.5-4.2,11.5-8.2,17-11.9c1.9-1.3,4.1-3.1,3.8-5.4c-1.5-1.9-21.2,7-27.8,10.6
			c3.4-4.6,12.2-9.1,17.8-13.8c0.9-0.8,1.9-1.9,1.5-3c-0.3-0.8-1.2-1.3-2.1-1.2c-0.9,0-1.7,0.4-2.4,0.8c-5.8,2.9-11.4,5.4-17,8.4
			c-0.2,0.3-0.4,0.6-0.6,1C207,443.1,212.3,451.7,220.3,451.3z"/>
		<path class="st19" d="M110.7,412l-7.5-2.8c1.2,1.1,2.4,2.1,3.7,3.2c0.6,0,1.1,0,1.6-0.1C109.2,412.1,109.9,412.1,110.7,412z"/>
		<path class="st19" d="M112.1,411.8c0.8-0.4,1.5-0.9,2.3-1.3c0.2-0.1,0.5-0.3,0.7-0.4l-18.3-6.9c2.1,2,4.2,4,6.4,5.9l7.5,2.8
			C111.2,411.9,111.6,411.8,112.1,411.8z"/>
		<path class="st19" d="M135,395.1c-0.5-0.5-2.3-0.3-4.9,0.4c1.6,0.4,3.2,0.8,4.9,1.3C135.1,396.2,135.1,395.6,135,395.1z"/>
		<path class="st19" d="M119.8,383.8c-1.3-0.7-3-0.6-4.9,0.1c1.6,0.4,3.1,0.8,4.7,1.2C119.9,384.5,120,384.1,119.8,383.8z"/>
		<path class="st19" d="M127.1,402.7c-1.9,1.2-3.9,1.9-6.1,2.4c0.7,0.2,1.3,0.5,2,0.7c2-1.1,4.1-2.2,6.1-3.3
			c1.5-0.8,3.1-1.6,4.2-2.9c0.6-0.6,1-1.3,1.3-2c-1.9-0.6-3.7-1.3-5.6-2c-4.8,1.4-11.4,4-16.5,6.5c2.7,0.9,5.3,1.8,7.9,2.7
			C122.6,403.9,124.8,403.1,127.1,402.7z"/>
		<path class="st19" d="M121.5,406.7c-3.6-1.1-7.2-2.3-10.7-3.5c-0.6,0.3-1.1,0.6-1.7,0.9c0.5-0.3,1-0.7,1.5-1
			c-2.2-0.7-4.3-1.5-6.5-2.2l1.9-0.6c5.2-1.8,10.4-3.5,15.7-4.9c-2.5,1.1-5,2.2-7.6,3.2c-1.9,0.8-3.9,1.5-5.8,2.3
			c1.3,0.4,2.6,0.8,3.8,1.3c4.4-2.9,8.8-5.7,13.2-8.6c1.6-1.1,4.5-3,4.4-4.4c-1.3-0.4-2.6-0.8-4-1.2c-4.5,0.7-11.2,4.4-15.5,7.1
			c-2.1,1.3-4.9,2.6-7,3.9c4.1-4,12.8-9.9,15.6-13.2c-1.7-0.5-3.3-1.1-5-1.6c-5.5,2.3-12.5,8.6-17.6,11.6c3.2-4,13-8.5,11.3-10.1
			c-2.7-2.2-12.3,3.4-19.1,9.3c2.7,2.8,5.4,5.6,8.2,8.2l18.3,6.9C117.2,409,119.4,407.8,121.5,406.7z"/>
		<path class="st19" d="M114.9,383.9c-0.3,0.1-0.5,0.2-0.8,0.3c1.6,0.5,3.3,1.1,5,1.6c0.2-0.3,0.4-0.5,0.5-0.7
			C118,384.7,116.4,384.3,114.9,383.9z"/>
		<path class="st19" d="M129.5,388.5c-0.8-0.7-2.1-0.8-3.7-0.6c1.3,0.4,2.6,0.8,4,1.2C129.8,388.9,129.7,388.7,129.5,388.5z"/>
		<path class="st19" d="M106.5,401.6c0.6-0.2,1.2-0.5,1.8-0.7c-0.6-0.2-1.2-0.4-1.8-0.6L106.5,401.6z"/>
		<path class="st19" d="M121,405.2c-0.4,0.1-0.8,0.2-1.2,0.3c0.3-0.2,0.5-0.3,0.8-0.4c-2.6-0.9-5.3-1.9-7.9-2.7
			c-0.6,0.3-1.2,0.6-1.8,0.9c3.6,1.2,7.1,2.4,10.7,3.5c0.5-0.3,1-0.5,1.5-0.8C122.3,405.7,121.7,405.4,121,405.2z"/>
		<path class="st19" d="M108.4,400.9c-0.6,0.2-1.2,0.5-1.8,0.7l0-1.3C107.1,400.5,107.8,400.7,108.4,400.9c2-0.7,3.9-1.5,5.8-2.3
			c2.5-1,5.1-2.1,7.6-3.2c-5.3,1.4-10.5,3.1-15.7,4.9l-1.9,0.6c2.1,0.8,4.3,1.5,6.5,2.2c0.5-0.3,1-0.7,1.6-1
			C110.9,401.7,109.7,401.3,108.4,400.9z"/>
		<path class="st19" d="M135,396.8c-1.6-0.4-3.2-0.9-4.9-1.3c-0.3,0.1-0.7,0.2-1,0.3c1.8,0.7,3.7,1.3,5.6,2
			C134.8,397.4,134.9,397.1,135,396.8z"/>
		<path class="st19" d="M120.6,405c0.2,0.1,0.3,0.1,0.5,0.2c2.1-0.5,4.2-1.3,6.1-2.4C124.8,403.1,122.6,403.9,120.6,405z"/>
		<path class="st19" d="M119.8,405.4c0.4-0.1,0.8-0.2,1.2-0.3c-0.2-0.1-0.3-0.1-0.5-0.2C120.3,405.1,120,405.3,119.8,405.4z"/>
		<path class="st19" d="M122.5,416.4l-11.2-4.2c-0.9,0.5-1.8,1.1-2.8,1.6c2.2,1.8,4.4,3.6,6.6,5.4c0.8-0.1,1.7-0.3,2.5-0.5
			C119.4,418.2,121.1,417.4,122.5,416.4z"/>
		<path class="st19" d="M125.3,414l-7.6-2.9c-1.9,0.2-3.7,0.5-5.6,0.7c-0.2,0.1-0.5,0.3-0.7,0.4l11.2,4.2
			C123.5,415.7,124.5,414.9,125.3,414z"/>
		<path class="st19" d="M125.7,413.5c0.4-0.5,0.8-1.2,0.7-1.9c-0.1-0.6-0.7-1-1.3-1.2c-0.6-0.1-1.2-0.1-1.9,0
			c-1.7,0.2-3.5,0.4-5.2,0.6c-0.1,0-0.2,0-0.3,0l7.6,2.9C125.4,413.8,125.6,413.7,125.7,413.5z"/>
		<path class="st19" d="M110.7,412c-0.7,0.1-1.5,0.2-2.2,0.3c-0.5,0.1-1,0.1-1.6,0.1c0.6,0.5,1.2,1,1.7,1.5c0.9-0.5,1.8-1.1,2.8-1.6
			L110.7,412z"/>
		<path class="st19" d="M110.7,412l0.7,0.3c0.2-0.1,0.5-0.3,0.7-0.4C111.6,411.8,111.2,411.9,110.7,412z"/>
		<path class="st5" d="M247.2,435.3c-0.2-3-1.6-5.3-3.7-7.2c-0.3,0.1-0.6,0.2-0.9,0.3c0.2-0.2,0.3-0.4,0.6-0.6
			c-2.7-2.2-6.4-3.6-9.7-4C238.8,426.7,244.8,429.3,247.2,435.3z"/>
		<path class="st5" d="M245.6,427.8l3-0.2c2.1-0.2,4.1-0.3,6.2-0.9c-2.8-0.9-9.1-1.1-11.6,1.2c0.1,0.1,0.2,0.2,0.3,0.3
			C244.2,427.9,244.8,427.9,245.6,427.8z"/>
		<path class="st5" d="M242.6,428.5c0.3-0.2,0.6-0.3,0.9-0.3c-0.1-0.1-0.2-0.2-0.3-0.3C243,428,242.8,428.2,242.6,428.5z"/>
	</g>
	<path class="st21" d="M310.6,384.2c-0.3,0.6-0.4,1.4-0.4,2.1c-0.1,3.9,0.1,7.9,1.6,11.4c1.5,3.6,4.4,6.7,8.1,7.7
		c0.3,0.1,0.6,0.1,0.9,0.1c0.5-0.1,0.9-0.6,1-1.1c0.5-1.4,0.1-2.9-0.2-4.3c-1.2-4.7-1.7-9.6-1.5-14.5c0-0.5,0-1-0.1-1.4
		c-0.1-0.4-0.4-0.7-0.7-1C316.8,380.8,312.3,380.8,310.6,384.2"/>
	<path class="st22" d="M301.1,311.9c-0.5,1.2-0.9,2.4-1.2,3.7c-0.3,1.3,0.2,3.7,0.5,5c-0.6,0.4-1.5,1.1-2.2,1.6
		c-0.7,0.4-2.4,1.6-3,2.1c-0.8,0.6-1.4,1.5-1.4,2.1c0,0.9,1.1,0.9,1.7,0.8c0.5-0.1,1-0.4,1.4-0.7c2.8-1.7,6.1-2.7,8.5-5.1
		c2-2,1.6-5.3,2-8.1c0.1-0.7,0.2-1.5-0.3-2.1c-0.3-0.4-0.8-0.6-1.3-0.8C303.9,309.9,301.7,310.2,301.1,311.9"/>
	<path class="st23" d="M320.7,243.9c-5.4,4.3-8.9,10.4-11.7,16.6c-3,6.8-5.5,13.8-6.7,21.1c-0.8,4.7-1.1,9.4-1,14.1
		c0.1,4.3-1.1,12.6-1,16.9c1.7,0.9,5.1,1.1,7.4,0.3c0.5-3.4,2.5-17,3.5-20.3c1.1-3.8,2.2-7.7,3.3-11.5c0.6-2.1,1.2-4.3,2.2-6.2
		c0.8-1.7,1.9-3.2,2.9-4.7c2.6-4,4.7-8.3,5.4-12.9C325.6,252.7,323.8,247.5,320.7,243.9"/>
	<path class="st23" d="M315.4,262.8c-3.7,4.7-8.5,12-13.6,22.6c-0.3,3-0.5,5.9-0.5,8.9c0,0.5,0,1,0,1.4c0,0.1,0,0.3,0,0.4
		c0,4.2-1,11.6-1,15.9c0,0.2,0,0.4,0,0.6c1,0.5,2.5,0.8,4,0.8c1.2,0,2.3-0.2,3.3-0.5c0.5-3.4,2.5-17,3.5-20.3
		c1.1-3.8,2.2-7.7,3.3-11.5c0.4-1.4,0.8-2.9,1.3-4.2C315.7,272.3,315.5,267.5,315.4,262.8"/>
	<g>
		<defs>
			<polyline id="SVGID_1_" points="293.9,245.9 322.6,245.9 322.6,304 293.9,304 293.9,245.9 			"/>
		</defs>
		<clipPath id="SVGID_00000170991601103152505650000011209843977234006184_">
			<use xlink:href="#SVGID_1_"  style="overflow:visible;"/>
		</clipPath>
		<path style="clip-path:url(#SVGID_00000170991601103152505650000011209843977234006184_);fill:#0093C9;" d="M315.6,249.2
			c-2.7,3.4-4.7,7.3-6.5,11.3c-3,6.8-5.5,13.8-6.7,21.1c-0.2,1.3-0.4,2.5-0.5,3.8c5.1-10.6,9.9-17.8,13.6-22.6c0-1.7,0-3.4,0-5
			C315.4,254.8,315.5,251.9,315.6,249.2"/>
	</g>
	<path class="st21" d="M384,393.4c0.3,0,0.6,0.1,0.8,0.2c0.5,0.3,0.7,0.9,0.7,1.5c0.1,2.1-1.7,3.8-3.5,4.9
		c-4.4,2.7-9.5,4.1-14.5,5.4c-1.2,0.3-2.5,0.6-3.4-0.2c-0.5-0.4-0.7-1.1-0.9-1.7c-0.7-2-2.9-5.5-1-6.6c1.5-0.9,5.4-0.6,7.2-1.1
		C374.3,394.6,379,392.7,384,393.4z"/>
	<path class="st25" d="M327,328c2.4,1.3,5.7,1.3,7.7-0.6c2.4-2.2,2.2-6,1.7-9.3c-0.9-5.8-4.5-15.4-12.3-13.3
		c-5.5,1.5-4.4,9.6-3.3,13.7C321.7,322.1,323.6,326.1,327,328"/>
	<path class="st25" d="M363.2,401.6c-11.5-16-19.6-34.5-23.6-53.8c-2.4-11.5-3.6-23.9-10.4-33.4c6.3-0.3,12.1-1.9,18.4-2.7
		c5.9,28.3,13.4,55.5,19.3,83.7c0.3,1.3,0.5,3.3-0.6,4.7C365.4,401.1,364,402.7,363.2,401.6"/>
	<path class="st25" d="M332.8,310.5c2.4,8.1,3.8,16.3,5.1,24.6c1.3,8.4,2.3,16.8,2.9,25.2c0.3,3.1-1.7,5.5-3.4,7.9
		c-0.7,1-1.8,2.2-2.5,3.2c-4,4.9-9.3,10.6-13.5,15.3l-2.8,3l-7.9-5.5c2.9-6.2,6.4-12,10.6-17.3c2.9-3,5.7-6,9.4-8.2l-0.8,3.3
		c-4.1-10.9-6.9-22.1-9.1-33.5c-0.5-3-1-6.3-1.2-9.3c-0.2-2.1-0.3-4.2-0.2-6.3L332.8,310.5"/>
	<path class="st25" d="M330.8,358.6L330.8,358.6L330.8,358.6 M330.8,358.6L330.8,358.6L330.8,358.6 M319.4,313.1c0,0.3,0,0.7,0,1
		c0,1.7,0.1,3.3,0.2,5c0.2,3,0.7,6.4,1.2,9.3c2.1,10.6,4.6,21.1,8.3,31.2l0,0l0,0c-3,2.1-5.3,4.6-7.8,7.2
		c-4.3,5.3-7.8,11.1-10.6,17.3l7.9,5.5l2.8-3c4.2-4.7,9.5-10.4,13.5-15.3c0.7-0.8,1.6-1.9,2.3-2.9l-1.5,1.8h0l-1.9-46.2l5.8,23.7
		c-0.5-4.2-1.1-8.4-1.7-12.6c-1-6.5-2.1-12.9-3.6-19.2c-3.7-0.2-7.4-0.5-11-1.2C321.9,314.4,320.6,313.9,319.4,313.1"/>
	<g>
		<defs>
			<polyline id="SVGID_00000037661719908709998410000008366886028338417577_" points="333.8,324.1 341.8,324.1 341.8,370.3 
				333.8,370.3 333.8,324.1 			"/>
		</defs>
		<clipPath id="SVGID_00000041999751367159716550000004733940472406346134_">
			<use xlink:href="#SVGID_00000037661719908709998410000008366886028338417577_"  style="overflow:visible;"/>
		</clipPath>
		<path style="clip-path:url(#SVGID_00000041999751367159716550000004733940472406346134_);fill:#001C3D;" d="M333.8,324.1
			L333.8,324.1l1.9,46.2h0l1.5-1.8c0.1-0.1,0.2-0.2,0.2-0.3c1.6-2.2,3.4-4.4,3.4-7.3c0-0.2,0-0.4,0-0.6c-0.3-4.2-0.7-8.4-1.2-12.6
			L333.8,324.1"/>
	</g>
	<path class="st23" d="M316.2,242.5c-2,14.1,0.6,39.9-0.6,54.1c-0.3,3.5-0.6,7.1,0.1,10.5c0.4,2.2,1.3,3.7,2.6,5
		c1.4,1.3,3.1,2.2,5,2.6c6.2,1.3,12.8,1.3,19.1,1.4c1.8,0,3.7,0.1,5.3-0.8c3.5-1.8,4.1-6.6,3.9-10.5c-0.3-6-2.1-11.6-3.5-17.4
		c-1.5-6-2.8-12-4-18c-1-5.2-2-10.7-4.8-15.3c-3-5-7.9-8.4-11.6-12.8c-0.5-0.6-3.6-0.1-6.5,0.5C318.7,242.3,316.5,242.7,316.2,242.5
		"/>
	<path class="st27" d="M359.2,285c-4-5.6-6.7-12.1-9.7-18.4c-4-8.4-9.1-17.1-17.6-21.1c-2.4-1.1-6.4,2.1-7.2,4.6
		c-2.4,7,1.8,14.5,6.1,20.5c5.7,7.9,12.1,15.4,19.1,22.3c1.4,1.3,5.3,2.1,7.1,1.5C361,292.9,360.6,287,359.2,285"/>
	<path class="st27" d="M331.5,245.4c2.8,2.7,5.7,5.4,7.7,8.7c2.8,4.7,3.8,10.1,4.8,15.3c1.2,6,2.5,12,4,18c0.3,1.3,0.6,2.5,1,3.8
		c1.2,1.1,2.5,2.2,3.9,3.1c0.8,0.2,1.7,0.3,2.4,0.3c0.6,0,1.2-0.1,1.7-0.3c2.3-0.9,3.2-3.3,3.2-5.5c0-1.6-0.4-3-1-3.8
		c-4-5.6-6.7-12.1-9.7-18.4c-4-8.4-9.1-17.1-17.6-21.1C331.8,245.5,331.7,245.4,331.5,245.4"/>
	<g>
		<defs>
			<polyline id="SVGID_00000051385788887507477500000013369399194355890583_" points="322.9,267 355.1,267 355.1,295.7 322.9,295.7 
				322.9,267 			"/>
		</defs>
		<clipPath id="SVGID_00000155868145908170389870000009139027718017353867_">
			<use xlink:href="#SVGID_00000051385788887507477500000013369399194355890583_"  style="overflow:visible;"/>
		</clipPath>
		<path style="clip-path:url(#SVGID_00000155868145908170389870000009139027718017353867_);fill:#0073A9;" d="M349,291.2
			c0.1,0.3,0.2,0.7,0.3,1c0.2,0.2,0.5,0.5,0.7,0.7c0.6,0.6,1.8,1.1,3,1.4C351.5,293.4,350.2,292.3,349,291.2"/>
	</g>
	<polygon class="st22" points="374.1,255.6 370.7,262.4 375.4,264 378.7,255.4 	"/>
	<path class="st23" d="M334.9,276c-1.4,13.4-5,27.7-5,27.7c-2.7,5.4-5.3,7.4-7.6,7.4h0c-2.6,0-5-2.5-6.8-5.2
		c0.1,0.4,0.1,0.8,0.2,1.2c0.4,2.2,1.3,3.7,2.6,5c1.4,1.3,3.1,2.2,5,2.6c6.2,1.3,12.8,1.3,19.1,1.4c0.3,0,0.7,0,1,0
		c1.5,0,3-0.1,4.3-0.8c3.1-1.6,3.9-5.5,3.9-9.1c0-0.5,0-1,0-1.4c-0.2-4.3-1.2-8.5-2.3-12.6C344.1,287.1,339.3,281.7,334.9,276
		 M326.4,241.1c-0.5,0-1.1,0.1-1.8,0.2l4.5,4.2l0.1,0.2c0.6-0.3,1.2-0.4,1.8-0.4c0.2,0,0.4,0,0.6,0.1c-1.4-1.3-2.7-2.6-3.9-4
		C327.4,241.2,327,241.1,326.4,241.1"/>
	<path class="st27" d="M330.9,245.3c-0.6,0-1.2,0.2-1.8,0.4l6.2,20.7c0,0.3,0,0.5,0,0.8v0c0,1,0,2-0.1,3.1c1.8,4.8,6,13.9,13.7,20.9
		c-0.3-1.2-0.7-2.5-1-3.8c-1.5-6-2.8-12-4-18c-1-5.2-2-10.7-4.8-15.3c-2-3.4-4.9-6-7.7-8.7C331.3,245.3,331.1,245.3,330.9,245.3"/>
	<path class="st23" d="M335.3,270.3c-0.1,1.8-0.2,3.7-0.4,5.7c4.5,5.7,9.3,11.1,14.4,16.3c-0.1-0.3-0.2-0.7-0.3-1
		C341.3,284.3,337.1,275.1,335.3,270.3"/>
	<g>
		<defs>
			<polyline id="SVGID_00000124136610321773850930000012630607839168363149_" points="311.9,233.6 335.4,233.6 335.4,311.1 
				311.9,311.1 311.9,233.6 			"/>
		</defs>
		<clipPath id="SVGID_00000082360255534593940660000009218741415429077178_">
			<use xlink:href="#SVGID_00000124136610321773850930000012630607839168363149_"  style="overflow:visible;"/>
		</clipPath>
		<path style="clip-path:url(#SVGID_00000082360255534593940660000009218741415429077178_);fill:#0093C9;" d="M324.5,241.2
			c-1.1,0.1-2.3,0.4-3.4,0.6c-1.9,0.4-3.7,0.7-4.5,0.7c-0.2,0-0.3,0-0.4-0.1c-0.6,4.3-0.8,9.6-0.8,15.3c0,9.3,0.5,19.8,0.5,28.7
			c0,3.7-0.1,7.2-0.3,10.1c-0.2,1.9-0.3,3.8-0.3,5.7c0,1.2,0.1,2.4,0.2,3.6c1.8,2.7,4.1,5.2,6.8,5.2h0c2.4,0,4.9-2,7.6-7.4
			c0,0,3.7-14.4,5-27.7c-1.4-1.7-2.7-3.5-4-5.3c-3.5-4.8-6.8-10.5-6.8-16.3c0-1.4,0.2-2.9,0.7-4.3c0.5-1.6,2.5-3.6,4.4-4.4l-0.1-0.2
			L324.5,241.2"/>
		<path style="clip-path:url(#SVGID_00000082360255534593940660000009218741415429077178_);fill:#0093C9;" d="M329.1,245.7
			c-1.9,0.8-3.8,2.8-4.4,4.4c-0.5,1.4-0.7,2.9-0.7,4.3c0,4.4,2,8.8,4.5,12.8l5.6-0.2h0c0,0,0.3,1.3,1.1,3.3c0-1.1,0.1-2.1,0.1-3.1v0
			c0-0.3,0-0.5,0-0.8L329.1,245.7"/>
		<path style="clip-path:url(#SVGID_00000082360255534593940660000009218741415429077178_);fill:#0093C9;" d="M334.2,267L334.2,267
			l-5.6,0.2c0.7,1.2,1.5,2.3,2.3,3.4c1.3,1.8,2.6,3.6,4,5.3c0.2-1.9,0.3-3.8,0.4-5.7C334.5,268.3,334.2,267,334.2,267"/>
	</g>
	<ellipse class="st22" cx="330.7" cy="225.3" rx="9.6" ry="20.2"/>
	<path class="st16" d="M330.5,211.4c2.1,15,1.7,30.3-1.4,45.2c-8.8-0.6-17.6-2.1-26.1-4.4c3.5-6.9,7.1-14,8.4-21.6
		c1-5.5,0.8-11.2,1.8-16.7s3.3-11.3,8.3-13.9c2.1-1.1,5-0.6,6.7,1.1c1.1,1.2,1.4,2.9,1.6,4.5C330.1,207.1,330.3,210,330.5,211.4z"/>
	<path class="st16" d="M328,214.2c4.6,0.6,9.3,1,14,1c-0.5-2.4-1.4-4.8-2.3-7.1c-1-2.3-2.4-4.4-4.4-5.8c-1.8-1.3-4-1.9-6.2-2.4
		c-1.6-0.4-4.3-1-5.9-0.3c-1.1,0.5-1,1.7-1.5,2.9c-1,2.3-0.9,4.9,0.3,7.1C323,211.9,325.5,213.9,328,214.2z"/>
	<path class="st22" d="M339,217.5l4.2,8.5c0.3,0.6-0.1,1.3-0.8,1.3H338L339,217.5z"/>
	<path class="st27" d="M370.7,260c2.7,1.2,3.5,1.4,5.8,1.8c-2.6,9.8-5.6,15.6-9.7,22.6c-2.7,4.6-4,8.5-9.2,9.7
		c-0.8,0.2-1.6,0.3-2.4,0.3c-1.8-0.1-3.5-1.2-4.6-2.7c-0.8-1.1-2-3.3-1.7-4.8c0.3-1.5,1,1.2,1.8-0.1c2.5-3.5,5.7-5.4,8.1-9
		C359,277.8,368.9,265,370.7,260z"/>
	<path class="st22" d="M381.3,248.7c-0.4,1.9-1.8,6.6-3,7.8c-1.2,1.3-2.2-1-3.5-1.9c-0.1-0.1-0.3-0.2-0.3-0.3
		c-0.1-0.2-0.1-0.3-0.2-0.5c-0.4-2.1-0.1-4.4,0.1-6.6c0.2-1.2,0.3-2.4,0.6-3.6c0.3-1.2,0.7-2.3,1.2-3.4c0.6-1.4,2.7-4.3,4-2.6
		c0.6,0.8,0.8,2.1,1,3.1c0.3,1.2,0.4,2.5,0.4,3.8C381.7,245.9,381.5,247.3,381.3,248.7z"/>
	<path class="st5" d="M372.9,255.1l-6.4-2.6c-1.5-0.6-2.3-2.4-1.6-3.9l7.4-18.1c0.6-1.5,2.4-2.3,3.9-1.6l6.4,2.6
		c1.5,0.6,2.3,2.4,1.6,3.9l-7.4,18.1C376.2,254.9,374.5,255.7,372.9,255.1z"/>
	<path class="st5" d="M374.1,255.6c-0.4,0-0.9-0.1-1.3-0.3l-6.4-2.6c-1.7-0.7-2.5-2.7-1.8-4.4l7.4-18.1c0.7-1.7,2.7-2.5,4.4-1.8
		l6.4,2.6c1.7,0.7,2.5,2.7,1.8,4.4l-7.4,18.1C376.6,254.9,375.4,255.6,374.1,255.6z M373.1,254.7c1.3,0.5,2.9-0.1,3.4-1.4l7.4-18.1
		c0.5-1.3-0.1-2.9-1.4-3.4l-6.4-2.6c-1.3-0.5-2.9,0.1-3.4,1.4l-7.4,18.1c-0.5,1.3,0.1,2.9,1.4,3.4L373.1,254.7z"/>
	<path class="st3" d="M372,253.6l-6.1-2.5c-1.5-0.6-2.2-2.3-1.6-3.7l7.1-17.3c0.6-1.5,2.3-2.2,3.7-1.6l6.1,2.5
		c1.5,0.6,2.2,2.3,1.6,3.7l-7.1,17.3C375.2,253.5,373.5,254.2,372,253.6z"/>
	<path class="st22" d="M373.2,253.4c0-0.2,0.1-0.4,0.2-0.6c0.2-0.6,0.8-1.6,0.3-2.3c-1-1.5-1.3-1.7-1.7-3.4
		c-0.4-1.5-0.6-3.2,0.5-4.2c1-0.9,1.3,0.4,1.9,2.2c0.3,1,0.7,1.8,1.2,2.7c0.5,1,1.9,2.8,2.6,3.6c0.3,0.3,0.8,0.7,1,1.2
		c0.1,0.5,0,1.2-0.2,1.6c-0.2,0.9-0.7,1.8-1.4,2.5c-0.6,0.6-1.4,1.5-2.3,1.4c-0.4,0-0.7-0.3-1-0.5c-0.7-0.6-1.1-1.4-1.3-2.3
		C373.1,254.7,373.1,254,373.2,253.4z"/>
	<path class="st21" d="M310.8,384.2c0,0,7.5,1.7,9.4,1.2l-0.2,4l-5.2,1.9c0,0-1.8-0.4-1.9-0.6C312.8,390.5,310.8,384.2,310.8,384.2z
		"/>
	<path class="st25" d="M311.7,384.1c0,0,4.7,1.1,8.3,3.9l3.3-5.5l-4.5-1.1L311.7,384.1z"/>
	<path class="st5" d="M440.3,392.9l6.2-2.3c0.2-0.1,0.3-0.1,0.5,0l40,9.2c0.8,0.2,1,1.3,0.2,1.7l-5.6,2.8c-0.2,0.1-0.4,0.1-0.6,0.1
		l-40.6-9.6C439.5,394.4,439.5,393.3,440.3,392.9"/>
	<path class="st17" d="M462.5,398.5c-2.2,0-4.1-1.8-4.1-4.1v-19.9h8.1v19.9C466.6,396.6,464.7,398.5,462.5,398.5"/>
	<path class="st17" d="M458.4,378.7v15.7c0,2.2,1.8,4.1,4.1,4.1c1.1,0,2.1-0.4,2.8-1.2v-17L458.4,378.7"/>
	<g>
		<defs>
			<polyline id="SVGID_00000083778937541444874660000000017447428836205997_" points="465.3,373.1 467.4,373.1 467.4,400 465.3,400 
				465.3,373.1 			"/>
		</defs>
		<clipPath id="SVGID_00000017511381788854042890000010562629921843534736_">
			<use xlink:href="#SVGID_00000083778937541444874660000000017447428836205997_"  style="overflow:visible;"/>
		</clipPath>
		<path style="clip-path:url(#SVGID_00000017511381788854042890000010562629921843534736_);fill:#6F99A3;" d="M465.3,380.3v17
			c0.8-0.7,1.2-1.8,1.2-2.9v-5.9V384v-3.5L465.3,380.3"/>
	</g>
	<path class="st5" d="M423,296.3l4.8,73.4c0.1,1.4,1.1,2.5,2.4,2.8l68.5,15.1c2,0.4,3.8-1.1,3.7-3.1l-4-77c-0.1-1.1-0.9-2-2-2.2
		l-70.8-11.4C424.2,293.6,422.9,294.8,423,296.3"/>
	<path class="st5" d="M427.3,306.8c0-3.6,3-6.4,6.5-6.4c0.4,0,0.7,0,1.1,0.1l48.2,8.4c5.4,0.9,9.3,5.5,9.6,10.9l2.8,62.4l-63.6-14.1
		l-4.6-60.7c0-0.1,0-0.3,0-0.4V306.8 M425.3,293.8c-1.3,0-2.3,1-2.3,2.3c0,0.1,0,0.1,0,0.2l4.8,73.4c0.1,1.4,1.1,2.5,2.4,2.8
		l68.5,15.1c0.2,0,0.4,0.1,0.7,0.1c0.8,0,1.6-0.3,2.1-0.9l-4.7-81.4c-0.1,0-0.2-0.1-0.3-0.1l-70.8-11.4
		C425.5,293.9,425.4,293.8,425.3,293.8"/>
	<g>
		<defs>
			<polyline id="SVGID_00000068651590333326008570000007966449155161460378_" points="427.3,294.6 519.3,294.6 519.3,389 427.3,389 
				427.3,294.6 			"/>
		</defs>
		<clipPath id="SVGID_00000018232670589908202600000017680263290897849518_">
			<use xlink:href="#SVGID_00000068651590333326008570000007966449155161460378_"  style="overflow:visible;"/>
		</clipPath>
		<path style="clip-path:url(#SVGID_00000018232670589908202600000017680263290897849518_);fill:#4B7682;" d="M496.7,305.4l4.7,81.4
			c0.6-0.6,0.9-1.3,0.9-2.2c0-0.1,0-0.1,0-0.2l-0.2-3.4l-0.1-1.3l-0.1-2.2l-1-19.2l-2.6-50.8C498.4,306.5,497.7,305.7,496.7,305.4"
			/>
		<path style="clip-path:url(#SVGID_00000018232670589908202600000017680263290897849518_);fill:#4B7682;" d="M433.7,300.4
			c-3.5,0-6.4,2.8-6.5,6.4v0.1c0,0.1,0,0.3,0,0.4l4.6,60.7l63.6,14.1l-2.8-62.4c-0.2-5.4-4.2-10-9.6-10.9l-48.2-8.4
			C434.5,300.4,434.1,300.4,433.7,300.4"/>
	</g>
	<path class="st5" d="M478.6,388.3l-34.2-7.3l-2.8-52.1c-0.4-8.2,6.9-14.7,15-13.3l5,0.9c7.7,1.3,13.5,7.8,13.9,15.6L478.6,388.3z"
		/>
</g>
</svg>
