<?xml version="1.0" encoding="UTF-8"?>
<svg width="535px" height="430px" viewBox="0 0 535 430" version="1.1" xmlns="http://www.w3.org/2000/svg" xmlns:xlink="http://www.w3.org/1999/xlink">
    <!-- Generator: Sketch 64 (93537) - https://sketch.com -->
    <title>Group 5</title>
    <desc>Created with Sketch.</desc>
    <defs>
        <polygon id="path-1" points="0.000652825165 0.718974875 532.995594 0.718974875 532.995594 348 0.000652825165 348"></polygon>
        <polygon id="path-3" points="0.0633001868 0.718974875 532.251822 0.718974875 532.251822 348 0.0633001868 348"></polygon>
        <path d="M16.9914837,157.69688 C50.3758325,266.469238 145.912019,347.432702 267.552792,348.00097 C389.191623,348.564188 531.721893,254.00345 532.251822,140.213283 C532.778507,26.4231151 404.120184,41.1266011 282.479411,40.5608581 C160.842522,39.9951151 -63.1810649,-103.520863 16.9914837,157.69688" id="path-5"></path>
        <polygon id="path-7" points="0.103629112 0.413218518 307.253779 0.413218518 307.253779 227.836807 0.103629112 227.836807"></polygon>
        <polygon id="path-9" points="0.569143654 0.439557746 358.532244 0.439557746 358.532244 137 0.569143654 137"></polygon>
    </defs>
    <g id="home" stroke="none" stroke-width="1" fill="none" fill-rule="evenodd">
        <g id="Tempo-homepage" transform="translate(-754.000000, -6170.000000)">
            <g id="Group-5" transform="translate(754.000000, 6170.000000)">
                <g id="Group-3" transform="translate(0.000000, 82.000000)">
                    <mask id="mask-2" fill="white">
                        <use xlink:href="#path-1"></use>
                    </mask>
                    <g id="Clip-2"></g>
                    <path d="M16.9546522,157.69688 C50.3897033,266.469238 146.070984,347.432702 267.894554,348.00097 C389.720068,348.564188 532.466805,254.00345 532.995594,140.213283 C533.523079,26.4231151 404.669357,41.1266011 282.845787,40.5608581 C161.022218,39.9951151 -63.339658,-103.520863 16.9546522,157.69688" id="Fill-1" fill="#F7F9FC" mask="url(#mask-2)"></path>
                </g>
                <g id="Group-6" transform="translate(2.000000, 82.000000)">
                    <mask id="mask-4" fill="white">
                        <use xlink:href="#path-3"></use>
                    </mask>
                    <g id="Clip-5"></g>
                    <mask id="mask-6" fill="white">
                        <use xlink:href="#path-5"></use>
                    </mask>
                    <use id="Fill-4" fill="#F1F1F1" xlink:href="#path-5"></use>
                    <path d="M75,214 L439.697103,13.201569 C442.298483,12.3714217 444.047653,9.93347168 444,7.20584496 L441.592199,-127 L355.464542,-38.4736401 C354.155096,-36.202886 351.553717,-35.0091848 348.975685,-35.4893871 L283.787481,-47.6771931 C281.365104,-48.1301775 278.903814,-47.1017281 277.52627,-45.0603823 L215.941473,46.1158387 C214.929717,47.6128256 213.314799,48.5926716 211.520878,48.7968061 L143.807176,56.5616965 C141.441224,56.8299876 139.443007,58.4339021 138.668624,60.6832707 L109.940597,143.874914 C109.642907,144.738111 109.158432,145.521599 108.522193,146.17483 L79.7416324,175.632421 L75,214 Z" id="Fill-13" fill="#FEFEFE" mask="url(#mask-6)"></path>
                </g>
                <g id="Group-9" transform="translate(227.000000, 165.000000)">
                    <mask id="mask-8" fill="white">
                        <use xlink:href="#path-7"></use>
                    </mask>
                    <g id="Clip-8"></g>
                    <path d="M291.627768,0.413218518 C211.895033,58.5861525 85.7737886,146.684418 1.89967259,186.03921 C-15.260801,201.960162 94.0255443,217.881114 181.387955,227.836807 C252.014302,190.217999 306.92588,127.087608 307.254928,56.5472453 C307.361916,32.5677553 301.716692,14.3166235 291.627768,0.413218518" id="Fill-7" fill="#FEFEFE" mask="url(#mask-8)"></path>
                </g>
                <g id="Group-12" transform="translate(156.000000, 293.000000)">
                    <mask id="mask-10" fill="white">
                        <use xlink:href="#path-9"></use>
                    </mask>
                    <g id="Clip-11"></g>
                    <path d="M112.974995,136.99786 C207.925533,137.439494 315.598037,79.8792095 358.532244,0.439557746 C320.712073,18.1613394 229.343108,57.6010097 126.200013,77.684658 C125.036584,77.3772651 123.855675,77.0718178 122.645632,76.7644249 C108.719449,73.2352437 81.4653081,71.0368011 61.5491192,67.6010051 C55.9320313,72.0017812 49.9536785,74.7196788 43.4994659,76.5620904 C37.0355419,84.151581 28.6934284,90.2566365 19.4112491,93.9920434 C18.6518157,94.4375685 17.9059783,94.8986577 17.1659678,95.3772567 C16.1151917,96.2916532 15.0547042,97.1982676 14.0194663,98.1321193 C10.4009896,101.357799 5.54721975,106.55624 0.569143654,111.157405 C34.1823255,127.521211 72.1015528,136.805253 112.974995,136.99786" id="Fill-10" fill="#D6D8E1" mask="url(#mask-10)"></path>
                </g>
                <path d="M76,303 L310.351724,188.250169 L445,121.545127 L443.998347,0 L361.239204,92.7981981 C359.664621,95.3876251 356.451147,96.4581035 353.641062,95.329129 L309.95613,77.7666527 C307.257123,76.6825252 304.166419,77.6243122 302.527528,80.0285016 L247.220303,161.291271 C246.263471,162.699077 244.768786,163.650613 243.09092,163.921645 L158.780579,177.545384 C156.769478,177.869063 155.046791,179.161826 154.173755,181.002503 L124.521708,243.388584 C124.225499,244.014492 123.826008,244.585804 123.338822,245.079121 L81.2226265,287.796866 L76,303 Z" id="Fill-16" fill="#EEEEF2"></path>
                <path d="M122.389665,80 L94.6103352,80 C89.8756983,80 86,76.0999795 86,71.3313703 L86,60.6686297 C86,55.901938 89.8756983,52 94.6103352,52 L122.389665,52 C127.124302,52 131,55.901938 131,60.6686297 L131,71.3313703 C131,76.0999795 127.124302,80 122.389665,80" id="Fill-18" fill="#BFC3D2"></path>
                <line x1="97" y1="59" x2="121" y2="59" id="Stroke-20" stroke="#FEFEFE" stroke-width="0.743" stroke-linecap="round"></line>
                <line x1="97" y1="65" x2="121" y2="65" id="Stroke-22" stroke="#FEFEFE" stroke-width="0.743" stroke-linecap="round"></line>
                <line x1="97" y1="72" x2="121" y2="72" id="Stroke-24" stroke="#FEFEFE" stroke-width="0.743" stroke-linecap="round"></line>
                <path d="M446,121 C425.623823,133.196651 84.371892,299.298724 73,304" id="Stroke-26" stroke="#064975"></path>
                <polygon id="Fill-28" fill="#064975" points="522 159 147 402.336265 149.197724 420 521.507306 171.89897"></polygon>
                <path d="M429.120473,346.302518 C432.854589,358.814634 446.828536,368.563762 425.154423,383.67961 C399.183757,401.796371 377.712586,399.988916 356.699481,393.144764 C331.324109,384.878824 313.301004,375.47507 303.034116,365.280794 C291.327312,353.660893 296.031681,331.457212 322.636296,337.944479 C322.636296,337.944479 335.237974,318.48268 352.975028,327.285867 C370.71015,336.089055 388.447205,339.796065 388.447205,339.796065" id="Fill-30" fill="#064975"></path>
                <path d="M394.761765,228.360056 C398.903939,202.594125 398.93686,211.049297 406.245213,212.399493 C413.553567,213.751624 416.260795,214.562129 420.86192,224.837552 C425.463045,235.109105 433.040572,251.872436 428.708621,281.342703 C424.378605,310.811036 423.826702,322.668781 425.451426,331.590138 C427.074214,340.51343 434.516186,350.937799 423.689211,353.91094 C412.864172,356.886015 419.22364,362.901935 398.383021,364.254066 C377.542401,365.606197 377.426211,366.496011 377.153164,354.057953 C377.000181,346.954912 372.981942,329.247605 369.445892,312.760891 C342.648596,297.988037 366.537268,272.371052 372.697277,255.994598 C374.761586,250.508698 393.7238,234.822817 394.761765,228.360056" id="Fill-32" fill="#FCE7EC"></path>
                <path d="M299.306264,342 C293.822893,350.052003 293,368.299293 293,368.299293 C293,368.299293 307.533257,371.251758 310,370.982663" id="Fill-34" fill="#064975"></path>
                <path d="M178.540635,79 L152.459365,79 C147.807583,79 144,75.1627855 144,70.4748034 L144,61.5251966 C144,56.8352677 147.807583,53 152.459365,53 L178.540635,53 C183.192417,53 187,56.8352677 187,61.5251966 L187,70.4748034 C187,75.1627855 183.192417,79 178.540635,79" id="Fill-36" fill="#064975"></path>
                <path d="M153.085277,75 L153.893278,87 L164,76.5992403 C164,76.5992403 151.872317,75 153.085277,75" id="Fill-38" fill="#064975"></path>
                <path d="M156,66 C157.331887,66 157.334779,64 156,64 C154.668113,64 154.665221,66 156,66" id="Fill-40" fill="#FEFEFE"></path>
                <path d="M164.999458,66 C166.332791,66 166.334237,64 164.999458,64 C163.667571,64 163.666124,66 164.999458,66" id="Fill-42" fill="#FEFEFE"></path>
                <path d="M175,66 C176.331887,66 176.334779,64 175,64 C173.668113,64 173.665221,66 175,66" id="Fill-44" fill="#FEFEFE"></path>
                <path d="M373,198 C373,198 364.239547,206.599952 364.006448,208.448035 C363.771322,210.294189 370.044715,214 370.044715,214" id="Fill-46" fill="#F3C481"></path>
                <path d="M369.658363,201.230904 C368.242259,205.306793 366.791427,209.127086 367.024872,213.044935 C367.736783,225.05798 370.18892,244.24139 389.072886,236.007665 C409.043047,227.299816 418.330687,237.221261 424.09157,220.646498 C429.852453,204.073685 422.131403,186.232645 406.845577,180.798776 C395.38169,176.722887 383.846419,173.94059 375.901571,183.218165 C373.254574,186.31069 371.097619,197.088676 369.658363,201.230904" id="Fill-48" fill="#F3C481"></path>
                <line x1="446" y1="121" x2="444" y2="9" id="Stroke-50" stroke="#064975"></line>
                <line x1="70" y1="130" x2="72" y2="305" id="Stroke-52" stroke="#064975"></line>
                <path d="M91.2356576,238 L88,151.766898 L197,105 L195.127134,184.481715 L172.845485,194.283499 C172.845485,194.283499 170.456705,196.305409 180.745785,206.169525 C165.527292,213.567612 154.953972,205.39816 154.953972,205.39816 L91.2356576,238 Z" id="Fill-54" fill="#FEFEFE"></path>
                <path d="M91.2356576,238 L88,151.766898 L197,105 L195.127134,184.481715 L172.845485,194.283499 C172.845485,194.283499 170.456705,196.305409 180.745785,206.169525 C165.527292,213.567612 154.953972,205.39816 154.953972,205.39816 L91.2356576,238 Z" id="Stroke-56" stroke="#A6C7D0"></path>
                <path d="M151.427615,176.34738 C151.427615,176.34738 127.959797,176.69957 145.522001,163.082218 C163.084205,149.462932 193.162318,145.836541 194.015765,138.866284 C194.867254,131.894092 213.752692,103.355127 219.237455,104.011128 C224.720261,104.66713 216.563584,138.276076 206.431844,149.637092 C196.298147,161.000043 176.433986,170.346612 171.409223,181.893398 C165.891183,194.570287 163.89263,184.908296 151.427615,176.34738" id="Fill-58" fill="#2476BC"></path>
                <path d="M144.817594,161.153313 C151.401682,159.134265 153.173351,156.107627 165.072445,165.19141 C173.278784,171.453553 173.127426,194.127231 173.127426,194.127231 C173.127426,194.127231 171.029754,197.569669 181,205.928219 C178.71216,207.187223 167.496119,212.250315 155.294308,205.162373 C147.476067,209.146319 103,231 103,231 C103,231 103,216.122091 103.143596,196.382221 C103.244502,182.231479 112.155239,175.789478 120.144243,169.475118" id="Fill-60" fill="#2476BC"></path>
                <path d="M118,158.635632 L120.246625,169.303591 C120.246625,169.303591 139.995249,188.05727 146.376453,186.953087 C152.761598,185.846966 145.483715,167.027424 145.483715,167.027424 L143.816483,154 L118,158.635632 Z" id="Fill-62" fill="#F29198"></path>
                <path d="M143.065496,158 L143.971892,164.282238 C143.971892,164.282238 144.620138,169.726982 139.690412,172.931579 C138.682667,173.586832 138.523952,169.33383 136.823981,168.776865 C135.08194,168.205566 131.337796,171.30778 129.362464,170.054608 C123.845684,166.5531 118.384358,161.5527 118.384358,161.5527 L118,159.773279" id="Fill-64" fill="#E77382"></path>
                <path d="M150.822267,137.263941 C149.804349,147.027993 147.196779,152.930534 141.933351,158.523534 C140.291548,160.270501 138.388987,161.986513 136.196697,163.77991 C133.683772,164.696923 133.01353,165.213467 129.724129,164.915535 C125.130943,163.745087 120.78113,162.065833 116.896816,159.928072 C106.082161,153.973297 98.8833368,144.449138 100.142697,132.390621 C101.850172,116.004348 111.53488,103.733022 126.616292,105.104671 C141.693841,106.478255 152.533606,120.875734 150.822267,137.263941" id="Fill-66" fill="#F29198"></path>
                <path d="M134.34948,135 C135.974365,138.034794 140.563021,143.492368 138.457239,144.386017 C136.351456,145.281471 133,146 133,146" id="Fill-68" fill="#0B1528"></path>
                <path d="M136.342642,140.031477 C133.41623,139.497579 129.823527,145.931281 133.682268,145.99858 C137.538612,146.065878 136.970587,143.719416 136.970587,143.719416" id="Fill-70" fill="#0B1528"></path>
                <path d="M126.209926,84.1390955 C134.869537,82.952069 142.043043,89.5440228 142.365773,96.9866788 C147.610626,97.2418895 152.109527,101.018612 152.884466,106.170307 C153.765694,112.022348 149.51029,117.447059 143.380345,118.287869 C143.380345,118.287869 130.989042,109.943073 122.955567,114.679309 C114.924024,119.415544 112.212702,121.049684 112.212702,121.049684 C111.702517,122.040851 111.605891,128.686221 111.271566,131.463863 C111.001013,133.713278 106.764935,128.19954 105.703983,133.602489 C104.639165,139.00346 109.538097,143.163988 109.182514,144.291663 C107.257727,150.422655 110.809694,155.346836 110.112055,154.980836 C97.5816113,149.043725 98.2773176,124.337748 101.427321,121.797511 C98.53241,120.341425 96.5786347,117.769534 96.1071004,114.629849 C95.4133266,110.016273 98.1362439,105.018891 102.936617,103.552914 C101.742322,95.6077497 108.873311,91.2493842 114.819668,93.1367563 C116.303841,88.8792879 120.282895,84.9522086 126.209926,84.1390955" id="Fill-72" fill="#2F2A2F"></path>
                <path d="M143,117.921025 C143,117.921025 151.851932,123.830096 152.081903,134 C155.527569,128.087086 148.164602,116 148.164602,116" id="Fill-74" fill="#2F2A2F"></path>
                <path d="M214.582032,110.279321 C219.647611,112.5037 225.988907,109.406902 228.750344,103.357745 C231.507856,97.310515 229.535401,89.11594 224.469822,86.8896348 C219.406206,84.6652554 216.046163,86.620013 213.288651,92.6653176 C210.529177,98.7144739 209.516454,108.054941 214.582032,110.279321" id="Fill-76" fill="#F29198"></path>
                <path d="M210.576109,104 C209.28725,102.559897 206.350562,100.174369 205.222095,96.5282733 C204.091718,92.8802676 207.593595,92.3072824 208.59795,93.6900867 C209.600395,95.070981 210.213319,96.4824344 211,94.799768" id="Fill-78" fill="#F29198"></path>
                <path d="M224,75 C224,75 237.578929,77.3163065 236.980805,90" id="Stroke-80" stroke="#064975"></path>
                <path d="M230,70 C230,70 243.578929,72.314645 242.980805,85" id="Stroke-82" stroke="#064975"></path>
                <polygon id="Fill-84" fill="#196293" points="125.010858 217 123 198 129 214.978006"></polygon>
                <path d="M106.016022,131 L107.04376,130.972893 C106.913347,125.89814 107.020403,119.810758 113.153746,116.306255 C121.34646,111.62842 124.022863,110.311811 129,109.881977 L127.349389,108 C121.825293,109.374695 116.744993,112.509386 112.556178,115.473693 C106.518212,119.752673 105.877822,125.584477 106.016022,131" id="Fill-86" fill="#A6C7D0"></path>
                <path d="M107.184485,110 C110.104159,112.043274 114.355142,113.476142 112.580702,116.948321 C111.032623,119.972605 110.198156,118.75972 110.198156,118.75972 C110.198156,118.75972 112.738004,115.469871 107.495252,113.892328 C102.068342,112.257313 107.184485,110 107.184485,110" id="Fill-88" fill="#2F2A2F"></path>
                <path d="M127.82292,157 C127.998017,157 128.177187,157 128.356357,156.996094 C128.720804,156.986328 129.009919,156.753899 128.999739,156.47264 C128.989559,156.197241 128.698408,155.980438 128.338033,155.980438 C128.333961,155.980438 128.128323,155.929655 128.122215,155.929655 C117.67336,156.150365 110.221527,146.540698 108.765772,143.335523 C108.574386,142.917542 108.413541,142.565968 108.27102,142.310101 C108.128498,142.050328 107.739618,141.933137 107.405711,142.038609 C107.067732,142.147987 106.910958,142.446824 107.051444,142.704644 C107.185821,142.946839 107.33445,143.276927 107.51362,143.671471 C108.93069,146.7868 116.779547,157 127.82292,157" id="Fill-90" fill="#A6C7D0"></path>
                <path d="M128,156.499014 C128,157.879684 129.343227,159 130.999053,159 C132.656773,159 134,157.879684 134,156.499014 C134,155.120316 132.656773,154 130.999053,154 C129.343227,154 128,155.120316 128,156.499014" id="Fill-92" fill="#A6C7D0"></path>
                <path d="M103,135.5 C103,140.194146 105.461905,144 108.5,144 C111.538095,144 114,140.194146 114,135.5 C114,130.805854 111.538095,127 108.5,127 C105.461905,127 103,130.805854 103,135.5" id="Fill-94" fill="#A6C7D0"></path>
                <path d="M103,136 C103,138.762793 104.341799,141 105.998942,141 C107.656085,141 109,138.762793 109,136 C109,133.237207 107.656085,131 105.998942,131 C104.341799,131 103,133.237207 103,136" id="Fill-96" fill="#0B1528"></path>
                <polygon id="Fill-98" fill="#EEEEF2" points="405.909449 166 385 150.430782 410.690945 138 422 161.605432"></polygon>
                <polyline id="Stroke-100" stroke="#E2E3E9" stroke-width="1.282" points="415 41 421.492815 110 424 60.5877653"></polyline>
                <path d="M435.382205,87 C435.382205,87 428.11001,89.3957464 428.11001,106.162053 C428.11001,122.930319 439.182859,133.929596 438.669364,149.565612 C439.583345,150.46671 438.312496,167.02929 438.312496,167.02929 C438.312496,167.02929 434.24419,171 422.499238,171 C410.756269,171 406,167.02929 406,167.02929 L406,151.20326 C406,139.226487 416.561337,124.567967 416.561337,107.799701 C416.561337,91.0353537 409.287159,88.6376484 409.287159,88.6376484 C409.287159,88.6376484 422.881881,91.6543691 435.382205,87" id="Fill-102" fill="#FEFEFE"></path>
                <g id="Group-107" transform="translate(199.000000, 170.000000)">
                    <polyline id="Fill-104" fill="#FEFEFE" points="136.598582 81.7942783 136.598582 86.1327069 53.6375805 138.6215 9.34567862 110.025025 8.24897097 105.048023 0.523661742 35.5693089 79.248702 0.188475888 83.3337929 63.5214055"></polyline>
                    <polyline id="Stroke-106" stroke="#86D3E6" stroke-linecap="round" stroke-linejoin="round" points="136.598582 81.7942783 136.598582 86.1327069 53.6375805 138.6215 9.34567862 110.025025 8.24897097 105.048023 0.523661742 35.5693089 79.248702 0.188475888 83.3337929 63.5214055"></polyline>
                </g>
                <polygon id="Fill-108" fill="#FEFEFE" points="211.787552 268 205 210.79777 273.241843 180 277 231.705744"></polygon>
                <polygon id="Stroke-110" stroke="#86D3E6" stroke-linecap="round" stroke-linejoin="round" points="211.787552 268 205 210.79777 273.241843 180 277 231.705744"></polygon>
                <polygon id="Fill-112" fill="#FEFEFE" points="208 275.403985 253.500023 304 337 251.809112 283.465301 233"></polygon>
                <polygon id="Stroke-114" stroke="#86D3E6" stroke-linecap="round" stroke-linejoin="round" points="208 275.403985 253.500023 304 337 251.809112 283.465301 233"></polygon>
                <polygon id="Fill-116" fill="#0AC2F0" points="227 272.289757 276.34197 243 300 252.307007 247.261029 285"></polygon>
                <polyline id="Stroke-118" stroke="#F29198" stroke-linecap="round" stroke-linejoin="round" points="271 269 245.906367 285 232 276.677987"></polyline>
                <polygon id="Fill-120" fill="#0AC2F0" points="268 277.104938 289.525941 265 303 269.345953 279.685623 283"></polygon>
                <path d="M271,288.79718 C271,293.878962 265.881506,298 259.566607,298 C253.251709,298 242.329383,295.426509 243.032344,288.010942 C243.510122,282.948336 249.860266,281 256.175164,281 C262.490063,281 271,283.715398 271,288.79718" id="Fill-122" fill="#F3C481"></path>
                <path d="M268,285 C267.283447,283.221716 266.396552,279.533576 263.791411,276.990528 C261.184419,274.445423 259.408776,277.434585 260.182727,278.929165 C260.956678,280.42169 261.900972,281.566782 260.212352,281.599675" id="Fill-124" fill="#F3C481"></path>
                <path d="M180,298 L180,323.174402 C180,328.046241 183.925277,332 188.770631,332 L194.229369,332 C199.072794,332 203,328.046241 203,323.174402 L203,298 C203,298 202.681734,300.789176 192.084452,300.789176 C181.487169,300.789176 180,298 180,298" id="Fill-126" fill="#D6D8E1"></path>
                <path d="M200.100592,305.189682 L203.390595,305.009818 C208.151978,304.748915 211.443944,309.737694 209.364395,314.060379 L207.985222,316.924381 L208.136284,321 L199,321" id="Stroke-128" stroke="#D6D8E1" stroke-width="1.087"></path>
                <path d="M181,298.961738 C185.267197,297.247738 194.41061,295.665738 203,298.961738" id="Stroke-130" stroke="#D6D8E1" stroke-linecap="round" stroke-linejoin="round"></path>
                <polyline id="Stroke-132" stroke="#D0D9E1" stroke-width="0.5" points="213 221.820796 272.879523 192 275 225.39437 218.017441 257"></polyline>
                <line x1="262.082" y1="197" x2="263.918" y2="229" id="Stroke-134" stroke="#D0D9E1" stroke-width="0.5"></line>
                <line x1="252.081" y1="201" x2="253.919" y2="233" id="Stroke-136" stroke="#D0D9E1" stroke-width="0.5"></line>
                <line x1="242.081" y1="207" x2="243.919" y2="239" id="Stroke-138" stroke="#D0D9E1" stroke-width="0.5"></line>
                <line x1="232.082" y1="211" x2="233.918" y2="243" id="Stroke-140" stroke="#D0D9E1" stroke-width="0.5"></line>
                <line x1="274" y1="213" x2="241" y2="230" id="Stroke-142" stroke="#D0D9E1" stroke-width="0.5"></line>
                <line x1="274" y1="203" x2="226" y2="228" id="Stroke-144" stroke="#D0D9E1" stroke-width="0.5"></line>
                <line x1="222.081" y1="216" x2="223.919" y2="248" id="Stroke-146" stroke="#D0D9E1" stroke-width="0.5"></line>
                <path d="M270.634182,221.371553 C267.662645,223.374131 265.792475,224.391616 263.935998,224.984196 C262.079521,225.572966 259.585309,224.180117 257.488214,225.058507 C256.441622,225.494844 251.801408,227.764178 248.432754,227.935665 C245.060187,228.109056 242.593362,225.778749 240.101105,226.845774 C231.515145,230.51939 227.37573,223.625644 222.880278,225.336696 C218.38287,227.047747 211,221 211,221 L212.134622,230.376485 L217.238466,238 L250.565061,234.175857 L266.062437,225.788276 L271,222.030823 L270.634182,221.371553 Z" id="Fill-148" fill="#3092D0"></path>
                <path d="M274.991798,225.187938 L219.411805,255.529144 C217.876393,256.460209 216.339037,255.955322 216.284617,254.500173 L213,228.374677 C213,228.374677 213.456737,234.195274 220.513804,231.060368 C225.328003,228.919878 228.01206,231.866651 229.792361,233.94571 C231.572662,236.026688 236.845541,232.707489 239.869721,231.367523 C242.8939,230.027557 247.008418,233.546408 255.424034,227.892826 C260.436475,224.525634 260.319862,228.622321 267.211727,224.370137 C269.120303,223.193347 272.210564,220.741862 273.709049,221.022141 C274.49036,221.16996 274.97625,221.772753 274.958758,222.611671 C274.94904,223.118478 274.956814,223.592649 274.974306,224.013068 C275.019008,225.043959 274.991798,225.187938 274.991798,225.187938" id="Fill-150" fill="#395FAC"></path>
                <path d="M275,222.468191 C275,222.103182 273.596756,221.717582 271.951842,222.295981 C270.287439,222.881868 268.379417,224.435498 267.416635,225.010154 C260.505658,229.156286 260.620646,225.163645 255.596253,228.444985 C247.157299,233.957563 243.031372,230.526475 239.998805,231.833021 C236.966239,233.141439 231.678738,236.375984 229.893499,234.348778 C228.108261,232.321572 225.41871,229.448293 220.587263,231.535398 C213.510625,234.592118 213,228.746352 213,228.746352" id="Stroke-152" stroke="#F2CF3F" stroke-width="0.5"></path>
                <line x1="274.892" y1="198.547" x2="273.108" y2="199.453" id="Stroke-154" stroke="#034A75" stroke-width="0.5"></line>
                <line x1="269" y1="202" x2="214" y2="230" id="Stroke-156" stroke="#034A75" stroke-width="0.5" stroke-dasharray="2.076,2.076"></line>
                <line x1="211.892" y1="230.547" x2="210.108" y2="231.453" id="Stroke-158" stroke="#034A75" stroke-width="0.5"></line>
                <path d="M372.772292,257 C366.580204,273.222884 342.582216,298.599645 369.504083,313.233967 L373.153583,329.694465 C373.153583,329.694465 375.200104,332.450018 380.52456,321.410561 C385.850962,310.374938 392.459357,302.815372 395,265.452533" id="Fill-160" fill="#EFD3DA"></path>
                <path d="M372.214926,258.461105 C382.977044,249.221562 398.948339,255.05139 394.110269,269.352597 C389.270246,283.653804 362.370812,302.918693 349.95043,306.542005 C316.734355,316.232258 297.233632,303.175401 266.539136,296.459831 C266.882898,291.842998 262.826107,289.050559 263.005802,284.645364 C286.5848,289.505188 308.124661,295.344815 332.451734,289.658037 C348.02653,286.019048 361.450856,267.700649 372.214926,258.461105" id="Fill-162" fill="#F3C481"></path>
                <path d="M368,190.364135 C375.855824,171.93325 382.52905,169.94093 405.416823,171.369785 C428.302631,172.79864 439.975375,209.731564 438.936182,227.960524 C437.028704,261.516503 391.078324,262.818435 376.910732,257.856865 C384.615293,251.851058 381.755058,244.49332 379.831864,235.468263 C378.918397,231.16439 378.568725,224.108577 378.588369,216.84507 C382.454401,216.941224 388.974401,200.525737 379.004832,203.739219 C379.197348,200.596891 379.448797,197.76995 379.737571,195.537244 C375.936366,193.389154 372.099801,192.112223 368,190.364135" id="Fill-164" fill="#400626"></path>
            </g>
        </g>
    </g>
</svg>