<svg xmlns="http://www.w3.org/2000/svg" xmlns:xlink="http://www.w3.org/1999/xlink" width="370" height="156" viewBox="0 0 370 156">
  <defs>
    <rect id="budgets-thumbnail-a" width="371" height="156"/>
  </defs>
  <g fill="none" fill-rule="evenodd" transform="translate(-1)">
    <mask id="budgets-thumbnail-b" fill="#fff">
      <use xlink:href="#budgets-thumbnail-a"/>
    </mask>
    <use fill="#ED9B33" xlink:href="#budgets-thumbnail-a"/>
    <g mask="url(#budgets-thumbnail-b)">
      <g transform="translate(37 11)">
        <path fill="#F4C582" d="M24.129258,85.5277325 C42.1333121,144.099478 93.6543744,187.694414 159.251904,188 C224.850663,188.304081 301.714408,137.386371 302,76.114142 C302.284453,14.8406834 232.901386,22.7583753 167.303242,22.454156 C101.704483,22.1493221 -19.1067909,-55.1303748 24.129258,85.5277325"/>
        <path fill="#0093C8" d="M180,186.221818 L180,49.9184877 C180,47.2023171 177.804733,45 175.095889,45 L158.902885,45 C156.195267,45 154,47.2023171 154,49.9184877 L154,187.881393 C163.287903,188.48683 177.888082,186.596145 180,186.221818"/>
        <path fill="#064975" d="M180 187.206351L180 123 154 123 154 188.880361C163.287903 189.491065 177.888082 187.583933 180 187.206351M217 176.899745L217 75.0532009C217 72.2626824 214.745899 70 211.966576 70L196.034037 70C193.254101 70 191 72.2626824 191 75.0532009L191 185C192.752781 184.670256 209.144352 180.603826 217 176.899745"/>
        <path fill="#0093C8" d="M254,156.451914 L254,23.6340337 C254,20.5226925 251.489169,18 248.39307,18 L233.60693,18 C230.510218,18 228,20.5226925 228,23.6340337 L228,172 C237.031514,167.733528 245.848533,162.19986 254,156.451914"/>
        <path fill="#064975" d="M254,156.463744 L254,50 L228,50 L228,172 C237.031514,167.736774 245.848533,162.207317 254,156.463744"/>
        <path fill="#0093C8" d="M123.758627,183.712254 C130.103573,185.161954 136.534933,186.243555 143,187 L143,64.7104475 C143,62.6613578 141.340373,61 139.294032,61 L120.707194,61 C118.660239,61 117,62.6613578 117,64.7104475 L117,181.820834 C119.219168,182.544764 121.467141,183.188325 123.758627,183.712254"/>
        <path fill="#064975" d="M123.758627,183.708905 C130.103573,185.160082 136.534933,186.242784 143,187 L143,91 L117,91 L117,181.815558 C119.219168,182.540225 121.467141,183.184442 123.758627,183.708905"/>
        <path fill="#EE9C2F" d="M131 60.5C131 61.8805262 129.881052 63 128.499661 63 127.118948 63 126 61.8805262 126 60.5 126 59.1194738 127.118948 58 128.499661 58 129.881052 58 131 59.1194738 131 60.5M206 69.5C206 70.8805262 204.880526 72 203.499322 72 202.118796 72 201 70.8805262 201 69.5 201 68.1194738 202.118796 67 203.499322 67 204.880526 67 206 68.1194738 206 69.5M170 45.499661C170 46.88 168.881052 48 167.499661 48 166.118948 48 165 46.88 165 45.499661 165 44.119322 166.118948 43 167.499661 43 168.881052 43 170 44.119322 170 45.499661"/>
        <path fill="#E7636E" d="M96,87.5 C96,88.8805262 94.8810525,90 93.4996609,90 C92.1189475,90 91,88.8805262 91,87.5 C91,86.1194738 92.1189475,85 93.4996609,85 C94.8810525,85 96,86.1194738 96,87.5"/>
        <path fill="#EE9C2F" d="M243,18.5 C243,19.8805262 241.881052,21 240.499661,21 C239.118948,21 238,19.8805262 238,18.5 C238,17.1194738 239.118948,16 240.499661,16 C241.881052,16 243,17.1194738 243,18.5"/>
        <path stroke="#EE9C2F" d="M241,18 C241,60.4255011 205.082573,81.26931 189.811009,63.8257223 C183.24571,56.3283556 182.172453,44.6655783 167.845923,44.6655783 C153.758578,44.6655783 146.607642,59.8229067 129.515671,60.1437526 C128.259326,60.167335 127.090518,60.2331177 126,60.3379977"/>
        <path fill="#EC9C31" d="M107.798724,114.571823 C104.606238,109.18101 100.195801,107.134646 94.978133,102.221523 C87.4097968,95.0943823 85.0152775,101.881901 80.325676,102.810161 C80.325676,102.810161 79.6524683,98.0301751 64.5083844,102.770713 C58.7268277,104.579773 57.0876598,111.543574 55.8542692,119.920723 C54.4300336,129.589793 54.9846579,136.662693 56.0766131,142.928759 C57.0641901,145.050321 78.879206,168.762872 110.849775,180 C113.29494,173.291994 111.653301,147.900437 111.54707,145.498425 C121.550689,137.770935 116.288552,126.477718 107.798724,114.571823"/>
        <path fill="#724D9E" d="M92.777257,94.4095527 L92.1915144,100.317824 C92.1915144,100.317824 96.1694547,101.46293 92.3259371,104.658747 C90.0565648,106.545428 82.5313236,106.501145 77.4804343,104.146693 C75.0717732,103.024664 75,101.038816 75,101.038816 L75.1660516,93 L92.777257,94.4095527 Z"/>
        <path stroke="#DF7426" d="M97,104.245316 C96.6538785,104.876899 96.1919705,105.560157 95.5901278,106.297004 C92.483084,110.099262 82.1793144,110.009947 75.2636963,105.264781 C73.5801466,104.10943 72.4284724,102.297616 72,101"/>
        <path fill="#724D9E" d="M168,104.804375 C167.991094,107.663845 170.912613,109.490147 174.525936,108.883774 C178.138622,108.277401 181.381495,104.777439 180.137522,102.167581 C179.486525,100.7998 178.160301,99.9276523 177.558399,99.9360326 C177.258723,99.3398357 179.609583,98.6017727 181.007219,97.9289561 C182.36915,97.2729001 182.336632,95.7806122 180.867583,96.0272318 C177.25426,96.6336047 168.009585,101.944905 168,104.804375"/>
        <path fill="#724D9E" d="M169,102 C169.44131,101.008578 170.087492,98.2964535 171.684584,96.7224316 C173.281676,95.1478205 174.362081,96.5138972 173.88727,97.3633507 C173.412459,98.2122151 172.832635,98.8979043 173.865365,98.7459216"/>
        <path fill="#EC9C31" d="M97.6322566,117.855561 C97.3522166,116.215125 99.9789667,107.936229 100.805023,108.186007 C103.715482,109.067289 104.436371,108.218533 108.145983,113.033058 C125.026642,111.92716 134.42938,111.499407 138.527869,111.091906 C142.51324,110.695452 163.515012,108.425966 167.97853,103.722522 C170.810113,100.739296 173.93641,107.882222 174,109.06913 C170.288554,114.28195 160.885816,121.078132 152.560437,125.25563 C148.247333,127.419558 144.115215,128.26279 141.43099,129.055085 C127.723708,133.102477 104.221755,147.288295 98.6478599,137.780759 C94.9608713,131.492112 98.7805425,124.573803 97.6322566,117.855561"/>
        <path stroke="#044A76" stroke-dasharray="3" stroke-linecap="round" d="M265.986981,79 C266.560426,68.0140012 248,67 248,67"/>
        <path fill="#F3C481" d="M261,105.333396 C264.946149,107.717382 270.441559,109.60421 277.345779,110.107614 C284.25,110.610393 291.154837,113 291.154837,113 L292,93 L261,105.333396 Z"/>
        <path fill="#0093C8" d="M265.732543,80 L294,83.8000417 C294,83.8000417 290.723603,109.896121 289.072378,108.97624 C286.725182,107.667132 259.970004,105.531607 261.030708,103.547346 C262.092032,101.562469 265.732543,80 265.732543,80"/>
        <path fill="#FEFEFE" d="M279.436867,92.8892888 C279.833428,92.8659676 280.236214,92.9699675 280.589197,93.1458218 C280.853778,93.277555 281.090968,93.4483669 281.318197,93.6336758 C280.637755,93.6078334 279.983461,93.319155 279.436867,92.8892888 M276.06641,99.9562382 C275.761986,100.567001 275.411494,101.160116 274.988786,101.694612 C274.80638,101.925303 274.569191,102.251169 274.268502,102.325545 C273.958475,102.402441 273.804706,102.077205 273.850152,101.803654 C273.908048,101.455727 274.219321,101.093934 274.406707,100.811558 C274.76467,100.270129 275.126991,99.7318506 275.460675,99.1752937 C276.364609,97.6650894 277.185746,96.100679 277.994431,94.5318566 C277.478964,96.3899878 276.923032,98.2386645 276.06641,99.9562382 M282.400179,88.2011003 C283.271741,88.2269427 283.992026,88.9454873 284.255984,89.7554257 C284.763358,91.3129027 283.649626,93.0783795 282.148671,93.5303062 C281.663709,93.0519068 281.102796,92.6377982 280.459085,92.41215 C280.098632,92.2860895 279.673434,92.228732 279.268157,92.2722228 C279.320451,92.0894352 279.374612,91.9085384 279.428774,91.7263811 C279.79234,91.0034243 280.152793,90.2785767 280.518849,89.5575108 C280.566785,89.4617049 280.641491,89.3148444 280.685069,89.1692446 C280.80522,89.0267963 280.912297,88.8585056 281.011905,88.7595481 C281.384186,88.3889304 281.877864,88.1853427 282.400179,88.2011003 M275.618178,91.5152298 C274.923419,92.2980652 274.1359,93.0758583 273.264337,93.6557364 C272.837272,93.9393724 272.263286,94.1826691 271.866102,93.7181363 C271.503781,93.2952035 271.575374,92.7014587 271.753422,92.2154956 C272.272624,90.7985761 273.385111,89.5814623 274.670666,88.7192088 C274.66693,88.7437905 274.655102,88.7683723 274.652612,88.7929541 C274.606543,89.3362747 274.894782,89.8367347 275.305661,90.1670132 C275.651173,90.4424553 276.012249,90.5559097 276.37955,90.5716672 C276.13489,90.9202244 275.861593,91.2410483 275.618178,91.5152298 M277.104192,88.6757179 C277.114776,89.0980204 276.976571,89.5215836 276.770508,89.9262377 C276.091935,90.0384315 275.126991,89.5921775 275.282627,88.7683723 C275.318112,88.5811726 275.436395,88.3611971 275.590164,88.1708458 C275.838559,88.044155 276.0882,87.9313309 276.339085,87.833634 C276.400094,87.8090522 276.442427,87.7699735 276.476045,87.7258523 C276.858287,87.8178765 277.095477,88.2918638 277.104192,88.6757179 M284.478855,95.1943043 C284.028133,95.160268 283.584881,95.0260136 283.231276,94.7304018 C282.992219,94.5312263 282.79674,94.2809963 282.599393,94.0345481 C283.261781,93.7698211 283.837634,93.3027671 284.2647,92.7197375 C284.841176,91.9318596 285.125679,90.921485 284.947009,89.9489286 C284.767094,88.9688085 284.043074,88.0031853 283.089958,87.6880342 C282.509124,87.495792 281.858565,87.5430647 281.304501,87.7983371 C281.298898,87.8008583 281.29454,87.8052704 281.289559,87.8071613 C281.485661,87.5594525 281.671179,87.3029195 281.841134,87.0444955 C282.182911,86.5244961 282.489203,85.9408362 282.510369,85.3042309 C282.519085,85.01051 282.17295,84.9153344 281.978716,85.0811039 C281.626356,85.3817581 281.395392,85.8273818 281.187462,86.2345571 C280.924126,86.7520353 280.696275,87.285271 280.450369,87.8103128 C279.992177,88.2969062 279.456788,88.6908452 278.879067,89.0305781 C278.455114,89.2789172 278.007504,89.5096078 277.544331,89.6898743 C277.668218,89.336905 277.741678,88.9757418 277.723624,88.6095362 C277.667595,87.4718405 276.499701,86.6121082 275.516081,87.3892709 C275.412739,87.4712102 275.310641,87.5657555 275.214769,87.6678645 C274.449662,88.0693671 273.741206,88.5704574 273.114927,89.1786991 C272.256438,90.0125891 271.386743,91.1238121 271.071735,92.3043683 C270.787855,93.3664277 271.353748,94.7965836 272.64117,94.5999293 C273.287371,94.5016021 273.823382,94.0395905 274.315815,93.636197 C274.904742,93.1546461 275.456317,92.6264527 275.967426,92.0623322 C276.377683,91.6097751 276.835253,91.0658242 277.18201,90.4720795 C277.366284,90.4229159 277.551179,90.3598857 277.736075,90.2867706 C278.412158,90.0182618 279.085129,89.6715955 279.703938,89.2537051 C279.660983,89.3356444 279.61616,89.4156928 279.575072,89.4982624 C279.258819,90.1380192 279.049022,90.8124427 278.845449,91.4950601 C278.826151,91.5347692 278.806229,91.5732176 278.78693,91.6122963 C278.318154,92.5609013 277.825099,93.4969002 277.334534,94.4335295 C276.771131,95.5081949 276.20337,96.5803391 275.615066,97.6423985 C275.033609,98.6931124 274.387408,99.6902507 273.735604,100.696843 C273.34091,101.306346 272.881472,102.179945 273.601134,102.778732 C274.624597,103.63027 275.731481,101.798612 276.156679,101.092673 C276.839611,99.9581292 277.308387,98.7044579 277.735452,97.4526775 C278.199871,96.0905942 278.590206,94.7108625 278.973071,93.3229368 C279.770551,93.9803421 280.792146,94.382475 281.824948,94.2419176 C281.864168,94.2368751 281.903388,94.22616 281.941986,94.2192267 C282.098245,94.3894083 282.248901,94.564002 282.392086,94.7436382 C282.929964,95.418692 283.629705,95.7596855 284.478855,95.8246066 C284.878529,95.8554915 284.876039,95.2245588 284.478855,95.1943043"/>
        <line x1="48" x2="285" y1="9.5" y2="9.5" stroke="#724D9E" stroke-dasharray="5" stroke-linecap="round"/>
        <polygon fill="#FEFEFE" points="2.532 89.286 42 97 40.937 54.828 0 49"/>
        <polygon fill="#EE9C2F" points="25.798 52.735 15 51 15.214 54.455 26 56"/>
        <polygon fill="#DF7426" points="15.189 51.556 15 49 25.782 50.069 26 53"/>
        <polyline stroke="#69BC45" stroke-linejoin="round" points="5 86 5.742 85.1 6.652 84.62 7.527 84.639 8.22 83.821 9.365 82.68 10.204 81.616 10.69 80.794 11.23 79.973 11.95 79.988 12.692 79.088 13.027 78.345 14.005 78.367 14.536 77.296 15.545 76.735 16.333 75.669 16.568 75.008 17.433 74.693 18.411 74.715 19.358 73.819 20 73"/>
        <polyline stroke="#E04C4B" stroke-linejoin="round" points="5 87 6.036 85.924 6.994 84.063 7.919 82.751 8.757 81.827 10.334 80.136 10.645 78.81 11.803 78.285 13.211 77.609 14.111 77 20 77.121"/>
        <line x1="21" x2="36" y1="77" y2="67" stroke="#E04C4B" stroke-dasharray="6 5" stroke-linejoin="round"/>
        <path stroke="#69BC45" stroke-dasharray="6 5" stroke-linejoin="round" d="M20,73 L20.6600254,72.0836278 L21.6748622,72.1042403 L22.879822,71.508245 L24.3715557,69.9899882 L25.823866,68.8568905 L28.6559983,67.5194346 L29.8863925,66.1501767 L30.7511657,65.0064782 L32.0330649,65.0318021 L33.8592624,63.9063604 L35,63"/>
        <line x1="20" x2="21" y1="59" y2="89" stroke="#969696"/>
        <path fill="#010202" d="M66.5757707,85.5341921 C68.1142202,92.167425 74.1633786,97.7917474 75.8463302,98.8424653 C80.664729,103.074848 89.6506442,100.082546 92.1806773,98.2854434 C99.2257793,93.2833132 103.443747,86.1262584 101.544665,77.9369302 C98.9623121,66.8044853 91.162311,59.1727938 80.7513057,61.3812072 C70.3403005,63.5890058 63.9934179,74.4029768 66.5757707,85.5341921"/>
        <path fill="#010202" d="M80.6591897,47.0008079 C74.5696638,46.9263786 70.1461404,52.0068016 70.5340712,57.0847437 C66.9265615,57.701887 64.122711,60.6449474 64.0102852,64.2063915 C63.8824163,68.2534871 64.909074,71.3869626 69.2189362,71.4396833 C69.2189362,71.4396833 75.4931616,67.0303649 81.4406109,69.5671651 C87.3880602,72.1039652 87.5239595,71.3156344 87.5239595,71.3156344 C87.9582197,71.9464231 88.6148606,80.0325512 89.0750651,81.8908039 C89.4475529,83.3942766 91.9246272,79.2950805 93.1038628,82.8714105 C94.2843339,86.4477405 91.2364824,89.6847968 91.5743775,90.421027 C92.6560127,92.777336 87.9897236,100.388977 91.2957839,98.778202 C108.061438,93.6351342 103.293225,71.9259551 100.905103,70.4677601 C102.788544,69.234714 103.928245,67.3237406 103.996813,65.1535049 C104.097502,61.9635873 101.803891,58.7997198 98.3606963,58.2123483 C98.5342769,52.7169816 93.2409976,50.3612929 89.2807673,52.1457364 C87.9044776,49.380066 84.8288285,47.051668 80.6591897,47.0008079"/>
        <path fill="#5F449A" d="M102.392276,78 C102.392276,78 104.988443,82.4999536 104.999964,83.231326 C105.01206,83.9633479 102,85 102,85"/>
        <path fill="#724D9E" d="M100.762811 71C100.762811 71 97.515123 75.6697496 97.6492105 82.7536509 97.6492105 82.7536509 92.3152976 81.140774 93.0738678 85.3269642 93.8330675 89.5125469 96.8213932 95.0139456 97.6372496 95 100.288153 92.5584848 102.25477 90.0592849 102.732575 86.1665107 103.921106 76.4819592 100.762811 71 100.762811 71M46 9.50031523C46 7.56732415 47.5666937 6 49.4996848 6 51.4326759 6 53 7.56732415 53 9.50031523 53 11.4326759 51.4326759 13 49.4996848 13 47.5666937 13 46 11.4326759 46 9.50031523M271 9.50031519C271 4.25311038 275.252969 0 280.5 0 285.747031 0 290 4.25311038 290 9.50031519 290 14.7468896 285.747031 19 280.5 19 275.252969 19 271 14.7468896 271 9.50031519"/>
        <path fill="#FEFEFE" d="M279.013604,6.20509953 C279.573585,5.80608365 280.259397,5.57168419 281.000075,5.57168419 C281.740155,5.57168419 282.425968,5.80608365 282.986545,6.20509953 L284.024208,5.16730038 C284.247247,4.94423321 284.609236,4.94423321 284.832274,5.16730038 C285.055909,5.39036755 285.055909,5.75180795 284.832274,5.97487512 L283.79461,7.01267427 C284.194171,7.57392082 284.428539,8.25922612 284.428539,9.00059644 C284.428539,9.74077388 284.194171,10.4260792 283.79461,10.9873257 L284.832274,12.0251249 C285.055909,12.2481921 285.055909,12.6096324 284.832274,12.8326996 C284.609236,13.0557668 284.247247,13.0557668 284.024208,12.8326996 L282.986545,11.7949005 C282.425968,12.1939163 281.740155,12.4289122 281.000075,12.4289122 C280.259397,12.4289122 279.573585,12.1939163 279.013604,11.7949005 L277.975941,12.8326996 C277.752306,13.0557668 277.390317,13.0557668 277.167279,12.8326996 C276.94424,12.6096324 276.94424,12.2481921 277.167279,12.0251249 L278.205539,10.9873257 C277.806575,10.4260792 277.57161,9.74077388 277.57161,9.00059644 C277.57161,8.25922612 277.806575,7.57392082 278.205539,7.01267427 L277.167279,5.97487512 C276.94424,5.75180795 276.94424,5.39036755 277.167279,5.16730038 C277.390317,4.94423321 277.752306,4.94423321 277.975941,5.16730038 L279.013604,6.20509953 Z M281.000075,11.2861403 C282.261969,11.2861403 283.28532,10.2626556 283.28532,9.00059644 C283.28532,7.73734437 282.261969,6.71445612 281.000075,6.71445612 C279.737584,6.71445612 278.714232,7.73734437 278.714232,9.00059644 C278.714232,10.2626556 279.737584,11.2861403 281.000075,11.2861403 L281.000075,11.2861403 Z"/>
      </g>
    </g>
  </g>
</svg>
