<?xml version="1.0" encoding="UTF-8"?>
<svg width="26px" height="26px" viewBox="0 0 26 26" version="1.1" xmlns="http://www.w3.org/2000/svg" xmlns:xlink="http://www.w3.org/1999/xlink">
    <!-- Generator: sketchtool 63.1 (101010) - https://sketch.com -->
    <title>00B4A472-AFC1-41FD-BAF7-0C401792EB42</title>
    <desc>Created with sketchtool.</desc>
    <g id="nav-and-footer" stroke="none" stroke-width="1" fill="none" fill-rule="evenodd">
        <g id="NAV-jira-dropdown" transform="translate(-333.000000, -237.000000)">
            <g id="Budgets-Icon" transform="translate(334.000000, 238.000000)">
                <circle id="Oval" fill="#FCF1E0" fill-rule="nonzero" cx="12" cy="12" r="12"></circle>
                <path d="M12,-0.75 C4.95836944,-0.75 -0.75,4.95836944 -0.75,12 C-0.75,19.0416306 4.95836944,24.75 12,24.75 C19.0416306,24.75 24.75,19.0416306 24.75,12 C24.75,4.95836944 19.0416306,-0.75 12,-0.75 Z M12,0.75 C18.2132034,0.75 23.25,5.78679656 23.25,12 C23.25,18.2132034 18.2132034,23.25 12,23.25 C5.78679656,23.25 0.75,18.2132034 0.75,12 C0.75,5.78679656 5.78679656,0.75 12,0.75 Z" id="Oval" fill="#F58B1F" fill-rule="nonzero"></path>
                <rect id="bar-3" fill="#F58B1F" x="15" y="6" width="2" height="12" rx="0.5"></rect>
                <rect id="bar-2" fill="#F58B1F" x="11" y="10" width="2" height="8" rx="0.5"></rect>
                <rect id="bar-1" fill="#F58B1F" x="7" y="14" width="2" height="4" rx="0.5"></rect>
            </g>
        </g>
    </g>
</svg>