<svg xmlns="http://www.w3.org/2000/svg" xmlns:xlink="http://www.w3.org/1999/xlink" width="708" height="478" viewBox="0 0 708 478">
  <defs>
    <path id="meaningful-reporting-a" d="M22.5223817,208.379356 C66.9333233,352.773183 194.029479,460.245977 355.854979,461 L355.854979,461 C517.6776,461.747323 707.295215,336.223863 708,185.171767 L708,185.171767 C708.622763,50.1656668 571.95732,51.4167886 427.375544,52.6707864 L427.375544,52.6707864 C410.195173,52.8203458 392.902493,52.967029 375.716363,52.8864971 L375.716363,52.8864971 C290.920319,52.4953418 168.728316,0 86.958851,0 L86.958851,0 C12.6737615,0 -28.2498471,43.3204491 22.5223817,208.379356"/>
    <rect id="meaningful-reporting-d" width="512" height="384" x="106" y="101" rx="12"/>
    <filter id="meaningful-reporting-c" width="166.8%" height="194.3%" x="-33.4%" y="-23.7%" filterUnits="objectBoundingBox">
      <feMorphology in="SourceAlpha" operator="dilate" radius="1" result="shadowSpreadOuter1"/>
      <feOffset dy="100" in="shadowSpreadOuter1" result="shadowOffsetOuter1"/>
      <feGaussianBlur in="shadowOffsetOuter1" result="shadowBlurOuter1" stdDeviation="40"/>
      <feComposite in="shadowBlurOuter1" in2="SourceAlpha" operator="out" result="shadowBlurOuter1"/>
      <feColorMatrix in="shadowBlurOuter1" result="shadowMatrixOuter1" values="0 0 0 0 0   0 0 0 0 0   0 0 0 0 0  0 0 0 0.08 0"/>
      <feMorphology in="SourceAlpha" operator="dilate" radius="1" result="shadowSpreadOuter2"/>
      <feOffset dy="40" in="shadowSpreadOuter2" result="shadowOffsetOuter2"/>
      <feGaussianBlur in="shadowOffsetOuter2" result="shadowBlurOuter2" stdDeviation="16"/>
      <feComposite in="shadowBlurOuter2" in2="SourceAlpha" operator="out" result="shadowBlurOuter2"/>
      <feColorMatrix in="shadowBlurOuter2" result="shadowMatrixOuter2" values="0 0 0 0 0   0 0 0 0 0   0 0 0 0 0  0 0 0 0.08 0"/>
      <feMorphology in="SourceAlpha" operator="dilate" radius="1" result="shadowSpreadOuter3"/>
      <feOffset dy="20" in="shadowSpreadOuter3" result="shadowOffsetOuter3"/>
      <feGaussianBlur in="shadowOffsetOuter3" result="shadowBlurOuter3" stdDeviation="10"/>
      <feComposite in="shadowBlurOuter3" in2="SourceAlpha" operator="out" result="shadowBlurOuter3"/>
      <feColorMatrix in="shadowBlurOuter3" result="shadowMatrixOuter3" values="0 0 0 0 0   0 0 0 0 0   0 0 0 0 0  0 0 0 0.08 0"/>
      <feMorphology in="SourceAlpha" operator="dilate" radius="1" result="shadowSpreadOuter4"/>
      <feOffset dy="12" in="shadowSpreadOuter4" result="shadowOffsetOuter4"/>
      <feGaussianBlur in="shadowOffsetOuter4" result="shadowBlurOuter4" stdDeviation="5"/>
      <feComposite in="shadowBlurOuter4" in2="SourceAlpha" operator="out" result="shadowBlurOuter4"/>
      <feColorMatrix in="shadowBlurOuter4" result="shadowMatrixOuter4" values="0 0 0 0 0   0 0 0 0 0   0 0 0 0 0  0 0 0 0.0352941176 0"/>
      <feMorphology in="SourceAlpha" operator="dilate" radius="1" result="shadowSpreadOuter5"/>
      <feOffset dy="8" in="shadowSpreadOuter5" result="shadowOffsetOuter5"/>
      <feGaussianBlur in="shadowOffsetOuter5" result="shadowBlurOuter5" stdDeviation="2"/>
      <feComposite in="shadowBlurOuter5" in2="SourceAlpha" operator="out" result="shadowBlurOuter5"/>
      <feColorMatrix in="shadowBlurOuter5" result="shadowMatrixOuter5" values="0 0 0 0 0   0 0 0 0 0   0 0 0 0 0  0 0 0 0.02 0"/>
      <feMorphology in="SourceAlpha" operator="dilate" radius="1" result="shadowSpreadOuter6"/>
      <feOffset dy="2" in="shadowSpreadOuter6" result="shadowOffsetOuter6"/>
      <feGaussianBlur in="shadowOffsetOuter6" result="shadowBlurOuter6" stdDeviation="1"/>
      <feComposite in="shadowBlurOuter6" in2="SourceAlpha" operator="out" result="shadowBlurOuter6"/>
      <feColorMatrix in="shadowBlurOuter6" result="shadowMatrixOuter6" values="0 0 0 0 0   0 0 0 0 0   0 0 0 0 0  0 0 0 0.04 0"/>
      <feMerge>
        <feMergeNode in="shadowMatrixOuter1"/>
        <feMergeNode in="shadowMatrixOuter2"/>
        <feMergeNode in="shadowMatrixOuter3"/>
        <feMergeNode in="shadowMatrixOuter4"/>
        <feMergeNode in="shadowMatrixOuter5"/>
        <feMergeNode in="shadowMatrixOuter6"/>
      </feMerge>
    </filter>
    <linearGradient id="meaningful-reporting-e" x1="50%" x2="50%" y1="0%" y2="100%">
      <stop offset="0%" stop-opacity=".04"/>
      <stop offset="100%" stop-opacity="0"/>
    </linearGradient>
    <rect id="meaningful-reporting-f" width="334" height="80" rx="8"/>
  </defs>
  <g fill="none" fill-rule="evenodd">
    <mask id="meaningful-reporting-b" fill="#fff">
      <use xlink:href="#meaningful-reporting-a"/>
    </mask>
    <use fill="#FBFCFD" xlink:href="#meaningful-reporting-a"/>
    <g mask="url(#meaningful-reporting-b)">
      <use fill="#000" filter="url(#meaningful-reporting-c)" xlink:href="#meaningful-reporting-d"/>
      <rect width="513" height="385" x="105.5" y="100.5" fill="#FFF" stroke="#DDE8F1" rx="12"/>
    </g>
    <rect width="479" height="144" x="139" y="165" fill="#EEF3F8" mask="url(#meaningful-reporting-b)"/>
    <g mask="url(#meaningful-reporting-b)">
      <g transform="translate(139 141)">
        <rect width="479" height="4" y="24" fill="url(#meaningful-reporting-e)"/>
        <rect width="479" height="24" fill="#FFF"/>
      </g>
    </g>
    <g mask="url(#meaningful-reporting-b)">
      <g transform="translate(139 101)">
        <path fill="#FFF" d="M0,0 L467,0 C473.627417,-1.21743675e-15 479,5.372583 479,12 L479,40 L479,40 L0,40 L0,0 Z"/>
        <rect width="464" height="1" x="7" y="39" fill="#DDE8F1"/>
        <g transform="translate(10 8)">
          <circle cx="12" cy="12" r="12" fill="#0073A9"/>
          <path fill="#00BEE9" d="M12,19 C14.7614237,19 17,18.8210678 17,16.75 C17,14.6789322 14.7614237,13 12,13 C9.23857625,13 7,14.6789322 7,16.75 C7,18.8210678 9.23857625,19 12,19 Z"/>
          <circle cx="12" cy="9" r="3" fill="#00BEE9"/>
        </g>
      </g>
    </g>
    <g mask="url(#meaningful-reporting-b)">
      <g transform="translate(106 101)">
        <path fill="#F5F8FA" d="M12,0 L32,0 L32,0 L32,384 L12,384 C5.372583,384 8.11624501e-16,378.627417 0,372 L0,12 C-8.11624501e-16,5.372583 5.372583,1.21743675e-15 12,0 Z"/>
        <rect width="1" height="384" x="32" fill="#DDE8F1"/>
        <g transform="translate(6.154 10)">
          <path fill="#F89B46" d="M19.6923077,9.84089077 C19.6923077,15.2816781 15.2874068,19.6923077 9.85368625,19.6923077 C9.7171121,19.6923077 9.5811879,19.6895213 9.44596726,19.6840022 L8.5,18.0430584 C8.94052291,18.1154023 9.3927168,18.1530238 9.85368625,18.1530238 C14.438388,18.1530238 18.1550231,14.4315551 18.1550231,9.84089077 C18.1550231,9.14279129 18.0690755,8.46479204 17.9071978,7.81692338 L18.9326687,6.03846154 C19.4219864,7.20845772 19.6923077,8.49306473 19.6923077,9.84089077 Z"/>
          <path fill="#00C3F2" d="M1.53817306,9.84268004 C1.53817306,13.6786449 4.14110445,16.9069682 7.67791321,17.8594346 L8.69230769,19.6153846 C3.79825674,19.0452372 0,14.8873009 0,9.84268004 C0,7.92202475 0.550587201,6.12990137 1.50261191,4.61538462 L3.39102798,4.61538462 C2.23242739,6.04258533 1.53817306,7.86159754 1.53817306,9.84268004 Z"/>
          <path fill="#00B47E" d="M9.84641467,0 C13.6699385,0 16.9844314,2.17382004 18.6153846,5.34996966 L17.6602658,7 C16.5033659,3.81231953 13.4415831,1.53449283 9.84641467,1.53449283 C7.53804683,1.53449283 5.44957271,2.47355041 3.94403052,3.98956033 L1.92307692,3.98957504 C3.71637199,1.56940111 6.5976445,0 9.84641467,0 Z"/>
          <path fill="#004976" d="M8.46802863,13.6473221 L5.19898227,10.3891779 C5.13880078,10.3291971 5.13880078,10.231949 5.19898227,10.1719683 L6.72453723,8.65150096 C6.78471872,8.59152018 6.88229218,8.59152018 6.94247366,8.65150096 L8.57699684,10.2805731 L12.8267571,6.04498558 C12.8869386,5.98500481 12.9845121,5.98500481 13.0446935,6.04498558 L14.5702485,7.56545289 C14.63043,7.62543367 14.63043,7.72268173 14.5702485,7.7826625 L8.68596505,13.6473221 C8.62578357,13.7073029 8.52821011,13.7073029 8.46802863,13.6473221 Z"/>
        </g>
      </g>
    </g>
    <g mask="url(#meaningful-reporting-b)">
      <g transform="translate(264 197)">
        <mask id="meaningful-reporting-g" fill="#fff">
          <use xlink:href="#meaningful-reporting-f"/>
        </mask>
        <g mask="url(#meaningful-reporting-g)">
          <path fill="#F0AD53" d="M8.15208469,12.9726835 L69.7362637,14.1436464 L69.7362637,14.1436464 L200.032967,0 L272.063187,7.0718232 L325.828772,5.92078911 C330.246038,5.8262226 333.903601,9.3304628 333.998167,13.7477287 C333.999389,13.8047964 334,13.8618756 334,13.9189565 L334,80 L334,80 L0,80 L0,20.9712377 C-7.26835747e-16,16.5529597 3.581722,12.9712377 8,12.9712377 C8.05069833,12.9712377 8.10139552,12.9717197 8.15208469,12.9726835 Z"/>
          <polygon fill="#52C793" points="0 35.801 132.591 34.475 203.703 22.983 276.192 33.591 334 28.729 334 80 0 80"/>
          <polyline stroke="#EEF3F8" stroke-width="1.5" points="0 35.801 132.591 34.475 203.703 22.983 276.192 33.591 334 28.729"/>
          <polygon fill="#0073A9" points="0 60.552 132.591 59.227 203.703 51.271 276.192 51.271 334 49.945 334 80 0 80"/>
          <polyline stroke="#EEF3F8" stroke-width="1.5" points="0 60.552 132.591 59.227 203.703 51.271 276.192 51.271 334 49.945"/>
        </g>
      </g>
    </g>
    <g mask="url(#meaningful-reporting-b)">
      <g transform="translate(159 208)">
        <g transform="translate(0 56)">
          <rect width="48" height="4" x="24" y="4" fill="#BCD8E0" rx="2"/>
          <circle cx="6" cy="6" r="6" fill="#0073A9"/>
        </g>
        <g transform="translate(0 28)">
          <rect width="48" height="4" x="24" y="4" fill="#BCD8E0" rx="2"/>
          <circle cx="6" cy="6" r="6" fill="#52C793"/>
        </g>
        <rect width="48" height="4" x="24" y="4" fill="#BCD8E0" rx="2"/>
        <circle cx="6" cy="6" r="6" fill="#F0AD53"/>
      </g>
    </g>
    <g mask="url(#meaningful-reporting-b)">
      <g transform="translate(149 397)">
        <rect width="459" height="30.667" fill="#FFF"/>
        <rect width="459" height="1" y="31" fill="#DDE8F1"/>
        <rect width="96" height="4" x="351" y="14" fill="#EEF3F8" rx="2"/>
        <rect width="73" height="4" x="351" y="14" fill="#004976" rx="2"/>
        <rect width="32" height="4" x="299" y="14" fill="#EEF3F8" rx="2"/>
        <rect width="32" height="4" x="251" y="14" fill="#EEF3F8" rx="2"/>
        <rect width="32" height="4" x="203" y="14" fill="#EEF3F8" rx="2"/>
        <rect width="32" height="4" x="155" y="14" fill="#EEF3F8" rx="2"/>
        <rect width="72" height="4" x="30" y="14" fill="#EEF3F8" rx="2"/>
        <circle cx="17" cy="16" r="5" fill="#0073A9"/>
      </g>
    </g>
    <g mask="url(#meaningful-reporting-b)">
      <g transform="translate(149 365)">
        <rect width="459" height="30.667" fill="#FFF"/>
        <rect width="459" height="1" y="31" fill="#DDE8F1"/>
        <rect width="96" height="4" x="351" y="14" fill="#EEF3F8" rx="2"/>
        <rect width="75" height="4" x="351" y="14" fill="#004976" rx="2"/>
        <rect width="32" height="4" x="299" y="14" fill="#EEF3F8" rx="2"/>
        <rect width="32" height="4" x="251" y="14" fill="#EEF3F8" rx="2"/>
        <rect width="32" height="4" x="203" y="14" fill="#EEF3F8" rx="2"/>
        <rect width="32" height="4" x="155" y="14" fill="#EEF3F8" rx="2"/>
        <rect width="72" height="4" x="30" y="14" fill="#EEF3F8" rx="2"/>
        <circle cx="17" cy="16" r="5" fill="#52C793"/>
      </g>
    </g>
    <g mask="url(#meaningful-reporting-b)">
      <g transform="translate(149 333)">
        <rect width="459" height="30.667" fill="#FFF"/>
        <rect width="459" height="1" y="31" fill="#DDE8F1"/>
        <rect width="96" height="4" x="351" y="14" fill="#EEF3F8" rx="2"/>
        <rect width="51" height="4" x="351" y="14" fill="#004976" rx="2"/>
        <rect width="32" height="4" x="299" y="14" fill="#EEF3F8" rx="2"/>
        <rect width="32" height="4" x="251" y="14" fill="#EEF3F8" rx="2"/>
        <rect width="32" height="4" x="203" y="14" fill="#EEF3F8" rx="2"/>
        <rect width="32" height="4" x="155" y="14" fill="#EEF3F8" rx="2"/>
        <rect width="72" height="4" x="30" y="14" fill="#EEF3F8" rx="2"/>
        <circle cx="17" cy="16" r="5" fill="#F0AD53"/>
      </g>
    </g>
    <g transform="matrix(-1 0 0 1 271 90)">
      <path fill="#E7636E" d="M97,79.4993898 C97,81.984 94.9858945,84 92.4993897,84 C90.0141055,84 88,81.984 88,79.4993898 C88,77.0147797 90.0141055,75 92.4993897,75 C94.9858945,75 97,77.0147797 97,79.4993898"/>
      <path fill="#221E20" d="M185.317607,267.071937 C173.657817,266.427567 166.352439,262.259806 153.271814,261.512837 C146.977415,261.15249 136.078964,264.170395 133.821028,270.164914 C131.645064,275.942974 167.226799,310.809028 162.760608,319.896523 C153.93131,337.857558 154.759717,328.319629 141.956055,318.547725 C128.141414,308.002577 85.8516975,284.342307 94.0438552,271.884068 C102.234771,259.425829 123.700062,234.43678 135.274155,228.010596 C146.848248,221.585663 143.98298,217.329067 157.477188,217 C164.609929,227.771616 191.977151,227.243608 202,236.027061"/>
      <path fill="#191718" d="M148.434693,353 C149.709578,356.547911 152.70953,362.088974 149.709578,366.79894 C143.895044,375.923726 135.156219,381.119013 124.749073,386.708238 C114.343189,392.297463 110.771998,378.349099 117.246042,371.571886 C121.837393,366.764362 123.747829,358.670729 129.781779,355.364862 C130.856163,359.569747 142.437312,362.448334 148.434693,353"/>
      <path fill="#965984" d="M128 351.542248C129.250623 361.235834 145.564773 366.99144 148 351 148 351 144.939462 356.706973 138.939213 357.19451 132.940209 357.683262 128 351.542248 128 351.542248M161.50506 315.047382C170.772113 328.465076 159.875384 337.562981 149 330.598623 151.998201 328.924628 153.758451 328.379293 156.948748 324.707778 161.447305 319.528933 161.095758 314.454253 161.50506 315.047382"/>
      <path fill="#191718" d="M163.728094,318.257602 C169.64904,316.623387 176.528389,323.147828 176.900549,327.032192 C178.477559,334.432105 160.855371,345.926247 155.529382,356.151265 C150.204639,366.375041 143.263055,358.658468 145.395193,349.328791 C146.906235,342.711215 149.403064,337.895497 152.830915,332.539595 C163.365892,327.387348 163.728094,318.257602 163.728094,318.257602"/>
      <path fill="#221E20" d="M176.048825,227.225335 C163.868607,236.558736 154.589867,249.956058 148.391139,262.471385 C142.192411,274.986712 145.401017,277.767619 142.141223,292.936425 C138.767817,308.628682 126.05824,334.863646 128.253077,352.282413 C129.506556,362.241705 145.856714,368.157065 148.297502,351.723983 C150.738291,335.290901 169.640352,310.051616 174.193577,292.705308 C174.762886,290.5378 175.495747,288.406521 176.372183,286.318968 C179.249941,287.237192 199.936088,278.056203 208.427034,254.051211 C213.980295,239.93805 214.945373,240.667631 213.231204,228.701989 C211.517034,216.736347 187.843263,206 187.843263,206"/>
      <path fill="#0B1528" d="M165.322363,106.487983 C155.282704,116.570844 129,129.619326 129,129.619326 C129,129.619326 206.370225,150.671728 222.612023,148.893357 C238.852574,147.113734 241.805855,148.300985 229.108493,128.135263 C216.409884,107.972046 209.619083,97 209.619083,97"/>
      <path fill="#F2E2CA" d="M179.901329,137 C195.733696,137 216.513214,138.792748 224.429397,147.763941 C232.345581,156.735133 228.388109,167.947571 224.429397,183.19773 C220.471926,198.446645 206.5321,207.609164 213.120032,228.350621 C213.120032,228.350621 199.118197,218.069965 181.09812,224.838426 C160.268995,232.664149 146.827729,234.870608 138,227.437475 C142.613536,211.56116 141.699511,216.709564 146.258478,206.072346 C151.365614,194.151754 162.17766,179.598568 148.503237,154.153477 C143.149302,144.193354 161.101168,138.792748 169.017352,138.345493 C176.932295,137.896995 179.901329,137 179.901329,137"/>
      <path fill="#F2E2CA" d="M167.782998,153.371907 C169.267984,152.024238 171.878605,140.84674 170.705391,140.202367 C159.573002,134.099623 135.071982,129.678018 127.660824,121.97437 C120.249666,114.270722 98.4606865,79.2338538 88.5628653,84.5455473 C78.6675483,89.8572408 100.082151,136.04528 107.796316,142.183126 C115.50923,148.323479 140.389635,159.939752 150.98863,166.424858 C161.12435,172.625385 161.705322,158.892959 167.782998,153.371907"/>
      <path fill="#77426A" d="M201.11583,123 L202,137.062444 C202,137.062444 186.616194,159.273703 179.831696,156.809075 C173.045942,154.344447 177.339944,137.337525 177.339944,137.337525 L177.63383,124.576474 L201.11583,123 Z"/>
      <path fill="#965984" d="M179.3844,137.421876 C181.573081,138.317786 190.969917,138.257809 193.447174,136.634676 C196.907588,133.485872 204.750361,124.947867 206.198239,120.815687 C210.033427,109.874845 216.873054,103.348575 210.189583,93.4385915 C201.107557,79.9687105 186.525096,73.1263109 174.472361,81.9766974 C152.976568,97.760699 162.349668,130.454524 179.3844,137.421876"/>
      <path fill="#0B1528" d="M203.042581,133 C201.310164,129.758597 200.434027,128.148537 204.755143,118.525738 C205.461265,116.951986 207.239599,106.536677 204.29846,104.239274 C202.275652,102.660514 191.543599,95.8521897 180.72964,93.1003146 C179.895697,92.8874762 182.071147,86.7051471 181.217348,86.5336244 C180.152581,86.318282 175.127826,92.8348926 174.178471,92.2802608 C168.278821,88.824767 164.017272,97.9718097 164.091731,96.6484557 C164.312627,92.7359854 161.999428,84.7820897 171.734969,77.6031761 C190.811416,63.5358108 205.75786,75.6588349 209.367891,79.993226 C213.121876,84.4991398 215.596403,90.9268591 215.955048,97.4735174 C216.17098,101.422295 215.6175,105.417397 214.109701,109.059438 C211.695982,114.889957 203.042581,133 203.042581,133"/>
      <path fill="#965984" d="M94.906588,89.8759741 C91.1788168,92.6221626 84.7701393,90.1629632 80.5912599,84.3873082 C76.4123805,78.6104162 75.6952657,70.2011417 79.4218111,67.4549532 C83.1495824,64.7087647 85.5129967,56.1906323 89.6918761,61.9662873 C91.3014005,64.1916896 91.3835316,69.5183056 92.993056,73.8206676 C95.5636368,80.6898499 97.197678,88.1886763 94.906588,89.8759741"/>
      <path fill="#F2E2CA" d="M147.936431,154 C135.984011,167.195808 134.952767,189.42979 151.411408,192.951918 L175,201"/>
      <path fill="#E9D5BA" d="M225,183 C224.142391,186.240198 222.825124,189.204292 221.347921,192.063145 C215.893729,202.615766 208.252068,211.734626 213.516099,228 C213.516099,228 199.298177,217.753199 181,224.499794 C181,224.499794 188.556026,214.162608 193.322619,207.425918 C198.087953,200.689228 184.474513,199.077177 184.474513,199.077177 C184.474513,199.077177 185.692292,199.536525 198.475829,200.54189 C220.817739,202.298803 225,183 225,183"/>
      <path fill="#0B1528" d="M173.886603,113 C173.886603,113 171.251992,119.461348 172.209564,120.384043 C173.167136,121.307979 177,122 177,122"/>
      <path fill="#683A5D" d="M83.3847005,88 L88.4059342,86.8686081 C88.4059342,86.8686081 94.7133128,84.2324032 92.5470386,75.6919402 C88.4971592,68.7403717 88.1926474,69.0012719 88.1926474,69.0012719 L81,86.3356793 L83.3847005,88 Z"/>
      <path fill="#0093C9" d="M62.4955559,0 C62.4955559,0 92.6893672,55.092235 91.9879664,69.2069607 C91.285322,83.3204349 91.285322,83.3204349 88.4772316,86.0537707 C73.6644928,90.1500198 53.0639539,97.4351606 33.2021243,96.9796047 C27.9478365,80.5883506 21.9523521,60.2410186 16.9156976,50.519154 C11.879043,40.7972893 0,27.3183395 0,27.3183395 C32.3017445,15.935698 62.4955559,0 62.4955559,0 Z"/>
      <path fill="#965984" d="M94.1198549,75.2086264 C89.149398,74.0087752 83.3608764,71.1815956 83.013292,74.717999 C82.6644662,78.2556167 89.2313286,79.3376687 96.8297718,86 C99.8674112,82.4235207 96.2786022,77.6957672 94.1198549,75.2086264"/>
      <path fill="#DCE7EF" d="M33,96.9795186 C52.7634208,97.4369976 73.2618908,90.121103 88,86.0075618 L88,86.006305 C83.2048553,83.2463488 83.0662602,79.5475551 81.8671646,77 C67.184741,84.6464359 53.9761283,92.470082 33,96.9795186"/>
      <path fill="#FFF" d="M42.4074738,91 L42,90.5955291 C44.3286006,88.2375762 44.5810843,84.954224 44.9660596,79.9866197 C45.1585473,77.4733901 45.3797831,74.6258145 45.910999,71.254806 L45.9547462,70.946757 C46.8596881,64.5979408 47.4034032,60.7648587 49.6232607,59.6165619 C50.9631748,58.9240776 52.8105562,59.260928 55.6166261,60.7097605 C57.6227474,61.7178072 59.2688917,62.7008093 60.7225484,63.5686061 C64.5210546,65.8363982 66.6134203,67.0848735 69.516984,65.5809429 C69.7069718,65.4244139 69.9507062,65.2453447 70.1969404,65.0637711 C73.4517315,62.6644946 77.1402447,59.9446467 65.3797495,37.2642209 L65.8872169,37 C77.8739477,60.1162025 73.9754479,62.9900749 70.5369185,65.5258447 C70.295684,65.7036616 70.0569493,65.8789741 69.8269641,66.0618 C66.5934216,67.7447998 64.2723206,66.3560745 60.4288173,64.0607333 C58.9851599,63.1991976 57.347765,62.2224567 55.3566428,61.2219233 C52.7655591,59.8820351 51.0269207,59.5364191 49.8869938,60.1274726 C47.9296194,61.139276 47.3696554,65.0737889 46.5222098,71.028152 L46.4772127,71.3399578 C45.9484966,74.6934351 45.7297606,77.5284883 45.537273,80.0304478 C45.1435483,85.1257797 44.8835649,88.4905271 42.4074738,91"/>
      <path fill="#FFF" d="M64.5148903 43L64 42.8328567C64.3926332 41.528651 64.6195141 40.4208692 64.799373 39.5290316 65.088558 38.1077035 65.2637147 37.2488066 65.8655956 37.0426225 66.5721003 36.8059379 67.5172414 37.5306322 70 39.8291575L69.6414577 40.2464057C67.9568966 38.6859949 66.5262539 37.4086298 66.0348746 37.574553 65.7257053 37.6806951 65.5505486 38.5469122 65.3260188 39.6449339 65.1438088 40.5465316 64.9157524 41.6701738 64.5148903 43M39.4503004 81C39.1909613 80.0192339 38.9142503 78.943756 38.6139629 77.7748125 36.0143678 67.6643232 31.6651646 50.7420584 21 28.2442569L21.5124739 28C32.2012147 50.5464036 36.5603448 67.5010699 39.1649033 77.6314985 39.4651907 78.7979496 39.7406609 79.8734275 40 80.8529474L39.4503004 81z"/>
      <path fill="#FFF" d="M19.2129234 47L19 46.4734645C35.5491603 39.9737728 50.6341588 31.1644771 62.6255053 21L63 21.4291202C50.9623114 31.6330567 35.8209508 40.4756462 19.2129234 47M33.303108 48.9730315C34.6035693 48.3538374 35.8039951 47.6493818 36.8714624 46.8904148 37.2057582 46.6611872 36.8157464 45.8085723 36.5219713 46.0391976 35.5532733 46.8009601 34.4516167 47.5319726 33.2334631 48.1847122 32.8953685 48.3775988 32.9295578 49.1533386 33.303108 48.9730315M27.303108 51.9730417C28.6035693 51.3540458 29.8039951 50.6484185 30.8714624 49.8910918 31.2057582 49.6619376 30.8157464 48.8095956 30.5219713 49.0387499 29.5532733 49.8016657 28.4516167 50.5324441 27.2334631 51.1835775 26.8953685 51.3777996 26.9295578 52.153291 27.303108 51.9730417 27.303108 51.9716444 27.303108 51.9716444 27.303108 51.9730417M21.3028907 54.9726835C22.6032571 54.3548799 23.8048614 53.6490184 24.8722507 52.8900425 25.2052559 52.6608122 24.8152726 51.8095851 24.521519 52.0388154 23.5528917 52.8019845 22.4513155 53.5316078 21.234517 54.184355 20.8951809 54.3772439 20.9293678 55.1543904 21.3028907 54.9726835M38.3421107 45.9798801C39.6144904 45.5779341 40.7946687 45.1276725 41.8528574 44.647599 42.2315925 44.4810638 41.7975365 43.8601551 41.4684483 44.0287462 40.5180644 44.5098477 39.4400169 44.9755293 38.2570017 45.4000911 37.885359 45.5429823 37.9194026 46.1135194 38.3421107 45.9798801 38.3406922 45.9798801 38.3406922 45.9798801 38.3421107 45.9798801M45.2660333 42.9791325C46.2139287 42.5820292 47.0930878 42.1370179 47.8824463 41.668585 48.1828903 41.4971812 47.8425349 40.8552152 47.5853282 41.0298129 46.8769011 41.5025043 46.0753475 41.9581617 45.1984056 42.3786867 44.9090481 42.5277335 44.9400903 43.1175331 45.2660333 42.9791325M51.2912846 40.9766102C52.2234168 40.5916398 53.0889681 40.1631311 53.86978 39.7117075 54.1990527 39.5306798 53.8334632 38.8501072 53.5501919 39.0299891 52.8529086 39.4837042 52.0708861 39.9213789 51.2150193 40.3304099 50.9014839 40.4931057 50.9341691 41.1289943 51.2912846 40.9766102M56.3305812 37.9783816C57.146799 37.7009833 59.1471458 36.9449165 59.846177 36.634147 60.2249893 36.4745908 59.8243749 35.8676517 59.5014306 36.026165 58.8896079 36.333806 56.9669313 37.0992584 56.2324716 37.3912566 55.8877252 37.5403843 55.9313295 38.1181236 56.3305812 37.9783816M62.3313363 34.978385C63.147495 34.7010306 65.1476968 33.9440407 65.8453149 33.634363 66.2254622 33.4737894 65.8248769 32.8669462 65.501956 33.0264771 64.8901776 33.3340695 62.9676403 34.0983582 62.2318712 34.3913529 61.8871498 34.5404569 61.9321134 35.1181049 62.3313363 34.978385"/>
      <path fill="#D6D8E1" d="M146.136325,293 L188.98614,269.509019 C190.396491,268.671894 190.320692,266.585982 188.850696,265.859301 L122.038584,232.743256 C122.038584,232.743256 118.563033,230.381231 115.394403,234.078642 C112.628375,237.306659 114.831505,237.989412 114.831505,237.989412"/>
      <polyline fill="#7099A3" points="132 251.559 150.808 262 162 254.511 137.858 242 132.262 245.552"/>
      <polyline fill="#7099A3" points="135.458 256 169 273.02 145.766 285 128 275.146"/>
      <polyline fill="#7099A3" points="136.014 259 165 273.498 146.3 283 132 275.183"/>
      <path fill="#A6C7D0" d="M149,290.140949 L132.158321,243.47695 C132.158321,242.397992 131.550838,241.412802 130.588886,240.927708 L68.1509239,206.311033 C66.255828,205.354598 64.0150305,206.718611 64,208.83777 L80.1001739,255.885593 C80.0914061,256.939546 80.6663228,257.914734 81.5969615,258.417331 L144.773924,292.650183 C146.67904,293.682882 149,292.305116 149,290.140949"/>
      <path fill="#FEFEFE" d="M104.909564,254.2416 C102.059496,254.2416 99.3412939,251.89536 98.8387064,249 C98.3373631,246.10592 100.239482,243.75968 103.089551,243.75968 C105.93962,243.75968 108.659066,246.10592 109.160409,249 C109.662996,251.89536 107.759633,254.2416 104.909564,254.2416 M102.6106,241 C98.2602333,241 95.3554273,244.58144 96.1229927,249 C96.8905582,253.41728 101.039392,257 105.389759,257 C109.738882,257 112.643688,253.41728 111.877367,249 C111.109801,244.58144 106.960967,241 102.6106,241"/>
      <path fill="#965984" d="M177.077024,244.661242 C180.99139,243.925932 195.70851,234.536883 197.828014,235.017856 C203.635505,236.337385 199.749748,246.469298 199.454958,248.452368 C196.071711,249.192714 184.899536,254.128355 184.899536,254.128355 C184.899536,254.128355 167.881311,264.897369 160.686938,261.243484 C153.491321,257.589599 155.742672,252.699285 159.720474,247.679285 C163.698276,242.660545 170.923745,243.193141 177.077024,244.661242"/>
      <path fill="#965984" d="M176,246.391718 C172.449126,244.626662 168.311834,240.616943 164.637701,240.058052 C160.963567,239.50046 159.942628,243.111157 162.172507,244.404405 C164.403632,245.697654 165.608837,244.871015 164.683767,247"/>
      <path fill="#F2E2CA" d="M206.57249,189.042134 L219.224742,219.78859 C219.224742,219.78859 191.481189,230.428524 178.683696,243.664538 C177.519263,244.867812 177.851064,244.809207 179.611486,247.59357 C180.386522,248.819289 179.148217,248.983882 181.175332,251.271972 C183.753361,254.181028 184.018802,253.511434 184.018802,253.511434 C184.545927,254.7783 185.269628,255.244647 185.997086,254.879301 C204.894705,245.381541 245.118976,238.610787 242.912814,228.722743 C240.184535,216.494238 227.721347,152 227.721347,152"/>
    </g>
  </g>
</svg>
