<?xml version="1.0" encoding="UTF-8"?>
<svg width="24px" height="24px" viewBox="0 0 24 24" version="1.1" xmlns="http://www.w3.org/2000/svg" xmlns:xlink="http://www.w3.org/1999/xlink">
    <!-- Generator: sketchtool 63.1 (101010) - https://sketch.com -->
    <title>08B06940-C59C-4D1E-A5D5-E7F22FC336F1</title>
    <desc>Created with sketchtool.</desc>
    <defs>
        <polygon id="path-1" points="0 0 24 0 24 24 0 24"></polygon>
    </defs>
    <g id="nav-and-footer" stroke="none" stroke-width="1" fill="none" fill-rule="evenodd">
        <g id="NAV-jira-dropdown" transform="translate(-1185.000000, -25.000000)">
            <g id="globe" transform="translate(1185.000000, 25.000000)">
                <mask id="mask-2" fill="white">
                    <use xlink:href="#path-1"></use>
                </mask>
                <g id="Clip-2"></g>
                <path d="M16.8704539,20.3715271 C17.0687365,20.0077481 17.2509935,19.6230125 17.4198798,19.2232468 C18.1544786,19.430372 18.8772715,19.6808568 19.5803404,19.9698412 C18.382442,21.1097056 16.9286538,21.9827514 15.3152721,22.4936066 C15.883379,21.9323747 16.4070357,21.2217434 16.8704539,20.3715271 L16.8704539,20.3715271 Z M4.41965955,19.9698412 C5.12275219,19.6808568 5.84559248,19.430372 6.58007276,19.2232705 C6.74893542,19.6230125 6.93116865,20.0077481 7.12947501,20.3715271 C7.59291684,21.2217197 8.11657363,21.9323747 8.68468045,22.4936066 C7.07129882,21.9827514 5.61753425,21.1097056 4.41965955,19.9698412 L4.41965955,19.9698412 Z M7.12947501,3.6284492 C6.93119236,3.99220445 6.74895913,4.37694012 6.58007276,4.77665841 C5.8456636,4.56960429 5.12289443,4.31914324 4.41970697,4.03011143 C5.61758166,2.89027068 7.07132253,2.01722488 8.68468045,1.50636969 C8.11657363,2.06760157 7.59291684,2.77823292 7.12947501,3.6284492 L7.12947501,3.6284492 Z M19.580293,4.03011143 C18.8770345,4.31916695 18.1541942,4.5696517 17.4198561,4.77665841 C17.2509698,4.37694012 17.0687365,3.99220445 16.8704539,3.6284492 C16.4070357,2.77823292 15.883379,2.06760157 15.3152721,1.50636969 C16.9286301,2.01720117 18.3823946,2.89024697 19.580293,4.03011143 L19.580293,4.03011143 Z M18.7609191,11.5021242 C18.7140036,9.4254667 18.3733624,7.44240315 17.7764757,5.70961098 C18.6425991,5.46140207 19.4934081,5.15691351 20.3159824,4.80057844 C21.8884937,6.61454227 22.8781763,8.94637846 22.992561,11.5021242 L18.7609191,11.5021242 Z M12.4978284,22.9619557 L12.4978284,18.4856609 C13.8298829,18.518471 15.1528577,18.6825686 16.4437337,18.9754883 C16.3044095,19.2943194 16.1558635,19.6021506 15.9962227,19.8949992 C15.0262403,21.6745409 13.7990642,22.7437595 12.4978284,22.9619557 L12.4978284,22.9619557 Z M11.5021479,18.4856609 L11.5021479,22.9619557 C10.2008647,22.7437595 8.97375967,21.6745409 8.00372985,19.8949992 C7.84408909,19.6021269 7.69554305,19.2943194 7.5562189,18.9754883 C8.84723713,18.6825686 10.1701646,18.518471 11.5021479,18.4856609 L11.5021479,18.4856609 Z M11.5021479,1.03804428 L11.5021479,5.51426796 C10.170046,5.48145792 8.84709489,5.31740771 7.55624261,5.0244643 C7.69556675,4.70568061 7.84408909,4.39787312 8.00372985,4.10502453 C8.97375967,2.32543539 10.2008647,1.25621683 11.5021479,1.03804428 L11.5021479,1.03804428 Z M12.4978284,5.51426796 L12.4978284,1.03804428 C13.7990642,1.25621683 15.0262403,2.32543539 15.9962227,4.10502453 C16.1558635,4.39784941 16.3043858,4.70565691 16.44371,5.02441689 C15.1527155,5.31740771 13.8298117,5.48145792 12.4978284,5.51426796 L12.4978284,5.51426796 Z M12.4978284,11.5021242 L12.4978284,6.51018548 C13.9544614,6.47600045 15.4010903,6.2919418 16.8109027,5.96128107 C17.3878521,7.60612146 17.7182995,9.50469442 17.7653335,11.5021242 L12.4978284,11.5021242 Z M12.4978284,12.4978047 L17.7653335,12.4978047 C17.7182995,14.4952108 17.3878758,16.39376 16.8109264,18.0386004 C15.4012325,17.7079871 13.95458,17.5239521 12.4978284,17.4897434 L12.4978284,12.4978047 Z M11.5021479,12.4978047 L11.5021479,17.4897434 C10.0455148,17.5239284 8.59888598,17.7079634 7.18902618,18.0385767 C6.61210048,16.3937363 6.28167681,14.4951871 6.23461906,12.4978047 L11.5021479,12.4978047 Z M11.5021479,11.5021242 L6.23461906,11.5021242 C6.28167681,9.50471812 6.61210048,7.60614517 7.18904989,5.96132848 C8.59872004,6.2919181 10.0453963,6.47600045 11.5021479,6.51018548 L11.5021479,11.5021242 Z M6.22350063,5.70961098 C5.62661391,7.44240315 5.28594895,9.4254667 5.23903344,11.5021242 L1.00743896,11.5021242 C1.12182368,8.94637846 2.11150633,6.61454227 3.68399394,4.80060215 C4.5064734,5.1568898 5.35725864,5.46133095 6.22350063,5.70961098 L6.22350063,5.70961098 Z M3.68397024,19.1993504 C2.11148263,17.3853866 1.12182368,15.0535504 1.00743896,12.4978047 L5.23903344,12.4978047 C5.28594895,14.5744622 5.6265902,16.557502 6.22347692,18.2902942 C5.3571164,18.538669 4.50630746,18.8431102 3.68397024,19.1993504 L3.68397024,19.1993504 Z M17.7764757,18.2903179 C18.3733624,16.5575494 18.7140036,14.5744622 18.7609191,12.4978047 L22.992561,12.4978047 C22.8781763,15.0535504 21.8885174,17.3853866 20.3160298,19.1993504 C19.4937162,18.8431576 18.6429784,18.5387165 17.7764757,18.2903179 L17.7764757,18.2903179 Z M11.9999881,0 C5.38317004,0 0,5.38317004 0,11.9999644 C0,18.6167588 5.38317004,24 11.9999881,24 C18.6167825,24 24,18.6167588 24,11.9999644 C24,5.38317004 18.6167825,0 11.9999881,0 L11.9999881,0 Z" id="Fill-1" fill="#A7C7D1" mask="url(#mask-2)"></path>
            </g>
        </g>
    </g>
</svg>