<svg xmlns="http://www.w3.org/2000/svg" xmlns:xlink="http://www.w3.org/1999/xlink" width="370" height="156" viewBox="0 0 370 156">
  <defs>
    <rect id="planner-thumbnail-a" width="371" height="156"/>
    <polygon id="planner-thumbnail-c" points="0 .364 215.949 .364 215.949 158 0 158"/>
  </defs>
  <g fill="none" fill-rule="evenodd" transform="translate(-1)">
    <mask id="planner-thumbnail-b" fill="#fff">
      <use xlink:href="#planner-thumbnail-a"/>
    </mask>
    <use fill="#00C3F2" xlink:href="#planner-thumbnail-a"/>
    <g mask="url(#planner-thumbnail-b)">
      <g transform="translate(52)">
        <g transform="translate(0 40)">
          <mask id="planner-thumbnail-d" fill="#fff">
            <use xlink:href="#planner-thumbnail-c"/>
          </mask>
          <path fill="#00D5F6" d="M7.71704587,71.6176969 C22.9366239,120.991709 66.4878716,157.741522 121.939927,157.997778 C177.391486,158.254528 215.707211,133.656891 215.949331,82.0061969 C216.188752,30.3555031 184.197468,18.7054719 128.745413,18.4487219 C73.2933578,18.1924656 -28.8310459,-46.9524156 7.71704587,71.6176969" mask="url(#planner-thumbnail-d)"/>
        </g>
        <path fill="#FAFCFD" d="M187,108 L124,91.8625751 L124.832554,48.521664 C124.832554,43.8153508 128.608866,40 133.267518,40 L178.565035,52.4849275 C183.223687,52.4849275 187,55.9377179 187,60.6445291 L187,108 Z"/>
        <path fill="#FAFCFD" d="M187,108 L124,91.8625751 L124.832554,48.521664 C124.832554,43.8153508 128.608866,40 133.267518,40 L178.565035,52.871393 C183.223687,52.871393 187,55.9377179 187,60.6445291 L187,108 Z"/>
        <path fill="#0078CC" d="M188,69 L126,53.8079961 L126,48.4461994 C126,43.7813425 129.766142,40 134.411754,40 L179.587754,52.0143139 C185.030249,53.5128332 188,55.7956565 188,60.4605133 L188,69 Z"/>
        <line x1="141.5" x2="141.5" y1="67" y2="88" stroke="#EDF2F7"/>
        <line x1="157.5" x2="157.5" y1="71" y2="92" stroke="#EDF2F7"/>
        <line x1="173.5" x2="173.5" y1="74" y2="95" stroke="#EDF2F7"/>
        <line x1="130" x2="185" y1="75" y2="89" stroke="#EDF2F7"/>
        <polygon fill="#0078CC" points="156 80 144 76.856 144 67 156 70.144"/>
        <polygon fill="#EDF2F7" points="172 97 160 94.21 160 84 172 86.79"/>
        <path stroke="#2C2C2C" stroke-linecap="round" d="M135.956756 45C131.4664 35.800121 144.485078 29.5395933 140.073259 41.8912827M139.956756 46C135.4664 36.8002584 148.485078 30.5394641 144.073259 42.8913585M142.971941 47C138.480411 37.4265704 151.242614 31.8933963 147.194913 43.6824035M145.956702 48C141.466398 38.800143 154.485676 32.5396824 150.072947 44.8910764M149.956631 48C145.466609 38.8000293 158.485219 32.5395546 154.073167 44.8914807M153.956756 50C149.4664 39.8798218 162.485078 32.9936209 158.073259 46.5806861M156.956756 51C152.4664 40.8797533 165.485078 33.9938429 161.073259 47.5803348M160.956579 52C156.466682 41.880118 169.485364 34.9936231 165.073085 48.5802906M164.956756 52C160.4664 41.8798218 173.485078 34.9936209 169.073259 48.5806861M167.956756 54C163.4664 43.8798218 176.485078 36.9936209 172.073259 50.5806861M171.956533 55C167.466846 44.8798218 180.484917 37.9936209 176.073304 51.5806861M174.956756 56C170.4664 45.8798218 183.485078 38.9936209 179.073259 52.5806861"/>
        <path fill="#C3E5DB" d="M63.0472442,91.2479363 C68.3888689,90.1842705 73.1837325,92.4065015 81.8039553,100.575771 C87.7464759,106.20796 86.0584555,129.600204 86.5471448,137.462532 C88.2696145,165.14898 85.1160185,181.519152 76.441661,188 C59.8744549,181.54436 45.951486,169.674008 37.3583306,161.031724 C37.2156117,158.857931 37.0827355,156.455292 36.8602908,154.984349 C34.855336,141.731529 28.808483,138.772838 31.8306792,118.118841 C33.2357223,108.516688 36.167858,100.187276 42.9652157,95.831782"/>
        <polygon fill="#F29198" points="43.708 85 43 96.492 68 111 62.748 96.716 62.514 86.288"/>
        <path fill="#E77382" d="M62.0979228,89.6101916 L62.3279066,94.1904643 C62.3279066,94.1904643 63.7341467,101.506961 62.4784072,100.972035 C61.1920972,100.42479 53.1976923,96.5912341 53.1407842,96.5457488 C52.1385441,95.7421756 46.2746636,92.1189889 46.2746636,92.1189889 L46,87"/>
        <path fill="#F29198" d="M71.4434093,73.0299155 C69.8256246,80.7391518 72.7087657,84.6281239 68.0420793,88.6594909 C66.5860731,89.917146 64.9249816,91.1299915 63.0254535,92.3816719 C60.9412491,92.904948 60.3633267,93.2634245 57.7594401,92.7530934 C54.1848827,91.441169 45.1023908,87.0398742 42.7439096,84.37022 C36.4987631,77.3017605 29.3441727,74.4827411 31.3412657,64.9641943 C34.0561572,52.0266778 42.8046388,43.031905 54.7428939,45.3704663 C66.681149,47.7095254 74.157803,60.092897 71.4434093,73.0299155"/>
        <path fill="#0B1528" d="M67.0183079,69.0413215 C69.326855,68.4407346 72.8830232,74.5798199 69.7963309,74.9460531 C66.7091408,75.3127319 67.007853,73.690078 67.007853,73.690078"/>
        <path fill="#91C3B4" d="M85.4185199,115.783848 C84.8417356,107.446166 81.5466811,100.477875 75.0458838,95.6555401 C74.9450963,95.5530215 74.8532898,95.4277211 74.7505064,95.3301551 C73.8214647,94.4396798 68.4847138,91.9420897 70.4191363,92.0010255 C79.501991,92.2783704 83.4142446,93.8042627 87.8858192,103.929334 C92.0809764,113.427902 98,129.617417 98,134.749289 C97.9411241,139.568652 85.4384778,137.603465 85.4384778,137.603465 C85.4384778,137.603465 85.7228783,120.187689 85.4185199,115.783848"/>
        <path fill="#0B1528" d="M42,61.1322164 L44.1277386,61 L48.6058804,81.1657667 L59.8667675,84.817051 L63.0844422,79.5057722 L71,78.5596457 C71,78.5596457 69.9573253,88.3954402 65.8192708,91.1242259 C59.5237567,95.2752178 48.1235215,91.4565265 46.3538978,89.9629336 C44.5842742,88.4688379 44.9058468,85.6470482 44.9058468,85.6470482 L42,61.1322164 Z"/>
        <path fill="#0B1528" d="M42.394791,76.5401491 C41.3255577,75.6688353 37.5829984,72.6189898 39.4003549,70.223248 C41.2186829,67.8275063 52.5376903,55.5207561 65.9043206,53.7781286 C65.9043206,53.7781286 69.027978,57.1342451 68.9930008,56.0645232 C68.9419924,54.5104082 67.9033642,53.1185822 74.0782956,50.9949714 C80.2537129,48.8713606 53.8857695,34.2242844 39.9886518,44.7933549 C28.7609737,45.9363048 30.0444423,55.7384608 30.0444423,55.7384608 C30.0444423,55.7384608 30.9033266,73.3003067 32.7707199,75.9953924 C35.6582813,80.1609748 42.8757273,84 42.8757273,84 C43.570899,81.1139278 43.4640242,77.4114628 42.394791,76.5401491"/>
        <path stroke="#1993C9" d="M134,83 C134,84.6571588 133.104293,86 131.999771,86 C130.895249,86 130,84.6571588 130,83 C130,81.3428412 130.895249,80 131.999771,80 C133.104293,80 134,81.3428412 134,83 Z"/>
        <polygon fill="#2A2A2A" points="132.027 83 133 84 131 83.781"/>
        <path fill="#C3E5DB" d="M83.7773099,124.538158 C78.128365,127.377493 87.0009957,141.899018 95.6038201,138.482889 C104.206645,135.067255 126,82.1236981 126,82.1236981 L112.235881,77 L83.7773099,124.538158 Z"/>
        <polyline fill="#FDF7E1" points="128 82.911 131.694 83 131.118 82.741 132 82.663 131.694 82.249 129.453 81"/>
        <polygon fill="#E7CB3D" points="129 80.436 110.786 68 110.288 69.486 109.248 71.08 108 71.634 127.683 83 128.331 82.596 128.825 81.594"/>
        <line x1="130" x2="111" y1="83" y2="70" stroke="#2A2A2A" stroke-width=".1"/>
        <line x1="110" x2="130" y1="72" y2="84" stroke="#2A2A2A" stroke-width=".1"/>
        <path fill="#DF7426" d="M111,68.2511483 L110.429913,69.7968272 L109.371922,71.4585925 L107.907173,72 C107.907173,72 107.202886,71.572703 106.513164,71.0841519 C104.836192,69.866973 107.687148,66.2747146 109.087399,67.1302965 C109.53525,67.4138438 111,68.2511483 111,68.2511483"/>
        <path fill="#F29198" d="M125.054206,84.470147 C122.255894,86.9676596 115.87671,86.5298955 112.027431,82.246973 C108.177167,77.9635598 110.501213,76.9771183 113.299525,74.4800965 C114.25889,73.6232175 115.08282,72.3221945 114.764181,70.7993449 C114.180584,68.0063907 121.38764,68.6483137 123.917053,71.462371 C127.767317,75.7452935 127.852517,81.9726343 125.054206,84.470147"/>
        <polygon fill="#E77382" points="111 77 111.679 73 114 74.473 112.132 76.157 111.396 77"/>
        <polyline fill="#FAFCFD" points="187.333 58 198 94.445 188.979 96.308 187 107"/>
        <path fill="#0078CC" d="M90.3665077 10L114 13.1600265C114 13.1600265 114 39.9310434 112.473263 38.9749892 110.300905 37.6151233 88.0754041 36.1972844 89.0298643 34.0937653 89.9843245 31.9902461 90.3665077 10 90.3665077 10M123.567178 0L149 3.89664997C149 3.89664997 148.741702 29.9188487 147.256367 28.9749276 145.143598 27.6321598 121.073065 25.4421463 122.027644 23.407105 122.981735 21.371092 123.567178 0 123.567178 0"/>
        <path fill="#0B1528" d="M142.235346 7.08356397C141.263725 7.39853829 140.81378 8.48210791 141.071608 9.40094403 141.370067 10.4651901 142.56691 11.0192937 143.641361 10.999487 144.705779 10.9791972 146.099254 10.2956257 145.994418 9.0956315 145.889079 7.89853586 144.455475 7.1598921 143.349423 7.02124543 142.654692 6.93428933 141.932373 7.10771844 141.495971 7.66278821 141.143339 8.11157831 141.02847 8.75118873 141.37408 9.23524435 141.556164 9.4893494 141.991061 9.24828777 141.80697 8.99128418 141.572718 8.66326645 141.656487 8.25505587 141.896257 7.94877716 142.187191 7.57679829 142.666731 7.45795829 143.132226 7.48356203 143.98346 7.5304217 145.188329 8.05312448 145.452678 8.91109133 145.736088 9.82992746 144.650602 10.4299245 143.851034 10.5048034 143.017859 10.5825808 142.039717 10.2792006 141.646956 9.51253769 141.297835 8.83186467 141.577232 7.80626578 142.368774 7.54974528 142.67275 7.45071195 142.54183 6.98404754 142.235346 7.08356397M127.169522 14.4140593C131.482932 15.1791096 135.710769 16.3476889 140.087182 16.8118958 141.310114 16.941738 142.540569 17.0109023 143.772904 16.998597 144.075228 16.9952024 144.076169 16.5708816 143.772904 16.5742762 139.387558 16.6192542 135.111292 15.6064006 130.873111 14.7115082 129.684032 14.4603103 128.492602 14.2171745 127.29459 14.0045898 126.998848 13.9523984 126.87237 14.3614435 127.169522 14.4140593M126.234 17.4386631C130.346131 17.787344 134.312273 18.8902608 138.361419 19.5622482 139.488813 19.7494946 140.624508 19.9021793 141.766549 19.998865 142.079036 20.0251145 142.076595 19.5876227 141.766549 19.5613732 137.654418 19.2131297 133.688276 18.109338 129.63913 17.4377881 128.511248 17.2505416 127.376041 17.0982945 126.234 17.0011713 125.921024 16.9744843 125.922977 17.4124136 126.234 17.4386631M126.237611 19.5135039C130.168282 19.8675329 133.829735 21.6443381 137.762389 21.9988794 138.080194 22.0270582 138.078211 21.5147153 137.762389 21.4865365 133.832214 21.1325075 130.170265 19.3551899 126.237611 19.001161 125.919806 18.9724698 125.921789 19.4848127 126.237611 19.5135039M95.1707391 19.5187326C98.6801304 20.3372785 102.050494 21.7705302 105.573645 22.5142286 106.631303 22.7371789 107.699399 22.8964291 108.77224 22.99888 109.076868 23.027545 109.07497 22.4967111 108.77224 22.4680461 106.945421 22.2944633 105.145648 21.9271262 103.371498 21.4159331 101.731156 20.9434909 100.115489 20.3707211 98.48179 19.8706755 97.4279287 19.5484593 96.3669499 19.2565006 95.2969557 19.0064778 94.9989706 18.9369385 94.8713305 19.4486625 95.1707391 19.5187326M94.1684384 24.503903C95.6700956 25.0961833 97.2835996 25.4623293 98.8419326 25.866752 101.102945 26.4534922 103.376998 26.9979267 105.666598 27.4627861 106.692279 27.6707893 107.722474 27.8651942 108.761698 27.9976515 109.080687 28.0384463 109.078179 27.5348066 108.761698 27.4940118 106.721871 27.2341337 104.702107 26.7632306 102.701402 26.2978675 100.58534 25.8053079 98.4762986 25.2764863 96.3873199 24.6796732 95.6881516 24.4792247 94.9789521 24.2853234 94.3018521 24.0183943 94.0009188 23.900039 93.8705144 24.3870586 94.1684384 24.503903M94.2346262 29.3616985C98.4742884 29.6567778 102.524977 30.7039848 106.766108 30.9990641 107.078942 31.0207081 107.076984 30.6599754 106.766108 30.6383314 102.525956 30.3432521 98.4752676 29.2960451 94.2346262 29.0009658 93.9208129 28.9789611 93.9227712 29.3400545 94.2346262 29.3616985"/>
        <path fill="#91C3B4" d="M83.4181211,144.996094 C71.7126995,145.142976 52.1162594,141.146603 39.1663142,133.185403 C28.8769386,126.85962 33.1822507,107.507673 39.6483515,109.09183 C40.9475847,109.409745 46.0720644,115.893747 55.2209143,118.198019 C69.9610018,121.9095 84.710947,132.5476 86.259085,134.081974 C88.7673544,136.56911 84.1638495,141.855875 83.4181211,144.996094"/>
        <path fill="#C3E5DB" d="M92.2248482,138.974514 C90.6712074,138.454424 53.234667,141.047525 36.0254862,130.522816 C25.7481228,124.237668 33.3893181,103.511468 39.848053,105.084959 C41.145215,105.400832 46.263467,111.843672 55.4011985,114.132164 C70.1233726,117.820783 87.4659618,120.343853 89.0122183,121.868371 C91.5174395,124.339531 94.4169782,139.709103 92.2248482,138.974514"/>
        <path fill="#91C3B4" d="M47 104C47 104 52.5136729 104.880817 55.2707578 107.229159 58.0273457 109.578005 65.1372257 114.568295 65.1372257 114.568295L84 120 61.2197599 116.183126C61.2197599 116.183126 51.6430145 108.843991 48.5962071 108.550385 48.5962071 108.550385 52.3685631 108.990793 56.1414162 111.192836 59.9137723 113.394878 58.1724555 110.165216 53.9647702 107.963174 49.7570849 105.761634 47 104 47 104M87 122C88.0297683 122.428134 91.853098 126.286051 92 128"/>
        <polygon fill="#FEFEFE" points="192 15 259 25.666 258.106 71 192 59.445"/>
        <polyline stroke="#DCE7EF" points="192 14 220.155 49 259 24.818"/>
        <line x1="213" x2="192" y1="38" y2="59" stroke="#DCE7EF"/>
        <line x1="234" x2="260" y1="41" y2="70" stroke="#DCE7EF"/>
        <path fill="#0078CC" d="M268,20.9997508 C268,27.6274534 263.075056,33 257,33 C250.924944,33 246,27.6274534 246,20.9997508 C246,14.3725466 250.924944,9 257,9 C263.075056,9 268,14.3725466 268,20.9997508"/>
        <path fill="#FEFEFE" d="M252.29039,25.7212719 L252.29039,23.6914412 C257.570351,20.7261147 259.118562,19.6979211 259.118562,18.2112493 C259.118562,17.1424691 258.092839,16.4995975 257.028076,16.3592982 C255.559014,16.1658856 254.437564,16.5622312 253.566929,17.2983016 L252,15.3892286 C253.257286,14.1956822 255.172362,13.831405 256.970854,14.0684106 C259.736777,14.4326878 261.903738,16.1678898 261.903738,18.5780318 C261.903738,20.6434384 260.084924,22.1987566 256.738221,24.0411874 L262,24.7341659 L262,27 L252.29039,25.7212719 Z"/>
        <path fill="#0095E0" d="M133.495045,131.121129 C130.314764,136.550675 128.43984,142.736061 128.071944,149.034395 C128.026019,149.81343 127.960128,150.618685 128.03151,151.39772 C128.089415,152.025486 128.279603,152.641151 128.732859,153.093949 C129.499102,153.860882 130.682161,153.89517 131.674532,153.669779 C132.884047,153.39447 133.937319,152.682497 134.865296,151.875226 C135.924058,150.954502 136.817093,149.828053 137.475013,148.582605 C138.006142,147.576163 138.363555,146.544004 138.035094,145.403941 C137.789996,144.551288 137.02026,143.808558 136.129222,144.367244 C135.548175,144.731803 135.233192,145.501761 134.907726,146.077088 C134.483922,146.824356 134.075093,147.580196 133.689725,148.347634 C132.974399,149.771579 132.332952,151.241913 131.862224,152.768216 C130.98716,155.606526 130.779501,158.650561 131.780858,161.485845 C132.292019,162.929959 133.064751,164.286337 134.021181,165.476319 C134.854813,166.512511 135.924558,167.450883 137.219433,167.823509 C138.332107,168.143694 139.629977,168.043353 140.614861,167.397939 C141.822878,166.606298 142.113401,165.219666 142.293107,163.869843 C142.75385,160.416878 143.208604,156.963408 143.665854,153.509938 L144.010788,150.905592 L143.511607,150.905592 C143.540559,152.458115 143.569512,154.010639 143.597965,155.563162 C143.604954,155.94083 143.612441,156.318498 143.618931,156.696166 C143.624422,156.973997 143.531574,157.443435 143.738235,157.655715 C144.057711,157.984978 144.591335,158.180619 145.030614,158.257766 C146.004516,158.429204 147.018851,158.149861 147.8425,157.617898 C148.779961,157.013327 149.398946,156.096133 149.794796,155.058932 C150.307954,153.716168 150.416775,152.251885 150.512618,150.828949 C150.348887,150.851639 150.185655,150.873825 150.021923,150.896011 C150.390818,153.122186 150.759213,155.347856 151.127609,157.57403 C151.457567,159.565234 151.675709,161.641147 152.386543,163.541085 C153.005527,165.194959 154.083758,166.70311 155.718575,167.446345 C157.096314,168.073102 158.735125,168.040327 159.874754,166.952704 C160.937011,165.938698 161.453663,164.142127 160.493739,162.886091 C160.300056,162.632967 159.866268,162.88357 160.062946,163.140727 C160.855645,164.177927 160.47477,165.60641 159.629657,166.487804 C158.570395,167.594084 156.957542,167.553746 155.675645,166.865472 C152.427975,165.121341 152.166404,160.805639 151.629785,157.563441 C151.254401,155.29592 150.879017,153.028903 150.503134,150.761886 C150.454713,150.466408 150.030909,150.562211 150.013437,150.828949 C149.885148,152.736954 149.741883,154.986323 148.407073,156.483381 C147.374767,157.642606 145.387529,158.363654 144.059208,157.273005 C144.083668,157.332504 144.108128,157.392003 144.132588,157.451502 L144.010788,150.905592 C144.004798,150.570783 143.553039,150.593978 143.511607,150.905592 C143.087303,154.109468 142.663,157.312839 142.238696,160.516715 L141.918222,162.935001 C141.824376,163.64294 141.757486,164.364492 141.58427,165.058817 C141.431021,165.673977 141.173444,166.258884 140.704713,166.695042 C140.293388,167.078257 139.766253,167.309698 139.222146,167.420629 C136.54454,167.969735 134.499396,165.591283 133.276903,163.511336 C131.833272,161.054224 131.320613,158.230033 131.756398,155.41038 C132.201667,152.526186 133.433146,149.823515 134.810885,147.283205 C135.174289,146.612075 135.535696,145.927836 135.947021,145.285447 C136.181636,144.918872 136.643877,144.46809 137.093639,144.775671 C137.772026,145.239562 137.761543,146.512742 137.549391,147.203537 C137.368688,147.792981 137.042723,148.364778 136.726242,148.889177 C136.386799,149.451393 135.998936,149.981843 135.564648,150.473467 C134.755975,151.388644 133.777581,152.244826 132.678884,152.783343 C131.795833,153.215972 130.64572,153.49582 129.694282,153.128741 C128.371952,152.618964 128.487263,151.052323 128.53119,149.873938 C128.743841,144.094456 130.252366,138.363885 132.90052,133.235868 C133.225487,132.60659 133.567925,131.986891 133.926337,131.375765 C134.090068,131.095917 133.658776,130.841785 133.495045,131.121129"/>
        <path fill="#0095E0" d="M143.075044,122.055346 C137.661424,121.654053 132.276765,123.46037 127.900809,126.648367 C123.51749,129.841828 120.071209,134.384191 118.318864,139.567233 C116.507615,144.925593 116.642109,150.83871 118.232473,156.233325 C119.848853,161.715847 122.944664,166.758337 127.07323,170.666478 C131.436424,174.796621 136.956068,177.55899 142.753535,178.932228 C148.721819,180.345694 155.00474,180.335265 160.989713,179.023115 C166.970759,177.711461 173.017088,175.114477 177.208484,170.462851 C181.294836,165.927938 183.292609,159.347322 181.093587,153.452084 C179.966097,150.429471 178.003175,147.8156 175.895942,145.423733 C173.845158,143.093947 171.619629,140.916135 169.208068,138.97026 C164.49784,135.168899 158.951199,132.158702 152.892108,131.459915 C151.436728,131.292047 149.969077,131.267215 148.508298,131.384424 C148.196115,131.409257 148.19317,131.906403 148.508298,131.881074 C154.498179,131.39982 160.296628,133.487241 165.286641,136.724407 C167.838096,138.379743 170.198609,140.326115 172.384378,142.447805 C174.5942,144.592837 176.725484,146.907227 178.451324,149.473419 C180.204161,152.078846 181.457309,155.030935 181.531918,158.218933 C181.60162,161.235586 180.719066,164.221944 179.236198,166.822405 C176.14186,172.247812 170.552514,175.597221 164.798733,177.473566 C159.096983,179.333521 152.991751,179.931985 147.043592,179.200419 C141.137646,178.473819 135.370121,176.380439 130.511657,172.877068 C125.97421,169.605633 122.371347,165.047874 120.10017,159.908537 C117.844699,154.803469 116.917969,149.035373 117.844699,143.497227 C118.737561,138.160223 121.430873,133.263252 125.269345,129.515529 C129.063149,125.810022 134.010949,123.196152 139.287621,122.617554 C140.545677,122.479485 141.813551,122.458626 143.075044,122.551996 C143.390663,122.575339 143.38919,122.078689 143.075044,122.055346"/>
      </g>
    </g>
  </g>
</svg>
