<svg xmlns="http://www.w3.org/2000/svg" width="26" height="26" viewBox="0 0 26 26">
  <g fill="none" transform="translate(1 1)">
    <circle cx="12" cy="12" r="12" fill="#8EF7FE"/>
    <path fill="#00B2F5" d="M12,-0.75 C4.95836944,-0.75 -0.75,4.95836944 -0.75,12 C-0.75,19.0416306 4.95836944,24.75 12,24.75 C19.0416306,24.75 24.75,19.0416306 24.75,12 C24.75,4.95836944 19.0416306,-0.75 12,-0.75 Z M12,0.75 C18.2132034,0.75 23.25,5.78679656 23.25,12 C23.25,18.2132034 18.2132034,23.25 12,23.25 C5.78679656,23.25 0.75,18.2132034 0.75,12 C0.75,5.78679656 5.78679656,0.75 12,0.75 Z"/>
    <path fill="#00B2F5" d="M12.2928932,7.29289322 C12.6533772,6.93240926 13.2206082,6.90467972 13.6128994,7.20970461 L13.7071068,7.29289322 L17.7071068,11.2928932 C18.0675907,11.6533772 18.0953203,12.2206082 17.7902954,12.6128994 L17.7071068,12.7071068 L13.7071068,16.7071068 C13.3165825,17.0976311 12.6834175,17.0976311 12.2928932,16.7071068 C11.9324093,16.3466228 11.9046797,15.7793918 12.2097046,15.3871006 L12.2928932,15.2928932 L15.585,12 L12.2928932,8.70710678 C11.9324093,8.34662282 11.9046797,7.77939176 12.2097046,7.38710056 L12.2928932,7.29289322 Z"/>
    <path fill="#00B2F5" d="M6.79289322,7.29289322 C7.15337718,6.93240926 7.72060824,6.90467972 8.11289944,7.20970461 L8.20710678,7.29289322 L12.2071068,11.2928932 C12.5675907,11.6533772 12.5953203,12.2206082 12.2902954,12.6128994 L12.2071068,12.7071068 L8.20710678,16.7071068 C7.81658249,17.0976311 7.18341751,17.0976311 6.79289322,16.7071068 C6.43240926,16.3466228 6.40467972,15.7793918 6.70970461,15.3871006 L6.79289322,15.2928932 L10.085,12 L6.79289322,8.70710678 C6.43240926,8.34662282 6.40467972,7.77939176 6.70970461,7.38710056 L6.79289322,7.29289322 Z"/>
  </g>
</svg>
