<svg xmlns="http://www.w3.org/2000/svg" xmlns:xlink="http://www.w3.org/1999/xlink" width="370" height="156" viewBox="0 0 370 156">
  <defs>
    <rect id="prime-thumbnail-a" width="371" height="156"/>
  </defs>
  <g fill="none" fill-rule="evenodd" transform="translate(-1)">
    <mask id="prime-thumbnail-b" fill="#fff">
      <use xlink:href="#prime-thumbnail-a"/>
    </mask>
    <use fill="#00B47E" xlink:href="#prime-thumbnail-a"/>
    <g mask="url(#prime-thumbnail-b)">
      <g transform="translate(51 -5)">
        <path fill="#52C793" d="M8.90936564,77.4660617 C26.4691894,131.013903 76.6829339,170.881216 140.601877,171.178668 C204.521436,171.47452 279.404167,124.950731 279.665181,68.9390132 C279.924696,12.9272952 212.319498,20.1456211 148.400555,19.8483524 C84.4809956,19.5517004 -33.2596211,-51.1273304 8.90936564,77.4660617" transform="translate(0 .113)"/>
        <path fill="#2476BC" d="M197.456555,90.3389692 C191.92748,86.2678678 181.289947,85.6128899 168.443251,94.5192335 C159.235938,100.90311 139.547744,110.836943 131.535674,116.808837 C128.987304,118.70778 129.051445,122.545137 131.660256,124.360819 L134.931445,126.63659 C136.174793,127.502493 137.761048,127.708485 139.184485,127.189806 L183.44607,119.068573"/>
        <polygon fill="#E77382" points="144.41 134.134 149.973 137.473 146.514 139.067 144.509 136.327"/>
        <path fill="#2476BC" d="M81.1565198 103.822943C81.1565198 103.822943 122.230176 130.408758 141.651322 127.393515 145.58489 126.782943 145.713789 116.691225 139.762863 114.849022 133.812555 113.006203 87.6680617 99.7672599 87.6680617 99.7672599M194.925762 90.4763172C187.766026 89.1182555 174.878009 94.9217797 170.253075 108.945216 168.748846 113.506626 169.37422 144.132705 164.75607 171.292705 160.319242 197.383278 228.11378 198.403982 228.11378 198.403982 228.11378 198.403982 221.269198 173.192881 222.975101 162.446802 225.662855 145.523454 236.092546 138.871295 232.041797 112.497022 230.158273 100.235612 227.813427 93.4742907 216.564705 87.0706784"/>
        <path fill="#E77382" d="M200.083128,75.2987137 C200.083128,75.2987137 194.460925,77.765674 199.457137,84.7903436 C192.193172,87.983207 182.646035,106.911577 188.463128,108.833956 C194.28022,110.756952 216.56489,87.0704317 216.56489,87.0704317 L214.967533,75.3973921"/>
        <path fill="#F29198" d="M187.489357,86.6764581 C189.050943,87.8309956 190.823454,88.9281762 192.845744,90.0494097 C195.032088,90.4379559 195.646361,90.7568106 198.334115,90.0907313 C202.000634,88.5723172 211.277639,83.6568987 213.629269,80.870467 C219.85526,73.4917885 220.10689,61.2778678 215.11993,53.0678238 C208.341956,41.9079119 196.913762,36.5916123 185.97526,43.0353128 C175.036758,49.4790132 182.486978,82.9778678 187.489357,86.6764581"/>
        <path fill="#2F2A2F" d="M210.408714,38.9887577 C219.882458,35.7021498 230.927656,36.3441762 230.797524,48.5642643 C230.666775,60.7855859 221.316379,56.329022 221.316379,56.329022 C227.761313,64.7068194 217.895938,84.0249692 213.869242,75.3474361 C212.784396,73.0093744 212.319374,71.4903436 211.865454,67.8984493 C211.714352,66.7013568 210.278581,56.7305198 209.095057,53.329815 C207.911533,49.9284934 203.638141,54.447348 203.084308,52.7975683 C200.925101,46.3637357 199.579374,40.7692863 199.579374,40.7692863 L210.408714,38.9887577 Z"/>
        <path fill="#2F2A2F" d="M199.803683,28.4288722 C171.49963,25.6042026 168.468969,36.5834097 169.513727,48.2922203 C170.558485,60.0004141 181.178749,59.0019119 187.145093,53.366141 C194.392405,46.5197093 191.079278,44.6719559 191.079278,44.6719559 C191.079278,44.6719559 196.868,50.2596211 201.46148,47.0013833 C205.786678,49.8710749 215.375753,43.3182115 215.607031,36.7863172 C215.838308,30.2538062 209.825093,22.1338062 199.803683,28.4288722"/>
        <path fill="#0B1528" d="M186.713621,64.177533 C186.751242,67.6010573 186.559436,69.6893392 186.228247,70.1944493 C184.07274,73.4859912 186.346661,74.4980617 188.921551,72.6651101"/>
        <path fill="#2891CF" d="M154.36067,81.1433128 C154.520405,96.4797885 149.576,108.846044 143.318555,108.905868 C142.927542,108.909568 139.198115,108.944722 139.198115,108.944722 C139.198115,108.944722 131.849656,95.7378502 131.699789,81.3597885 C131.585692,70.4521233 134.93274,57.9828722 138.618996,53.4048106 C140.377322,53.3881586 140.932388,53.3832247 142.738819,53.3657421 C148.996881,53.3061322 154.200317,65.806837 154.36067,81.1433128"/>
        <path fill="#2283B4" d="M150.238626,81.0667753 C150.398978,96.4038678 145.455189,108.884837 139.198361,108.944877 C132.9403,109.004485 127.738097,96.6203436 127.578361,81.2832511 C127.418009,65.9461586 132.361181,53.4645727 138.618626,53.4045375 C144.87607,53.3455419 150.078273,65.7302996 150.238626,81.0667753"/>
        <path fill="#369BBE" d="M148.339004,81.0848458 C148.491339,95.6645815 144.092132,107.526344 138.513718,107.579562 C132.935304,107.632423 128.289401,95.8570044 128.137683,81.2778855 C127.985348,66.6987665 132.384555,54.8363877 137.962969,54.7831695 C143.541383,54.7303084 148.18667,66.5057269 148.339004,81.0848458"/>
        <path fill="#6DCBDB" d="M139.2897,107.278846 C143.28741,105.937436 147.729789,99.0774361 147.542916,81.1944405 C147.356044,63.2547048 142.773665,56.6710044 138.741419,55.2599031 L138.721066,55.2480285 C143.883797,55.1988458 148.223797,66.8182291 148.373665,81.1864229 C148.52415,95.554 144.460449,107.241841 139.298335,107.291797 L139.2897,107.278846 Z"/>
        <path fill="#2891CF" d="M144.10015,157.379357 L141.363674,157.435045 C140.90852,157.444115 140.531075,157.098123 140.521207,156.662705 L139.296361,108.915304 C141.968079,109.085524 143.672749,107.987727 143.682,108.423762 L144.908079,156.573278 C144.91733,157.008696 144.555304,157.370106 144.10015,157.379357"/>
        <path fill="#85D2E7" d="M148.340238,81.1866696 C148.490106,95.5548634 144.426405,107.242088 139.264291,107.291584 C134.102176,107.340767 129.796097,95.7331013 129.645612,81.3649075 C129.495744,66.9973304 133.558828,55.309489 138.721559,55.2599969 C143.883674,55.2114273 148.19037,66.8184758 148.340238,81.1866696"/>
        <path fill="#CFF0E0" d="M137.170211,55.6335242 C134.10193,61.279163 131.699727,71.9055947 131.699727,81.3596035 C131.699727,95.5199559 136.316643,103.086123 138.288361,107.160925 C138.288361,107.160925 138.58378,107.235551 138.770652,107.260837 C138.995762,107.291057 139.264661,107.291674 139.264661,107.291674 C144.426775,107.242335 148.489859,95.5544934 148.339991,81.1869163 C148.190123,66.8187225 143.884044,55.2110573 138.72193,55.2602398 C138.72193,55.2602398 138.27541,55.2721145 137.868361,55.3757269 C137.460696,55.4793392 137.170211,55.6335242 137.170211,55.6335242"/>
        <path fill="#F29198" d="M149.431559,137.325066 C152.806978,137.940573 155.329445,143.779251 154.630062,145.683128 C153.44037,145.164449 151.27993,144.326916 151.27993,144.326916 C151.27993,144.326916 143.109357,147.280485 138.436317,144.383656 C133.762661,141.487445 137.553762,137.440396 139.180722,134.133436 C139.280018,134.413436 140.02504,134.034141 140.02689,134.352379 C140.050943,138.691145 141.598344,138.260661 149.431559,137.325066"/>
        <path fill="#2259A8" d="M200.293374,151.157744 L208.750115,122.046379 C208.750115,122.046379 203.657075,141.056775 198.756458,142.737392 C193.855225,144.416775 196.434432,150.035894 196.434432,150.035894 L200.293374,151.157744 Z"/>
        <path fill="#2259A8" d="M214.232009,161.836291 C214.232009,161.836291 215.520996,164.629507 215.189189,166.437172 C218.605313,164.242194 231.575357,135.785806 231.575357,135.785806 C231.575357,135.785806 230.08593,141.841577 227.467251,147.71911 C224.876943,153.534352 223.102581,159.797348 222.975533,162.446863 C222.975533,162.446863 222.649894,164.835498 222.738705,168.368185 C222.753507,168.981225 212.119674,175.650652 212.119674,175.650652 C212.119674,175.650652 207.685313,178.081225 202.253066,176.6177 C196.885577,175.171445 186.346722,165.218493 180.517912,158.793295 C177.093771,152.217612 214.232009,161.836291 214.232009,161.836291"/>
        <path fill="#F29198" d="M200.692035,167.318247 C196.206485,165.980537 163.508159,151.404502 158.89741,148.44785 C134.504106,132.801154 145.158907,136.045824 156.539612,139.121507 C170.57415,142.915075 186.642696,147.033048 198.422432,150.550317 C210.202167,154.066352 215.198379,161.106441 214.340493,163.532079 C212.43785,168.911286 206.979084,169.19252 200.692035,167.318247"/>
        <path stroke="#2F2A2F" d="M213.707471 40.2083612C218.113463 35.4458943 227.337427 34.7576123 229.127207 35.3083612M214.513921 40.2083612C217.505727 36.9624581 217.055507 34.8852775 215.465551 29.5621938"/>
        <line x1="215.614" x2="219.479" y1="39.455" y2="32.834" stroke="#2F2A2F"/>
        <path fill="#EEAC53" d="M7.90654626,95.666185 C6.43377093,102.29059 7.42178855,109.264687 9.76663436,121.070943 L47.5234626,106.03852 L7.90654626,95.666185 Z"/>
        <polygon fill="#FBBE74" points="7.907 95.666 47.484 106.001 55.156 103.594 14.405 93.934"/>
        <path fill="#F2CF3F" d="M23.3064229,69.0524317 C12.6960264,75.1846784 10.8464229,83.3836211 7.90642291,95.7332247 L49.3180529,106.292432 L23.3064229,69.0524317 Z"/>
        <polygon fill="#F8DD6B" points="47.524 106.039 55.156 103.594 32.007 69.052 23.205 69.052"/>
        <path fill="#A674B2" d="M72.509533,47.2924229 C55.0076652,42.6415859 37.4003524,49.7951542 28.6253744,58.3092511 L55.9155066,98.5515419 C55.9155066,98.5515419 72.5292511,47.2979736 72.509533,47.2924229"/>
        <polygon fill="#AB87B4" points="55.915 98.552 61.842 96.692 78.011 50.033 72.509 47.293"/>
        <path fill="#88CCA8" d="M83.2325903,53.550793 L91.0602555,56.2823348 C91.0602555,56.2823348 114.34096,66.985859 107.009154,101.540573 L102.834441,103.081806 L88.8153216,81.7567841 L83.2325903,53.550793 Z"/>
        <path fill="#5BBF91" d="M102.834564,103.081559 C107.094388,87.0160969 104.249982,60.8206784 83.2327137,53.5505463 L66.2150044,99.7634978 L102.834564,103.081559 Z"/>
        <path fill="#E7636E" d="M9.76644934,120.991692 C13.1831894,133.719357 19.7298855,148.912132 30.7726167,157.386141 L47.4838062,105.871075 L9.76644934,120.991692 Z"/>
        <polyline fill="#ED7C8A" points="47.484 105.871 55.156 103.465 39.18 156.554 30.772 157.386"/>
        <path fill="#37A6D2" d="M101.264405,112.91326 C99.3907489,141.885859 89.6629075,173.491938 57.3185903,174.048855 C49.654978,174.12163 47.7985903,170.986123 39.1802643,165.995463 C40.1140088,163.057313 56.6673128,111.652026 56.6673128,111.652026 L61.8170925,110.017048 L101.264405,112.91326 Z"/>
        <path fill="#2891CF" d="M56.6675595,111.652026 L93.3919648,114.180044 C93.6701145,140.820132 82.4232423,163.314493 68.1247401,171.134141 C64.7265022,172.992379 61.0969868,174.012467 57.318837,174.048855 C50.6839471,174.111762 44.5541674,171.237137 39.180511,165.995463 C40.4028899,162.148238 56.6675595,111.652026 56.6675595,111.652026"/>
        <path fill="#F29198" d="M89.9059031,104.675154 C87.3248458,106.887401 82.353304,105.605815 78.8021145,101.81163 C75.2509251,98.0186784 74.0902203,92.1121586 76.6718943,89.8999119 C79.2535683,87.6876652 85.3056388,89.3608811 88.8574449,93.1544493 C92.4086344,96.9480176 92.4875771,102.463524 89.9059031,104.675154"/>
      </g>
    </g>
  </g>
</svg>
