<?xml version="1.0" encoding="UTF-8"?>
<svg width="136px" height="40px" viewBox="0 0 136 40" version="1.1" xmlns="http://www.w3.org/2000/svg" xmlns:xlink="http://www.w3.org/1999/xlink">
    <!-- Generator: sketchtool 63.1 (101010) - https://sketch.com -->
    <title>EFE4353B-F6A5-4DF9-B49A-C83A86A3DB08</title>
    <desc>Created with sketchtool.</desc>
    <g id="nav-and-footer" stroke="none" stroke-width="1" fill="none" fill-rule="evenodd">
        <g id="NAV-jira-dropdown" transform="translate(-31.000000, -18.000000)">
            <g id="Tempo-Logo/64px/Tempo-Logo-Full-Light-64" transform="translate(30.000000, 18.000000)">
                <path d="M58.4039599,29.6706015 L58.4039599,13.7498785 L64.0884813,13.7498785 L64.0884813,10.078125 L48.5,10.078125 L48.5,13.7498785 L54.213823,13.7498785 L54.213823,29.6706015 L58.4039599,29.6706015 Z M70.4717532,30.062451 C72.6689285,30.062451 74.8953995,29.386955 76.3015917,28.0947017 L74.6610342,25.6864115 C73.7528684,26.5674933 72.0830151,27.0961423 70.8818926,27.0961423 C68.4796476,27.0961423 67.0441597,25.5983033 66.8097944,23.8067704 L77.3269402,23.8067704 L77.3269402,22.9844274 C77.3269402,18.3440633 74.4559645,15.1721689 70.2373879,15.1721689 C65.9309242,15.1721689 62.9134701,18.4909103 62.9134701,22.6026253 C62.9134701,27.1548811 66.1652896,30.062451 70.4717532,30.062451 Z M73.7235727,21.2066516 L66.7518399,21.2066516 C66.9275978,19.8003879 67.9235597,18.0718554 70.2377063,18.0718554 C72.6983179,18.0718554 73.6356937,19.8589822 73.7235727,21.2066516 Z M83.8044249,29.6706015 L83.8044249,20.0999736 C84.3633229,19.3048753 85.4517033,18.4214327 86.7459934,18.4214327 C88.275609,18.4214327 88.8639227,19.3637714 88.8639227,20.6889353 L88.8639227,29.6706015 L92.6291304,29.6706015 L92.6291304,20.0705255 C93.1586127,19.3048753 94.2469931,18.4214327 95.5706989,18.4214327 C97.1003145,18.4214327 97.6886282,19.3637714 97.6886282,20.6889353 L97.6886282,29.6706015 L101.453836,29.6706015 L101.453836,19.3932195 C101.453836,16.477859 99.8948046,15.093799 97.2768086,15.093799 C95.1000479,15.093799 93.2174441,16.3895148 92.3938049,17.6852305 C91.8643226,16.0655858 90.5406168,15.093799 88.4521031,15.093799 C86.2753424,15.093799 84.3927386,16.4484109 83.8044249,17.3024054 L83.8044249,15.447176 L80.0686329,15.447176 L80.0686329,29.6706015 L83.8044249,29.6706015 Z M113.175811,15.093799 C116.823301,15.093799 119.470674,17.8015427 119.470674,22.5400942 C119.470674,27.2786458 116.823301,30.0158215 113.175811,30.0158215 C111.499142,30.0158215 109.940134,29.3094536 108.79294,27.8378537 L108.79294,27.8378537 L108.79294,35.078125 L105.057203,35.078125 L105.057203,15.4469829 L108.79294,15.4469829 L108.79294,17.2423348 C109.881304,15.8590309 111.440312,15.093799 113.175811,15.093799 Z M112.424572,18.4637049 C111.539856,18.4637049 110.499855,18.9370817 109.867747,19.6085702 C109.231195,20.2738162 108.817239,21.353907 108.817239,22.5732443 C108.817239,23.5917242 109.106048,24.5130543 109.572137,25.1765887 C109.619321,25.2447293 109.670538,25.3118351 109.725353,25.3777229 C109.799082,25.4668944 109.876379,25.5501463 109.956875,25.6270045 C110.590496,26.2436213 111.580417,26.6925451 112.424572,26.6925451 C114.343952,26.6925451 115.632304,25.0233497 115.632304,22.5634829 C115.632304,20.1329003 114.343952,18.4637049 112.424572,18.4637049 Z M128.777712,30.062451 C133.486955,30.062451 136.3125,26.6556015 136.3125,22.6026253 C136.3125,18.5790184 133.486955,15.1721689 128.777712,15.1721689 C124.097903,15.1721689 121.272357,18.5790184 121.272357,22.6026253 C121.272357,26.6556015 124.097903,30.062451 128.777712,30.062451 Z M128.816849,26.6925451 C126.486806,26.6925451 125.189061,24.7890767 125.189061,22.5634829 C125.189061,20.3671733 126.486806,18.4637049 128.816849,18.4637049 C131.146891,18.4637049 132.47413,20.3671733 132.47413,22.5634829 C132.47413,24.7890767 131.146891,26.6925451 128.816849,26.6925451 Z" id="Tempo" fill="#004976"></path>
                <g id="Tempo-Logo-Dark">
                    <g id="Logo-Flattened" transform="translate(1.000000, 0.000000)">
                        <g id="Circle">
                            <path d="M40,19.9893094 C40,31.0409086 31.0525451,40 20.0153002,40 C19.737884,40 19.4617879,39.9943401 19.187121,39.9831294 L17.265625,36.6499623 C18.1604372,36.7969109 19.078956,36.8733296 20.0153002,36.8733296 C29.3279756,36.8733296 36.8773907,29.3140963 36.8773907,19.9893094 C36.8773907,18.5712948 36.7028097,17.1941088 36.3739955,15.8781256 L38.4569833,12.265625 C39.4509098,14.6421798 40,17.2515377 40,19.9893094 Z" id="Path" fill="#ED9B33"></path>
                            <path d="M3.12441403,19.9929438 C3.12441403,27.7847475 8.41161841,34.3422791 15.5957612,36.2769765 L17.65625,39.84375 C7.71520901,38.685638 0,30.2398299 0,19.9929438 C0,16.0916128 1.11838025,12.4513622 3.05218043,9.375 L6.88802559,9.375 C4.53461813,12.2740015 3.12441403,15.96887 3.12441403,19.9929438 Z" id="Path" fill="#00C3F2"></path>
                            <path d="M20.0005298,0 C27.7670627,0 34.4996263,4.41557196 37.8125,10.8671259 L35.8724148,14.21875 C33.5224621,7.74377404 27.3032157,3.11693856 20.0005298,3.11693856 C15.3116576,3.11693856 11.0694446,5.02439927 8.01131199,8.10379441 L3.90625,8.1038243 C7.54888061,3.187846 13.4014654,0 20.0005298,0 Z" id="Path" fill="#00B47E"></path>
                        </g>
                        <path d="M17.2006831,27.721123 L10.5604327,21.1030176 C10.4381891,20.9811816 10.4381891,20.7836465 10.5604327,20.6618105 L13.6592163,17.5733613 C13.7814599,17.4515254 13.979656,17.4515254 14.1018996,17.5733613 L17.4220248,20.8824141 L26.0543504,12.278877 C26.176594,12.157041 26.3747901,12.157041 26.4970337,12.278877 L29.5958173,15.3673262 C29.7180609,15.4891621 29.7180609,15.6866973 29.5958173,15.8085332 L17.6433665,27.721123 C17.5211229,27.842959 17.3229268,27.842959 17.2006831,27.721123 Z" id="Checkmark" fill="#004976"></path>
                    </g>
                </g>
            </g>
        </g>
    </g>
</svg>