<?xml version="1.0" encoding="UTF-8"?>
<svg width="64px" height="64px" viewBox="0 0 64 64" version="1.1" xmlns="http://www.w3.org/2000/svg" xmlns:xlink="http://www.w3.org/1999/xlink">
    <!-- Generator: sketchtool 63.1 (101010) - https://sketch.com -->
    <title>A6DE215F-BAAB-499B-AE03-69A4952CF186</title>
    <desc>Created with sketchtool.</desc>
    <g id="nav-and-footer" stroke="none" stroke-width="1" fill="none" fill-rule="evenodd">
        <g id="footer" transform="translate(-134.000000, -99.000000)">
            <g id="Tempo-Logo/64px/Tempo-Logo-Dark-64" transform="translate(133.000000, 99.000000)">
                <g id="Logo-Flattened" transform="translate(1.000000, 0.000000)">
                    <g id="Circle">
                        <path d="M64,31.982895 C64,49.6654538 49.6840722,64 32.0244803,64 C31.5806143,64 31.1388607,63.9909442 30.6993936,63.9730071 L27.625,58.6399397 C29.0566995,58.8750574 30.5263296,58.9973273 32.0244803,58.9973273 C46.924761,58.9973273 59.0038251,46.902554 59.0038251,31.982895 C59.0038251,29.7140717 58.7244955,27.5105741 58.1983928,25.405001 L61.5311733,19.625 C63.1214557,23.4274876 64,27.6024604 64,31.982895 Z" id="Path" fill="#ED9B33"></path>
                        <path d="M4.99906244,31.9887101 C4.99906244,44.4555961 13.4585895,54.9476466 24.9532179,58.0431624 L28.25,63.75 C12.3443344,61.8970208 0,48.3837279 0,31.9887101 C0,25.7465805 1.7894084,19.9221794 4.8834887,15 L11.0208409,15 C7.25538901,19.6384023 4.99906244,25.550192 4.99906244,31.9887101 Z" id="Path" fill="#00C3F2"></path>
                        <path d="M32.0008477,0 C44.4273002,0 55.1994021,7.06491514 60.5,17.3874014 L57.3958637,22.75 C53.6359393,12.3900385 43.6851451,4.98710169 32.0008477,4.98710169 C24.4986522,4.98710169 17.7111113,8.03903883 12.8180992,12.9660711 L6.25,12.9661189 C12.078209,5.1005536 21.4423446,0 32.0008477,0 Z" id="Path" fill="#00B47E"></path>
                    </g>
                    <path d="M27.521093,44.3537969 L16.8966924,33.7648281 C16.7011025,33.5698906 16.7011025,33.2538344 16.8966924,33.0588969 L21.854746,28.1173781 C22.0503358,27.9224406 22.3674496,27.9224406 22.5630394,28.1173781 L27.8752397,33.4118625 L41.6869606,19.6462031 C41.8825504,19.4512656 42.1996642,19.4512656 42.395254,19.6462031 L47.3533076,24.5877219 C47.5488975,24.7826594 47.5488975,25.0987156 47.3533076,25.2936531 L28.2293864,44.3537969 C28.0337966,44.5487344 27.7166829,44.5487344 27.521093,44.3537969 Z" id="Checkmark" fill="#FFFFFF"></path>
                </g>
            </g>
        </g>
    </g>
</svg>