<svg xmlns="http://www.w3.org/2000/svg" width="26" height="26" viewBox="0 0 26 26">
  <g fill="none" transform="translate(1 1)">
    <circle cx="12" cy="12" r="12" fill="#B9E6D0"/>
    <path fill="#00A35D" d="M12,-0.75 C4.95836944,-0.75 -0.75,4.95836944 -0.75,12 C-0.75,19.0416306 4.95836944,24.75 12,24.75 C19.0416306,24.75 24.75,19.0416306 24.75,12 C24.75,4.95836944 19.0416306,-0.75 12,-0.75 Z M12,0.75 C18.2132034,0.75 23.25,5.78679656 23.25,12 C23.25,18.2132034 18.2132034,23.25 12,23.25 C5.78679656,23.25 0.75,18.2132034 0.75,12 C0.75,5.78679656 5.78679656,0.75 12,0.75 Z"/>
    <path fill="#00A35D" d="M15.2751795,8.31770555 C15.6520003,7.91394261 16.2847885,7.8921017 16.6885514,8.26892252 C17.0612557,8.61675712 17.1085353,9.18269408 16.8172239,9.5852736 L16.7373345,9.68229445 L10.2044276,16.6822944 C9.82179863,17.0922808 9.18536501,17.1028529 8.78880064,16.7291773 L8.70176852,16.6361304 L6.22841845,13.6361304 C5.87709332,13.2099977 5.93773685,12.5797436 6.36386958,12.2284185 C6.75722286,11.9041183 7.32450206,11.9308448 7.68577498,12.2720404 L7.77158155,12.3638696 L9.519,14.484 L15.2751795,8.31770555 Z"/>
  </g>
</svg>
