<svg xmlns="http://www.w3.org/2000/svg" xmlns:xlink="http://www.w3.org/1999/xlink" width="370" height="156" viewBox="0 0 370 156">
  <defs>
    <rect id="timesheets-thumbnail-a" width="371" height="156"/>
  </defs>
  <g fill="none" fill-rule="evenodd" transform="translate(-1)">
    <mask id="timesheets-thumbnail-b" fill="#fff">
      <use xlink:href="#timesheets-thumbnail-a"/>
    </mask>
    <use fill="#00B47E" xlink:href="#timesheets-thumbnail-a"/>
    <g mask="url(#timesheets-thumbnail-b)">
      <g transform="translate(3 -1)">
        <g transform="translate(0 7)">
          <path fill="#52C793" d="M99.6748314 71.6013374C115.89725 120.947352 162.287145 157.685762 221.337843 157.960442 280.38911 158.233078 349.567994 115.359381 349.809128 63.743395 350.048878 12.1262727 287.59268 18.7787547 228.541983 18.5048122 169.490715 18.2314381 60.7175523-46.9015043 99.6748314 71.6013374M29.1049174 8.02378561C46.9716849 14.3886849 91.000464 65.3095842 92.276743 85.0413971 72.495557 88.2235626 30.1760802 16.3324259 29.1049174 8.02378561"/>
          <g transform="translate(41.593 23.302)">
            <path fill="#F7F7F7" d="M0.535866279,0.397216547 C11.5471919,14.7246338 47.6955174,59.8557993 47.6955174,59.8557993"/>
            <path stroke="#F7F7F7" stroke-linejoin="bevel" stroke-width=".5" d="M0.535866279,0.397216547 C11.5471919,14.7246338 47.6955174,59.8557993 47.6955174,59.8557993"/>
          </g>
          <path fill="#52C793" d="M5.69767442e-05,110.847117 C14.2151849,98.3139655 80.1788709,84.4446345 98.1168593,92.8584187 C91.3582779,111.673491 7.81099884,113.92357 5.69767442e-05,110.847117"/>
          <g transform="translate(19.942 94.345)">
            <path fill="#F7F7F7" d="M0.108540698,12.6949022 C18.0032267,9.99469353 75.0785407,0.214038849 75.0785407,0.214038849"/>
            <path stroke="#F7F7F7" stroke-linejoin="bevel" stroke-width=".5" d="M0.108540698,12.6949022 C18.0032267,9.99469353 75.0785407,0.214038849 75.0785407,0.214038849"/>
          </g>
          <path fill="#52C793" d="M21.9422,55.8707892 C28.3697465,56.3288755 81.6270488,75.5633863 89.6613395,88.3863935 C79.1018395,97.5458468 21.9422,55.8707892 21.9422,55.8707892"/>
          <g transform="translate(42.733 66.496)">
            <path fill="#F7F7F7" d="M0.0996523256,0.136914388 C13.4139779,5.63224532 40.7309081,20.5160727 40.7309081,20.5160727"/>
            <path stroke="#F7F7F7" stroke-linejoin="bevel" stroke-width=".5" d="M0.0996523256,0.136914388 C13.4139779,5.63224532 40.7309081,20.5160727 40.7309081,20.5160727"/>
          </g>
          <path fill="#CB6128" d="M271.515381,83.4055856 C267.057521,78.9037223 257.445544,76.7764058 244.437753,83.0338878 C231.429963,89.2908014 205.917486,102.766837 205.917486,102.766837 L214.485649,110.969197 L258.528102,102.40196"/>
          <path fill="#2891CF" d="M234.048158,74.8848388 C234.195728,89.0184504 229.627902,100.413774 223.847612,100.468904 C223.485809,100.472314 220.040426,100.505278 220.040426,100.505278 C220.040426,100.505278 213.252216,88.3347309 213.113193,75.0848964 C213.008356,65.033141 216.100484,53.5423353 219.505414,49.3235079 C221.129821,49.3081626 221.642612,49.3030475 223.31203,49.2869368 C229.092891,49.2320043 233.900019,60.7517957 234.048158,74.8848388"/>
          <path fill="#2283B4" d="M230.24006,74.8149324 C230.3882,88.9479755 225.821514,100.450148 220.040653,100.505477 C214.259223,100.560407 209.453235,89.1474647 209.305665,75.0144216 C209.157526,60.8802417 213.724212,49.3786374 219.505072,49.3233131 C225.286502,49.2689468 230.092491,60.6813209 230.24006,74.8149324"/>
          <path fill="#369BBE" d="M228.48512,74.8315849 C228.625852,88.2667 224.561701,99.1976856 219.408155,99.2467316 C214.254608,99.2960094 209.96312,88.4440237 209.822387,75.0089086 C209.682224,61.5743619 213.745806,50.6428079 218.899352,50.5937657 C224.053469,50.5450525 228.344957,61.3959014 228.48512,74.8315849"/>
          <path fill="#6DCBDB" d="M220.125036,98.9701201 C223.818269,97.7334007 227.922303,91.412264 227.749664,74.9319547 C227.577024,58.3999259 223.343652,52.3334079 219.619083,51.0330338 L219.60028,51.022091 C224.369234,50.9767676 228.379257,61.6843935 228.517141,74.9245662 C228.656164,88.1653072 224.902536,98.9354511 220.133013,98.9814871 L220.125036,98.9701201 Z"/>
          <polygon fill="#DF7426" points="224.855 123.717 229.994 126.795 226.799 128.264 224.947 125.738"/>
          <path fill="#2891CF" d="M224.569108,145.138743 L222.04105,145.190609 C221.620562,145.198419 221.272434,144.880146 221.263317,144.478326 L220.13119,93.5784554 C220.122073,93.1766353 220.455957,92.8441532 220.877585,92.8356281 L223.405073,92.7843099 C223.825562,92.7759518 224.174259,93.0947935 224.182806,93.4966137 L225.315503,144.395916 C225.32405,144.797736 224.990166,145.130218 224.569108,145.138743"/>
          <path fill="#85D2E7" d="M228.486259,74.9253619 C228.624713,88.1655345 224.870515,98.9362468 220.101562,98.9818552 C215.332608,99.0266137 211.354492,88.3303547 211.215469,75.0896137 C211.077015,61.8488727 214.831213,51.0787288 219.600166,51.0331167 C224.36912,50.9877935 228.347806,61.6846209 228.486259,74.9253619"/>
          <path fill="#CB6128" d="M167.382063,96.4480878 C167.382063,96.4480878 201.817667,115.493908 215.954737,110.567491 C218.817249,109.570045 217.524447,100.535059 212.8119,99.5717137 C208.100493,98.6083683 171.70204,92.0746705 171.70204,92.0746705"/>
          <polygon fill="#FEFEFE" points="312.225 103.19 335.545 103.19 335.545 83.964 312.225 83.964"/>
          <polygon fill="#FEFEFE" points="340.409 57.469 363.729 57.469 363.729 38.243 340.409 38.243"/>
          <polygon fill="#FEFEFE" points="312.225 80.461 335.545 80.461 335.545 61.235 312.225 61.235"/>
          <polygon fill="#FEFEFE" points="340.409 80.461 363.729 80.461 363.729 61.235 340.409 61.235"/>
          <polygon fill="#FEFEFE" points="284.295 57.469 307.615 57.469 307.615 38.243 284.295 38.243"/>
          <polygon fill="#FEFEFE" points="284.295 80.461 307.615 80.461 307.615 61.235 284.295 61.235"/>
          <path stroke="#0C1629" stroke-linecap="round" stroke-width=".5" d="M298.854248,57.3893511 C298.910085,58.8738691 300.066713,59.2523871 300.639329,59.3160417 C304.645934,59.7570777 311.079178,59.8815453 311.356655,67.4126892"/>
          <path fill="#20B57C" d="M343.761266,54.2678849 C346.238615,54.5384173 348.732487,54.5929784 351.218383,54.429295 C351.583034,54.4048561 351.584743,53.8365108 351.218383,53.8609496 C348.732487,54.0246331 346.238615,53.9700719 343.761266,53.6995396 C343.397185,53.6597554 343.400034,54.2286691 343.761266,54.2678849"/>
          <polyline fill="#BBD7DF" points="310.937 54.727 335.923 57.486 333.239 49.603"/>
          <polygon fill="#FEFEFE" points="335.304 55.122 310.89 55.446 311.97 37.188 335.751 39.228 333.238 47.041"/>
          <polyline fill="#BBD7DF" points="320.436 37.914 327.457 38.517 327.457 35.808 320.436 35.808"/>
          <polygon fill="#DCE7EF" points="327.457 38.517 320.436 37.914 320.436 40.341 327.457 40.341"/>
          <polygon fill="#DCE7EF" points="355.694 61.235 348.673 61.261 348.673 63.688 355.694 63.688"/>
        </g>
        <g transform="translate(121)">
          <path stroke="#FFF" d="M2.10719595,-4.03443757e-15 L82.8738514,-4.03443757e-15 C84.0374324,-4.03443757e-15 84.9810473,0.932889831 84.9810473,2.08267797 L84.9810473,64.5738051 C84.9810473,65.7235932 84.0374324,66.6564831 82.8738514,66.6564831 L2.10719595,66.6564831 C0.943614865,66.6564831 0,65.7235932 0,64.5738051 L0,2.08267797 C0,0.932889831 0.943614865,-4.03443757e-15 2.10719595,-4.03443757e-15 Z"/>
          <path d="M48.6360236,49.3558339 C48.441902,49.3558339 48.2845372,49.5114102 48.2845372,49.7027576 L48.2845372,49.7027576 C48.2845372,49.8946729 48.441902,50.0508169 48.6360236,50.0508169 L48.6360236,50.0508169 L57.9418007,50.0508169 C58.135348,50.0508169 58.2927128,49.8946729 58.2927128,49.7027576 L58.2927128,49.7027576 C58.2927128,49.5114102 58.135348,49.3558339 57.9418007,49.3558339 L57.9418007,49.3558339 L48.6360236,49.3558339 Z"/>
          <path stroke="#FFF" stroke-linejoin="bevel" stroke-width=".5" d="M48.6358514,49.3556068 L57.9416284,49.3556068 C58.1351757,49.3556068 58.2925405,49.5111831 58.2925405,49.7025305 C58.2925405,49.8944458 58.1351757,50.0505898 57.9416284,50.0505898 L48.6358514,50.0505898 C48.4417297,50.0505898 48.2849392,49.8944458 48.2849392,49.7025305 C48.2849392,49.5111831 48.4417297,49.3556068 48.6358514,49.3556068 Z"/>
          <path fill="#FFF" d="M48.6358514,49.3556068 L56.3610878,49.3556068 C56.5552095,49.3556068 56.7125743,49.5111831 56.7125743,49.7025305 C56.7125743,49.8944458 56.5552095,50.0505898 56.3610878,50.0505898 L48.6358514,50.0505898 C48.4417297,50.0505898 48.2849392,49.8944458 48.2849392,49.7025305 C48.2849392,49.5111831 48.4417297,49.3556068 48.6358514,49.3556068"/>
          <path d="M48.6360236,49.3558339 C48.441902,49.3558339 48.2845372,49.5114102 48.2845372,49.7027576 L48.2845372,49.7027576 C48.2845372,49.8946729 48.441902,50.0508169 48.6360236,50.0508169 L48.6360236,50.0508169 L56.3612601,50.0508169 C56.5548074,50.0508169 56.7121723,49.8946729 56.7121723,49.7027576 L56.7121723,49.7027576 C56.7121723,49.5114102 56.5548074,49.3558339 56.3612601,49.3558339 L56.3612601,49.3558339 L48.6360236,49.3558339 Z"/>
          <path stroke="#FFF" stroke-linejoin="bevel" stroke-width=".5" d="M48.6358514,49.3556068 L56.3610878,49.3556068 C56.5552095,49.3556068 56.7125743,49.5111831 56.7125743,49.7025305 C56.7125743,49.8944458 56.5552095,50.0505898 56.3610878,50.0505898 L48.6358514,50.0505898 C48.4417297,50.0505898 48.2849392,49.8944458 48.2849392,49.7025305 C48.2849392,49.5111831 48.4417297,49.3556068 48.6358514,49.3556068 Z"/>
          <path fill="#FFF" d="M48.6358514,52.596022 L53.289027,52.596022 L53.289027,53.2904373 L48.6358514,53.2904373 C48.4417297,53.2904373 48.2849392,53.134861 48.2849392,52.9429458 C48.2849392,52.7510305 48.4417297,52.596022 48.6358514,52.596022"/>
          <path d="M48.6360236,52.5962492 C48.441902,52.5962492 48.2845372,52.7512576 48.2845372,52.9431729 L48.2845372,52.9431729 C48.2845372,53.1350881 48.441902,53.2906644 48.6360236,53.2906644 L48.6360236,53.2906644 L53.288625,53.2906644 L53.288625,52.5962492 L48.6360236,52.5962492 Z"/>
          <path stroke="#FFF" stroke-linejoin="bevel" stroke-width=".5" d="M48.6358514,52.596022 L53.289027,52.596022 L53.289027,53.2904373 L48.6358514,53.2904373 C48.4417297,53.2904373 48.2849392,53.134861 48.2849392,52.9429458 C48.2849392,52.7510305 48.4417297,52.596022 48.6358514,52.596022 Z"/>
          <path d="M53.288625,52.5962492 L53.288625,53.2906644 L62.5846385,53.2906644 C62.7781858,53.2906644 62.9355507,53.1350881 62.9355507,52.9431729 L62.9355507,52.9431729 C62.9355507,52.7512576 62.7781858,52.5962492 62.5846385,52.5962492 L62.5846385,52.5962492 L53.288625,52.5962492 Z"/>
          <path stroke="#FFF" stroke-linejoin="bevel" stroke-width=".5" d="M53.2887973,52.596022 L62.5848108,52.596022 C62.7783581,52.596022 62.935723,52.7510305 62.935723,52.9429458 C62.935723,53.134861 62.7783581,53.2904373 62.5848108,53.2904373 L53.2887973,53.2904373 L53.2887973,52.596022 Z"/>
          <path fill="#FFF" d="M48.6358514,46.1157025 L57.9416284,46.1157025 C58.1351757,46.1157025 58.2925405,46.270711 58.2925405,46.4626263 C58.2925405,46.6545415 58.1351757,46.8101178 57.9416284,46.8101178 L48.6358514,46.8101178 C48.4417297,46.8101178 48.2849392,46.6545415 48.2849392,46.4626263 C48.2849392,46.270711 48.4417297,46.1157025 48.6358514,46.1157025"/>
          <path fill="#FFF" d="M48.6358514,46.1157025 L58.2925405,46.1157025 L58.2925405,46.8101178 L48.6358514,46.8101178 C48.4417297,46.8101178 48.2849392,46.6545415 48.2849392,46.4626263 C48.2849392,46.270711 48.4417297,46.1157025 48.6358514,46.1157025"/>
          <path d="M48.6360236,46.1159864 C48.441902,46.1159864 48.2845372,46.2709949 48.2845372,46.4629102 L48.2845372,46.4629102 C48.2845372,46.6548254 48.441902,46.8098339 48.6360236,46.8098339 L48.6360236,46.8098339 L58.2927128,46.8098339 L58.2927128,46.1159864 L48.6360236,46.1159864 Z"/>
          <path stroke="#FFF" stroke-linejoin="bevel" stroke-width=".5" d="M48.6358514,46.1157025 L58.2925405,46.1157025 L58.2925405,46.8101178 L48.6358514,46.8101178 C48.4417297,46.8101178 48.2849392,46.6545415 48.2849392,46.4626263 C48.2849392,46.270711 48.4417297,46.1157025 48.6358514,46.1157025 Z"/>
          <path d="M57.4507534,46.1159864 L57.4507534,46.8098339 L65.3155507,46.8098339 C65.5102466,46.8098339 65.6670372,46.6548254 65.6670372,46.4629102 L65.6670372,46.4629102 C65.6670372,46.2709949 65.5102466,46.1159864 65.3155507,46.1159864 L65.3155507,46.1159864 L57.4507534,46.1159864 Z"/>
          <path stroke="#FFF" stroke-linejoin="bevel" stroke-width=".5" d="M57.4509831,46.1157025 L65.3157804,46.1157025 C65.509902,46.1157025 65.6672669,46.270711 65.6672669,46.4626263 C65.6672669,46.6545415 65.509902,46.8101178 65.3157804,46.8101178 L57.4509831,46.8101178 L57.4509831,46.1157025 Z"/>
          <path d="M48.6360236,42.8755712 C48.441902,42.8755712 48.2845372,43.0305797 48.2845372,43.2224949 L48.2845372,43.2224949 C48.2845372,43.4138424 48.441902,43.5694186 48.6360236,43.5694186 L48.6360236,43.5694186 L72.9540642,43.5694186 C73.1476115,43.5694186 73.3049764,43.4138424 73.3049764,43.2224949 L73.3049764,43.2224949 C73.3049764,43.0305797 73.1476115,42.8755712 72.9540642,42.8755712 L72.9540642,42.8755712 L48.6360236,42.8755712 Z"/>
          <path stroke="#FFF" stroke-linejoin="bevel" stroke-width=".5" d="M48.6358514,42.8752873 L72.9538919,42.8752873 C73.1480135,42.8752873 73.3048041,43.0302958 73.3048041,43.222211 C73.3048041,43.4141263 73.1480135,43.5697025 72.9538919,43.5697025 L48.6358514,43.5697025 C48.4417297,43.5697025 48.2849392,43.4141263 48.2849392,43.222211 C48.2849392,43.0302958 48.4417297,42.8752873 48.6358514,42.8752873 Z"/>
          <path fill="#FFF" d="M48.6358514,42.8752873 L64.7892973,42.8752873 C64.9834189,42.8752873 65.1402095,43.0302958 65.1402095,43.222211 C65.1402095,43.4141263 64.9834189,43.5697025 64.7892973,43.5697025 L48.6358514,43.5697025 C48.4417297,43.5697025 48.2849392,43.4141263 48.2849392,43.222211 C48.2849392,43.0302958 48.4417297,42.8752873 48.6358514,42.8752873"/>
          <path d="M48.6360236,42.8755712 C48.441902,42.8755712 48.2845372,43.0305797 48.2845372,43.2224949 L48.2845372,43.2224949 C48.2845372,43.4138424 48.441902,43.5694186 48.6360236,43.5694186 L48.6360236,43.5694186 L64.7888953,43.5694186 C64.9835912,43.5694186 65.1403818,43.4138424 65.1403818,43.2224949 L65.1403818,43.2224949 C65.1403818,43.0305797 64.9835912,42.8755712 64.7888953,42.8755712 L64.7888953,42.8755712 L48.6360236,42.8755712 Z"/>
          <path stroke="#FFF" stroke-linejoin="bevel" stroke-width=".5" d="M48.6358514,42.8752873 L64.7892973,42.8752873 C64.9834189,42.8752873 65.1402095,43.0302958 65.1402095,43.222211 C65.1402095,43.4141263 64.9834189,43.5697025 64.7892973,43.5697025 L48.6358514,43.5697025 C48.4417297,43.5697025 48.2849392,43.4141263 48.2849392,43.222211 C48.2849392,43.0302958 48.4417297,42.8752873 48.6358514,42.8752873 Z"/>
          <path stroke="#FFF" stroke-width=".5" d="M75.9387128,23.6073364 L82.2597264,23.6073364 C82.4532736,23.6073364 82.6106385,23.7623449 82.6106385,23.9542602 L82.6106385,26.0375059 C82.6106385,26.2294212 82.4532736,26.3849975 82.2597264,26.3849975 L75.9387128,26.3849975 L75.9387128,23.6073364 Z"/>
          <polygon stroke="#FFF" stroke-width=".5" points="62.682 26.385 75.939 26.385 75.939 23.607 62.682 23.607"/>
          <polygon stroke="#FFF" stroke-width=".5" points="49.426 26.385 62.682 26.385 62.682 23.607 49.426 23.607"/>
          <path stroke="#FFF" stroke-width=".5" d="M16.6801014 23.6073364L49.4263514 23.6073364 49.4263514 26.3849975 16.6801014 26.3849975C16.4859797 26.3849975 16.3291892 26.2294212 16.3291892 26.0375059L16.3291892 23.9542602C16.3291892 23.7623449 16.4859797 23.6073364 16.6801014 23.6073364zM73.2168176 30.5506941L82.0838108 30.5506941C82.2773581 30.5506941 82.4352973 30.7057025 82.4352973 30.8976178L82.4352973 32.9808636C82.4352973 33.1727788 82.2773581 33.3283551 82.0838108 33.3283551L73.2168176 33.3283551 73.2168176 30.5506941z"/>
          <polygon stroke="#FFF" stroke-width=".5" points="61.98 33.328 73.217 33.328 73.217 30.55 61.98 30.55"/>
          <polygon stroke="#FFF" stroke-width=".5" points="38.804 33.328 61.98 33.328 61.98 30.55 38.804 30.55"/>
          <path stroke="#FFF" stroke-width=".5" d="M16.6801014,30.5506941 L38.8036486,30.5506941 L38.8036486,33.3283551 L16.6801014,33.3283551 C16.4859797,33.3283551 16.3291892,33.1727788 16.3291892,32.9808636 L16.3291892,30.8976178 C16.3291892,30.7057025 16.4859797,30.5506941 16.6801014,30.5506941 Z"/>
          <polygon fill="#FFF" stroke="#FFF" points="2.81 18.052 83.577 18.052 83.577 17.966 2.81 17.966"/>
          <path d="M2.88707095,22.5660542 C2.88707095,22.8056644 3.08348986,22.9992831 3.32585473,22.9992831 L3.32585473,22.9992831 C3.56821959,22.9992831 3.76463851,22.8056644 3.76463851,22.5660542 L3.76463851,22.5660542 C3.76463851,22.3258763 3.56821959,22.1316898 3.32585473,22.1316898 L3.32585473,22.1316898 C3.08348986,22.1316898 2.88707095,22.3258763 2.88707095,22.5660542 L2.88707095,22.5660542 Z"/>
          <path stroke="#FFF" stroke-width=".5" d="M3.32596959,22.1318602 C3.56833446,22.1318602 3.7653277,22.3260466 3.7653277,22.5662246 C3.7653277,22.8058347 3.56833446,22.9994534 3.32596959,22.9994534 C3.08360473,22.9994534 2.88718581,22.8058347 2.88718581,22.5662246 C2.88718581,22.3260466 3.08360473,22.1318602 3.32596959,22.1318602 Z"/>
          <path d="M2.88707095,24.4749864 C2.88707095,24.7151644 3.08348986,24.9093508 3.32585473,24.9093508 L3.32585473,24.9093508 C3.56821959,24.9093508 3.76463851,24.7151644 3.76463851,24.4749864 L3.76463851,24.4749864 C3.76463851,24.2353763 3.56821959,24.0411898 3.32585473,24.0411898 L3.32585473,24.0411898 C3.08348986,24.0411898 2.88707095,24.2353763 2.88707095,24.4749864 L2.88707095,24.4749864 Z"/>
          <path stroke="#FFF" stroke-width=".5" d="M3.32596959,24.0415305 C3.56833446,24.0415305 3.7653277,24.2357169 3.7653277,24.4753271 C3.7653277,24.7149373 3.56833446,24.9091237 3.32596959,24.9091237 C3.08360473,24.9091237 2.88718581,24.7149373 2.88718581,24.4753271 C2.88718581,24.2357169 3.08360473,24.0415305 3.32596959,24.0415305 Z"/>
          <path d="M2.88707095,26.3850542 C2.88707095,26.6246644 3.08348986,26.8182831 3.32585473,26.8182831 L3.32585473,26.8182831 C3.56821959,26.8182831 3.76463851,26.6246644 3.76463851,26.3850542 L3.76463851,26.3850542 C3.76463851,26.1454441 3.56821959,25.9506898 3.32585473,25.9506898 L3.32585473,25.9506898 C3.08348986,25.9506898 2.88707095,26.1454441 2.88707095,26.3850542 L2.88707095,26.3850542 Z"/>
          <path stroke="#FFF" stroke-width=".5" d="M3.32596959,25.9506331 C3.56833446,25.9506331 3.7653277,26.1453873 3.7653277,26.3849975 C3.7653277,26.6246076 3.56833446,26.8182263 3.32596959,26.8182263 C3.08360473,26.8182263 2.88718581,26.6246076 2.88718581,26.3849975 C2.88718581,26.1453873 3.08360473,25.9506331 3.32596959,25.9506331 Z"/>
          <path d="M2.88707095,28.2939864 C2.88707095,28.5341644 3.08348986,28.7277831 3.32585473,28.7277831 L3.32585473,28.7277831 C3.56821959,28.7277831 3.76463851,28.5341644 3.76463851,28.2939864 L3.76463851,28.2939864 C3.76463851,28.0543763 3.56821959,27.8601898 3.32585473,27.8601898 L3.32585473,27.8601898 C3.08348986,27.8601898 2.88707095,28.0543763 2.88707095,28.2939864 L2.88707095,28.2939864 Z"/>
          <path stroke="#FFF" stroke-width=".5" d="M3.32596959,27.8603034 C3.56833446,27.8603034 3.7653277,28.0544898 3.7653277,28.2941 C3.7653277,28.534278 3.56833446,28.7278966 3.32596959,28.7278966 C3.08360473,28.7278966 2.88718581,28.534278 2.88718581,28.2941 C2.88718581,28.0544898 3.08360473,27.8603034 3.32596959,27.8603034 Z"/>
          <path fill="#FFF" d="M3.07246284,13.4524644 L11.0613142,13.4524644 C11.158375,13.4524644 11.2370574,13.5302525 11.2370574,13.6262102 L11.2370574,13.7130831 C11.2370574,13.8090407 11.158375,13.8868288 11.0613142,13.8868288 L3.07246284,13.8868288 C2.97540203,13.8868288 2.89671959,13.8090407 2.89671959,13.7130831 L2.89671959,13.6262102 C2.89671959,13.5302525 2.97540203,13.4524644 3.07246284,13.4524644"/>
          <path d="M3.07200338,13.4523508 C2.97551689,13.4523508 2.89683446,13.530139 2.89683446,13.6260966 L2.89683446,13.6260966 L2.89683446,13.7129695 C2.89683446,13.8089271 2.97551689,13.8861475 3.07200338,13.8861475 L3.07200338,13.8861475 L11.0614291,13.8861475 C11.1584899,13.8861475 11.2371723,13.8089271 11.2371723,13.7129695 L11.2371723,13.7129695 L11.2371723,13.6260966 C11.2371723,13.530139 11.1584899,13.4523508 11.0614291,13.4523508 L11.0614291,13.4523508 L3.07200338,13.4523508 Z"/>
          <path fill="#FFF" d="M4.78475338,22.3054356 L10.4027939,22.3054356 C10.5239764,22.3054356 10.6227601,22.4025288 10.6227601,22.5223339 C10.6227601,22.6427068 10.5239764,22.7398 10.4027939,22.7398 L4.78475338,22.7398 C4.66299662,22.7398 4.56478716,22.6427068 4.56478716,22.5223339 C4.56478716,22.4025288 4.66299662,22.3054356 4.78475338,22.3054356"/>
          <path d="M4.78463851,22.3054356 C4.66345608,22.3054356 4.56524662,22.4025288 4.56524662,22.5223339 L4.56524662,22.5223339 C4.56524662,22.6427068 4.66345608,22.7398 4.78463851,22.7398 L4.78463851,22.7398 L10.4026791,22.7398 C10.5244358,22.7398 10.6232196,22.6427068 10.6232196,22.5223339 L10.6232196,22.5223339 C10.6232196,22.4025288 10.5244358,22.3054356 10.4026791,22.3054356 L10.4026791,22.3054356 L4.78463851,22.3054356 Z"/>
          <path fill="#FFF" d="M4.78475338,24.3015814 L6.36471959,24.3015814 C6.48590203,24.3015814 6.58411149,24.3986746 6.58411149,24.5190475 C6.58411149,24.6388525 6.48590203,24.7359458 6.36471959,24.7359458 L4.78475338,24.7359458 C4.66299662,24.7359458 4.56478716,24.6388525 4.56478716,24.5190475 C4.56478716,24.3986746 4.66299662,24.3015814 4.78475338,24.3015814"/>
          <path d="M4.78463851,24.3012407 C4.66345608,24.3012407 4.56524662,24.3983339 4.56524662,24.5192746 L4.56524662,24.5192746 C4.56524662,24.6385119 4.66345608,24.7356051 4.78463851,24.7356051 L4.78463851,24.7356051 L6.36460473,24.7356051 C6.48578716,24.7356051 6.58399662,24.6385119 6.58399662,24.5192746 L6.58399662,24.5192746 C6.58399662,24.3983339 6.48578716,24.3012407 6.36460473,24.3012407 L6.36460473,24.3012407 L4.78463851,24.3012407 Z"/>
          <path fill="#FFF" d="M4.78475338,28.1203542 L6.36471959,28.1203542 C6.48590203,28.1203542 6.58411149,28.2180153 6.58411149,28.3378203 C6.58411149,28.4576254 6.48590203,28.5547186 6.36471959,28.5547186 L4.78475338,28.5547186 C4.66299662,28.5547186 4.56478716,28.4576254 4.56478716,28.3378203 C4.56478716,28.2180153 4.66299662,28.1203542 4.78475338,28.1203542"/>
          <path d="M4.78463851,28.1202407 C4.66345608,28.1202407 4.56524662,28.2179017 4.56524662,28.3377068 L4.56524662,28.3377068 C4.56524662,28.4575119 4.66345608,28.5546051 4.78463851,28.5546051 L4.78463851,28.5546051 L6.36460473,28.5546051 C6.48578716,28.5546051 6.58399662,28.4575119 6.58399662,28.3377068 L6.58399662,28.3377068 C6.58399662,28.2179017 6.48578716,28.1202407 6.36460473,28.1202407 L6.36460473,28.1202407 L4.78463851,28.1202407 Z"/>
          <path fill="#FFF" d="M4.78475338,26.2112517 L9.96458446,26.2112517 C10.0851926,26.2112517 10.183402,26.3083449 10.183402,26.42815 C10.183402,26.5479551 10.0851926,26.6450483 9.96458446,26.6450483 L4.78475338,26.6450483 C4.66299662,26.6450483 4.56478716,26.5479551 4.56478716,26.42815 C4.56478716,26.3083449 4.66299662,26.2112517 4.78475338,26.2112517"/>
          <path d="M4.78463851,26.2113085 C4.66345608,26.2113085 4.56524662,26.3084017 4.56524662,26.427639 L4.56524662,26.427639 C4.56524662,26.5480119 4.66345608,26.6451051 4.78463851,26.6451051 L4.78463851,26.6451051 L9.96446959,26.6451051 C10.085652,26.6451051 10.1838615,26.5480119 10.1838615,26.427639 L10.1838615,26.427639 C10.1838615,26.3084017 10.085652,26.2113085 9.96446959,26.2113085 L9.96446959,26.2113085 L4.78463851,26.2113085 Z"/>
          <path fill="#FFF" d="M24.2298818,13.4524644 L31.6920777,13.4524644 C31.7891385,13.4524644 31.8678209,13.5302525 31.8678209,13.6262102 L31.8678209,13.7130831 C31.8678209,13.8090407 31.7891385,13.8868288 31.6920777,13.8868288 L24.2298818,13.8868288 C24.1328209,13.8868288 24.0541385,13.8090407 24.0541385,13.7130831 L24.0541385,13.6262102 C24.0541385,13.5302525 24.1328209,13.4524644 24.2298818,13.4524644"/>
          <path d="M24.2295372,13.4523508 C24.1330507,13.4523508 24.0543682,13.530139 24.0543682,13.6260966 L24.0543682,13.6260966 L24.0543682,13.7129695 C24.0543682,13.8089271 24.1330507,13.8861475 24.2295372,13.8861475 L24.2295372,13.8861475 L31.6917331,13.8861475 C31.7893682,13.8861475 31.8674764,13.8089271 31.8674764,13.7129695 L31.8674764,13.7129695 L31.8674764,13.6260966 C31.8674764,13.530139 31.7893682,13.4523508 31.6917331,13.4523508 L31.6917331,13.4523508 L24.2295372,13.4523508 Z"/>
          <path fill="#FFF" d="M45.2998885,13.4524644 L54.1663074,13.4524644 C54.2633682,13.4524644 54.3420507,13.5302525 54.3420507,13.6262102 L54.3420507,13.7130831 C54.3420507,13.8090407 54.2633682,13.8868288 54.1663074,13.8868288 L45.2998885,13.8868288 C45.2028277,13.8868288 45.1241453,13.8090407 45.1241453,13.7130831 L45.1241453,13.6262102 C45.1241453,13.5302525 45.2028277,13.4524644 45.2998885,13.4524644"/>
          <path d="M45.2997736,13.4523508 C45.2032872,13.4523508 45.1246047,13.530139 45.1246047,13.6260966 L45.1246047,13.6260966 L45.1246047,13.7129695 C45.1246047,13.8089271 45.2032872,13.8861475 45.2997736,13.8861475 L45.2997736,13.8861475 L54.1667669,13.8861475 C54.2638277,13.8861475 54.3419358,13.8089271 54.3419358,13.7129695 L54.3419358,13.7129695 L54.3419358,13.6260966 C54.3419358,13.530139 54.2638277,13.4523508 54.1667669,13.4523508 L54.1667669,13.4523508 L45.2997736,13.4523508 Z"/>
          <path fill="#FFF" d="M66.3692635,13.4524644 L78.74825,13.4524644 C78.8447365,13.4524644 78.9234189,13.5302525 78.9234189,13.6262102 L78.9234189,13.7130831 C78.9234189,13.8090407 78.8447365,13.8868288 78.74825,13.8868288 L66.3692635,13.8868288 C66.2722027,13.8868288 66.1935203,13.8090407 66.1935203,13.7130831 L66.1935203,13.6262102 C66.1935203,13.5302525 66.2722027,13.4524644 66.3692635,13.4524644"/>
          <path d="M66.3694358,13.4523508 C66.272375,13.4523508 66.1936926,13.530139 66.1936926,13.6260966 L66.1936926,13.6260966 L66.1936926,13.7129695 C66.1936926,13.8089271 66.272375,13.8861475 66.3694358,13.8861475 L66.3694358,13.8861475 L78.7484223,13.8861475 C78.8443345,13.8861475 78.9235912,13.8089271 78.9235912,13.7129695 L78.9235912,13.7129695 L78.9235912,13.6260966 C78.9235912,13.530139 78.8443345,13.4523508 78.7484223,13.4523508 L78.7484223,13.4523508 L66.3694358,13.4523508 Z"/>
          <path fill="#FFF" d="M3.33602027,14.8414653 L10.7982162,14.8414653 C11.0405811,14.8414653 11.237,15.0356517 11.237,15.2752619 C11.237,15.5154398 11.0405811,15.7090585 10.7982162,15.7090585 L3.33602027,15.7090585 C3.09365541,15.7090585 2.89666216,15.5154398 2.89666216,15.2752619 C2.89666216,15.0356517 3.09365541,14.8414653 3.33602027,14.8414653"/>
          <path d="M3.33561824,14.8417492 C3.0938277,14.8417492 2.89683446,15.0359356 2.89683446,15.274978 L2.89683446,15.274978 C2.89683446,15.5151559 3.0938277,15.7093424 3.33561824,15.7093424 L3.33561824,15.7093424 L10.7983885,15.7093424 C11.0407534,15.7093424 11.2371723,15.5151559 11.2371723,15.274978 L11.2371723,15.274978 C11.2371723,15.0359356 11.0407534,14.8417492 10.7983885,14.8417492 L10.7983885,14.8417492 L3.33561824,14.8417492 Z"/>
          <path fill="#FFF" d="M24.4934966,14.8414653 L31.4290372,14.8414653 C31.671402,14.8414653 31.8678209,15.0356517 31.8678209,15.2752619 C31.8678209,15.5154398 31.671402,15.7090585 31.4290372,15.7090585 L24.4934966,15.7090585 C24.2511318,15.7090585 24.0541385,15.5154398 24.0541385,15.2752619 C24.0541385,15.0356517 24.2511318,14.8414653 24.4934966,14.8414653"/>
          <path d="M24.493152,14.8417492 C24.2513615,14.8417492 24.0543682,15.0359356 24.0543682,15.274978 L24.0543682,15.274978 C24.0543682,15.5151559 24.2513615,15.7093424 24.493152,15.7093424 L24.493152,15.7093424 L31.4286926,15.7093424 C31.6710574,15.7093424 31.8674764,15.5151559 31.8674764,15.274978 L31.8674764,15.274978 C31.8674764,15.0359356 31.6710574,14.8417492 31.4286926,14.8417492 L31.4286926,14.8417492 L24.493152,14.8417492 Z"/>
          <path fill="#FFF" d="M45.5629291,14.8414653 L49.5137061,14.8414653 C49.7560709,14.8414653 49.9530642,15.0356517 49.9530642,15.2752619 C49.9530642,15.5154398 49.7560709,15.7090585 49.5137061,15.7090585 L45.5629291,15.7090585 C45.3205642,15.7090585 45.1241453,15.5154398 45.1241453,15.2752619 C45.1241453,15.0356517 45.3205642,14.8414653 45.5629291,14.8414653"/>
          <path d="M45.5628142,14.8417492 C45.3204493,14.8417492 45.1246047,15.0359356 45.1246047,15.274978 L45.1246047,15.274978 C45.1246047,15.5151559 45.3204493,15.7093424 45.5628142,15.7093424 L45.5628142,15.7093424 L49.5135912,15.7093424 C49.7559561,15.7093424 49.9529493,15.5151559 49.9529493,15.274978 L49.9529493,15.274978 C49.9529493,15.0359356 49.7559561,14.8417492 49.5135912,14.8417492 L49.5135912,14.8417492 L45.5628142,14.8417492 Z"/>
          <path fill="#FFF" d="M66.6328784,14.8414653 L71.5490946,14.8414653 C71.7914595,14.8414653 71.9878784,15.0356517 71.9878784,15.2752619 C71.9878784,15.5154398 71.7914595,15.7090585 71.5490946,15.7090585 L66.6328784,15.7090585 C66.3905135,15.7090585 66.1935203,15.5154398 66.1935203,15.2752619 C66.1935203,15.0356517 66.3905135,14.8414653 66.6328784,14.8414653"/>
          <path d="M66.6330507,14.8417492 C66.3906858,14.8417492 66.1936926,15.0359356 66.1936926,15.274978 L66.1936926,15.274978 C66.1936926,15.5151559 66.3906858,15.7093424 66.6330507,15.7093424 L66.6330507,15.7093424 L71.5492669,15.7093424 C71.7916318,15.7093424 71.9880507,15.5151559 71.9880507,15.274978 L71.9880507,15.274978 C71.9880507,15.0359356 71.7916318,14.8417492 71.5492669,14.8417492 L71.5492669,14.8417492 L66.6330507,14.8417492 Z"/>
          <path fill="#FFF" d="M4.21381757 52.3354034L4.91621622 52.3354034C5.06209459 52.3354034 5.17983108 52.4523695 5.17983108 52.596022L5.17983108 53.2904373C5.17983108 53.4346576 5.06209459 53.5510559 4.91621622 53.5510559L4.21381757 53.5510559C4.06851351 53.5510559 3.95077703 53.4346576 3.95077703 53.2904373L3.95077703 52.596022C3.95077703 52.4523695 4.06851351 52.3354034 4.21381757 52.3354034M4.21381757 49.1244L4.91621622 49.1244C5.06209459 49.1244 5.17983108 49.2407983 5.17983108 49.3844508L5.17983108 50.0794339C5.17983108 50.2230864 5.06209459 50.3394847 4.91621622 50.3394847L4.21381757 50.3394847C4.06851351 50.3394847 3.95077703 50.2230864 3.95077703 50.0794339L3.95077703 49.3844508C3.95077703 49.2407983 4.06851351 49.1244 4.21381757 49.1244M4.21381757 45.8262966L4.91621622 45.8262966C5.06209459 45.8262966 5.17983108 45.9426949 5.17983108 46.0863475L5.17983108 46.7813305C5.17983108 46.9249831 5.06209459 47.0413814 4.91621622 47.0413814L4.21381757 47.0413814C4.06851351 47.0413814 3.95077703 46.9249831 3.95077703 46.7813305L3.95077703 46.0863475C3.95077703 45.9426949 4.06851351 45.8262966 4.21381757 45.8262966M4.21381757 42.6146686L4.91621622 42.6146686C5.06209459 42.6146686 5.17983108 42.7316347 5.17983108 42.8752873L5.17983108 43.5697025C5.17983108 43.7139229 5.06209459 43.8303212 4.91621622 43.8303212L4.21381757 43.8303212C4.06851351 43.8303212 3.95077703 43.7139229 3.95077703 43.5697025L3.95077703 42.8752873C3.95077703 42.7316347 4.06851351 42.6146686 4.21381757 42.6146686M6.54023311 43.0488627L13.0369899 43.0488627C13.157598 43.0488627 13.2558074 43.1459559 13.2558074 43.265761 13.2558074 43.3855661 13.157598 43.4832271 13.0369899 43.4832271L6.54023311 43.4832271C6.41905068 43.4832271 6.32084122 43.3855661 6.32084122 43.265761 6.32084122 43.1459559 6.41905068 43.0488627 6.54023311 43.0488627"/>
          <path d="M6.53977365,43.0487492 C6.41916554,43.0487492 6.32095608,43.1458424 6.32095608,43.2656475 L6.32095608,43.2656475 C6.32095608,43.3854525 6.41916554,43.4831136 6.53977365,43.4831136 L6.53977365,43.4831136 L13.0371047,43.4831136 C13.1577128,43.4831136 13.2559223,43.3854525 13.2559223,43.2656475 L13.2559223,43.2656475 C13.2559223,43.1458424 13.1577128,43.0487492 13.0371047,43.0487492 L13.0371047,43.0487492 L6.53977365,43.0487492 Z"/>
          <path fill="#FFF" d="M6.54023311,46.2604339 L9.78861149,46.2604339 C9.90979392,46.2604339 10.0080034,46.3575271 10.0080034,46.4773322 C10.0080034,46.5971373 9.90979392,46.6942305 9.78861149,46.6942305 L6.54023311,46.6942305 C6.41905068,46.6942305 6.32084122,46.5971373 6.32084122,46.4773322 C6.32084122,46.3575271 6.41905068,46.2604339 6.54023311,46.2604339"/>
          <path d="M6.53977365,46.2602068 C6.41916554,46.2602068 6.32095608,46.3573 6.32095608,46.4771051 L6.32095608,46.4771051 C6.32095608,46.5969102 6.41916554,46.6940034 6.53977365,46.6940034 L6.53977365,46.6940034 L9.78872635,46.6940034 C9.90990878,46.6940034 10.0081182,46.5969102 10.0081182,46.4771051 L10.0081182,46.4771051 C10.0081182,46.3573 9.90990878,46.2602068 9.78872635,46.2602068 L9.78872635,46.2602068 L6.53977365,46.2602068 Z"/>
          <path fill="#FFF" d="M28.8390642,46.2604339 L31.4729155,46.2604339 C31.594098,46.2604339 31.6923074,46.3575271 31.6923074,46.4773322 C31.6923074,46.5971373 31.594098,46.6942305 31.4729155,46.6942305 L28.8390642,46.6942305 C28.7178818,46.6942305 28.6196723,46.5971373 28.6196723,46.4773322 C28.6196723,46.3575271 28.7178818,46.2604339 28.8390642,46.2604339"/>
          <path d="M28.8390642,46.2602068 C28.7178818,46.2602068 28.6196723,46.3573 28.6196723,46.4771051 L28.6196723,46.4771051 C28.6196723,46.5969102 28.7178818,46.6940034 28.8390642,46.6940034 L28.8390642,46.6940034 L31.4729155,46.6940034 C31.5935236,46.6940034 31.6917331,46.5969102 31.6917331,46.4771051 L31.6917331,46.4771051 C31.6917331,46.3573 31.5935236,46.2602068 31.4729155,46.2602068 L31.4729155,46.2602068 L28.8390642,46.2602068 Z"/>
          <path fill="#FFF" d="M41.2173615,46.2604339 L43.8512128,46.2604339 C43.9723953,46.2604339 44.0706047,46.3575271 44.0706047,46.4773322 C44.0706047,46.5971373 43.9723953,46.6942305 43.8512128,46.6942305 L41.2173615,46.6942305 C41.0961791,46.6942305 40.9979696,46.5971373 40.9979696,46.4773322 C40.9979696,46.3575271 41.0961791,46.2604339 41.2173615,46.2604339"/>
          <path d="M41.2174764,46.2602068 C41.0962939,46.2602068 40.9980845,46.3573 40.9980845,46.4771051 L40.9980845,46.4771051 C40.9980845,46.5969102 41.0962939,46.6940034 41.2174764,46.6940034 L41.2174764,46.6940034 L43.8513277,46.6940034 C43.9725101,46.6940034 44.0707196,46.5969102 44.0707196,46.4771051 L44.0707196,46.4771051 C44.0707196,46.3573 43.9725101,46.2602068 43.8513277,46.2602068 L43.8513277,46.2602068 L41.2174764,46.2602068 Z"/>
          <path fill="#FFF" d="M79.3184966,46.2604339 L81.952348,46.2604339 C82.0735304,46.2604339 82.1717399,46.3575271 82.1717399,46.4773322 C82.1717399,46.5971373 82.0735304,46.6942305 81.952348,46.6942305 L79.3184966,46.6942305 C79.1973142,46.6942305 79.0991047,46.5971373 79.0991047,46.4773322 C79.0991047,46.3575271 79.1973142,46.2604339 79.3184966,46.2604339"/>
          <path d="M79.318152,46.2602068 C79.1975439,46.2602068 79.0993345,46.3573 79.0993345,46.4771051 L79.0993345,46.4771051 C79.0993345,46.5969102 79.1975439,46.6940034 79.318152,46.6940034 L79.318152,46.6940034 L81.9525777,46.6940034 C82.0731858,46.6940034 82.1713953,46.5969102 82.1713953,46.4771051 L82.1713953,46.4771051 C82.1713953,46.3573 82.0731858,46.2602068 81.9525777,46.2602068 L81.9525777,46.2602068 L79.318152,46.2602068 Z"/>
          <path fill="#FFF" d="M28.8390642,43.0488627 L31.4729155,43.0488627 C31.594098,43.0488627 31.6923074,43.1459559 31.6923074,43.265761 C31.6923074,43.3855661 31.594098,43.4832271 31.4729155,43.4832271 L28.8390642,43.4832271 C28.7178818,43.4832271 28.6196723,43.3855661 28.6196723,43.265761 C28.6196723,43.1459559 28.7178818,43.0488627 28.8390642,43.0488627"/>
          <path d="M28.8390642,43.0487492 C28.7178818,43.0487492 28.6196723,43.1458424 28.6196723,43.2656475 L28.6196723,43.2656475 C28.6196723,43.3854525 28.7178818,43.4831136 28.8390642,43.4831136 L28.8390642,43.4831136 L31.4729155,43.4831136 C31.5935236,43.4831136 31.6917331,43.3854525 31.6917331,43.2656475 L31.6917331,43.2656475 C31.6917331,43.1458424 31.5935236,43.0487492 31.4729155,43.0487492 L31.4729155,43.0487492 L28.8390642,43.0487492 Z"/>
          <path fill="#FFF" d="M41.2173615,43.0488627 L43.8512128,43.0488627 C43.9723953,43.0488627 44.0706047,43.1459559 44.0706047,43.265761 C44.0706047,43.3855661 43.9723953,43.4832271 43.8512128,43.4832271 L41.2173615,43.4832271 C41.0961791,43.4832271 40.9979696,43.3855661 40.9979696,43.265761 C40.9979696,43.1459559 41.0961791,43.0488627 41.2173615,43.0488627"/>
          <path d="M41.2174764,43.0487492 C41.0962939,43.0487492 40.9980845,43.1458424 40.9980845,43.2656475 L40.9980845,43.2656475 C40.9980845,43.3854525 41.0962939,43.4831136 41.2174764,43.4831136 L41.2174764,43.4831136 L43.8513277,43.4831136 C43.9725101,43.4831136 44.0707196,43.3854525 44.0707196,43.2656475 L44.0707196,43.2656475 C44.0707196,43.1458424 43.9725101,43.0487492 43.8513277,43.0487492 L43.8513277,43.0487492 L41.2174764,43.0487492 Z"/>
          <path fill="#FFF" d="M79.3184966,43.0488627 L81.952348,43.0488627 C82.0735304,43.0488627 82.1717399,43.1459559 82.1717399,43.265761 C82.1717399,43.3855661 82.0735304,43.4832271 81.952348,43.4832271 L79.3184966,43.4832271 C79.1973142,43.4832271 79.0991047,43.3855661 79.0991047,43.265761 C79.0991047,43.1459559 79.1973142,43.0488627 79.3184966,43.0488627"/>
          <path d="M79.318152,43.0487492 C79.1975439,43.0487492 79.0993345,43.1458424 79.0993345,43.2656475 L79.0993345,43.2656475 C79.0993345,43.3854525 79.1975439,43.4831136 79.318152,43.4831136 L79.318152,43.4831136 L81.9525777,43.4831136 C82.0731858,43.4831136 82.1713953,43.3854525 82.1713953,43.2656475 L82.1713953,43.2656475 C82.1713953,43.1458424 82.0731858,43.0487492 81.9525777,43.0487492 L81.9525777,43.0487492 L79.318152,43.0487492 Z"/>
          <path fill="#FFF" d="M28.8390642,49.5585373 L31.4729155,49.5585373 C31.594098,49.5585373 31.6923074,49.6556305 31.6923074,49.7754356 C31.6923074,49.8952407 31.594098,49.9923339 31.4729155,49.9923339 L28.8390642,49.9923339 C28.7178818,49.9923339 28.6196723,49.8952407 28.6196723,49.7754356 C28.6196723,49.6556305 28.7178818,49.5585373 28.8390642,49.5585373"/>
          <path d="M28.8390642,49.5585373 C28.7178818,49.5585373 28.6196723,49.6556305 28.6196723,49.7748678 L28.6196723,49.7748678 C28.6196723,49.8952407 28.7178818,49.9923339 28.8390642,49.9923339 L28.8390642,49.9923339 L31.4729155,49.9923339 C31.5935236,49.9923339 31.6917331,49.8952407 31.6917331,49.7748678 L31.6917331,49.7748678 C31.6917331,49.6556305 31.5935236,49.5585373 31.4729155,49.5585373 L31.4729155,49.5585373 L28.8390642,49.5585373 Z"/>
          <path fill="#FFF" d="M41.2173615,49.5585373 L43.8512128,49.5585373 C43.9723953,49.5585373 44.0706047,49.6556305 44.0706047,49.7754356 C44.0706047,49.8952407 43.9723953,49.9923339 43.8512128,49.9923339 L41.2173615,49.9923339 C41.0961791,49.9923339 40.9979696,49.8952407 40.9979696,49.7754356 C40.9979696,49.6556305 41.0961791,49.5585373 41.2173615,49.5585373"/>
          <path d="M41.2174764,49.5585373 C41.0962939,49.5585373 40.9980845,49.6556305 40.9980845,49.7748678 L40.9980845,49.7748678 C40.9980845,49.8952407 41.0962939,49.9923339 41.2174764,49.9923339 L41.2174764,49.9923339 L43.8513277,49.9923339 C43.9725101,49.9923339 44.0707196,49.8952407 44.0707196,49.7748678 L44.0707196,49.7748678 C44.0707196,49.6556305 43.9725101,49.5585373 43.8513277,49.5585373 L43.8513277,49.5585373 L41.2174764,49.5585373 Z"/>
          <path fill="#FFF" d="M79.3184966,49.5585373 L81.952348,49.5585373 C82.0735304,49.5585373 82.1717399,49.6556305 82.1717399,49.7754356 C82.1717399,49.8952407 82.0735304,49.9923339 81.952348,49.9923339 L79.3184966,49.9923339 C79.1973142,49.9923339 79.0991047,49.8952407 79.0991047,49.7754356 C79.0991047,49.6556305 79.1973142,49.5585373 79.3184966,49.5585373"/>
          <path d="M79.318152,49.5585373 C79.1975439,49.5585373 79.0993345,49.6556305 79.0993345,49.7748678 L79.0993345,49.7748678 C79.0993345,49.8952407 79.1975439,49.9923339 79.318152,49.9923339 L79.318152,49.9923339 L81.9525777,49.9923339 C82.0731858,49.9923339 82.1713953,49.8952407 82.1713953,49.7748678 L82.1713953,49.7748678 C82.1713953,49.6556305 82.0731858,49.5585373 81.9525777,49.5585373 L81.9525777,49.5585373 L79.318152,49.5585373 Z"/>
          <path fill="#FFF" d="M28.8390642,52.7695975 L31.4729155,52.7695975 C31.594098,52.7695975 31.6923074,52.8666907 31.6923074,52.9864958 C31.6923074,53.1063008 31.594098,53.2039619 31.4729155,53.2039619 L28.8390642,53.2039619 C28.7178818,53.2039619 28.6196723,53.1063008 28.6196723,52.9864958 C28.6196723,52.8666907 28.7178818,52.7695975 28.8390642,52.7695975"/>
          <path d="M28.8390642,52.7699949 C28.7178818,52.7699949 28.6196723,52.8665203 28.6196723,52.9863254 L28.6196723,52.9863254 C28.6196723,53.1061305 28.7178818,53.2037915 28.8390642,53.2037915 L28.8390642,53.2037915 L31.4729155,53.2037915 C31.5935236,53.2037915 31.6917331,53.1061305 31.6917331,52.9863254 L31.6917331,52.9863254 C31.6917331,52.8665203 31.5935236,52.7699949 31.4729155,52.7699949 L31.4729155,52.7699949 L28.8390642,52.7699949 Z"/>
          <path fill="#FFF" d="M28.8390642,56.0677008 L31.4729155,56.0677008 C31.594098,56.0677008 31.6923074,56.1647941 31.6923074,56.2845992 C31.6923074,56.404972 31.594098,56.5020653 31.4729155,56.5020653 L28.8390642,56.5020653 C28.7178818,56.5020653 28.6196723,56.404972 28.6196723,56.2845992 C28.6196723,56.1647941 28.7178818,56.0677008 28.8390642,56.0677008"/>
          <path d="M28.8390642,56.0677576 C28.7178818,56.0677576 28.6196723,56.1648508 28.6196723,56.2846559 L28.6196723,56.2846559 C28.6196723,56.404461 28.7178818,56.5015542 28.8390642,56.5015542 L28.8390642,56.5015542 L31.4729155,56.5015542 C31.5935236,56.5015542 31.6917331,56.404461 31.6917331,56.2846559 L31.6917331,56.2846559 C31.6917331,56.1648508 31.5935236,56.0677576 31.4729155,56.0677576 L31.4729155,56.0677576 L28.8390642,56.0677576 Z"/>
          <path fill="#FFF" d="M4.25752365,56.0677008 L6.891375,56.0677008 C7.01255743,56.0677008 7.11134122,56.1647941 7.11134122,56.2845992 C7.11134122,56.404972 7.01255743,56.5020653 6.891375,56.5020653 L4.25752365,56.5020653 C4.13634122,56.5020653 4.03813176,56.404972 4.03813176,56.2845992 C4.03813176,56.1647941 4.13634122,56.0677008 4.25752365,56.0677008"/>
          <path d="M4.25740878,56.0677576 C4.13622635,56.0677576 4.03859122,56.1648508 4.03859122,56.2846559 L4.03859122,56.2846559 C4.03859122,56.404461 4.13622635,56.5015542 4.25740878,56.5015542 L4.25740878,56.5015542 L6.89126014,56.5015542 C7.01244257,56.5015542 7.11122635,56.404461 7.11122635,56.2846559 L7.11122635,56.2846559 C7.11122635,56.1648508 7.01244257,56.0677576 6.89126014,56.0677576 L6.89126014,56.0677576 L4.25740878,56.0677576 Z"/>
          <path fill="#FFF" d="M41.2173615 52.7695975L43.8512128 52.7695975C43.9723953 52.7695975 44.0706047 52.8666907 44.0706047 52.9864958 44.0706047 53.1063008 43.9723953 53.2039619 43.8512128 53.2039619L41.2173615 53.2039619C41.0961791 53.2039619 40.9979696 53.1063008 40.9979696 52.9864958 40.9979696 52.8666907 41.0961791 52.7695975 41.2173615 52.7695975M41.2173615 56.0677008L43.8512128 56.0677008C43.9723953 56.0677008 44.0706047 56.1647941 44.0706047 56.2845992 44.0706047 56.404972 43.9723953 56.5020653 43.8512128 56.5020653L41.2173615 56.5020653C41.0961791 56.5020653 40.9979696 56.404972 40.9979696 56.2845992 40.9979696 56.1647941 41.0961791 56.0677008 41.2173615 56.0677008"/>
          <path d="M41.2174764 52.7699949C41.0962939 52.7699949 40.9980845 52.8665203 40.9980845 52.9863254L40.9980845 52.9863254C40.9980845 53.1061305 41.0962939 53.2037915 41.2174764 53.2037915L41.2174764 53.2037915 43.8513277 53.2037915C43.9725101 53.2037915 44.0707196 53.1061305 44.0707196 52.9863254L44.0707196 52.9863254C44.0707196 52.8665203 43.9725101 52.7699949 43.8513277 52.7699949L43.8513277 52.7699949 41.2174764 52.7699949zM41.2174764 56.0677576C41.0962939 56.0677576 40.9980845 56.1648508 40.9980845 56.2846559L40.9980845 56.2846559C40.9980845 56.404461 41.0962939 56.5015542 41.2174764 56.5015542L41.2174764 56.5015542 43.8513277 56.5015542C43.9725101 56.5015542 44.0707196 56.404461 44.0707196 56.2846559L44.0707196 56.2846559C44.0707196 56.1648508 43.9725101 56.0677576 43.8513277 56.0677576L43.8513277 56.0677576 41.2174764 56.0677576z"/>
          <path fill="#FFF" d="M79.3184966,52.7695975 L81.952348,52.7695975 C82.0735304,52.7695975 82.1717399,52.8666907 82.1717399,52.9864958 C82.1717399,53.1063008 82.0735304,53.2039619 81.952348,53.2039619 L79.3184966,53.2039619 C79.1973142,53.2039619 79.0991047,53.1063008 79.0991047,52.9864958 C79.0991047,52.8666907 79.1973142,52.7695975 79.3184966,52.7695975"/>
          <path d="M79.318152,52.7699949 C79.1975439,52.7699949 79.0993345,52.8665203 79.0993345,52.9863254 L79.0993345,52.9863254 C79.0993345,53.1061305 79.1975439,53.2037915 79.318152,53.2037915 L79.318152,53.2037915 L81.9525777,53.2037915 C82.0731858,53.2037915 82.1713953,53.1061305 82.1713953,52.9863254 L82.1713953,52.9863254 C82.1713953,52.8665203 82.0731858,52.7699949 81.9525777,52.7699949 L81.9525777,52.7699949 L79.318152,52.7699949 Z"/>
          <path fill="#FFF" d="M79.3184966,56.0677008 L81.952348,56.0677008 C82.0735304,56.0677008 82.1717399,56.1647941 82.1717399,56.2845992 C82.1717399,56.404972 82.0735304,56.5020653 81.952348,56.5020653 L79.3184966,56.5020653 C79.1973142,56.5020653 79.0991047,56.404972 79.0991047,56.2845992 C79.0991047,56.1647941 79.1973142,56.0677008 79.3184966,56.0677008"/>
          <path d="M79.318152 56.0677576C79.1975439 56.0677576 79.0993345 56.1648508 79.0993345 56.2846559L79.0993345 56.2846559C79.0993345 56.404461 79.1975439 56.5015542 79.318152 56.5015542L79.318152 56.5015542 81.9525777 56.5015542C82.0731858 56.5015542 82.1713953 56.404461 82.1713953 56.2846559L82.1713953 56.2846559C82.1713953 56.1648508 82.0731858 56.0677576 81.9525777 56.0677576L81.9525777 56.0677576 79.318152 56.0677576zM6.53977365 49.5585373C6.41916554 49.5585373 6.32095608 49.6556305 6.32095608 49.7748678L6.32095608 49.7748678C6.32095608 49.8952407 6.41916554 49.9923339 6.53977365 49.9923339L6.53977365 49.9923339 13.0371047 49.9923339C13.1577128 49.9923339 13.2559223 49.8952407 13.2559223 49.7748678L13.2559223 49.7748678C13.2559223 49.6556305 13.1577128 49.5585373 13.0371047 49.5585373L13.0371047 49.5585373 6.53977365 49.5585373z"/>
          <path fill="#FFF" d="M6.54023311 49.5585373L13.0369899 49.5585373C13.157598 49.5585373 13.2558074 49.6556305 13.2558074 49.7754356 13.2558074 49.8952407 13.157598 49.9923339 13.0369899 49.9923339L6.54023311 49.9923339C6.41905068 49.9923339 6.32084122 49.8952407 6.32084122 49.7754356 6.32084122 49.6556305 6.41905068 49.5585373 6.54023311 49.5585373M6.54023311 52.7695975L9.61344257 52.7695975C9.734625 52.7695975 9.83226014 52.8666907 9.83226014 52.9864958 9.83226014 53.1063008 9.734625 53.2039619 9.61344257 53.2039619L6.54023311 53.2039619C6.41905068 53.2039619 6.32084122 53.1063008 6.32084122 52.9864958 6.32084122 52.8666907 6.41905068 52.7695975 6.54023311 52.7695975"/>
          <polygon fill="#FFF" points="2.107 6.943 83.577 6.943 83.577 6.769 2.107 6.769"/>
          <path stroke="#FFF" stroke-linejoin="bevel" stroke-width=".5" d="M6.23624324,3.72173644 C6.23624324,4.64043136 5.48272973,5.38538051 4.55347297,5.38538051 C3.62421622,5.38538051 2.87127703,4.64043136 2.87127703,3.72173644 C2.87127703,2.80304153 3.62421622,2.05809237 4.55347297,2.05809237 C5.48272973,2.05809237 6.23624324,2.80304153 6.23624324,3.72173644 Z"/>
        </g>
        <path fill="#20B57C" fill-rule="nonzero" d="M357.356182,63 L357.356182,60 L356.88567,60 L356,60.8725637 L356.313675,61.191904 L356.816477,60.6836582 L356.816477,63 L357.356182,63 Z M358.491594,63 L358.491594,61.4842579 C358.606916,61.3358321 358.819107,61.191904 359.063589,61.191904 C359.335748,61.191904 359.515649,61.2953523 359.515649,61.6326837 L359.515649,63 L360,63 L360,61.4617691 C360,61.0164918 359.760131,60.7736132 359.280393,60.7736132 C358.929816,60.7736132 358.639206,60.9535232 358.491594,61.1244378 L358.491594,60 L358.007243,60 L358.007243,63 L358.491594,63 Z"/>
        <path fill="#EC9C31" fill-rule="nonzero" d="M327.185452,59 C327.897679,59 328.399584,58.6156112 328.399584,58.0014728 C328.399584,57.4005891 327.916799,57.0515464 327.381434,57.0515464 C327.075511,57.0515464 326.812608,57.1664212 326.659647,57.3078056 L326.659647,56.455081 L328.189262,56.455081 L328.189262,56 L326.100381,56 L326.100381,57.6480118 L326.497125,57.7540501 C326.697887,57.5773196 326.922549,57.4977909 327.195012,57.4977909 C327.586976,57.4977909 327.835538,57.7054492 327.835538,58.0235641 C327.835538,58.3107511 327.582196,58.5405007 327.180672,58.5405007 C326.822168,58.5405007 326.535365,58.4167894 326.320263,58.191458 L326,58.544919 C326.258123,58.8276878 326.635746,59 327.185452,59 Z M329.436924,58.9469809 L329.436924,57.4580265 C329.556426,57.3122239 329.776308,57.1708395 330.02965,57.1708395 C330.311673,57.1708395 330.498095,57.2724595 330.498095,57.6038292 L330.498095,58.9469809 L331,58.9469809 L331,57.4359352 C331,56.9985272 330.751438,56.7599411 330.254313,56.7599411 C329.891029,56.7599411 329.589886,56.9366716 329.436924,57.1045655 L329.436924,56 L328.935019,56 L328.935019,58.9469809 L329.436924,58.9469809 Z"/>
        <path fill="#0AC2F0" fill-rule="nonzero" d="M328.197559,83 C328.9294,83 329.390365,82.6473149 329.390365,82.1552975 C329.390365,81.7068215 328.962666,81.4760522 328.653771,81.4499274 C328.981674,81.3976778 329.342843,81.1712627 329.342843,80.7837446 C329.342843,80.2960813 328.881878,80 328.197559,80 C327.670063,80 327.285133,80.1959361 327.04277,80.4571843 L327.327903,80.7750363 C327.556009,80.5660377 327.822134,80.4528302 328.145284,80.4528302 C328.501701,80.4528302 328.786834,80.5921626 328.786834,80.862119 C328.786834,81.1277213 328.506453,81.245283 328.13578,81.245283 L327.99867,81.2451218 C327.902921,81.2447992 327.807877,81.2438316 327.769859,81.2409289 L327.769859,81.6981132 C327.817381,81.6937591 328.002718,81.6937591 328.13578,81.6937591 C328.58724,81.6937591 328.839108,81.8156749 328.839108,82.1030479 C328.839108,82.3730044 328.596745,82.5471698 328.17855,82.5471698 C327.841142,82.5471698 327.503735,82.4121916 327.29939,82.1944848 L327,82.5297533 C327.21385,82.7910015 327.632045,83 328.197559,83 Z M330.446025,82.9477504 L330.446025,81.4804064 C330.564831,81.3367199 330.783432,81.1973875 331.0353,81.1973875 C331.315681,81.1973875 331.501017,81.2975327 331.501017,81.6240929 L331.501017,82.9477504 L332,82.9477504 L332,81.4586357 C332,81.0275762 331.752885,80.7924528 331.258654,80.7924528 C330.897486,80.7924528 330.598096,80.9666183 330.446025,81.1320755 L330.446025,80.0435414 L329.947042,80.0435414 L329.947042,82.9477504 L330.446025,82.9477504 Z"/>
        <path fill="#EC9C31" d="M346.271891,84.6920614 C348.748303,85.0210526 351.240662,85.0865749 353.726187,84.8879387 C354.090131,84.858971 354.092409,84.169262 353.726187,84.1982298 C351.240662,84.3968659 348.748303,84.3313436 346.271891,84.0023524 C345.907947,83.9547625 345.910795,84.6444715 346.271891,84.6920614"/>
        <path fill="#EC9C31" fill-rule="nonzero" d="M356.356182,84 L356.356182,81 L355.88567,81 L355,81.8725637 L355.313675,82.191904 L355.816477,81.6836582 L355.816477,84 L356.356182,84 Z M357.491594,84 L357.491594,82.4842579 C357.606916,82.3358321 357.819107,82.191904 358.063589,82.191904 C358.335748,82.191904 358.515649,82.2953523 358.515649,82.6326837 L358.515649,84 L359,84 L359,82.4617691 C359,82.0164918 358.760131,81.7736132 358.280393,81.7736132 C357.929816,81.7736132 357.639206,81.9535232 357.491594,82.1244378 L357.491594,81 L357.007243,81 L357.007243,84 L357.491594,84 Z"/>
        <g transform="translate(345 46)">
          <path fill="#EC9C31" d="M1.40069008,31.7022373 L3.39473588,29.4868773 C3.86076641,28.968584 4.53241527,28.3763307 4.5194229,27.6092107 C4.51038473,27.0479173 4.09688855,26.612184 3.60600305,26.4120907 C3.02417099,26.1758773 2.38810992,26.266464 1.89214046,26.6523173 C0.864048855,27.4526907 0.744858015,28.992664 1.22105649,30.1335973 C1.71759084,31.3238373 2.90046107,32.2686907 4.22229313,32.123064 C5.59270534,31.971704 6.8642626,30.736744 6.61288855,29.2735973 C6.57391145,29.049424 6.28356031,29.013304 6.14064427,29.1468907 C5.54356031,29.708184 5.74183511,30.6461573 6.28581985,31.171904 C7.06592672,31.925264 8.27873588,31.7010907 9.22604885,31.502144 C9.58136183,31.4276107 9.43110229,30.8749173 9.07578931,30.9494507 C8.38098015,31.0950773 7.47716336,31.3083573 6.83262901,30.8852373 C6.41687328,30.6123307 6.12087328,29.9461173 6.54058321,29.5528107 C6.38241527,29.510384 6.2253771,29.4685307 6.06833893,29.426104 C6.24232366,30.4414773 5.32777405,31.288864 4.42904122,31.5084507 C3.43540763,31.7509707 2.46098015,31.1678907 1.94749924,30.3199307 C1.43401832,29.4713973 1.31821679,28.3052373 1.90343817,27.4589973 C2.1824916,27.054224 2.62931603,26.787624 3.12472061,26.8655973 C3.55007939,26.9332507 4.02627786,27.257184 3.94493435,27.7502507 C3.88901069,28.087944 3.62972824,28.3723173 3.4133771,28.6165573 C3.14901069,28.9141173 2.88125496,29.207664 2.61519389,29.5029307 C2.0774229,30.1009173 1.53908702,30.698904 1.00131603,31.2968907 C0.756155725,31.5686507 1.1544,31.9757173 1.40069008,31.7022373"/>
          <path fill="#20B57C" d="M0.667016794,7.406664 C1.40475725,7.06209067 2.08092519,6.58335733 2.63959695,5.984224 C3.1242687,5.463064 3.59707786,4.82551733 3.6383145,4.08305067 C3.67503206,3.412824 3.2140855,2.84063733 2.53735267,2.81827733 C1.82559695,2.79477067 1.24997863,3.30045067 0.995780153,3.94201067 C0.678314504,4.74181067 0.686787786,5.717624 0.687352672,6.565584 C0.687352672,7.53165067 0.782253435,8.49771733 0.960192366,9.44715733 C1.09294046,10.155224 1.21665038,11.1069573 1.86174962,11.5489973 C2.4972458,11.983584 3.10336794,11.4612773 3.24741374,10.8076773 C3.60046718,9.20635733 2.57971908,7.597584 1.13078779,7.00819733 C1.15338321,7.18249067 1.17541374,7.35735733 1.19800916,7.532224 C1.69058931,7.31149067 2.26394809,7.463424 2.77460458,7.51617067 C3.26605496,7.56719733 3.76089466,7.547704 4.20094046,7.29715733 C4.98500153,6.84995733 5.30811603,5.90453067 5.5391542,5.07835733 C5.63857405,4.721744 5.10419237,4.57611733 4.99403969,4.926424 C4.78446718,5.593784 4.58167328,6.40849067 5.06690992,7.00705067 C5.41996336,7.44221067 6.00574962,7.63141067 6.5090626,7.35735733 C6.82991756,7.183064 6.54465038,6.68827733 6.22436031,6.86257067 C5.91536794,7.03055733 5.5470626,6.787464 5.40979542,6.496784 C5.20248244,6.05875733 5.40414656,5.50835733 5.5391542,5.07835733 C5.35726107,5.027904 5.17536794,4.97687733 4.99403969,4.926424 C4.78220763,5.68379733 4.47773435,6.69171733 3.62758168,6.91875733 C3.16889466,7.042024 2.67913893,6.92391733 2.2170626,6.87461067 C1.75894046,6.82645067 1.33810076,6.84651733 0.91330687,7.03629067 C0.663627481,7.148664 0.784512977,7.480624 0.98109313,7.56089067 C1.9402687,7.95133067 2.65936794,8.91453067 2.74184122,9.966024 C2.7700855,10.327224 2.64298626,11.574224 2.07075725,10.979104 C1.66065038,10.552544 1.59512366,9.78427733 1.49287939,9.228144 C1.24037557,7.85157067 1.18162748,6.42855733 1.3290626,5.03535733 C1.3872458,4.48037067 1.51321527,3.79007733 2.05211603,3.50799733 C2.57294046,3.23509067 3.14516947,3.500544 3.0660855,4.13923733 C2.9881313,4.771624 2.51475725,5.31227733 2.08374962,5.739984 C1.58834504,6.23247733 1.01103206,6.61833067 0.381749618,6.911304 C0.0518564885,7.06495733 0.338253435,7.559744 0.667016794,7.406664"/>
        </g>
        <g transform="translate(313 48)">
          <path fill="#EC9C31" d="M3.05030698 1.25574324C3.1654 2.46012162 3.28163256 3.6645 3.39558605 4.86887838 3.44059767 5.34393243 3.50783023 5.8712027 3.31638837 6.32355405 3.12038837 6.78555405 2.61728372 7.03641892 2.12443488 6.95014865 1.6691907 6.87125676 1.30453953 6.4592027 1.29428372 5.9955 1.28402791 5.52895946 1.6498186 5.16458108 2.01959767 4.93528378 2.83949302 4.42844595 3.84741163 4.39212162 4.69978372 3.95282432 5.65642326 3.45904054 6.17377209 2.43458108 5.94871395 1.37777027 5.77493488 1.45098649 5.60172558 1.52363514 5.42794651 1.59685135 5.77379535 2.31822973 5.33450465 3.17185135 5.43250465 3.93352703 5.50942326 4.53401351 5.88717907 5.03177027 6.50423721 5.14471622 7.12528372 5.25766216 7.56001628 4.87341892 7.6716907 4.28201351 7.84205116 3.38355405 7.95315581 2.46977027 8.0933186 1.56563514 8.14858605 1.20863514 7.59933023 1.05482432 7.54406279 1.41466216 7.43580698 2.11390541 7.32755116 2.81201351 7.21929535 3.51068919 7.17656279 3.78482432 7.18567907 4.19177027 7.03526047 4.43525676 6.90307442 4.64866216 6.62502791 4.62255405 6.4239 4.52947297 5.84786512 4.26158108 5.96922558 3.47777027 6.04386512 2.97036486 6.1281907 2.39655405 6.17776047 1.84828378 5.91965581 1.31022973 5.77436512 1.00714865 5.33507442 1.22906757 5.39888837 1.52817568 5.52138837 2.10085135 5.34020233 2.71212162 4.91230698 3.1185 4.47871395 3.52998649 3.8759 3.69117568 3.31467907 3.84498649 2.38994651 4.09982432 1.26180698 4.43014865.850434884 5.39671622.456725581 6.31901351 1.09885349 7.3832027 2.08626047 7.51601351 3.20072558 7.66641892 3.9494 6.79406757 4.00523721 5.75314865 4.04170233 5.0697973 3.91692326 4.36544595 3.85253953 3.68663514 3.77505116 2.87614865 3.69756279 2.06622973 3.62007442 1.25574324 3.5853186.895337838 3.01555116.891932432 3.05030698 1.25574324M.816875581 11.8594378C3.29422442 12.1301676 5.78752674 12.1840865 8.27399186 12.020627 8.63807326 11.9967892 8.64035233 11.4292216 8.27399186 11.4530595 5.78752674 11.6165189 3.29422442 11.5626.816875581 11.2918703.452794186 11.2521405.455643023 11.8202757.816875581 11.8594378"/>
          <path fill="#0AC2F0" d="M1.84735698,34.6946108 C4.32470581,34.9653405 6.81800814,35.0192595 9.30447326,34.8558 C9.66855465,34.8319622 9.67083372,34.2643946 9.30447326,34.2882324 C6.81800814,34.4516919 4.32470581,34.397773 1.84735698,34.1270432 C1.48327558,34.0878811 1.48612442,34.6554486 1.84735698,34.6946108"/>
          <polygon fill="#FEFEFE" points="27.607 62.751 50.927 62.751 50.927 43.552 27.607 43.552"/>
        </g>
        <path fill="#EC9C31" fill-rule="nonzero" d="M356.356182,107 L356.356182,104 L355.88567,104 L355,104.872564 L355.313675,105.191904 L355.816477,104.683658 L355.816477,107 L356.356182,107 Z M357.491594,107 L357.491594,105.484258 C357.606916,105.335832 357.819107,105.191904 358.063589,105.191904 C358.335748,105.191904 358.515649,105.295352 358.515649,105.632684 L358.515649,107 L359,107 L359,105.461769 C359,105.016492 358.760131,104.773613 358.280393,104.773613 C357.929816,104.773613 357.639206,104.953523 357.491594,105.124438 L357.491594,104 L357.007243,104 L357.007243,107 L357.491594,107 Z"/>
        <g transform="translate(102 34)">
          <path fill="#0AC2F0" d="M212.771595 40.0526411C213.863168 39.5656556 214.68327 38.5465829 214.866527 37.3550956 214.920593 36.9994193 214.390742 36.837852 214.317895 37.2032338 213.991789 38.8451684 213.983252 40.5145065 214.290577 42.1587247 214.335538 42.3990775 214.70262 42.4373284 214.810753 42.2278047 215.612644 40.6772156 216.340548 39.0900884 216.997882 37.4727029 217.110568 37.195812 216.709338 37.0096956 216.522667 37.1952411 216.005906 37.7067756 215.81525 38.4946302 216.105502 39.1734411 216.399168 39.8596738 217.147561 40.285572 217.883434 40.2627356 219.423473 40.2153502 220.022757 38.5283138 220.064872 37.2260702 220.068286 37.1147429 219.974382 36.9680193 219.856004 36.950892 218.750773 36.7927502 218.419545 38.056172 218.2932 38.9068265 218.10596 40.172532 218.182222 41.4547938 218.503775 42.6930956 218.553857 42.8866338 218.75931 42.9368738 218.922078 42.8632265 220.616918 42.0987793 221.370434 39.852252 220.392685 38.2451429 220.20203 37.9322847 219.709171 38.2188811 219.900396 38.533452 220.730742 39.8967829 220.050644 41.7311138 218.634672 42.370532 218.774107 42.427052 218.912972 42.4841429 219.052407 42.5406629 218.805408 41.5900993 218.710365 40.6132738 218.781505 39.6330229 218.813945 39.1751538 218.907281 37.3876375 219.704618 37.5012484 219.635186 37.409332 219.565753 37.3179865 219.495751 37.2260702 219.466726 38.1218265 219.178182 39.3390047 218.201003 39.6370193 217.679689 39.7963029 217.053087 39.5981975 216.735518 39.1471793 216.391769 38.6596229 216.518114 38.0007938 216.925035 37.5988738 216.76625 37.5063865 216.607466 37.4138993 216.44925 37.321412 215.811267 38.8931247 215.098728 40.4328665 214.319602 41.9394956 214.492615 41.9617611 214.666197 41.9845975 214.839778 42.0074338 214.551803 40.4682629 214.561478 38.891412 214.866527 37.3550956L214.317895 37.2032338C214.154557 38.269692 213.460231 39.1243429 212.484189 39.5599465 212.150116 39.7083829 212.439229 40.2010775 212.771595 40.0526411M33.1240528 63.9187535L32.5754208 11.1536225C14.4176381 11.3277498-.0442775583 36.2102516.272722442 66.7310516.397359785 78.7075825 2.77969731 89.7723716 6.72483914 98.7864553L33.1240528 63.9187535z"/>
          <polygon fill="#86D3E6" points="33.124 63.919 6.725 98.786 16.083 98.786 42.704 64.098 42.023 12.949 32.575 11.154"/>
          <polygon fill="#BBD7DF" points="246.405 34.705 246.405 32.59 253.417 32.59 253.417 34.706"/>
          <path fill="#5BBF91" d="M89.2741433,70.1223658 C89.9849745,39.1728131 76.6095095,13.532144 64.3967573,11.7720313 C64.1121971,11.7617549 52.0696118,10.9864604 52.0696118,10.9864604 L51.1396693,10.9584858 L51.7787914,59.9584713 L80.9638488,72.3740313 L89.2741433,70.1223658 Z"/>
          <path fill="#20B57C" d="M80.883489,72.3151135 C80.5801479,43.1879025 67.4329002,11.3237535 51.1577673,10.9732153 L51.7786776,60.1307716 L80.883489,72.3151135 Z"/>
          <path fill="#DF7426" d="M72.4322804,70.1736905 C70.0499429,72.2215415 65.4628334,71.0346215 62.1852697,67.5229596 C58.908275,64.0118687 57.8377598,58.5442724 60.2200973,56.4964215 C62.6018657,54.4485705 68.1872122,55.9974469 71.4642068,59.5085378 C74.7412014,63.0207705 74.8140488,68.1258396 72.4322804,70.1736905"/>
          <path fill="#EEAC53" d="M81.9666957,73.197168 C80.2377083,100.016193 73.9927513,122.211997 57.4148465,128.426343 C54.6620117,129.458546 42.551132,130.899521 39.9656185,130.92407 C32.8937298,130.992008 27.8257136,127.302223 24.2539147,120.967415 C21.3866867,115.882328 39.3651966,73.1646262 39.3651966,73.1646262 L46.3016346,70.9546371 L81.9666957,73.197168 Z"/>
          <path fill="#EC9C31" d="M39.3649689,73.1647975 L73.2538056,75.5043829 C73.5099097,100.164797 63.1320013,120.987568 49.9369474,128.226125 C46.8016637,129.946274 43.4518217,130.890557 39.96596,130.924241 C28.9335632,131.029859 19.0752616,121.989514 12.9657553,108.032499 L39.3649689,73.1647975 Z"/>
          <path fill="#0B1528" d="M162.313277,5.88949818 C172.476058,-4.87385091 192.80162,0.507538182 192.451041,13.6253164 C192.101032,26.7425236 192.80162,23.3798691 197.357427,24.3880945 C201.913235,25.3974618 204.366144,26.0705636 203.664988,32.1244836 C202.964401,38.1789745 195.254528,42.8878327 201.212648,45.2422618 C207.16963,47.5966909 217.332411,52.3055491 206.469043,63.4045927 C195.605106,74.5047782 158.809203,69.1228182 148.997,57.0144073 C139.184228,44.9059964 133.835636,34.8054727 145.750169,32.1153491 C157.66584,29.4240836 153.811189,31.1059818 150.657124,24.37896 C147.503059,17.6519382 147.24411,9.58898909 152.851652,4.88013091 C158.458625,0.171272727 162.313277,5.88949818 162.313277,5.88949818"/>
          <path fill="#3F0525" d="M164.591408,51.0487498 C157.984491,49.791608 152.593214,48.8444698 148.325381,61.8258007 C146.937297,66.0482444 147.386333,69.7157644 145.567994,71.9366007 C127.797213,93.6408516 153.217539,109.99911 148.954828,135.140804 C144.861146,159.292543 199.967925,156.937543 199.967925,156.937543 C199.967925,156.937543 193.652397,133.599921 195.226584,123.65183 C197.70681,107.986084 207.331773,101.827688 203.592652,77.4144735 C201.855128,66.0642298 200.368017,58.9507025 191.959834,53.8022444"/>
          <path fill="#DF7426" d="M195.459525,60.6053684 C188.325033,66.3116047 179.61294,74.6046302 186.633039,83.5918811 C183.803942,94.3792084 169.063157,112.976572 173.560915,119.355339 C179.310737,127.508492 184.429974,131.600768 189.824096,120.807732 C193.123855,114.205168 200.911128,99.5773356 203.136389,92.2754084 C207.736588,77.1857102 204.789683,71.723252 198.558385,58.4381975 C195.784493,60.8862556 202.594586,54.8985611 195.459525,60.6053684"/>
          <path fill="#CB6128" d="M174.101977,42.9802058 C174.101977,42.9802058 168.913877,45.2638422 173.524889,51.7659258 C166.821791,54.7215222 158.011239,72.2432931 163.379182,74.0233876 C168.747125,75.8029113 189.311148,53.8765767 189.311148,53.8765767 L187.837696,43.0715513"/>
          <path fill="#DF7426" d="M159.029168,43.4625098 C160.902712,49.4907389 162.08819,53.3164007 167.177832,55.2814698 C168.766247,55.8946262 170.514585,56.4152953 172.474635,56.900568 C174.38005,56.7469935 174.969658,56.8765898 177.015076,55.7444771 C179.64612,53.6954844 186.023682,47.6267207 187.239322,44.8184189 C190.460543,37.3806153 195.670839,33.1239171 191.245929,25.9869825 C185.232604,16.2866662 175.275276,11.4402189 165.899019,16.6326371 C156.523331,21.8244844 155.667375,32.6466371 159.029168,43.4625098"/>
          <path fill="#0B1528" d="M189.31092,43.863916 C188.785622,21.3335596 168.921617,25.0661633 168.114604,21.7120724 C159.419015,22.2338833 156.87334,31.6424651 156.87334,43.863916 C156.87334,43.863916 152.495667,23.8130178 155.004918,17.0757196 C156.404385,13.3185669 169.679685,10.0329851 169.679685,10.0329851 L181.093962,12.1196578 C181.093962,12.1196578 190.860066,23.5110069 194.018683,26.2433778 C197.17787,28.9763196 189.31092,43.863916 189.31092,43.863916"/>
          <path stroke="#0C1629" stroke-linecap="round" stroke-width=".5" d="M193.370341,21.0916655 C193.426115,22.5834509 194.581429,22.9636764 195.153395,23.0270473 C199.155449,23.4700727 205.581386,23.5956727 205.858548,31.1602182"/>
          <path fill="#0B1528" d="M167.921103,37.6859375 C167.727033,40.5096538 167.432798,42.2172429 167.127181,42.612312 C165.140951,45.1831156 166.942217,46.166792 169.177721,44.8257265"/>
          <path fill="#DF7426" d="M174.66387,128.161098 C170.524658,126.923367 140.351039,113.430502 136.096864,110.692993 C113.587019,96.2096 123.418572,99.2125818 133.920548,102.060276 C146.87145,105.571938 161.69931,109.383898 172.569507,112.639222 C183.440274,115.894545 188.050717,122.410902 187.259071,124.656858 C185.502766,129.635756 180.465482,129.896662 174.66387,128.161098"/>
          <path stroke="#0C1629" stroke-linecap="round" stroke-width=".5" d="M145.545912,55.2430476 C138.662402,46.6423022 136.714303,39.2872804 137.234479,36.4201749 C137.753517,33.5530695 142.42884,31.1843676 145.67624,30.1875604"/>
          <path fill="#F58A1F" d="M127.361266,100.396704 C130.476062,100.967043 132.803764,106.371268 132.158381,108.134235 C131.060548,107.654101 129.067489,106.878806 129.067489,106.878806 C129.067489,106.878806 121.527214,109.61289 117.21499,106.93133 C112.902196,104.24977 116.400579,100.503464 117.901918,97.4422498 C117.993546,97.7020135 118.681044,97.3503335 118.682751,97.6449225 C118.704947,101.661268 120.13287,101.262773 127.361266,100.396704"/>
        </g>
      </g>
    </g>
  </g>
</svg>
