<svg xmlns="http://www.w3.org/2000/svg" xmlns:xlink="http://www.w3.org/1999/xlink" width="370" height="156" viewBox="0 0 370 156">
  <defs>
    <path id="cost-tracker-thumbnail-a" d="M4,0 L367,0 C369.209139,-4.05812251e-16 371,1.790861 371,4 L371,156 L371,156 L0,156 L0,4 C-2.705415e-16,1.790861 1.790861,4.05812251e-16 4,0 Z"/>
    <polygon id="cost-tracker-thumbnail-c" points=".204 .367 31.635 .367 31.635 45.47 .204 45.47"/>
  </defs>
  <g fill="none" fill-rule="evenodd" transform="translate(-1)">
    <mask id="cost-tracker-thumbnail-b" fill="#fff">
      <use xlink:href="#cost-tracker-thumbnail-a"/>
    </mask>
    <use fill="#ED9B33" xlink:href="#cost-tracker-thumbnail-a"/>
    <g mask="url(#cost-tracker-thumbnail-b)">
      <g transform="translate(35 -31)">
        <path fill="#F4C582" d="M28.9067807,128.719691 C46.4710997,186.038546 96.7355166,228.700956 160.733663,229 C224.731809,229.296981 299.721378,179.469037 300,119.506862 C300.276918,59.5446865 232.586768,67.2930135 168.588022,66.9947002 C104.589875,66.6969883 -13.2753018,-8.92964229 28.9067807,128.719691"/>
        <path fill="#FEFEFE" d="M215.256765,156 L237,158.942177 C237,158.942177 237,183.867028 235.594942,182.976704 C233.5964,181.710679 213.149178,180.390898 214.027488,178.432667 C214.905798,176.473833 215.256765,156 215.256765,156"/>
        <path fill="#0B1528" d="M220.219491 164.647764C222.494727 165.164144 224.710186 165.906565 226.945164 166.591979 229.164892 167.270764 231.4078 167.78383 233.707436 167.998601 234.098436 168.034397 234.096606 167.371521 233.707436 167.335726 231.42183 167.12228 229.197222 166.595293 226.993353 165.917171 224.797414 165.241701 222.618554 164.516515 220.381746 164.008089 219.998677 163.921252 219.834591 164.560265 220.219491 164.647764M219.202175 168.630313C220.592222 169.199413 222.082804 169.553212 223.525226 169.942894 225.615413 170.507587 227.718243 171.03199 229.83552 171.479589 230.78971 171.68167 231.748114 171.868642 232.713741 171.997067 233.097223 172.04806 233.093611 171.417895 232.713741 171.367532 230.830045 171.116347 228.964408 170.663082 227.11623 170.215483 225.169322 169.743331 223.227832 169.236555 221.305004 168.664308 220.653627 168.470411 219.993219 168.28155 219.36231 168.022812 219.001103 167.8755 218.84458 168.484261 219.202175 168.630313M220.278153 173.668238C224.149934 174.090769 227.84934 175.576293 231.722283 175.998158 232.093732 176.039478 232.091411 175.372358 231.722283 175.331705 227.850501 174.90984 224.151095 173.424316 220.278153 173.001784 219.906123 172.961131 219.908444 173.62825 220.278153 173.668238"/>
        <path fill="#724D9E" d="M287.033084,102.395981 C285.772136,112.158556 279.574735,118.889287 272.12905,118.889287 C263.773383,118.889287 256.998877,109.55369 256.998877,98.0378163 C256.998877,97.7326612 257.006717,97.4310891 257.015762,97.129517 L243.078998,95 C243.032564,95.931589 243,96.8679554 243,97.8162653 C243,120.008985 256.054523,138 272.157995,138 C286.773175,138 298.888771,123.861345 301,104.529678 L287.033084,102.395981 Z"/>
        <path fill="#EE9C2F" d="M257.732474,95 C258.322613,84.8873292 262.919518,78.6822813 270,77.6199266 L267.938376,58 C254.626071,60.4137812 245.171364,73.8529007 244,92.9680119 C244.675124,93.0928522 256.466616,94.8521309 257.732474,95"/>
        <g transform="translate(270 57)">
          <mask id="cost-tracker-thumbnail-d" fill="#fff">
            <use xlink:href="#cost-tracker-thumbnail-c"/>
          </mask>
          <path fill="#064975" d="M2.4128,20.1855868 C10.7792906,20.1855868 17.5614792,29.6482711 17.5614792,41.3195605 C17.5614792,42.2395605 17.5638943,42.4574553 17.4817811,43.3459816 C21.4944604,43.84835 30.2081208,45.3451658 31.3903094,45.46985 C31.5146868,43.9530605 31.6348377,42.6590079 31.6348377,41.0950079 C31.6348377,18.6022184 18.5643472,0.367455263 2.44178113,0.367455263 C1.6882717,0.367455263 0.942611321,0.414665789 0.204196226,0.49335 C0.841781132,6.06842895 2.33008302,19.6202711 2.4128,20.1855868" mask="url(#cost-tracker-thumbnail-d)"/>
        </g>
        <path fill="#FEFEFE" d="M51.13385,14.8637219 L48.0051524,102.651559 C47.8537347,106.903424 51.0539352,110.686461 55.7280545,111.779592 L213.507672,148.688518 C219.856399,150.173639 226.160662,146.173296 226.56264,140.405695 L233.980303,33.8329348 C234.314984,29.0203975 230.347481,24.8057505 224.910264,24.1976552 L62.8410799,6.07425298 C56.7555316,5.39412266 51.3255256,9.47010228 51.13385,14.8637219"/>
        <polyline stroke="#D0D9E1" points="66 94 68.664 21 218 40.254"/>
        <line x1="93" x2="89" y1="25" y2="99" stroke="#D0D9E1"/>
        <line x1="118" x2="114" y1="27" y2="101" stroke="#D0D9E1"/>
        <line x1="142" x2="138" y1="31" y2="105" stroke="#D0D9E1"/>
        <line x1="167" x2="163" y1="34" y2="108" stroke="#D0D9E1"/>
        <line x1="67" x2="147" y1="70" y2="82" stroke="#D0D9E1"/>
        <line x1="67" x2="183" y1="46" y2="64" stroke="#D0D9E1"/>
        <line x1="192" x2="188" y1="37" y2="111" stroke="#D0D9E1"/>
        <path fill="#3092D0" d="M72.8915544,89.0603912 C80.1816061,91.377979 84.7681183,92.2647134 89.3227462,92.1552917 C93.8779757,92.04587 99.9786866,86.746391 105.11866,87.121295 C107.686842,87.3084479 119.073713,88.9025369 127.324502,86.586145 C135.590932,84.2655676 141.620054,76.7884172 147.734601,77.2858973 C168.793213,78.9995729 178.891481,59.4154779 189.920406,59.8148971 C200.949331,60.2143162 219,40 219,40 L216.282022,62.9994875 L203.820113,85.0775604 L122.142417,103 L84.1184025,95.7715896 L72,90.9103955 L72.8915544,89.0603912 Z"/>
        <path fill="#395FAC" d="M70.4235612,102.103057 L206.201638,130.79814 C209.988105,131.737774 213.76677,129.283009 213.892206,125.800444 L216,57 C216,57 214.913094,71.1156523 197.530993,69.511148 C185.668049,68.4169207 179.082993,77.5777526 174.716762,83.9480634 C170.351131,90.3183742 157.356268,86.8170886 149.908168,86.1341024 C142.460069,85.45172 132.361622,97.1385743 111.619174,90.7072718 C99.2688928,86.8774764 99.5773798,96.4519648 82.5949924,92.0750558 C77.8914664,90.8630723 72.7852269,86.7736094 69.0995879,88.6709946 C67.1778462,89.660147 65.9847098,91.4808397 66.0339237,93.4494825 C66.0627318,94.6348954 66.0447267,95.7623359 66.0039152,96.7653776 C65.903687,99.2352393 67.7372039,101.436375 70.4235612,102.103057"/>
        <path stroke="#F2CF3F" d="M66,93.1089029 C65.9964042,91.3117071 69.0566983,89.3872707 69.0566983,89.3872707 C72.7402079,87.4744018 77.8440971,91.5972371 82.5449055,92.8185023 C99.5168815,97.2311295 99.2079729,87.5791164 111.551719,91.4401652 C132.282182,97.9239509 142.374795,86.141725 149.818591,86.829676 C157.261788,87.5170182 170.250343,91.048094 174.613451,84.6251889 C178.97716,78.2028926 185.557812,68.9673029 197.414502,70.0710685 C214.786559,71.6880577 216,57 216,57"/>
        <line x1="59.005" x2="59.995" y1="37.427" y2="37.573" stroke="#034A75"/>
        <line x1="61" x2="221" y1="38" y2="61" stroke="#034A75" stroke-dasharray="1.992 1.992"/>
        <line x1="222.006" x2="222.994" y1="61.428" y2="61.572" stroke="#034A75"/>
        <path fill="#EC9C31" d="M102.647797,149.739096 C107.211775,148.828258 109.542751,142.167524 116.907748,149.160901 C121.985647,153.982418 126.277938,155.989771 129.384304,161.280013 C141.324699,179.719956 130.343623,179.415134 131.417748,190.1444 C131.686429,192.827321 129.496705,224.193188 126.56345,225 C107.256856,220.619387 88.5212846,209.523003 82.0645152,204.388801 C80.3514457,193.044447 76.249095,184.20762 78.8313219,166.527918 C80.0316727,158.307994 81.6263301,151.475496 87.2542143,149.699784 C101.992022,145.048218 102.647797,149.739096 102.647797,149.739096"/>
        <path fill="#724D9E" d="M115.777257,141.409543 L115.191514,147.318395 C115.191514,147.318395 119.169455,148.462868 115.325937,151.659287 C113.056565,153.545329 105.531324,153.501047 100.480434,151.146612 C98.0717732,150.024591 98,148.039382 98,148.039382 L98.1660516,140 L115.777257,141.409543 Z"/>
        <path fill="#010202" d="M89.0025068,129.455767 C89.1035617,136.177965 93.7240842,142.843061 95.1151111,144.200744 C98.8474462,149.271854 108.0544,148.208792 110.844368,146.986574 C118.612203,143.58599 124.12213,137.528965 123.997942,129.228575 C123.829315,117.946751 117.949867,108.984833 107.541821,109 C97.1337741,109.015813 88.8344878,118.173943 89.0025068,129.455767"/>
        <path fill="#010202" d="M110.51035,95.2564982 C104.801741,93.9381561 99.6309297,97.8889394 98.9815361,102.821054 C95.4674501,102.672551 92.2454131,104.912217 91.4286256,108.292628 C90.500242,112.134307 90.8391851,115.339546 94.8797904,116.272386 C94.8797904,116.272386 101.656278,113.342333 106.739237,116.983988 C111.822196,120.625643 112.107122,119.900706 112.107122,119.900706 C112.389674,120.592305 111.391839,128.455079 111.453573,130.325004 C111.503435,131.838521 114.650086,128.428409 115.044827,132.087642 C115.438974,135.746875 111.929043,138.216872 112.099405,138.989087 C112.645513,141.462115 106.740424,147.782277 110.169033,146.919748 C126.952355,145.435931 126.804549,123.711472 124.852213,121.829425 C126.868658,121.035996 128.321186,119.442469 128.819213,117.382824 C129.550523,114.354577 128.026763,110.861425 124.907418,109.595211 C126.168215,104.378819 121.664011,101.043868 117.585416,101.937916 C116.844015,99.0133185 114.419177,96.158426 110.51035,95.2564982"/>
        <polygon fill="#FEFEFE" points="0 104.082 33.345 113 35 73.102 .237 67"/>
        <polygon stroke="#DCE7EF" points="16 101 11 99.601 11 84 16 85.4"/>
        <polygon stroke="#DCE7EF" points="9 99 4 97.616 4 86 9 87.384"/>
        <polygon fill="#DCE7EF" points="23 103 18 101.556 18 81 23 82.446"/>
        <polygon stroke="#DCE7EF" points="23 103 18 101.556 18 81 23 82.446"/>
        <polygon stroke="#DCE7EF" points="30 104 25 102.603 25 78 30 79.397"/>
        <line x1="5" x2="10" y1="87" y2="92" stroke="#DCE7EF"/>
        <line x1="6" x2="9" y1="86" y2="89" stroke="#DCE7EF"/>
        <line x1="5" x2="10" y1="90" y2="95" stroke="#DCE7EF"/>
        <line x1="4" x2="9" y1="93" y2="98" stroke="#DCE7EF"/>
        <line x1="4" x2="7" y1="95" y2="98" stroke="#DCE7EF"/>
        <path stroke="#EDF2F7" d="M20 83.5C20 84.3285156 19.5526115 85 19.0002548 85 18.4478981 85 18 84.3285156 18 83.5 18 82.6720703 18.4478981 82 19.0002548 82 19.5526115 82 20 82.6720703 20 83.5zM20 88C20 88.5519446 19.5524774 89 19 89 18.4480554 89 18 88.5519446 18 88 18 87.4475226 18.4480554 87 19 87 19.5524774 87 20 87.4475226 20 88zM23 92C23 92.5524774 22.5524774 93 22 93 21.4480554 93 21 92.5524774 21 92 21 91.4480554 21.4480554 91 22 91 22.5524774 91 23 91.4480554 23 92zM20 95C20 95.5519446 19.5524774 96 19 96 18.4480554 96 18 95.5519446 18 95 18 94.4475226 18.4480554 94 19 94 19.5524774 94 20 94.4475226 20 95zM22.9942677 96.893674C23.0528794 97.4429061 22.6553854 97.9356701 22.1060339 97.9942691 21.5572152 98.052868 21.064344 97.6554605 21.0057323 97.1056957 20.9471206 96.5569963 21.3446146 96.0642323 21.8939661 96.0056334 22.4433176 95.9475671 22.9361888 96.3449746 22.9942677 96.893674zM19.9976791 98.9325676C20.0349756 99.4835057 19.6183213 99.9609143 19.0674 99.9976791 18.5164786 100.034977 18.0390845 99.6183097 18.0023209 99.0673716 17.9650244 98.5164335 18.3816787 98.0395576 18.9326 98.0022601 19.4835214 97.9654953 19.9609155 98.3816294 19.9976791 98.9325676zM22.9977405 101.932628C23.0344966 102.483567 22.6184601 102.960442 22.0676512 102.99774 21.5163097 103.034505 21.0395457 102.618371 21.0022569 102.067432 20.9655008 101.516494 21.38207 101.039086 21.9328788 101.002321 22.4836877 100.965023 22.9604517 101.38169 22.9977405 101.932628zM24 86.5003313C24 87.3280318 23.5523603 88 23 88 22.4481823 88 22 87.3280318 22 86.5003313 22 85.6719682 22.4481823 85 23 85 23.5523603 85 24 85.6719682 24 86.5003313z"/>
        <path fill="#F2CF3F" d="M175.568814 84.5806878C176.629166 86.8278837 175.666516 89.509001 173.419375 90.5688039 171.172233 91.6291815 168.491181 90.6665081 167.430829 88.4193122 166.371052 86.1721163 167.333702 83.490999 169.580843 82.4311961 171.827985 81.3708185 174.508462 82.3334919 175.568814 84.5806878M86 92.5C86 94.9851175 83.5378213 97 80.4996907 97 77.4621787 97 75 94.9851175 75 92.5 75 90.0148825 77.4621787 88 80.4996907 88 83.5378213 88 86 90.0148825 86 92.5"/>
        <path stroke="#F2CF3F" stroke-dasharray="3" d="M82.3148688 91C81.0510204 78.9980972 84 26 84 26M168.306572 142C166.860431 129.87241 171 90 171 90"/>
        <path stroke="#274F5C" d="M157.346237,140.140363 L202.966217,151.088619 C205.405608,151.67401 207.127992,153.967798 206.992537,156.449661 L204.685591,198.561505 C204.518831,201.604569 201.672473,203.629851 198.699691,202.82131 L153.884613,190.626075 C151.549974,189.991095 149.915486,187.786809 150.003381,185.392634 L151.505425,144.527769 C151.616197,141.505266 154.380679,139.428581 157.346237,140.140363 Z"/>
        <line x1="151" x2="206" y1="146" y2="159" stroke="#274F5C"/>
        <path stroke="#274F5C" d="M157 144.052431C157 144.603862 156.552203 145.02753 156 144.998603 155.447797 144.969675 155 144.499 155 143.947569 155 143.396138 155.447797 142.97247 156 143.001397 156.552203 143.030325 157 143.501 157 144.052431zM161 144.052431C161 144.603862 160.552203 145.02753 160 144.998603 159.447797 144.969675 159 144.499 159 143.947569 159 143.396138 159.447797 142.97247 160 143.001397 160.552203 143.030325 161 143.500397 161 144.052431zM164 145.052431C164 145.603862 163.552203 146.02753 163 145.998603 162.447797 145.969675 162 145.499603 162 144.947569 162 144.396138 162.447797 143.97247 163 144.001397 163.552203 144.030325 164 144.501 164 145.052431z"/>
        <line x1="155" x2="174" y1="155" y2="160" stroke="#274F5C"/>
        <line x1="155" x2="200" y1="165" y2="176" stroke="#274F5C"/>
        <line x1="155" x2="200" y1="171" y2="182" stroke="#274F5C"/>
        <line x1="155" x2="200" y1="177" y2="188" stroke="#274F5C"/>
        <path fill="#724D9E" d="M161.043325,185.811221 C161.705262,188.662589 164.769238,189.815414 167.887093,188.386967 C171.004356,186.958521 173.109175,182.732111 171.374994,180.415412 C170.466754,179.201202 169.06591,178.634611 168.525348,178.780709 C168.114449,178.254633 170.062961,176.98272 171.166584,175.993795 C172.241196,175.030039 171.861678,173.550028 170.59405,174.131351 C167.476195,175.559798 160.381387,182.959852 161.043325,185.811221"/>
        <path fill="#724D9E" d="M162,184 C162.176539,182.899806 162.099552,180.015546 163.278248,178.066788 C164.45628,176.117417 165.902439,177.253122 165.653559,178.218011 C165.404679,179.182288 165.007135,180.005138 166,179.618202"/>
        <path fill="#DF7426" d="M116,175 C117.009001,187.999384 121.880548,198.692696 124.747029,209.209031 C127.612921,219.725366 130.093676,209.649678 130.093676,209.649678 C130.093676,209.649678 131.508395,198.180899 130.8028,194.499076 C130.097204,190.817252 116,175 116,175"/>
        <path fill="#5F449A" d="M125.540683,130 C125.540683,130 127.107811,134.452395 126.994098,135.090017 C126.880385,135.728217 124,136 124,136"/>
        <path fill="#EC9C31" d="M116.741852,162.325381 C117.372272,160.830717 123.891601,155.411289 124.443518,156.052457 C126.384515,158.307313 131.918664,162.683646 132.454401,168.591128 C133.362876,178.611778 138.797548,186.616813 142.397891,188.439239 C145.898757,190.211424 154.068444,186.008541 160.22642,184.494139 C164.132984,183.533583 166.485672,188.929087 165.915178,189.937492 C160.864031,198.860021 142.570477,211.148684 135.539981,207.261002 C124.906744,201.379836 114.641452,186.862036 115.031569,176.118278 C115.28925,169.011596 114.160248,168.448779 116.741852,162.325381"/>
        <path fill="#724D9E" d="M125.293346,121 C125.293346,121 118.001466,124.478732 116.699449,131.485158 C116.699449,131.485158 112.174866,128.815519 112.023306,133.09294 C111.871745,137.370973 112.480914,145.843191 113.225843,145.994361 C113.969602,146.14553 121.381443,143.265967 124.036973,136.342164 C127.5334,127.224262 125.293346,121 125.293346,121"/>
        <polygon fill="#EE9C2F" points="21 70.507 12 69 12 71.639 21 73"/>
        <polygon fill="#DF7426" points="12 68.435 12 66 21 67.208 21 70"/>
        <path stroke="#DF7426" d="M119,151.24529 C118.667723,151.876868 118.224292,152.56012 117.646523,153.296961 C114.663761,157.099188 104.772142,157.009874 98.1331484,152.265384 C96.5169408,151.109405 95.4107391,149.297606 95,148"/>
      </g>
    </g>
  </g>
</svg>
